<svg width="477" height="625" viewBox="0 0 477 625" fill="none" xmlns="http://www.w3.org/2000/svg">
<path d="M49.5697 291.913C69.2238 315.108 109.202 362.636 111.881 367.178L146.497 331.758C126.793 315.349 84.0296 280.102 70.6067 270.387C57.1838 260.671 60.7616 270.69 64.2284 276.913C50.1465 267.482 53.5934 277.862 57.0771 284.231C39.9357 276.759 44.9299 286.239 49.5697 291.913Z" fill="#C03226"/>
<path fill-rule="evenodd" clip-rule="evenodd" d="M306.086 591.116L284.627 594.376L284.627 594.375L257.237 598.536C252.638 590.767 250.381 574.451 278.143 571.332C278.657 571.274 279.16 571.217 279.654 571.161L265.672 505.895L298.245 500.947L306.086 591.116Z" fill="#C03226"/>
<path fill-rule="evenodd" clip-rule="evenodd" d="M252.344 589.641L254.605 589.298L246.763 499.129L214.191 504.077L228.173 569.344C227.679 569.4 227.175 569.457 226.662 569.514C198.9 572.633 201.157 588.95 205.756 596.718L252.345 589.641L252.344 589.641Z" fill="#C03226"/>
<path d="M181.532 78.2264C187.934 48.1603 170.386 55.8737 160.812 63.4886L205.083 326.049L379.09 463.871L452.269 462.794C456.255 412.661 436.036 437.931 425.429 456.832L400.123 448.127C414.087 397.594 388.773 416.852 374.37 432.797L355.296 410.038C395.701 379.36 364.651 377.384 344.075 380.231L334.872 358.203C346.973 308.622 322.018 327.435 308.028 343.039L285.145 339.264C281.308 293.443 265.146 317.762 257.545 335.649L237.219 321.167C261.181 286.517 237.517 293.142 222.689 300.786L214.774 274.38C246.73 251.232 224.072 245.638 208.749 245.735L205.23 222.566C238.293 208.173 216.742 201.668 201.834 200.214L200.613 181.157C230.94 167.85 212.605 161.581 199.646 160.11L199.218 142.606C228.873 130.739 209.532 124.214 196.154 122.435L193.836 107.171C217.632 89.0544 200.199 86.0322 188.508 86.7857L181.532 78.2264Z" fill="#253464"/>
<path d="M126.895 177.053C138.969 174.368 143.882 167.499 144.83 164.4C144.953 208.785 90.6268 324.811 90.52 461.429C90.412 599.633 309.339 518.904 460.593 462.764C276.916 424.214 412.373 343.513 272.175 334.991C191.664 330.097 212.358 142.087 194.967 92.9584C177.576 43.8303 102.795 53.4169 60.7656 66.1841C18.736 78.9512 16.4418 122.205 25.5412 158.764C34.6406 195.322 111.803 180.41 126.895 177.053Z" fill="#E53D30"/>
<mask id="mask0_1_367" style="mask-type:alpha" maskUnits="userSpaceOnUse" x="21" y="55" width="440" height="483">
<path d="M126.896 177.053C138.97 174.368 143.883 167.499 144.831 164.4C144.954 208.785 90.6275 324.81 90.5208 461.428C90.4127 599.633 309.34 518.904 460.593 462.764C276.917 424.213 412.374 343.513 272.176 334.991C191.664 330.096 212.359 142.086 194.968 92.9581C177.576 43.83 102.796 53.4166 60.7664 66.1837C18.7368 78.9508 16.4426 122.204 25.5419 158.763C34.6413 195.322 111.804 180.409 126.896 177.053Z" fill="#E53D30"/>
</mask>
<g mask="url(#mask0_1_367)">
<path d="M204.045 544.368C212.227 352.758 129.174 352.945 86.625 376.99L74.7887 541.311L204.045 544.368Z" fill="#F39077"/>
</g>
<ellipse cx="112.395" cy="70.1442" rx="17.5156" ry="23.034" transform="rotate(-8.63752 112.395 70.1442)" fill="#F5F5F5"/>
<ellipse cx="111.96" cy="79.5033" rx="11.3646" ry="14.9452" transform="rotate(-8.63752 111.96 79.5033)" fill="black"/>
<ellipse cx="73.5145" cy="71.9169" rx="17.5156" ry="23.034" transform="rotate(-8.63752 73.5145 71.9169)" fill="#F5F5F5"/>
<ellipse cx="75.1778" cy="81.5042" rx="11.3646" ry="14.9452" transform="rotate(-8.63752 75.1778 81.5042)" fill="black"/>
<rect x="111.947" y="507.09" width="3.43754" height="17.2493" transform="rotate(160.679 111.947 507.09)" fill="#E53D30"/>
<rect x="161.728" y="517.316" width="3.43754" height="17.2493" transform="rotate(160.679 161.728 517.316)" fill="#E53D30"/>
<rect x="177.55" y="492.403" width="3.43754" height="17.2493" transform="rotate(160.679 177.55 492.403)" fill="#E53D30"/>
<rect x="123.322" y="472.964" width="3.43754" height="17.2493" transform="rotate(178.25 123.322 472.964)" fill="#E53D30"/>
<rect x="130.981" y="508.983" width="3.43754" height="17.2493" transform="rotate(177.626 130.981 508.983)" fill="#E53D30"/>
<rect x="144.589" y="489.611" width="3.43754" height="17.2493" transform="rotate(178.25 144.589 489.611)" fill="#E53D30"/>
<rect x="106.403" y="457.709" width="3.43754" height="17.2493" transform="rotate(169.929 106.403 457.709)" fill="#E53D30"/>
<rect x="108.372" y="413.015" width="3.43754" height="17.2493" transform="rotate(179.239 108.372 413.015)" fill="#E53D30"/>
<rect x="157.576" y="462.807" width="3.43754" height="17.2493" transform="rotate(174.135 157.576 462.807)" fill="#E53D30"/>
<rect x="174.309" y="465.387" width="3.43754" height="17.2493" transform="rotate(174.135 174.309 465.387)" fill="#E53D30"/>
<rect x="142.063" y="437.202" width="3.43754" height="17.2493" transform="rotate(174.135 142.063 437.202)" fill="#E53D30"/>
<rect x="122.619" y="441.791" width="3.43754" height="17.2493" transform="rotate(164.978 122.619 441.791)" fill="#E53D30"/>
<rect x="155.361" y="410.009" width="3.43754" height="17.2493" transform="rotate(-178.667 155.361 410.009)" fill="#E53D30"/>
<rect x="163.813" y="433.486" width="3.43754" height="17.2493" transform="rotate(-178.667 163.813 433.486)" fill="#E53D30"/>
<rect x="183.256" y="524.598" width="3.43754" height="17.2493" transform="rotate(-178.667 183.256 524.598)" fill="#E53D30"/>
<rect x="131.083" y="409.658" width="3.43754" height="17.2493" transform="rotate(166.191 131.083 409.658)" fill="#E53D30"/>
<path d="M27.6181 148.65C33.4495 136.556 46.7342 120.032 53.2974 150.493C53.3272 150.493 53.357 150.494 53.3868 150.494C57.6399 138.332 68.8215 121.539 80.2112 149.72C80.3338 149.711 80.4562 149.701 80.5783 149.692C82.7044 136.727 90.4145 118.896 105.308 146.598C100.112 147.616 91.3549 148.875 80.5783 149.692C80.5409 149.92 80.5052 150.146 80.4713 150.371C80.3846 150.151 80.2979 149.934 80.2112 149.72C72.1655 150.32 63.013 150.671 53.3868 150.494C53.3683 150.547 53.3499 150.6 53.3317 150.653C53.3203 150.599 53.3089 150.546 53.2974 150.493C44.9546 150.337 36.2576 149.783 27.6181 148.65Z" fill="white"/>
<path d="M25.0635 148.204C48.327 152.138 102.273 155.027 131.95 135.112" stroke="black" stroke-width="3"/>
<ellipse cx="321.362" cy="392.365" rx="13.6338" ry="10.9442" transform="rotate(-131.818 321.362 392.365)" fill="#253464"/>
<ellipse cx="284.434" cy="394.382" rx="9.48507" ry="7.61388" transform="rotate(-131.818 284.434 394.382)" fill="#253464"/>
<ellipse cx="297.141" cy="370.288" rx="9.48507" ry="7.61388" transform="rotate(-131.818 297.141 370.288)" fill="#253464"/>
<path d="M183.446 423.081C205.396 402.044 250.389 359.234 254.759 356.282L217.288 323.897C202.115 344.568 169.55 389.408 160.674 403.4C151.798 417.392 161.578 413.208 167.578 409.367C159.026 423.999 169.175 419.924 175.319 416.057C168.91 433.623 178.067 428.059 183.446 423.081Z" fill="#C03226"/>
</svg>
