<svg width="410" height="88" viewBox="0 0 410 88" fill="none" xmlns="http://www.w3.org/2000/svg">
<path d="M44.9276 87.0624C19.3276 87.0624 0.447637 68.8224 0.447637 43.8624C0.447637 19.0624 19.3276 0.662397 44.9276 0.662397C70.5276 0.662397 89.4076 19.0624 89.4076 43.8624C89.4076 68.8224 70.5276 87.0624 44.9276 87.0624ZM44.9276 70.5824C60.2876 70.5824 71.6476 59.0624 71.6476 43.8624C71.6476 28.6624 60.2876 17.1424 44.9276 17.1424C29.7276 17.1424 18.2076 28.6624 18.2076 43.8624C18.2076 59.0624 29.7276 70.5824 44.9276 70.5824ZM148.106 86.4224C142.986 86.4224 138.986 82.2624 138.986 77.4624V10.4224C138.986 5.6224 142.986 1.4624 148.106 1.4624C153.066 1.4624 157.066 5.6224 157.066 10.4224V36.5024H198.826V10.4224C198.826 5.6224 202.986 1.4624 207.946 1.4624C212.906 1.4624 216.906 5.6224 216.906 10.4224V77.4624C216.906 82.2624 212.906 86.4224 207.946 86.4224C202.986 86.4224 198.826 82.2624 198.826 77.4624V52.3424H157.066V77.4624C157.066 82.2624 153.066 86.4224 148.106 86.4224ZM313.138 1.7824C317.618 1.7824 322.258 4.8224 322.258 10.9024V77.3024C322.258 83.2224 317.778 86.4224 313.138 86.4224C308.498 86.4224 303.858 83.2224 303.858 77.3024V68.5024C299.218 79.8624 287.538 87.0624 272.498 87.0624C247.378 87.0624 231.698 67.7024 231.698 43.7024C231.698 19.0624 248.018 0.662397 273.458 0.662397C285.778 0.662397 297.618 6.7424 303.858 17.4624V10.9024C303.858 4.8224 308.498 1.7824 313.138 1.7824ZM277.138 70.5824C292.658 70.5824 303.698 59.0624 303.698 43.8624C303.698 28.8224 292.658 17.3024 277.138 17.3024C261.458 17.3024 250.258 28.3424 250.258 43.8624C250.258 59.5424 261.458 70.5824 277.138 70.5824ZM404.21 81.1424C397.49 84.9824 389.33 87.0624 381.01 87.0624C359.57 87.0624 337.49 73.3024 337.49 43.8624C337.49 14.2624 359.57 0.982403 380.85 0.982403C389.33 0.982403 397.49 3.0624 404.21 6.9024C407.73 8.9824 409.33 12.0224 409.33 15.0624C409.33 18.9024 406.77 22.4224 402.77 22.4224C401.65 22.4224 400.37 22.1024 398.93 21.3024C394.29 18.9024 388.85 17.6224 383.57 17.6224C369.49 17.6224 355.73 25.9424 355.73 44.0224C355.73 60.9824 368.85 70.2624 383.25 70.2624C388.37 70.2624 393.81 69.1424 398.77 66.5824C400.05 65.9424 401.17 65.6224 402.29 65.6224C406.29 65.6224 409.01 69.3024 409.01 73.3024C409.01 76.1824 407.57 79.2224 404.21 81.1424Z" fill="white"/>
</svg>
