<svg width="409" height="87" viewBox="0 0 409 87" fill="none" xmlns="http://www.w3.org/2000/svg">
<g clip-path="url(#clip0_329_363)">
<path fill-rule="evenodd" clip-rule="evenodd" d="M2.97694 43.2C2.97694 66.2383 20.292 83.091 44.1381 83.091C67.9842 83.091 85.2992 66.2383 85.2992 43.2C85.2992 20.3133 67.9768 3.30903 44.1381 3.30903C20.2994 3.30903 2.97694 20.3133 2.97694 43.2ZM73.6296 43.2C73.6296 59.9155 61.0359 72.6915 44.1381 72.6915C27.4108 72.6915 14.6465 59.9273 14.6465 43.2C14.6465 26.4727 27.4108 13.7085 44.1381 13.7085C61.0359 13.7085 73.6296 26.4845 73.6296 43.2ZM152.438 38.8735V10.0171C152.438 6.86354 149.767 4.10288 146.524 4.10288C143.087 4.10288 140.451 6.89808 140.451 10.0171V76.5417C140.451 79.6607 143.087 82.4559 146.524 82.4559C149.767 82.4559 152.438 79.6952 152.438 76.5417V48.6379H199.831V76.5417C199.831 79.6268 202.592 82.4559 205.904 82.4559C209.147 82.4559 211.818 79.6952 211.818 76.5417V10.0171C211.818 6.86354 209.147 4.10288 205.904 4.10288C202.592 4.10288 199.831 6.932 199.831 10.0171V38.8735H152.438ZM155.415 76.5417C155.415 81.3048 151.446 85.4328 146.524 85.4328C141.443 85.4328 137.474 81.3048 137.474 76.5417V10.0171C137.474 5.25397 141.443 1.12594 146.524 1.12594C151.446 1.12594 155.415 5.25397 155.415 10.0171V35.8966H196.854V10.0171C196.854 5.25397 200.982 1.12594 205.904 1.12594C210.826 1.12594 214.795 5.25397 214.795 10.0171V76.5417C214.795 81.3048 210.826 85.4328 205.904 85.4328C200.982 85.4328 196.854 81.3048 196.854 76.5417V51.6148H155.415V76.5417ZM298.322 66.5249L304.055 67.6506V76.3829C304.055 80.2821 306.974 82.4559 310.286 82.4559C313.53 82.4559 316.359 80.3433 316.359 76.3829V10.4934C316.359 8.30148 315.553 6.86125 314.507 5.93667C313.404 4.96164 311.866 4.42043 310.286 4.42043C308.605 4.42043 307.027 4.97523 305.914 5.94793C304.859 6.86944 304.055 8.30282 304.055 10.4934V28.0347L298.505 18.5006C292.903 8.87717 282.196 3.30903 270.911 3.30903C259.042 3.30903 249.487 7.58286 242.888 14.5627C236.272 21.5615 232.449 31.4752 232.449 43.0412C232.449 54.3095 236.127 64.3278 242.58 71.4933C249.003 78.6262 258.312 83.091 269.959 83.091C283.933 83.091 294.265 76.4561 298.322 66.5249ZM301.078 76.3829C301.078 82.2574 305.682 85.4328 310.286 85.4328C314.891 85.4328 319.336 82.2574 319.336 76.3829V10.4934C319.336 4.46012 314.732 1.44349 310.286 1.44349C305.682 1.44349 301.078 4.46012 301.078 10.4934V17.003C300.194 15.4843 299.196 14.0595 298.101 12.7327C291.521 4.76568 281.391 0.332096 270.911 0.332096C245.667 0.332096 229.472 18.5906 229.472 43.0412C229.472 66.8567 245.032 86.0679 269.959 86.0679C282.316 86.0679 292.388 81.1695 298.101 73.0851C299.287 71.4059 300.286 69.5893 301.078 67.6506V76.3829ZM303.896 43.2C303.896 59.8797 291.655 72.6915 274.563 72.6915C266.068 72.6915 258.624 69.6897 253.295 64.406C247.965 59.1199 244.913 51.7099 244.913 43.2C244.913 26.1197 257.395 13.8672 274.563 13.8672C291.643 13.8672 303.896 26.6672 303.896 43.2ZM395.419 20.8134C396.848 21.6073 398.118 21.9248 399.23 21.9248C403.199 21.9248 405.739 18.4319 405.739 14.6214C405.739 11.6048 404.152 8.58814 400.659 6.52412C393.99 2.71364 385.893 0.64964 377.478 0.64964C356.362 0.64964 334.452 13.8275 334.452 43.2C334.452 72.4137 356.362 86.0679 377.637 86.0679C385.893 86.0679 393.99 84.0039 400.659 80.1934C403.993 78.2882 405.422 75.2715 405.422 72.4137C405.422 68.4444 402.723 64.7927 398.753 64.7927C397.642 64.7927 396.531 65.1103 395.26 65.7453C390.339 68.2857 384.94 69.3971 379.86 69.3971C365.57 69.3971 352.551 60.1884 352.551 43.3588C352.551 25.4178 366.206 17.1617 380.177 17.1617C385.417 17.1617 390.815 18.4319 395.419 20.8134ZM396.826 18.1896L396.865 18.2111C397.928 18.802 398.705 18.9479 399.23 18.9479C401.084 18.9479 402.762 17.3014 402.762 14.6214C402.762 12.7599 401.823 10.6768 399.162 9.09789C392.986 5.57333 385.413 3.62658 377.478 3.62658C367.502 3.62658 357.472 6.744 349.985 13.1692C342.568 19.5341 337.428 29.326 337.428 43.2C337.428 56.9928 342.568 66.8723 350.018 73.3413C357.533 79.8665 367.602 83.091 377.637 83.091C385.416 83.091 392.997 81.1426 399.182 77.6087C401.568 76.245 402.445 74.2267 402.445 72.4137C402.445 69.5488 400.586 67.7697 398.753 67.7697C398.247 67.7697 397.602 67.9048 396.607 68.4006C391.222 71.1757 385.354 72.374 379.86 72.374C372.098 72.374 364.544 69.8743 358.888 64.9305C353.181 59.9425 349.574 52.6067 349.574 43.3588C349.574 33.5547 353.343 26.1498 359.217 21.2469C365.016 16.4069 372.643 14.1848 380.177 14.1848C385.874 14.1848 391.743 15.5605 396.787 18.1693L396.826 18.1896ZM0 43.2C0 67.9681 18.7349 86.0679 44.1381 86.0679C69.5413 86.0679 88.2761 67.9681 88.2761 43.2C88.2761 18.5906 69.5413 0.332096 44.1381 0.332096C18.7349 0.332096 0 18.5906 0 43.2ZM70.6527 43.2C70.6527 58.2832 59.38 69.7146 44.1381 69.7146C29.0549 69.7146 17.6235 58.2832 17.6235 43.2C17.6235 28.1168 29.0549 16.6854 44.1381 16.6854C59.38 16.6854 70.6527 28.1168 70.6527 43.2ZM300.919 43.2C300.919 58.2832 289.964 69.7146 274.563 69.7146C259.004 69.7146 247.89 58.7595 247.89 43.2C247.89 27.7993 259.004 16.8442 274.563 16.8442C289.964 16.8442 300.919 28.2756 300.919 43.2Z" fill="white"/>
</g>
<defs>
<clipPath id="clip0_329_363">
<rect width="408.88" height="86.4" fill="white"/>
</clipPath>
</defs>
</svg>
