<svg width="428" height="91" viewBox="0 0 428 91" fill="none" xmlns="http://www.w3.org/2000/svg">
<path d="M47.0976 88.4996C21.4237 88.4996 2.67164 70.2995 2.67164 45.4096H-1.32836C-1.32836 72.6237 19.3315 92.4996 47.0976 92.4996V88.4996ZM2.67164 45.4096C2.67164 20.6819 21.4287 2.31958 47.0976 2.31958V-1.68042C19.3266 -1.68042 -1.32836 18.3673 -1.32836 45.4096H2.67164ZM47.0976 2.31958C72.7666 2.31958 91.5236 20.6819 91.5236 45.4096H95.5236C95.5236 18.3673 74.8687 -1.68042 47.0976 -1.68042V2.31958ZM91.5236 45.4096C91.5236 70.2995 72.7715 88.4996 47.0976 88.4996V92.4996C74.8638 92.4996 95.5236 72.6237 95.5236 45.4096H91.5236ZM47.0976 75.2986C64.2421 75.2986 76.9866 62.3712 76.9866 45.4096H72.9866C72.9866 60.1779 62.0172 71.2986 47.0976 71.2986V75.2986ZM76.9866 45.4096C76.9866 28.4479 64.2421 15.5206 47.0976 15.5206V19.5206C62.0172 19.5206 72.9866 30.6412 72.9866 45.4096H76.9866ZM47.0976 15.5206C30.1281 15.5206 17.2086 28.44 17.2086 45.4096H21.2086C21.2086 30.6492 32.3372 19.5206 47.0976 19.5206V15.5206ZM17.2086 45.4096C17.2086 62.3792 30.1281 75.2986 47.0976 75.2986V71.2986C32.3372 71.2986 21.2086 60.17 21.2086 45.4096H17.2086ZM164.142 37.7276H162.142V39.7276H164.142V37.7276ZM207.729 37.7276V39.7276H209.729V37.7276H207.729ZM207.729 54.2606H209.729V52.2606H207.729V54.2606ZM164.142 54.2606V52.2606H162.142V54.2606H164.142ZM154.79 87.8316C150.551 87.8316 147.271 84.385 147.271 80.4796H143.271C143.271 86.5942 148.342 91.8316 154.79 91.8316V87.8316ZM147.271 80.4796V10.5066H143.271V80.4796H147.271ZM147.271 10.5066C147.271 6.60116 150.551 3.15458 154.79 3.15458V-0.845416C148.342 -0.845416 143.271 4.39202 143.271 10.5066H147.271ZM154.79 3.15458C158.84 3.15458 162.142 6.57795 162.142 10.5066H166.142C166.142 4.41523 161.095 -0.845416 154.79 -0.845416V3.15458ZM162.142 10.5066V37.7276H166.142V10.5066H162.142ZM164.142 39.7276H207.729V35.7276H164.142V39.7276ZM209.729 37.7276V10.5066H205.729V37.7276H209.729ZM209.729 10.5066C209.729 6.62394 213.153 3.15458 217.248 3.15458V-0.845416C210.99 -0.845416 205.729 4.36923 205.729 10.5066H209.729ZM217.248 3.15458C221.298 3.15458 224.6 6.57795 224.6 10.5066H228.6C228.6 4.41523 223.553 -0.845416 217.248 -0.845416V3.15458ZM224.6 10.5066V80.4796H228.6V10.5066H224.6ZM224.6 80.4796C224.6 84.4082 221.298 87.8316 217.248 87.8316V91.8316C223.553 91.8316 228.6 86.571 228.6 80.4796H224.6ZM217.248 87.8316C213.153 87.8316 209.729 84.3622 209.729 80.4796H205.729C205.729 86.6169 210.99 91.8316 217.248 91.8316V87.8316ZM209.729 80.4796V54.2606H205.729V80.4796H209.729ZM207.729 52.2606H164.142V56.2606H207.729V52.2606ZM162.142 54.2606V80.4796H166.142V54.2606H162.142ZM162.142 80.4796C162.142 84.4082 158.84 87.8316 154.79 87.8316V91.8316C161.095 91.8316 166.142 86.571 166.142 80.4796H162.142ZM317.356 71.1276H319.356L315.504 70.3713L317.356 71.1276ZM317.356 17.8546L315.627 18.8607L319.356 25.2661V17.8546H317.356ZM327.042 3.48859C328.948 3.48859 330.841 4.13878 332.23 5.367C333.582 6.56132 334.561 8.38867 334.561 11.0076H338.561C338.561 7.28051 337.118 4.34835 334.879 2.36968C332.679 0.424902 329.812 -0.51141 327.042 -0.51141V3.48859ZM334.561 11.0076V80.3126H338.561V11.0076H334.561ZM334.561 80.3126C334.561 85.2056 330.971 87.8316 327.042 87.8316V91.8316C332.799 91.8316 338.561 87.7776 338.561 80.3126H334.561ZM327.042 87.8316C323.067 87.8316 319.356 85.1645 319.356 80.3126H315.356C315.356 87.8187 321.331 91.8316 327.042 91.8316V87.8316ZM319.356 80.3126V71.1276H315.356V80.3126H319.356ZM315.504 70.3713C311.029 81.327 299.683 88.4996 284.624 88.4996V92.4996C300.96 92.4996 313.996 84.6421 319.207 71.8838L315.504 70.3713ZM284.624 88.4996C272.063 88.4996 261.963 83.675 254.985 75.9265C247.988 68.1561 244.039 57.3379 244.039 45.2426H240.039C240.039 58.1972 244.273 70.0075 252.013 78.6032C259.773 87.2207 270.966 92.4996 284.624 92.4996V88.4996ZM244.039 45.2426C244.039 32.8265 248.146 22.1088 255.328 14.5107C262.499 6.92546 272.855 2.31958 285.626 2.31958V-1.68042C271.844 -1.68042 260.406 3.31621 252.422 11.7629C244.449 20.1969 240.039 31.9407 240.039 45.2426H244.039ZM285.626 2.31958C297.853 2.31958 309.511 8.3531 315.627 18.8607L319.084 16.8485C312.175 4.97808 299.117 -1.68042 285.626 -1.68042V2.31958ZM319.356 17.8546V11.0076H315.356V17.8546H319.356ZM319.356 11.0076C319.356 8.38957 320.334 6.56683 321.698 5.37456C323.103 4.14791 325.037 3.48859 327.042 3.48859V-0.51141C324.203 -0.51141 321.295 0.415768 319.067 2.36211C316.799 4.34285 315.356 7.27961 315.356 11.0076H319.356ZM289.467 75.2986C306.802 75.2986 319.189 62.3472 319.189 45.4096H315.189C315.189 60.202 304.53 71.2986 289.467 71.2986V75.2986ZM319.189 45.4096C319.189 28.631 306.794 15.6876 289.467 15.6876V19.6876C304.537 19.6876 315.189 30.7922 315.189 45.4096H319.189ZM289.467 15.6876C272.02 15.6876 259.411 28.0822 259.411 45.4096H263.411C263.411 30.339 274.181 19.6876 289.467 19.6876V15.6876ZM259.411 45.4096C259.411 54.0831 262.517 61.5803 267.893 66.9115C273.268 72.2411 280.803 75.2986 289.467 75.2986V71.2986C281.765 71.2986 275.272 68.5945 270.71 64.0712C266.15 59.5493 263.411 53.1021 263.411 45.4096H259.411ZM422.099 84.3206L421.106 82.5841L422.099 84.3206ZM422.099 6.83259L423.116 5.11073L423.104 5.10332L423.091 5.0961L422.099 6.83259ZM416.588 21.8626L417.559 20.1143L417.533 20.0998L417.507 20.0862L416.588 21.8626ZM416.421 69.1236L415.526 67.3347L415.515 67.3405L415.503 67.3463L416.421 69.1236ZM421.106 82.5841C414.418 86.4063 406.247 88.4996 397.884 88.4996V92.4996C406.888 92.4996 415.752 90.2509 423.091 86.0571L421.106 82.5841ZM397.884 88.4996C387.1 88.4996 376.232 85.0361 368.091 77.9674C359.994 70.9366 354.46 60.2267 354.46 45.4096H350.46C350.46 61.3205 356.449 73.1556 365.469 80.9878C374.445 88.7821 386.29 92.4996 397.884 92.4996V88.4996ZM354.46 45.4096C354.46 30.5078 359.994 19.8869 368.062 12.9637C376.176 5.99989 387.002 2.65359 397.717 2.65359V-1.34641C386.22 -1.34641 374.418 2.23779 365.457 9.92824C356.448 17.6592 350.46 29.4164 350.46 45.4096H354.46ZM397.717 2.65359C406.251 2.65359 414.421 4.74852 421.106 8.56907L423.091 5.0961C415.749 0.900648 406.885 -1.34641 397.717 -1.34641V2.65359ZM421.081 8.55444C424.205 10.4004 425.443 12.9498 425.443 15.3496H429.443C429.443 11.4034 427.34 7.60674 423.116 5.11073L421.081 8.55444ZM425.443 15.3496C425.443 18.5981 423.35 21.0316 420.596 21.0316V25.0316C426.191 25.0316 429.443 20.117 429.443 15.3496H425.443ZM420.596 21.0316C419.821 21.0316 418.817 20.8129 417.559 20.1143L415.616 23.6109C417.365 24.5823 419.032 25.0316 420.596 25.0316V21.0316ZM417.507 20.0862C412.369 17.4285 406.374 16.0216 400.556 16.0216V20.0216C405.76 20.0216 411.121 21.2866 415.669 23.639L417.507 20.0862ZM400.556 16.0216C392.839 16.0216 385.091 18.2988 379.234 23.187C373.327 28.1175 369.498 35.5811 369.498 45.5766H373.498C373.498 36.7011 376.85 30.3872 381.797 26.2579C386.795 22.0864 393.576 20.0216 400.556 20.0216V16.0216ZM369.498 45.5766C369.498 54.9873 373.158 62.3894 378.907 67.4147C384.623 72.4104 392.292 74.9646 400.222 74.9646V70.9646C393.121 70.9646 386.428 68.6758 381.54 64.403C376.685 60.1598 373.498 53.8679 373.498 45.5766H369.498ZM400.222 74.9646C405.848 74.9646 411.846 73.7353 417.338 70.9008L415.503 67.3463C410.641 69.8559 405.284 70.9646 400.222 70.9646V74.9646ZM417.315 70.9124C418.472 70.3339 419.33 70.1216 420.095 70.1216V66.1216C418.521 66.1216 417.041 66.5772 415.526 67.3347L417.315 70.9124ZM420.095 70.1216C422.835 70.1216 425.109 72.7046 425.109 76.1376H429.109C429.109 71.2206 425.705 66.1216 420.095 66.1216V70.1216ZM425.109 76.1376C425.109 78.4417 423.977 80.944 421.106 82.5841L423.091 86.0571C427.235 83.6892 429.109 79.8455 429.109 76.1376H425.109Z" fill="white"/>
</svg>
