<svg width="410" height="87" viewBox="0 0 410 87" fill="none" xmlns="http://www.w3.org/2000/svg">
<path d="M44.9276 84.4296C20.3737 84.4296 2.44764 67.0275 2.44764 43.2296H-1.55236C-1.55236 69.3517 18.2815 88.4296 44.9276 88.4296V84.4296ZM2.44764 43.2296C2.44764 19.5869 20.3787 2.02958 44.9276 2.02958V-1.97042C18.2766 -1.97042 -1.55236 17.2723 -1.55236 43.2296H2.44764ZM44.9276 2.02958C69.4766 2.02958 87.4076 19.5869 87.4076 43.2296H91.4076C91.4076 17.2723 71.5787 -1.97042 44.9276 -1.97042V2.02958ZM87.4076 43.2296C87.4076 67.0275 69.4815 84.4296 44.9276 84.4296V88.4296C71.5738 88.4296 91.4076 69.3517 91.4076 43.2296H87.4076ZM44.9276 71.9496C61.4001 71.9496 73.6476 59.5262 73.6476 43.2296H69.6476C69.6476 57.3329 59.1752 67.9496 44.9276 67.9496V71.9496ZM73.6476 43.2296C73.6476 26.9329 61.4001 14.5096 44.9276 14.5096V18.5096C59.1752 18.5096 69.6476 29.1262 69.6476 43.2296H73.6476ZM44.9276 14.5096C28.6231 14.5096 16.2076 26.925 16.2076 43.2296H20.2076C20.2076 29.1342 30.8322 18.5096 44.9276 18.5096V14.5096ZM16.2076 43.2296C16.2076 59.5342 28.6231 71.9496 44.9276 71.9496V67.9496C30.8322 67.9496 20.2076 57.325 20.2076 43.2296H16.2076ZM157.066 35.8696H155.066V37.8696H157.066V35.8696ZM198.826 35.8696V37.8696H200.826V35.8696H198.826ZM198.826 51.7096H200.826V49.7096H198.826V51.7096ZM157.066 51.7096V49.7096H155.066V51.7096H157.066ZM148.106 83.7896C144.091 83.7896 140.986 80.525 140.986 76.8296H136.986C136.986 82.7342 141.882 87.7896 148.106 87.7896V83.7896ZM140.986 76.8296V9.78959H136.986V76.8296H140.986ZM140.986 9.78959C140.986 6.09416 144.091 2.82958 148.106 2.82958V-1.17042C141.882 -1.17042 136.986 3.88502 136.986 9.78959H140.986ZM148.106 2.82958C151.939 2.82958 155.066 6.07095 155.066 9.78959H159.066C159.066 3.90823 154.194 -1.17042 148.106 -1.17042V2.82958ZM155.066 9.78959V35.8696H159.066V9.78959H155.066ZM157.066 37.8696H198.826V33.8696H157.066V37.8696ZM200.826 35.8696V9.78959H196.826V35.8696H200.826ZM200.826 9.78959C200.826 6.11694 204.068 2.82958 207.946 2.82958V-1.17042C201.905 -1.17042 196.826 3.86223 196.826 9.78959H200.826ZM207.946 2.82958C211.779 2.82958 214.906 6.07095 214.906 9.78959H218.906C218.906 3.90823 214.034 -1.17042 207.946 -1.17042V2.82958ZM214.906 9.78959V76.8296H218.906V9.78959H214.906ZM214.906 76.8296C214.906 80.5482 211.779 83.7896 207.946 83.7896V87.7896C214.034 87.7896 218.906 82.711 218.906 76.8296H214.906ZM207.946 83.7896C204.068 83.7896 200.826 80.5022 200.826 76.8296H196.826C196.826 82.7569 201.905 87.7896 207.946 87.7896V83.7896ZM200.826 76.8296V51.7096H196.826V76.8296H200.826ZM198.826 49.7096H157.066V53.7096H198.826V49.7096ZM155.066 51.7096V76.8296H159.066V51.7096H155.066ZM155.066 76.8296C155.066 80.5482 151.939 83.7896 148.106 83.7896V87.7896C154.194 87.7896 159.066 82.711 159.066 76.8296H155.066ZM303.858 67.8696H305.858L302.006 67.1133L303.858 67.8696ZM303.858 16.8296L302.129 17.8357L305.858 24.2411V16.8296H303.858ZM313.138 3.14959C314.946 3.14959 316.739 3.76653 318.053 4.92825C319.329 6.05607 320.258 7.78367 320.258 10.2696H324.258C324.258 6.67551 322.866 3.8431 320.702 1.93093C318.577 0.0526516 315.809 -0.85041 313.138 -0.85041V3.14959ZM320.258 10.2696V76.6696H324.258V10.2696H320.258ZM320.258 76.6696C320.258 81.3036 316.864 83.7896 313.138 83.7896V87.7896C318.692 87.7896 324.258 83.8756 324.258 76.6696H320.258ZM313.138 83.7896C309.366 83.7896 305.858 81.2625 305.858 76.6696H301.858C301.858 83.9167 307.63 87.7896 313.138 87.7896V83.7896ZM305.858 76.6696V67.8696H301.858V76.6696H305.858ZM302.006 67.1133C297.734 77.572 286.899 84.4296 272.498 84.4296V88.4296C288.176 88.4296 300.701 80.8871 305.709 68.6258L302.006 67.1133ZM272.498 84.4296C260.486 84.4296 250.833 79.8167 244.164 72.4112C237.475 64.9839 233.698 54.6399 233.698 43.0696H229.698C229.698 55.4992 233.76 66.8353 241.191 75.0879C248.643 83.3625 259.389 88.4296 272.498 88.4296V84.4296ZM233.698 43.0696C233.698 31.1925 237.626 20.9455 244.491 13.6835C251.344 6.43421 261.243 2.02958 273.458 2.02958V-1.97042C260.232 -1.97042 249.251 2.82496 241.584 10.9357C233.929 19.0337 229.698 30.3067 229.698 43.0696H233.698ZM273.458 2.02958C285.145 2.02958 296.286 7.7971 302.129 17.8357L305.586 15.8235C298.95 4.42208 286.41 -1.97042 273.458 -1.97042V2.02958ZM305.858 16.8296V10.2696H301.858V16.8296H305.858ZM305.858 10.2696C305.858 7.78457 306.785 6.06158 308.073 4.93581C309.401 3.77566 311.234 3.14959 313.138 3.14959V-0.85041C310.401 -0.85041 307.594 0.0435183 305.442 1.92336C303.251 3.8376 301.858 6.67461 301.858 10.2696H305.858ZM277.138 71.9496C293.794 71.9496 305.698 59.5022 305.698 43.2296H301.698C301.698 57.357 291.521 67.9496 277.138 67.9496V71.9496ZM305.698 43.2296C305.698 27.109 293.786 14.6696 277.138 14.6696V18.6696C291.529 18.6696 301.698 29.2702 301.698 43.2296H305.698ZM277.138 14.6696C260.377 14.6696 248.258 26.5812 248.258 43.2296H252.258C252.258 28.838 262.538 18.6696 277.138 18.6696V14.6696ZM248.258 43.2296C248.258 51.5601 251.241 58.7651 256.409 63.8898C261.576 69.0129 268.817 71.9496 277.138 71.9496V67.9496C269.778 67.9496 263.579 65.3663 259.226 61.0494C254.874 56.7341 252.258 50.5791 252.258 43.2296H248.258ZM404.21 80.5096L403.218 78.7731L404.21 80.5096ZM404.21 6.26959L405.228 4.54773L405.215 4.54032L405.202 4.5331L404.21 6.26959ZM398.93 20.6696L399.901 18.9213L399.875 18.9068L399.849 18.8932L398.93 20.6696ZM398.77 65.9496L397.876 64.1607L397.864 64.1665L397.853 64.1723L398.77 65.9496ZM403.218 78.7731C396.823 82.4273 389.01 84.4296 381.01 84.4296V88.4296C389.651 88.4296 398.157 86.2719 405.202 82.2461L403.218 78.7731ZM381.01 84.4296C370.695 84.4296 360.304 81.1166 352.521 74.3594C344.783 67.6401 339.49 57.4027 339.49 43.2296H335.49C335.49 58.4965 341.237 69.8591 349.899 77.3798C358.517 84.8626 369.885 88.4296 381.01 88.4296V84.4296ZM339.49 43.2296C339.49 28.9753 344.783 18.8234 352.493 12.2073C360.249 5.55064 370.601 2.34959 380.85 2.34959V-1.65041C369.819 -1.65041 358.491 1.78854 349.888 9.17186C341.237 16.5957 335.49 27.8839 335.49 43.2296H339.49ZM380.85 2.34959C389.013 2.34959 396.826 4.35352 403.218 8.00607L405.202 4.5331C398.154 0.505648 389.647 -1.65041 380.85 -1.65041V2.34959ZM403.193 7.99144C406.163 9.74643 407.33 12.1628 407.33 14.4296H411.33C411.33 10.6164 409.298 6.95274 405.228 4.54773L403.193 7.99144ZM407.33 14.4296C407.33 17.5101 405.349 19.7896 402.77 19.7896V23.7896C408.191 23.7896 411.33 19.029 411.33 14.4296H407.33ZM402.77 19.7896C402.045 19.7896 401.096 19.5849 399.901 18.9213L397.959 22.4179C399.644 23.3543 401.256 23.7896 402.77 23.7896V19.7896ZM399.849 18.8932C394.914 16.3405 389.157 14.9896 383.57 14.9896V18.9896C388.543 18.9896 393.666 20.1986 398.011 22.446L399.849 18.8932ZM383.57 14.9896C376.161 14.9896 368.718 17.1758 363.089 21.8741C357.409 26.6148 353.73 33.7896 353.73 43.3896H357.73C357.73 34.9096 360.932 28.8844 365.652 24.9451C370.422 20.9634 376.899 18.9896 383.57 18.9896V14.9896ZM353.73 43.3896C353.73 52.4293 357.247 59.5444 362.774 64.3755C368.268 69.1769 375.635 71.6296 383.25 71.6296V67.6296C376.465 67.6296 370.073 65.4423 365.406 61.3637C360.774 57.3148 357.73 51.3099 357.73 43.3896H353.73ZM383.25 71.6296C388.652 71.6296 394.413 70.4493 399.687 67.7268L397.853 64.1723C393.208 66.5699 388.088 67.6296 383.25 67.6296V71.6296ZM399.665 67.7384C400.766 67.1879 401.575 66.9896 402.29 66.9896V62.9896C400.765 62.9896 399.335 63.4312 397.876 64.1607L399.665 67.7384ZM402.29 66.9896C404.855 66.9896 407.01 69.4116 407.01 72.6696H411.01C411.01 67.9276 407.725 62.9896 402.29 62.9896V66.9896ZM407.01 72.6696C407.01 74.8477 405.941 77.217 403.218 78.7731L405.202 82.2461C409.199 79.9622 411.01 76.2515 411.01 72.6696H407.01Z" fill="white"/>
</svg>
