<svg width="435" height="684" viewBox="0 0 435 684" fill="none" xmlns="http://www.w3.org/2000/svg">
<path d="M46.436 280.631C76.6947 302.215 138.669 346.092 144.497 348.923L103.698 393.118C81.8069 370.924 34.7489 322.727 21.641 307.489C8.53319 292.252 21.1912 295.712 29.1587 299.346C16.346 283.299 29.4393 286.573 37.5875 290.216C26.9359 270.357 39.0483 275.551 46.436 280.631Z" fill="#EEB00F"/>
<path fill-rule="evenodd" clip-rule="evenodd" d="M298.315 683.166L301.471 683.163L309.36 577.144L263.894 577.187L269.518 655.383C268.832 655.361 268.133 655.339 267.42 655.316C228.895 654.078 228.611 673.41 233.285 683.23L298.315 683.169L298.315 683.166Z" fill="#ECBC40"/>
<path fill-rule="evenodd" clip-rule="evenodd" d="M223.571 675.374L226.724 675.371L234.614 569.352L189.147 569.395L194.772 647.589C194.086 647.567 193.388 647.545 192.676 647.522C154.151 646.284 153.867 665.616 158.541 675.436L223.571 675.374L223.571 675.374Z" fill="#ECBC40"/>
<path d="M255.027 128.248C337.43 60.934 267.674 63.3233 222.496 72.9322L235.424 574.74L488.544 588.756C495.943 523.773 455.682 552.21 434.626 574.551C460.695 490.927 396.104 518.998 360.55 543.487C430.326 456.045 351.122 473.813 302.798 493.627C426.512 419.181 342.455 416.702 284.962 424.768C381.506 377.666 319.5 363.239 276.43 361.913C383.726 336.666 316.397 316.778 269.32 309.99C380.006 285.286 312.576 259.158 265.026 249.181C379.072 193.863 308.738 182.405 259.316 183.59C358.703 157.258 297.868 135.724 255.027 128.248Z" fill="#EB5D3A"/>
<path d="M171.341 51.3638C229.252 50.4332 252.051 77.9234 256.212 91.7848C267.858 209.123 295.646 453.511 313.627 492.361C331.608 531.21 459.674 577.593 521.46 595.929C387.897 606.039 112.696 616.494 80.4017 577.43C48.1069 538.365 58.7485 441.676 68.1061 398.215L141.905 197.368C118.586 199.085 63.3486 200.118 28.9541 190.517C-5.4405 180.917 -1.24076 156.612 5.15841 145.66C0.537499 43.8631 98.9515 52.527 171.341 51.3638Z" fill="#FCC537"/>
<mask id="mask0_1_411" style="mask-type:alpha" maskUnits="userSpaceOnUse" x="0" y="51" width="522" height="555">
<path d="M171.34 51.3638C229.252 50.4332 252.051 77.9234 256.211 91.7848C267.858 209.123 295.646 453.511 313.627 492.361C331.608 531.21 459.674 577.593 521.46 595.929C387.896 606.039 112.696 616.494 80.4015 577.43C48.1067 538.365 58.7483 441.676 68.1059 398.215L141.905 197.368C118.586 199.085 63.3483 200.118 28.9538 190.517C-5.44074 180.917 -1.241 156.612 5.15816 145.66C0.537255 43.8631 98.9512 52.527 171.34 51.3638Z" fill="#FCC537"/>
</mask>
<g mask="url(#mask0_1_411)">
<path d="M191.361 607.677C196.989 406.576 102.85 398.622 55.0775 419.782L47.983 607.813L191.361 607.677Z" fill="#FDCF8C"/>
</g>
<ellipse cx="24.9708" cy="31.7795" rx="24.9708" ry="31.7795" transform="matrix(-1 0.000947909 0.000947909 1 177.406 10.0984)" fill="#F5F5F5"/>
<ellipse cx="16.2018" cy="20.6195" rx="16.2018" ry="20.6195" transform="matrix(-1 0.000947909 0.000947909 1 168.658 32.4259)" fill="black"/>
<ellipse cx="24.9708" cy="31.7795" rx="24.9708" ry="31.7795" transform="matrix(-1 0.000947909 0.000947909 1 120.614 0.692749)" fill="#F5F5F5"/>
<ellipse cx="16.2018" cy="20.6195" rx="16.2018" ry="20.6195" transform="matrix(-1 0.000947909 0.000947909 1 111.865 23.0211)" fill="black"/>
<path d="M43.0646 152.53C29.722 74.1106 6.47761 142.5 4.32917 145.972C74.0566 162.287 112.279 157.091 122.674 152.454C142.295 170.829 177.724 194.533 162.47 142.352C182.326 156.099 216.072 171.106 192.214 121.154C185.05 129.837 161.112 148.253 122.674 152.454C97.6712 105.558 83.8092 135.023 80.0036 155.618C68.4851 110.097 50.5782 134.592 43.0646 152.53Z" fill="white"/>
<path d="M4.44921 145.988C51.4383 158.964 156.349 170.473 200.078 112.699" stroke="black" stroke-width="3"/>
<ellipse cx="16.8575" cy="13.0957" rx="16.8575" ry="13.0957" transform="matrix(-1 0.000947909 0.000947909 1 343.05 551.028)" fill="#EB5D3A"/>
<ellipse cx="11.7278" cy="9.11068" rx="11.7278" ry="9.11068" transform="matrix(-1 0.000947909 0.000947909 1 309.306 520.503)" fill="#EB5D3A"/>
<ellipse cx="11.7278" cy="9.11068" rx="11.7278" ry="9.11068" transform="matrix(-1 0.000947909 0.000947909 1 297.608 551.072)" fill="#EB5D3A"/>
<rect width="4.89533" height="23.8262" transform="matrix(-0.98391 -0.178666 -0.190401 0.981706 84.3247 436.788)" fill="#FCC537"/>
<rect width="4.89844" height="23.8101" transform="matrix(-0.993126 0.117047 0.124793 0.992183 107.705 480.957)" fill="#FCC537"/>
<rect width="4.89883" height="23.8081" transform="matrix(-0.994306 0.106562 0.113627 0.993523 110.743 430.236)" fill="#FCC537"/>
<rect width="4.89844" height="23.8101" transform="matrix(-0.993126 0.117047 0.124793 0.992183 130.548 460.13)" fill="#FCC537"/>
<rect width="4.90058" height="23.799" transform="matrix(-0.999729 -0.0232667 -0.0249058 0.99969 87.1436 499.848)" fill="#FCC537"/>
<rect width="4.89776" height="23.8136" transform="matrix(-0.991029 0.133647 0.14246 0.989801 87.926 543.955)" fill="#FCC537"/>
<rect width="4.90032" height="23.8004" transform="matrix(-0.998859 0.0477614 0.0509244 0.998702 158.167 487.664)" fill="#FCC537"/>
<rect width="4.90032" height="23.8004" transform="matrix(-0.998859 0.0477614 0.0509244 0.998702 141.82 525.82)" fill="#FCC537"/>
<rect width="4.89876" height="23.8085" transform="matrix(-0.99429 -0.106708 -0.113907 0.993491 113.429 523.615)" fill="#FCC537"/>
<rect width="4.89602" height="23.8226" transform="matrix(-0.985674 0.168661 0.179668 0.983727 166.419 560.134)" fill="#FCC537"/>
<rect width="4.89602" height="23.8226" transform="matrix(-0.985674 0.168661 0.179668 0.983727 173.272 526.351)" fill="#FCC537"/>
<rect width="4.89942" height="23.805" transform="matrix(-0.996268 -0.0863153 -0.0921764 0.995743 132.28 565.677)" fill="#FCC537"/>
<path d="M165.106 436.028C183.416 404.254 220.577 339.219 222.744 333.267L273.192 366.857C253.202 390.674 209.731 441.935 195.764 456.442C181.798 470.949 183.748 458.36 186.469 450.252C171.635 464.578 173.34 451.595 176.047 443.313C157.034 456.045 160.831 443.761 165.106 436.028Z" fill="#EEB00F"/>
</svg>
