<svg width="306" height="405" viewBox="0 0 306 405" fill="none" xmlns="http://www.w3.org/2000/svg">
<path d="M41.0322 237.383C56.9838 256.209 89.4309 294.783 91.6056 298.47L119.7 269.722C103.708 256.405 69.0004 227.798 58.1062 219.912C47.2119 212.027 50.1157 220.158 52.9295 225.209C41.5003 217.555 44.2979 225.979 47.1253 231.148C33.213 225.084 37.2664 232.778 41.0322 237.383Z" fill="#C03226"/>
<path d="M148.135 63.9509C153.331 39.5488 139.089 45.809 131.318 51.9895L167.249 265.089L308.477 376.948L367.871 376.074C371.106 335.385 354.696 355.894 346.086 371.235L325.548 364.17C336.882 323.156 316.335 338.786 304.646 351.728L289.165 333.256C321.959 308.357 296.758 306.753 280.058 309.064L272.589 291.186C282.41 250.945 262.156 266.214 250.802 278.878L232.229 275.815C229.115 238.625 215.998 258.363 209.829 272.88L193.332 261.127C212.78 233.004 193.573 238.381 181.539 244.585L175.115 223.153C201.051 204.366 182.662 199.826 170.225 199.904L167.368 181.1C194.203 169.418 176.712 164.138 164.613 162.958L163.621 147.492C188.236 136.691 173.354 131.603 162.837 130.409L162.49 116.203C186.557 106.571 170.86 101.276 160.003 99.8316L158.121 87.4426C177.435 72.7392 163.286 70.2863 153.797 70.8978L148.135 63.9509Z" fill="#253464"/>
<path d="M103.791 144.162C113.59 141.983 117.578 136.408 118.347 133.892C118.447 169.916 74.3544 264.085 74.2678 374.967C74.1801 487.136 251.865 421.615 374.626 376.051C225.551 344.762 335.49 279.264 221.703 272.347C156.358 268.375 173.154 115.782 159.039 75.9087C144.924 36.0354 84.2305 43.816 50.1185 54.1781C16.0064 64.5402 14.1444 99.6457 21.5297 129.317C28.9149 158.989 91.5415 146.886 103.791 144.162Z" fill="#E53D30"/>
<mask id="mask0_1_811" style="mask-type:alpha" maskUnits="userSpaceOnUse" x="17" y="45" width="358" height="392">
<path d="M103.792 144.162C113.591 141.983 117.579 136.408 118.348 133.892C118.448 169.916 74.3554 264.085 74.2687 374.967C74.1811 487.136 251.866 421.615 374.627 376.051C225.552 344.762 335.491 279.264 221.704 272.347C156.359 268.375 173.155 115.782 159.04 75.9087C144.925 36.0354 84.2315 43.816 50.1195 54.1781C16.0074 64.5402 14.1454 99.6457 21.5306 129.317C28.9159 158.989 91.5425 146.886 103.792 144.162Z" fill="#E53D30"/>
</mask>
<g mask="url(#mask0_1_811)">
<path d="M166.408 442.283C173.048 286.768 105.641 286.92 71.1071 306.435L61.5005 439.801L166.408 442.283Z" fill="#F39077"/>
</g>
<ellipse cx="92.0221" cy="57.3906" rx="14.216" ry="18.6949" transform="rotate(-8.63752 92.0221 57.3906)" fill="#E0E0E0"/>
<ellipse cx="91.6694" cy="64.9866" rx="9.22376" ry="12.1298" transform="rotate(-8.63752 91.6694 64.9866)" fill="black"/>
<ellipse cx="60.4654" cy="58.8295" rx="14.216" ry="18.6949" transform="rotate(-8.63752 60.4654 58.8295)" fill="#E0E0E0"/>
<ellipse cx="61.8158" cy="66.6097" rx="9.22376" ry="12.1298" transform="rotate(-8.63752 61.8158 66.6097)" fill="black"/>
<rect x="91.6592" y="412.025" width="2.78998" height="13.9999" transform="rotate(160.679 91.6592 412.025)" fill="#E53D30"/>
<rect x="144.904" y="400.106" width="2.78998" height="13.9999" transform="rotate(160.679 144.904 400.106)" fill="#E53D30"/>
<rect x="100.891" y="384.329" width="2.78998" height="13.9999" transform="rotate(178.25 100.891 384.329)" fill="#E53D30"/>
<rect x="107.107" y="413.562" width="2.78998" height="13.9999" transform="rotate(177.626 107.107 413.562)" fill="#E53D30"/>
<rect x="118.151" y="397.839" width="2.78998" height="13.9999" transform="rotate(178.25 118.151 397.839)" fill="#E53D30"/>
<rect x="87.1582" y="371.947" width="2.78998" height="13.9999" transform="rotate(169.929 87.1582 371.947)" fill="#E53D30"/>
<rect x="88.7573" y="335.671" width="2.78998" height="13.9999" transform="rotate(179.239 88.7573 335.671)" fill="#E53D30"/>
<rect x="128.692" y="376.084" width="2.78998" height="13.9999" transform="rotate(174.135 128.692 376.084)" fill="#E53D30"/>
<rect x="142.273" y="378.178" width="2.78998" height="13.9999" transform="rotate(174.135 142.273 378.178)" fill="#E53D30"/>
<rect x="116.102" y="355.303" width="2.78998" height="13.9999" transform="rotate(174.135 116.102 355.303)" fill="#E53D30"/>
<rect x="100.32" y="359.027" width="2.78998" height="13.9999" transform="rotate(164.978 100.32 359.027)" fill="#E53D30"/>
<rect x="126.895" y="333.234" width="2.78998" height="13.9999" transform="rotate(-178.667 126.895 333.234)" fill="#E53D30"/>
<rect x="133.754" y="352.287" width="2.78998" height="13.9999" transform="rotate(-178.667 133.754 352.287)" fill="#E53D30"/>
<rect x="107.19" y="332.948" width="2.78998" height="13.9999" transform="rotate(166.191 107.19 332.948)" fill="#E53D30"/>
<path d="M23.2158 121.108C27.9487 111.293 38.7308 97.882 44.0577 122.604C44.0819 122.605 44.1061 122.605 44.1302 122.606C47.5821 112.735 56.6574 99.1052 65.9015 121.977C66.001 121.969 66.1003 121.962 66.1994 121.954C67.925 111.432 74.1827 96.9597 86.2703 119.443C82.053 120.27 74.9459 121.291 66.1994 121.954C66.169 122.139 66.1401 122.323 66.1126 122.506C66.0422 122.327 65.9718 122.151 65.9015 121.977C59.3714 122.464 51.9431 122.749 44.1302 122.606C44.1152 122.649 44.1003 122.691 44.0855 122.734C44.0763 122.691 44.067 122.647 44.0577 122.604C37.2865 122.478 30.2278 122.028 23.2158 121.108Z" fill="white"/>
<path d="M21.1421 120.746C40.0232 123.939 83.807 126.284 107.893 110.12" stroke="black" stroke-width="3"/>
<ellipse cx="261.624" cy="318.912" rx="11.0655" ry="8.88252" transform="rotate(-131.818 261.624 318.912)" fill="#253464"/>
<ellipse cx="231.652" cy="320.549" rx="7.69827" ry="6.17957" transform="rotate(-131.818 231.652 320.549)" fill="#253464"/>
<ellipse cx="241.966" cy="300.994" rx="7.69827" ry="6.17957" transform="rotate(-131.818 241.966 300.994)" fill="#253464"/>
<path d="M149.689 343.842C167.504 326.769 204.021 292.023 207.568 289.627L177.155 263.343C164.841 280.12 138.41 316.512 131.206 327.869C124.002 339.225 131.94 335.829 136.81 332.712C129.869 344.588 138.106 341.28 143.093 338.142C137.891 352.399 145.322 347.882 149.689 343.842Z" fill="#C03226"/>
</svg>
