<svg width="379" height="206" viewBox="0 0 379 206" fill="none" xmlns="http://www.w3.org/2000/svg">
<path d="M165.69 31.9761C114.044 13.7215 82.9518 45.5186 73.8616 63.6989C54.3828 54.7942 12.7537 48.5609 2.06822 94.8648C-8.6173 141.169 36.2025 153.487 59.9481 153.858C55.6813 167.586 57.9445 196.823 101.132 203.946C144.319 211.07 162.166 188.363 165.69 176.119C232.92 235.78 278.667 186.137 293.137 153.858C298.146 159.98 394.984 154.971 375.505 85.4037C359.922 29.7499 304.825 34.0167 279.224 43.1068C281.821 39.3966 276.33 26.9673 233.588 6.93204C190.846 -13.1032 170.514 15.2801 165.69 31.9761Z" fill="#B9F7FF"/>
</svg>
