<svg width="279" height="153" viewBox="0 0 279 153" fill="none" xmlns="http://www.w3.org/2000/svg">
<path d="M122.427 24.351C84.3562 10.8948 61.4371 34.3337 54.7363 47.7351C40.3777 41.1711 9.69126 36.5763 1.81453 70.7088C-6.06221 104.841 26.9763 113.921 44.4801 114.195C41.3349 124.314 43.0032 145.866 74.8383 151.117C106.673 156.368 119.829 139.63 122.427 130.605C171.985 174.583 205.707 137.989 216.373 114.195C220.066 118.708 291.448 115.015 277.09 63.7346C265.603 22.7099 224.989 25.8551 206.117 32.5558C208.032 29.8209 203.984 20.6588 172.477 5.88996C140.97 -8.87885 125.982 12.0436 122.427 24.351Z" fill="#B9F7FF"/>
</svg>
