<svg width="327" height="137" viewBox="0 0 327 137" fill="none" xmlns="http://www.w3.org/2000/svg">
<path d="M49.2941 20.9844C26.9471 26.4157 30.6718 43.6153 35.3275 51.5362C21.9083 52.6678 -3.61558 60.2492 1.64252 81.5224C6.90062 102.795 47.6509 108.114 67.3687 108.114C87.7439 150.66 142.132 136.403 166.78 123.955C234.478 151.113 264.547 112.64 271.12 90.009C291.933 90.1976 331.917 83.446 325.344 54.9309C318.772 26.4159 276.597 27.208 256.332 31.1684C218.21 -6.85169 190.605 3.634 181.568 13.6294C176.639 10.0461 161.357 2.42704 139.668 0.616558C117.978 -1.19392 106.531 13.4407 103.518 20.9844C94.7547 18.7213 71.6411 15.553 49.2941 20.9844Z" fill="#B9F7FF"/>
</svg>
