<svg width="203" height="124" viewBox="0 0 203 124" fill="none" xmlns="http://www.w3.org/2000/svg">
<path d="M30.0959 18.9991C16.1955 23.9051 18.5123 39.4408 21.4083 46.5954C13.0612 47.6175 -2.81528 54.4655 0.455391 73.6807C3.72606 92.8959 29.0738 97.6997 41.3388 97.6997C54.0126 136.13 87.8436 123.252 103.175 112.009C145.285 136.539 163.989 101.788 168.077 81.3464C181.024 81.5167 205.894 75.4183 201.806 49.6617C197.718 23.9052 171.484 24.6207 158.879 28.198C135.166 -6.14409 117.995 3.32723 112.374 12.3556C109.307 9.11905 99.802 2.23703 86.3105 0.601692C72.819 -1.03364 65.6984 12.1853 63.8246 18.9991C58.3735 16.955 43.9963 14.0932 30.0959 18.9991Z" fill="#B9F7FF"/>
</svg>
