<svg width="408" height="396" viewBox="0 0 408 396" fill="none" xmlns="http://www.w3.org/2000/svg">
<path d="M225.687 185.083H204.213L204.213 207.129V316.457V343.068L204.213 353.422H255.77V348.883C255.77 348.883 256.723 340.972 238.161 336.759C220.893 332.839 212.706 325 212.706 316.457C212.766 285.674 212.85 220.712 212.706 207.129C212.562 193.546 221.3 186.772 225.687 185.083Z" fill="#8AD9D9"/>
<path d="M182.738 185.083H204.213L204.213 207.129V316.457V343.068L204.213 353.422H152.656V348.883C152.656 348.883 151.703 340.972 170.265 336.759C187.532 332.839 195.72 325 195.72 316.457C195.66 285.674 195.576 220.712 195.72 207.129C195.864 193.546 187.126 186.772 182.738 185.083Z" fill="#8AD9D9"/>
<path d="M318.167 107.549C318.167 133.226 315.784 156.454 293.971 172.86C273.53 188.234 234.658 197.609 204.213 197.609C173.767 197.609 139.579 188.234 119.138 172.86C97.3243 156.454 90.2588 133.226 90.2588 107.549C90.2588 107.545 141.278 107.553 204.213 107.553L318.167 107.549Z" fill="#8AD9D9"/>
<mask id="mask0_165_156" style="mask-type:alpha" maskUnits="userSpaceOnUse" x="90" y="107" width="229" height="91">
<path d="M318.167 107.549C318.167 133.226 315.784 156.454 293.971 172.86C273.53 188.234 234.658 197.609 204.213 197.609C173.767 197.609 139.579 188.234 119.138 172.86C97.3243 156.454 90.2588 133.226 90.2588 107.549C90.2588 107.545 141.278 107.553 204.213 107.553L318.167 107.549Z" fill="#B0F2E6"/>
</mask>
<g mask="url(#mask0_165_156)">
<path d="M318.167 137.888C318.167 154.915 315.784 170.318 293.971 181.197C273.53 191.392 234.658 197.609 204.213 197.609C173.767 197.609 139.579 191.392 119.138 181.197C97.3243 170.318 90.2588 154.915 90.2588 137.888C90.2588 137.885 141.278 137.89 204.213 137.89L318.167 137.888Z" fill="#B0F2E6"/>
</g>
<path d="M285.502 42.2766L269.696 54.5997L262.196 48.1703L257.91 54.5997L249.338 50.0455L241.302 58.3499L233.265 54.5997L224.693 63.7076H219.335V72.8156L207.548 77.6375V85.1382L201.119 94.782L204.065 103.354L198.708 107.64L205.673 115.677L216.388 138.715L201.119 158.806L204.065 160.681L219.335 140.322L249.338 142.733H262.196C263.911 142.733 265.232 138.447 265.679 136.304L273.983 134.697L275.858 122.106L283.627 119.159V107.64L289.52 105.229L285.502 91.5674L291.128 85.1382L285.502 77.6375L291.128 69.601L279.876 63.7076L285.502 42.2766Z" fill="#028A48"/>
<path d="M218.794 137.822L224.717 129.569M270.392 65.929L260.04 80.3532M224.717 129.569H264.2M224.717 129.569L229.578 122.796M234.439 116.024L267.64 112.711M234.439 116.024L239.427 109.073M234.439 116.024L229.578 122.796M248.756 96.0755L267.64 100.328M248.756 96.0755L252.533 90.8134M248.756 96.0755L239.427 109.073M256.309 85.5512L275.896 82.0963M256.309 85.5512L260.04 80.3532M256.309 85.5512L252.533 90.8134M260.04 80.3532L256.309 65.929M260.04 80.3532L252.533 90.8134M252.533 90.8134L243.905 71.0886M252.533 90.8134L239.427 109.073M239.427 109.073C239.427 106.205 232.551 86.6829 229.113 77.2805L239.427 109.073ZM229.578 122.796L210.538 96.0755" stroke="#155C3C"/>
<circle cx="125.578" cy="148.327" r="2.56259" fill="white"/>
<circle cx="145.149" cy="152.791" r="1.64126" fill="white"/>
<circle cx="159.194" cy="163.244" r="2.56259" fill="white"/>
<circle cx="187.054" cy="151.15" r="2.56259" fill="white"/>
<circle cx="175.542" cy="147.176" r="1.41148" fill="white"/>
<circle cx="237.939" cy="156.275" r="2.56259" fill="white"/>
<circle cx="287.012" cy="162.5" r="1.81862" fill="white"/>
<circle cx="259.284" cy="166.029" r="1.70985" fill="white"/>
<circle cx="271.32" cy="152.579" r="1.22057" fill="white"/>
</svg>
