<svg width="408" height="396" viewBox="0 0 408 396" fill="none" xmlns="http://www.w3.org/2000/svg">
<path fill-rule="evenodd" clip-rule="evenodd" d="M210.125 228.023H198.301V344.215C182.585 346.402 140.962 352.693 140.962 357.958C140.962 364.448 169.28 369.709 204.213 369.709C239.145 369.709 267.464 364.448 267.464 357.958C267.464 352.693 225.841 346.402 210.125 344.215V228.023Z" fill="#3BCD6D"/>
<path d="M204.213 232.374V89.7976H312.238C321.102 143.554 308.397 158.363 290.078 165.159C271.759 171.955 254.918 161.614 247.827 198.251C242.154 227.561 216.387 233.212 204.213 232.374Z" fill="#3BCD6D"/>
<path d="M204.213 232.374V89.7976H96.1877C87.3237 143.554 100.029 158.363 118.348 165.159C136.666 171.955 153.508 161.614 160.599 198.251C166.272 227.561 192.039 233.212 204.213 232.374Z" fill="#3BCD6D"/>
<mask id="mask0_165_156" style="mask-type:alpha" maskUnits="userSpaceOnUse" x="93" y="89" width="223" height="144">
<path d="M204.213 232.374V89.7976H312.238C321.102 143.554 308.397 158.363 290.078 165.159C271.759 171.955 254.918 161.614 247.827 198.251C242.154 227.561 216.387 233.212 204.213 232.374Z" fill="#F5F5F5"/>
<path d="M204.213 232.374V89.7976H96.1877C87.3237 143.554 100.029 158.363 118.348 165.159C136.666 171.955 153.508 161.614 160.599 198.251C166.272 227.561 192.039 233.212 204.213 232.374Z" fill="#F5F5F5"/>
</mask>
<g mask="url(#mask0_165_156)">
<rect x="86.1489" y="116.074" width="235.34" height="116.376" fill="#FFEA2E"/>
</g>
<rect x="267.464" y="46.6121" width="11.1681" height="158.78" transform="rotate(25.1874 267.464 46.6121)" fill="#C82016"/>
<mask id="mask1_165_156" style="mask-type:alpha" maskUnits="userSpaceOnUse" x="195" y="55" width="79" height="149">
<rect x="263.286" y="55.4951" width="11.1681" height="158.78" transform="rotate(25.1874 263.286 55.4951)" fill="#C82016"/>
</mask>
<g mask="url(#mask1_165_156)">
<rect width="4.11626" height="30.3802" transform="matrix(-0.071707 0.997426 -0.99915 0.0412328 245.854 137.061)" fill="#FFFEFE"/>
<rect width="4.11626" height="30.3802" transform="matrix(-0.071707 0.997426 -0.99915 0.0412328 239.471 154.108)" fill="#FFFEFE"/>
<rect width="4.11626" height="30.3802" transform="matrix(-0.071707 0.997426 -0.99915 0.0412328 229.34 175.649)" fill="#FFFEFE"/>
<rect width="4.11626" height="30.3802" transform="matrix(-0.071707 0.997426 -0.99915 0.0412328 258.983 119.576)" fill="#FFFEFE"/>
<rect width="4.11626" height="30.3802" transform="matrix(-0.071707 0.997426 -0.99915 0.0412328 277.628 69.4985)" fill="#FFFEFE"/>
<rect width="4.11626" height="30.3802" transform="matrix(-0.071707 0.997426 -0.99915 0.0412328 265.259 102.754)" fill="#FFFEFE"/>
<rect width="4.11626" height="30.3802" transform="matrix(-0.071707 0.997426 -0.99915 0.0412328 271.353 86.3191)" fill="#FFFEFE"/>
</g>
<path d="M154.84 109.439C149.35 120.882 154.605 134.815 166.577 140.558C178.548 146.301 192.703 141.68 198.193 130.236C203.683 118.793 190.165 102.468 178.193 96.725C166.221 90.9819 160.329 97.9954 154.84 109.439Z" fill="#EF4823"/>
<path d="M175.532 109.157C182.388 107.722 179.444 102.941 177.114 100.73C171.759 96.8481 169.812 99.1949 169.508 100.854C168.659 104.219 168.676 110.592 175.532 109.157Z" fill="#AC4027"/>
<path d="M171.659 51.5697C174.257 49.723 177.525 91.1026 174.434 103.874L171.967 102.69C179.287 63.5069 166.074 57.2363 167.064 56.5494L171.659 51.5697Z" fill="#191718"/>
<circle cx="173.834" cy="191.866" r="2.37667" fill="white"/>
<circle cx="184.912" cy="173.433" r="3.35768" fill="white"/>
<circle cx="190.959" cy="208.685" r="4.7529" fill="white"/>
<circle cx="210.326" cy="195.048" r="2.80556" fill="white"/>
<circle cx="236.641" cy="201.843" r="2.08882" fill="white"/>
<circle cx="216.406" cy="215.505" r="2.68677" fill="white"/>
</svg>
