<svg width="408" height="396" viewBox="0 0 408 396" fill="none" xmlns="http://www.w3.org/2000/svg">
<path d="M204.213 75.4692H175.617C166.897 111.436 158.768 197.89 196.009 255.97C197.187 258.374 199.573 265.329 199.693 273.917V348.739C198.943 353.511 199.199 357.984 181.989 361.102C169.12 363.434 162.982 368.157 162.982 370.881H204.213V359.034V348.739V300.958V255.97V75.4692Z" fill="#F75D2C"/>
<path d="M204.213 75.4692H232.809C241.529 111.436 249.658 197.89 212.416 255.97C211.239 258.374 208.853 265.329 208.733 273.917V348.739C209.483 353.511 209.226 357.984 226.437 361.102C239.306 363.434 245.444 368.157 245.444 370.881H204.213V359.034V348.739V300.958V255.97V75.4692Z" fill="#F75D2C"/>
<mask id="mask0_165_156" style="mask-type:alpha" maskUnits="userSpaceOnUse" x="162" y="75" width="84" height="296">
<path d="M204.213 75.4692H175.617C166.897 111.436 158.768 197.89 196.009 255.97C197.187 258.374 199.573 265.329 199.693 273.917V348.739C198.943 353.511 199.199 357.984 181.989 361.102C169.12 363.434 162.982 368.157 162.982 370.881H204.213V359.034V348.739V300.958V255.97V75.4692Z" fill="#F75D2C"/>
<path d="M204.213 75.4692H232.809C241.529 111.436 249.658 197.89 212.416 255.97C211.239 258.374 208.853 265.329 208.733 273.917V348.739C209.483 353.511 209.226 357.984 226.437 361.102C239.306 363.434 245.444 368.157 245.444 370.881H204.213V359.034V348.739V300.958V255.97V75.4692Z" fill="#F75D2C"/>
</mask>
<g mask="url(#mask0_165_156)">
<rect x="162.982" y="90.1558" width="82.4618" height="151.513" fill="#FFEA2E"/>
</g>
<path d="M204.932 24.8179C195.54 26.473 178.084 35.5813 183.395 58.7736C188.705 81.9658 226.62 61.4239 228.76 58.7736C230.9 56.1232 232.124 53.773 228.76 48.816C224.556 42.6198 175.207 46.6031 191.804 89.9768C192.911 89.9768 194.681 96.173 203.754 93.9601C212.827 91.7471 225.148 87.5425 215.04 78.4695C204.932 69.3964 181.403 92.6323 177.862 112.106C174.322 131.58 204.639 139.104 218.581 127.597C232.522 116.09 214.819 107.016 201.763 122.728C188.706 138.44 198.221 161.455 215.04 155.259" stroke="#C20C39" stroke-width="2"/>
<circle cx="194.82" cy="107.479" r="1.70747" fill="white"/>
<circle cx="188.7" cy="116.844" r="2.7055" fill="white"/>
<circle cx="221.289" cy="105.772" r="1.70747" fill="white"/>
<circle cx="226.536" cy="131.386" r="1.70747" fill="white"/>
<circle cx="216.451" cy="139.925" r="3.13079" fill="white"/>
<circle cx="177.578" cy="129.679" r="1.70747" fill="white"/>
<circle cx="193.113" cy="154.586" r="1.70747" fill="white"/>
<circle cx="218.159" cy="161.232" r="1.70747" fill="white"/>
</svg>
