<svg width="408" height="396" viewBox="0 0 408 396" fill="none" xmlns="http://www.w3.org/2000/svg">
<path d="M251.394 109.786H192.866L192.866 236.955L192.864 350.376H221.815C224.383 266.648 224.383 273.839 242.361 231.205C256.744 197.098 254.376 136.048 251.394 109.786Z" fill="#87EF76"/>
<path d="M134.334 109.786H192.861L192.861 236.955L192.864 350.376H163.913C161.345 266.648 161.345 273.839 143.366 231.205C128.984 197.098 131.352 136.048 134.334 109.786Z" fill="#87EF76"/>
<path d="M220.743 85.2637L213.891 134.083L226.576 137.75C228.016 129.278 231.185 109.208 232.338 96.6981C233.778 81.0613 239.035 72.0269 245.899 69.9404C252.508 67.9312 278.234 67.9424 291.317 68.7731L293.29 54.7191C283.817 54.1435 260.754 53.8473 244.284 57.2678C227.814 60.6882 221.728 77.3569 220.743 85.2637Z" fill="#F25E53"/>
<mask id="mask0_165_156" style="mask-type:alpha" maskUnits="userSpaceOnUse" x="132" y="109" width="122" height="242">
<path d="M251.394 109.786H192.866L192.866 236.955L192.864 350.376H221.815C224.383 266.648 224.383 273.839 242.361 231.205C256.744 197.098 254.376 136.048 251.394 109.786Z" fill="#87EF76"/>
<path d="M134.334 109.786H192.861L192.861 236.955L192.864 350.376H163.913C161.345 266.648 161.345 273.839 143.366 231.205C128.984 197.098 131.352 136.048 134.334 109.786Z" fill="#87EF76"/>
</mask>
<g mask="url(#mask0_165_156)">
<rect x="119.21" y="126.323" width="147.309" height="207.516" fill="#8DC73F"/>
</g>
<path d="M199.062 139.337C204.226 127.69 204.049 101.995 162.024 92.3852C160.93 110.112 166.807 144.32 199.062 139.337Z" fill="#155C3C"/>
<path d="M191.667 74.1514C203.299 86.4072 221.592 116.536 201.708 139.006C191.187 134.887 174.449 116.15 191.667 74.1514Z" fill="#028A48"/>
</svg>
