<svg width="408" height="396" viewBox="0 0 408 396" fill="none" xmlns="http://www.w3.org/2000/svg">
<path d="M283.288 123.523H131.286V274.821C131.286 316.824 283.288 319.753 283.288 274.821V123.523Z" fill="#AAF0FF"/>
<path d="M283.288 157.294H131.286V266.909C131.286 297.34 283.288 299.462 283.288 266.909V157.294Z" fill="#92CAFF"/>
<path d="M222.377 166.902C204.189 181.776 175.049 176.231 157.291 154.516C139.534 132.802 139.883 103.141 158.071 88.2671C159.704 90.2626 172.463 105.873 190.221 127.587C207.978 149.302 222.377 166.902 222.377 166.902Z" fill="#FEDC01"/>
<path d="M222.002 166.609C197.446 171.495 186.614 166.744 168.856 145.029C151.099 123.315 148.477 111.555 158.095 88.4698C159.727 90.4653 172.371 105.919 190.129 127.633C207.886 149.348 222.002 166.609 222.002 166.609Z" fill="#F9E900"/>
<path d="M167.063 137.555L189.866 127.163L176.166 148.686L167.063 137.555Z" fill="#FEDC01"/>
<path d="M178.357 151.366L191.552 129.224L193.568 161.974C187.827 160.339 181.035 154.221 178.357 151.366Z" fill="#FEDC01"/>
<path d="M196.996 162.374C196.128 152.482 194.322 132.611 194.04 132.266L219.037 162.833C213.632 163.796 202.091 162.928 196.996 162.374Z" fill="#FEDC01"/>
<path d="M164.577 134.516L187.57 124.354L157.083 117.36C156.349 119.496 161.773 129.687 164.577 134.516Z" fill="#FEDC01"/>
<path d="M157.779 114.27L184.394 120.47L160.69 91.4854C158.47 95.9898 157.824 108.552 157.779 114.27Z" fill="#FEDC01"/>
<path d="M249.431 159.598C249.431 169.052 241.413 176.716 231.523 176.716C221.632 176.716 213.614 169.052 213.614 159.598C213.614 150.144 227.953 143.536 237.843 143.536C247.733 143.536 249.431 150.144 249.431 159.598Z" fill="#EF4823"/>
<path d="M235.625 152.742C231.482 149.57 235 147.307 237.277 146.572C242.125 145.691 242.676 147.894 242.345 149.106C241.831 151.64 239.767 155.915 235.625 152.742Z" fill="#AC4027"/>
<path d="M256.779 115.314C255.629 113.237 240.103 139.975 238.064 149.548H240.102C247.811 120.874 258.705 120.92 258.261 120.139L256.779 115.314Z" fill="#191718"/>
<circle cx="157.625" cy="169.73" r="2.52197" fill="white"/>
<circle cx="190.142" cy="180.222" r="2.52197" fill="white"/>
<circle cx="152.581" cy="186.527" r="2.52197" fill="white"/>
<circle cx="245.647" cy="189.05" r="2.52197" fill="white"/>
<circle cx="273.519" cy="174.194" r="2.52197" fill="white"/>
<circle cx="172.498" cy="182.744" r="1.26123" fill="white"/>
<circle cx="206.026" cy="190.874" r="1.26123" fill="white"/>
<circle cx="252.712" cy="176.438" r="1.26123" fill="white"/>
<circle cx="211.136" cy="184.006" r="1.26123" fill="white"/>
<circle cx="222.376" cy="186.528" r="1.26123" fill="white"/>
</svg>
