<svg width="408" height="396" viewBox="0 0 408 396" fill="none" xmlns="http://www.w3.org/2000/svg">
<path d="M122.994 128.716H285.433L265.472 335.206H148.461L122.994 128.716Z" fill="#F9ED32"/>
<mask id="mask0_165_156" style="mask-type:alpha" maskUnits="userSpaceOnUse" x="122" y="128" width="164" height="208">
<path d="M122.992 128.716H285.432L265.471 335.206H148.46L122.992 128.716Z" fill="#FFF200"/>
</mask>
<g mask="url(#mask0_165_156)">
<path d="M289.899 155.822C289.899 173.244 285.825 227.619 278.34 250.258C263.449 295.295 235.706 308.1 204.213 308.1C172.72 308.1 145.415 295.295 130.523 250.258C123.037 227.619 118.525 173.244 118.525 155.822C118.525 155.822 156.888 155.82 204.212 155.82C251.535 155.82 289.899 155.822 289.899 155.822Z" fill="#62C8AF"/>
</g>
<path d="M150.404 257.934L160.012 216.615L204.212 227.185L193.643 266.1L150.404 257.934Z" fill="#DBF4FF"/>
<path d="M255.138 256.972L217.665 260.337L221.028 223.342L259.943 218.058L255.138 256.972Z" fill="#DBF4FF"/>
<path d="M220.548 212.772L212.38 174.336L247.933 157.042L262.346 198.359L220.548 212.772Z" fill="#DBF4FF"/>
<path d="M177.309 178.88L186.917 140.927L225.352 151.976L207.095 188.008L177.309 178.88Z" fill="#DBF4FF"/>
<path d="M146.559 184.907L167.699 162.807L198.927 196.438L163.855 222.381L146.559 184.907Z" fill="#DBF4FF"/>
<rect x="254.079" y="60.4924" width="7.35611" height="239.329" transform="rotate(14.7507 254.079 60.4924)" fill="#544B31"/>
<path d="M161.469 252.707V236.363L188.711 258.156L161.469 252.707Z" fill="#5E9D8E"/>
<path d="M168.597 210.258C166.197 208.024 161.049 202.811 159.659 199.832L189.452 197.845L168.597 210.258Z" fill="#5E9D8E"/>
<path d="M225.451 252.218L226.693 242.286L251.023 252.218L236.872 254.701L225.451 252.218Z" fill="#5E9D8E"/>
<path d="M229.673 203.557L224.956 197.598H257.231L229.673 203.557Z" fill="#5E9D8E"/>
<path d="M186.473 175.253V166.564L203.106 181.709L186.473 175.253Z" fill="#5E9D8E"/>
<circle cx="210.049" cy="193.294" r="1.63101" fill="white"/>
<circle cx="198.927" cy="201.926" r="1.63101" fill="white"/>
<circle cx="141.677" cy="171.806" r="2.33095" fill="white"/>
<circle cx="151.896" cy="166.564" r="1.49217" fill="white"/>
<circle cx="268.497" cy="202.067" r="1.48972" fill="white"/>
<circle cx="270.828" cy="166.564" r="2.33095" fill="white"/>
<circle cx="1.64245" cy="1.64245" r="1.64245" transform="matrix(1 0 0 -1 262.345 180.434)" fill="white"/>
</svg>
