<svg width="408" height="396" viewBox="0 0 408 396" fill="none" xmlns="http://www.w3.org/2000/svg">
<path d="M287.015 89.4321C247.756 90.03 159.673 90.8671 121.411 89.4321L205.708 188.077V335.745L157.926 350.094V357.268H266.688V350.094L215.871 335.745V188.077L287.015 89.4321Z" fill="#EC2F8A"/>
<mask id="mask0_165_156" style="mask-type:alpha" maskUnits="userSpaceOnUse" x="121" y="89" width="167" height="269">
<path d="M287.015 89.4321C247.756 90.03 159.673 90.8671 121.411 89.4321L205.708 188.077V335.745L157.926 350.094V357.268H266.688V350.094L215.871 335.745V188.077L287.015 89.4321Z" fill="#D9D9D9"/>
</mask>
<g mask="url(#mask0_165_156)">
<path d="M269.178 115.879L222.561 180.45H196.754L141.328 115.879H269.178Z" fill="#F8B2E4"/>
</g>
<path d="M140.153 41.874C153.417 31.8634 156.107 46.045 155.794 54.3871L202.717 124.459L151.414 58.1409C142.134 56.8896 126.889 51.8845 140.153 41.874Z" fill="#B55E0E"/>
<path d="M207.89 130.09C200.639 135.803 191.914 136.821 184.943 127.971C177.971 119.122 178.199 107.317 185.45 101.605C192.702 95.892 204.231 98.4348 211.203 107.284C218.174 116.133 215.142 124.377 207.89 130.09Z" fill="#B42F15"/>
<path d="M191.848 82.1338C196.062 87.3835 193.399 96.5194 185.899 102.54C178.399 108.56 168.904 109.184 164.69 103.935C160.475 98.6849 160.596 86.3807 168.095 80.3606C175.595 74.3405 187.634 76.8841 191.848 82.1338Z" fill="#B42F15"/>
<circle cx="227.302" cy="124.459" r="2.30047" fill="white"/>
<circle cx="251.513" cy="121.356" r="1.49797" fill="white"/>
<circle cx="169.344" cy="121.843" r="1.01132" fill="white"/>
<circle cx="178.008" cy="125.748" r="1.01132" fill="white"/>
<ellipse cx="171.873" cy="134.319" rx="1.51719" ry="1.59495" fill="white"/>
<circle cx="237.904" cy="133.736" r="1.01132" fill="white"/>
<circle cx="220.009" cy="131.713" r="1.01132" fill="white"/>
</svg>
