<svg width="408" height="396" viewBox="0 0 408 396" fill="none" xmlns="http://www.w3.org/2000/svg">
<path d="M150.889 99.9133H253.171V334.414C253.171 339.937 248.694 344.415 243.171 344.415H160.889C155.366 344.415 150.889 339.937 150.889 334.415V99.9133Z" fill="#BEF3FF"/>
<path d="M116.382 139.638C105.571 116.799 118.91 87.8215 146.176 74.9142C173.443 62.0068 204.311 70.0578 215.122 92.8965C212.616 94.0833 193.016 103.356 165.75 116.263C138.484 129.17 116.382 139.638 116.382 139.638Z" fill="#FEDC01"/>
<path d="M116.785 139.323C118.048 112.426 125.815 102.351 153.081 89.4437C180.347 76.5364 193.301 76.8472 214.904 92.8684C212.398 94.0552 192.992 103.248 165.725 116.155C138.459 129.062 116.785 139.323 116.785 139.323Z" fill="#F9E900"/>
<path d="M161.348 89.51L166.285 116.004L147.371 96.1264L161.348 89.51Z" fill="#FEDC01"/>
<path d="M144.006 97.7193L163.697 117.23L128.992 110.846C132.186 105.279 140.332 99.7751 144.006 97.7193Z" fill="#FEDC01"/>
<path d="M127.686 114.321C138.236 115.979 159.444 119.243 159.877 119.038L121.495 137.207C121.89 131.316 125.787 119.496 127.686 114.321Z" fill="#FEDC01"/>
<path d="M165.164 87.7032L169.812 114.335L185.013 84.3271C182.973 83.007 170.931 86.0278 165.164 87.7032Z" fill="#FEDC01"/>
<path d="M188.057 85.8535L174.689 112.026L211.084 94.7974C206.958 91.3122 194.014 87.3827 188.057 85.8535Z" fill="#FEDC01"/>
<path d="M150.53 119.69H252.812V314.638C252.812 320.161 248.335 324.638 242.812 324.638H160.53C155.007 324.638 150.53 320.161 150.53 314.638V119.69Z" fill="#F35248"/>
<rect x="221.219" y="51.5427" width="7.37315" height="286.209" transform="rotate(3.91645 221.219 51.5427)" fill="#3C181D"/>
<rect x="235.735" y="51.2837" width="7.37315" height="286.209" transform="rotate(1.43343 235.735 51.2837)" fill="#3C181D"/>
<path d="M195.897 128.47C188.381 136.852 175.178 137.273 166.409 129.409C157.64 121.545 156.625 108.376 164.141 99.9933C171.658 91.611 189.625 97.1517 198.394 105.015C207.163 112.879 203.414 120.088 195.897 128.47Z" fill="#9A3822"/>
<circle cx="163.681" cy="142.29" r="2.96742" fill="white"/>
<circle cx="174.647" cy="157.093" r="2.28091" fill="white"/>
<circle cx="188.677" cy="147.377" r="1.51848" fill="white"/>
<circle cx="206.77" cy="130.571" r="1.27352" fill="white"/>
<circle cx="200.397" cy="163.443" r="1.27352" fill="white"/>
<circle cx="209.363" cy="154.812" r="1.58601" fill="white"/>
<circle cx="246.501" cy="132.157" r="1.58601" fill="white"/>
<circle cx="228.575" cy="149.582" r="2.28091" fill="white"/>
</svg>
