<svg width="408" height="396" viewBox="0 0 408 396" fill="none" xmlns="http://www.w3.org/2000/svg">
<path d="M284.009 113.707L194.176 113.707L194.176 304.025L194.176 332.367L194.176 348.69H260.884C260.884 339.376 235.737 336.768 218.413 335.464C204.555 334.421 207.821 314.07 211.186 304.025L284.009 113.707Z" fill="#BDB8F6"/>
<path d="M104.344 113.707L194.176 113.707L194.176 304.025L194.176 332.367L194.176 348.69H127.468C127.468 339.376 152.615 336.768 169.939 335.464C183.798 334.421 180.532 314.07 177.166 304.025L104.344 113.707Z" fill="#BDB8F6"/>
<mask id="mask0_165_156" style="mask-type:alpha" maskUnits="userSpaceOnUse" x="104" y="113" width="181" height="236">
<path d="M284.008 113.707L194.175 113.707L194.176 304.025L194.176 332.367L194.176 348.69H260.883C260.883 339.376 235.736 336.768 218.412 335.464C204.554 334.421 207.82 314.07 211.185 304.025L284.008 113.707Z" fill="#BDB8F6"/>
<path d="M104.343 113.707L194.175 113.707L194.175 304.025L194.175 332.367L194.175 348.69H127.467C127.467 339.376 152.614 336.768 169.938 335.464C183.797 334.421 180.531 314.07 177.165 304.025L104.343 113.707Z" fill="#BDB8F6"/>
</mask>
<g mask="url(#mask0_165_156)">
<rect x="104.343" y="148.67" width="179.664" height="165.057" fill="#A832A3"/>
</g>
<circle cx="251.54" cy="109.787" r="52.5426" fill="#F0E04D"/>
<circle cx="251.539" cy="109.786" r="48.0573" fill="#FFF7AF"/>
<line x1="249.134" y1="57.2449" x2="249.132" y2="162.33" stroke="#F0E04D"/>
<path d="M212.454 75.6123L249.616 111.921M249.616 111.921L212.454 145.668M249.616 111.921L295.75 134.562M249.616 111.921L267.557 155.92M249.616 111.921L232.529 155.92M249.616 111.921L300.876 102.097M249.616 111.921L290.197 79.8846M249.616 111.921L274.819 68.3511M249.616 111.921L236.801 63.6519M249.616 111.921L203.482 97.8258M249.616 111.921L203.482 122.602" stroke="#F0E04D"/>
<path d="M233.174 148.661L300.876 47.0083C270.886 52.0523 217.185 84.4107 233.174 148.661Z" fill="#4E7546"/>
<path d="M137.95 146.547C155.631 133.839 199.75 118.062 234.774 156.616C214.709 169.397 167.254 185.277 137.95 146.547Z" fill="#4E7546"/>
<circle cx="138.202" cy="163.969" r="3.24408" fill="white"/>
<circle cx="178.852" cy="196.208" r="2.49356" fill="white"/>
<circle cx="186.299" cy="184.646" r="1.66005" fill="white"/>
<circle cx="147.866" cy="181.594" r="1.39225" fill="white"/>
<circle cx="211.522" cy="175.215" r="1.73387" fill="white"/>
<circle cx="246.898" cy="168.947" r="1.73387" fill="white"/>
<circle cx="232.756" cy="177.708" r="2.49356" fill="white"/>
</svg>
