<svg width="408" height="396" viewBox="0 0 408 396" fill="none" xmlns="http://www.w3.org/2000/svg">
<path d="M163.393 82.3438H245.032L237.415 329.823H170.353L163.393 82.3438Z" fill="#A54338"/>
<mask id="mask0_165_156" style="mask-type:alpha" maskUnits="userSpaceOnUse" x="163" y="82" width="83" height="248">
<path d="M163.393 82.3438H245.032L237.415 329.823H170.353L163.393 82.3438Z" fill="#715538"/>
</mask>
<g mask="url(#mask0_165_156)">
<rect x="160.219" y="282.887" width="87.9868" height="25.1551" fill="#DC5A4C"/>
<rect x="160.219" y="240.735" width="87.9868" height="25.1551" fill="#DC5A4C"/>
<rect x="160.219" y="198.583" width="87.9868" height="25.1551" fill="#DC5A4C"/>
<rect x="160.219" y="156.43" width="87.9868" height="25.1551" fill="#DC5A4C"/>
<rect x="160.219" y="114.278" width="87.9868" height="25.1551" fill="#DC5A4C"/>
</g>
<path d="M179.736 173.538L187.788 135.519L224.829 145.245L215.972 181.052L179.736 173.538Z" fill="#DBF4FF"/>
<path d="M202.283 100.798L210.335 65.8755L242.545 76.0421L227.245 109.197L202.283 100.798Z" fill="#DBF4FF"/>
<path d="M176.514 106.344L194.23 86.009L220.4 116.954L191.009 140.825L176.514 106.344Z" fill="#DBF4FF"/>
<path d="M189.008 168.729V153.69L211.837 173.743L189.008 168.729Z" fill="#5E9D8E"/>
<path d="M194.983 129.67C192.971 127.614 188.657 122.818 187.492 120.076L212.459 118.249L194.983 129.67Z" fill="#5E9D8E"/>
<path d="M209.963 97.4598V89.4648L223.902 103.4L209.963 97.4598Z" fill="#5E9D8E"/>
</svg>
