<svg width="408" height="396" viewBox="0 0 408 396" fill="none" xmlns="http://www.w3.org/2000/svg">
<path fill-rule="evenodd" clip-rule="evenodd" d="M267.948 255.882C290.811 236.621 256.691 146.985 256.691 146.985H180.651H106.487C106.487 146.985 73.2985 236.621 96.1615 255.882C112.635 269.76 141.293 280.241 166.777 283.2V304.152C166.777 304.152 109.308 323.763 102.562 326.509C95.817 329.254 102.562 342.115 102.562 342.115H261.584C261.584 342.115 267.91 330.771 261.584 326.509C255.259 322.246 197.731 304.152 197.731 304.152V282.827C223.151 279.433 252.106 269.228 267.948 255.882Z" fill="#F9ED32"/>
<mask id="mask0_165_156" style="mask-type:alpha" maskUnits="userSpaceOnUse" x="88" y="146" width="188" height="139">
<path d="M256.691 146.985C256.691 146.985 290.811 236.621 267.948 255.882C248.392 272.357 208.856 284.045 180.651 284.045C152.446 284.045 115.718 272.357 96.1615 255.882C73.2985 236.621 106.487 146.985 106.487 146.985C106.487 146.985 119.472 146.985 180.651 146.985C241.83 146.985 256.691 146.985 256.691 146.985Z" fill="#D9D9D9"/>
</mask>
<g mask="url(#mask0_165_156)">
<rect x="85.3787" y="171.314" width="199.39" height="150.918" fill="#8DC63F"/>
</g>
<rect x="260.477" y="66.762" width="7.425" height="220.896" transform="rotate(30.8782 260.477 66.762)" fill="#EEB00F"/>
<path d="M255.806 82.7033C224.305 73.3961 160.334 54.6741 156.468 54.2444C211.881 108.799 288.38 141.052 319.703 150.36L255.806 82.7033Z" fill="#F7382C"/>
<circle cx="135.507" cy="194.91" r="3.62598" fill="white"/>
<circle cx="153.68" cy="205.569" r="2.78711" fill="white"/>
<circle cx="164.228" cy="189.429" r="1.85547" fill="white"/>
<circle cx="108.997" cy="207.424" r="1.85547" fill="white"/>
<circle cx="246.924" cy="198.536" r="1.55615" fill="white"/>
<circle cx="226.428" cy="209.912" r="1.55615" fill="white"/>
<circle cx="118.393" cy="187.373" r="1.55615" fill="white"/>
<circle cx="226.81" cy="190.867" r="1.93799" fill="white"/>
<circle cx="258.556" cy="191.367" r="1.93799" fill="white"/>
<circle cx="204.193" cy="199.468" r="2.78711" fill="white"/>
</svg>
