<svg width="408" height="396" viewBox="0 0 408 396" fill="none" xmlns="http://www.w3.org/2000/svg">
<path d="M140.269 112.002H262.012L212.603 340.429H188.999L140.269 112.002Z" fill="#4CAEE1"/>
<path d="M201.14 316.824L268.071 360.225H134.21L201.14 316.824Z" fill="#4CAEE1"/>
<path d="M236.062 76.8913L280.964 31.3423L285.337 36.2325L241.928 80.153L206.864 250.58L200.359 249.918L236.062 76.8913Z" fill="#253464"/>
<ellipse cx="238.844" cy="82.2517" rx="16.6381" ry="15.4867" transform="rotate(-4.1243 238.844 82.2517)" fill="#253464"/>
<circle cx="217.332" cy="125.671" r="2.18878" fill="white"/>
<circle cx="243.072" cy="118.716" r="2.11337" fill="white"/>
<circle cx="194.906" cy="186.798" r="1.01796" fill="white"/>
<circle cx="171.55" cy="188.828" r="3.04773" fill="white"/>
<circle cx="188.353" cy="202.329" r="2.09985" fill="white"/>
<circle cx="202.644" cy="193.944" r="1.50235" fill="white"/>
<circle cx="227.498" cy="202.086" r="1.85765" fill="white"/>
<path d="M217.332 148.274C193.73 158.973 164.242 144.805 151.468 116.628C138.694 88.4504 147.471 56.9343 171.073 46.2346C172.248 48.8242 181.424 69.0788 194.198 97.2561C206.972 125.433 217.332 148.274 217.332 148.274Z" fill="#FEDC01"/>
<path d="M217.015 147.855C189.457 146.104 179.257 137.97 166.483 109.793C153.709 81.6156 154.247 68.3382 171.041 46.4573C172.215 49.0469 181.313 69.1016 194.087 97.2789C206.861 125.456 217.015 147.855 217.015 147.855Z" fill="#F9E900"/>
<path d="M166.691 101.318L193.942 96.7028L173.239 115.762L166.691 101.318Z" fill="#FEDC01"/>
<path d="M174.816 119.239L195.155 99.3775L188.022 134.857C182.367 131.487 176.862 123.041 174.816 119.239Z" fill="#FEDC01"/>
<path d="M191.564 136.254C193.442 125.465 197.147 103.773 196.944 103.325L214.926 142.99C208.892 142.485 196.837 138.289 191.564 136.254Z" fill="#FEDC01"/>
<path d="M164.903 97.3737L192.29 93.0587L161.777 76.9639C160.389 79.0333 163.283 91.4327 164.903 97.3737Z" fill="#FEDC01"/>
<path d="M163.394 73.8681L190.005 88.0188L172.954 50.407C169.311 54.579 165.062 67.786 163.394 73.8681Z" fill="#FEDC01"/>
<mask id="mask0_165_156" style="mask-type:alpha" maskUnits="userSpaceOnUse" x="134" y="112" width="135" height="249">
<path d="M140.27 112.002H262.013L212.605 340.429H189.001L140.27 112.002Z" fill="#4D9BC4"/>
<path d="M201.142 316.824L268.073 360.225H134.212L201.142 316.824Z" fill="#4D9BC4"/>
</mask>
<g mask="url(#mask0_165_156)">
<rect x="140.271" y="210.651" width="121.743" height="115.737" fill="#AAF0FF"/>
<rect x="140.271" y="133.321" width="121.743" height="44.1623" fill="#AAF0FF"/>
</g>
</svg>
