<svg width="25" height="29" viewBox="0 0 25 29" fill="none" xmlns="http://www.w3.org/2000/svg">
<path fill-rule="evenodd" clip-rule="evenodd" d="M9.50473 11.3207C9.92298 8.29913 10.7069 5.20207 11.0678 3.85981C11.5637 3.76732 12.0727 3.71924 12.5917 3.71924C13.1107 3.71924 13.6197 3.76732 14.1156 3.85981C14.4765 5.20208 15.2604 8.29913 15.6786 11.3207C14.5873 11.5252 13.5223 11.6561 12.5917 11.6561C11.6611 11.6561 10.5961 11.5252 9.50473 11.3207ZM17.1494 11.0072C16.7933 8.48421 16.1999 5.94052 15.7972 4.36073C18.1096 5.31994 20.0332 7.29609 21.1325 9.86314C20.1145 10.202 18.6768 10.6456 17.1494 11.0072ZM17.3306 12.5054C18.991 12.1201 20.5532 11.6376 21.6354 11.2767C21.95 12.3718 22.1209 13.5445 22.1209 14.7653C22.1209 15.4081 22.0735 16.0375 21.9827 16.6494C21.0566 16.9765 19.2159 17.592 17.2107 18.0703C17.3583 16.9314 17.4534 15.7983 17.4534 14.7653C17.4534 14.0482 17.4076 13.2843 17.3306 12.5054ZM16.9734 19.664C18.7472 19.2713 20.4422 18.7513 21.6032 18.365C20.6545 21.5567 18.4887 24.0526 15.7972 25.1697C16.1393 23.8275 16.6187 21.7912 16.9734 19.664ZM15.3983 19.9712C14.9706 22.3735 14.4058 24.5916 14.1156 25.6707C13.6197 25.7632 13.1107 25.8113 12.5917 25.8113C12.0727 25.8113 11.5637 25.7632 11.0678 25.6707C10.7776 24.5916 10.2127 22.3735 9.78507 19.9712C10.7482 20.131 11.7087 20.2337 12.5917 20.2337C13.4746 20.2337 14.4352 20.131 15.3983 19.9712ZM8.20999 19.664C8.56466 21.7912 9.04406 23.8275 9.38616 25.1697C6.69465 24.0526 4.52891 21.5567 3.58018 18.365C4.74115 18.7513 6.43615 19.2713 8.20999 19.664ZM7.97264 18.0703C5.96749 17.592 4.12677 16.9765 3.20065 16.6494C3.10987 16.0375 3.0625 15.4081 3.0625 14.7653C3.0625 13.5445 3.23335 12.3718 3.54793 11.2767C4.63021 11.6376 6.19235 12.1201 7.85276 12.5054C7.7758 13.2843 7.73001 14.0482 7.73001 14.7653C7.73001 15.7983 7.8251 16.9314 7.97264 18.0703ZM1.5625 14.7653C1.5625 13.3075 1.78108 11.9057 2.18414 10.6011L2.17381 10.5939L2.36497 10.0568L2.36515 10.0563C3.70913 6.28018 6.643 3.37335 10.2885 2.49308C11.0317 2.31361 11.8023 2.21924 12.5917 2.21924C13.381 2.21924 14.1517 2.31361 14.8949 2.49308C18.5415 3.37362 21.476 6.28192 22.8194 10.0597C23.3369 11.5148 23.6209 13.1037 23.6209 14.7653C23.6209 15.6476 23.5408 16.5094 23.3882 17.3416C22.5084 22.1396 19.1988 25.9982 14.8949 27.0375C14.1517 27.2169 13.381 27.3113 12.5917 27.3113C11.8023 27.3113 11.0317 27.2169 10.2885 27.0375C5.98457 25.9982 2.67493 22.1396 1.79517 17.3416C1.64257 16.5094 1.5625 15.6476 1.5625 14.7653ZM8.034 11.0072C6.50653 10.6456 5.06886 10.202 4.05085 9.86314C5.15013 7.29608 7.07377 5.31994 9.38619 4.36073C8.98352 5.94052 8.39007 8.48421 8.034 11.0072ZM9.23001 14.7653C9.23001 14.1556 9.26631 13.4978 9.33003 12.8139C10.4444 13.0186 11.5703 13.1561 12.5917 13.1561C13.6131 13.1561 14.739 13.0186 15.8533 12.8139C15.9171 13.4978 15.9534 14.1556 15.9534 14.7653C15.9534 15.8686 15.8346 17.1253 15.6513 18.4035C14.5687 18.6052 13.5138 18.7337 12.5917 18.7337C11.6695 18.7337 10.6146 18.6052 9.53204 18.4035C9.34879 17.1253 9.23001 15.8686 9.23001 14.7653Z" fill="#FAFAFA"/>
</svg>
