<svg width="21" height="24" viewBox="0 0 21 24" fill="none" xmlns="http://www.w3.org/2000/svg">
<path fill-rule="evenodd" clip-rule="evenodd" d="M6.1583 1.39696C5.07684 0.256597 3.41453 0.256597 2.33307 1.39696C2.28878 1.44366 2.2415 1.49793 2.1801 1.5684L1.25756 2.62709C0.329228 3.69241 -0.0604754 5.22815 0.224322 6.69886C1.84018 15.0432 7.51895 21.56 14.7903 23.4143C16.0719 23.7411 17.4102 23.2939 18.3385 22.2286L19.2609 21.17C19.3224 21.0995 19.3697 21.0452 19.4104 20.9943C20.4042 19.7533 20.4042 17.8457 19.4104 16.6046C19.3697 16.5538 19.3224 16.4995 19.2609 16.429L17.7507 14.6959C16.7021 13.4925 15.1185 13.1484 13.7592 13.8284C12.9809 14.2177 12.0744 14.0207 11.474 13.3318L9.01032 10.5045C8.41001 9.81559 8.23832 8.77524 8.57756 7.88216C9.17011 6.32218 8.87021 4.50497 7.82163 3.30165L6.31128 1.56842C6.24988 1.49794 6.20259 1.44366 6.1583 1.39696ZM3.37632 2.69985C3.86789 2.18151 4.62348 2.18151 5.11505 2.69985C5.13202 2.71774 5.15426 2.74299 5.23245 2.83272L6.73136 4.55281C7.33167 5.2417 7.50336 6.28205 7.16412 7.17513C6.57157 8.73511 6.87147 10.5523 7.92005 11.7556L10.3838 14.5829C11.4324 15.7862 13.0159 16.1304 14.3753 15.4504C15.1535 15.0611 16.0601 15.2581 16.6604 15.947L18.1593 17.6671C18.2375 17.7568 18.2595 17.7824 18.2751 17.8018C18.7268 18.366 18.7268 19.233 18.2751 19.7972C18.2595 19.8166 18.2375 19.8422 18.1593 19.9319L17.2482 20.9774C16.6926 21.615 15.8918 21.8826 15.1248 21.687C8.43783 19.9817 3.21547 13.9887 1.72948 6.31502C1.55904 5.43487 1.79226 4.51579 2.34783 3.87825L3.25891 2.83272C3.33711 2.74299 3.35935 2.71774 3.37632 2.69985Z" fill="#FAFAFA"/>
</svg>
