<svg width="234" height="361" viewBox="0 0 234 361" fill="none" xmlns="http://www.w3.org/2000/svg">
<path d="M24.4117 113.655C38.4877 127.843 67.3453 156.722 70.1683 158.735L45.0068 179.395C35.3784 165.559 14.7214 135.553 9.12035 126.211C3.51928 116.869 9.87737 119.78 13.7566 122.404C8.37884 112.646 14.9813 115.493 18.9547 118.136C15.0338 106.485 20.959 110.294 24.4117 113.655Z" fill="#5EA1C9"/>
<path fill-rule="evenodd" clip-rule="evenodd" d="M138.046 363.653H122.121L122.121 363.652H101.794C99.3145 358.255 99.4751 347.635 119.957 348.335C120.335 348.348 120.707 348.36 121.072 348.372L118.121 305.414H142.293L138.046 363.653Z" fill="#253464"/>
<path fill-rule="evenodd" clip-rule="evenodd" d="M94.5596 363.654H96.2363L100.484 305.415H76.3116L79.2624 348.374C78.898 348.362 78.5266 348.35 78.1481 348.337C57.6666 347.637 57.506 358.257 59.986 363.654H94.5596L94.5596 363.654Z" fill="#253464"/>
<path d="M139.231 26.2004C135.093 22.0623 125.191 27.9246 120.757 31.373L104.145 78.895L115.584 263.64L232.435 284.008L264.451 263.64C264.082 259.528 261.153 251.305 252.393 251.305C243.634 251.305 244.585 262.115 246.156 267.521H232.435C235.161 262.762 237.536 252.635 225.228 250.196C212.921 247.756 213.355 259.898 215.11 266.273H204.993C207.996 262.346 211.23 253.855 200.142 251.305C189.054 248.754 186.837 258.373 187.114 263.501L177.828 262.254C180.322 258.419 183.039 250.029 173.947 247.147C164.855 244.264 161.011 252.968 160.226 257.68C155.606 257.172 146.699 255.823 148.029 254.492C149.692 252.829 151.91 249.78 149.554 243.266C147.669 238.055 138.42 241.095 134.031 243.266V235.089C139.159 236.475 149.443 236.641 149.554 226.218C149.665 215.796 138.143 216.794 132.368 218.595L131.12 208.478C136.387 208.663 146.809 207.064 146.366 199.192C145.922 191.319 135.463 192.77 130.289 194.479L128.764 178.402C133.292 178.494 142.208 177.099 141.654 170.779C141.099 164.459 132.275 165.836 127.932 167.314L126.408 158.721C131.351 159.968 141.044 160.135 140.268 150.821C139.492 141.507 129.503 142.505 124.606 144.168L122.804 139.04C127.932 138.671 137.856 136.573 136.526 131.14C135.195 125.707 126.084 126.936 121.696 128.229L120.757 123.741C125.93 123.988 135.906 122.411 134.428 114.135C132.95 105.859 123.22 107.238 118.54 108.962L115.584 91.2277C119.895 92.952 129.181 94.3313 131.841 86.0551C134.501 77.7789 122.112 73.7393 115.584 72.7541L120.757 63.1477C125.314 67.3351 135.388 73.8625 139.231 66.473C143.073 59.0835 133.689 53.7877 128.516 52.0635L131.841 43.9351C142.925 42.4572 144.403 31.373 139.231 26.2004Z" fill="#253464"/>
<path d="M46.7293 29.1884C22.7182 22.3058 13.9866 37.5048 12.6222 45.9646C0.0278406 94.6127 45.2478 90.0775 69.4321 81.729C58.595 163.197 -22.7755 212.764 37.2142 295.302C97.2038 377.839 320.802 247.842 267.356 262.286C224.6 273.842 162.284 257.472 136.47 247.842C133.998 209.314 126.959 124.887 118.581 95.4077C108.108 58.558 157.691 50.6963 118.581 26.6073C79.4719 2.51835 76.7433 37.7916 46.7293 29.1884Z" fill="#6DBBE9"/>
<ellipse cx="13.2759" cy="17.4587" rx="13.2759" ry="17.4587" transform="matrix(-1 0 0 1 104.146 5.97888)" fill="#EAEAEA"/>
<ellipse cx="8.61382" cy="11.3277" rx="8.61382" ry="11.3277" transform="matrix(-1 0 0 1 99.4834 18.2411)" fill="black"/>
<ellipse cx="13.2759" cy="17.4587" rx="13.2759" ry="17.4587" transform="matrix(-1 0 0 1 73.957 0.782776)" fill="#EAEAEA"/>
<ellipse cx="8.61382" cy="11.3277" rx="8.61382" ry="11.3277" transform="matrix(-1 0 0 1 69.2954 13.0463)" fill="black"/>
<path d="M31.687 69.1754C39.4739 40.1326 46.4189 57.0743 48.918 69.1754C34.1861 71.9113 19.8051 67.1586 14.456 64.4402C27.6094 42.132 31.424 58.3019 31.687 69.1754Z" fill="white"/>
<path d="M11.3159 63.2054C19.1538 67.3723 39.8893 74.0394 60.1284 67.3723" stroke="black" stroke-width="3"/>
<mask id="mask0_62_6087" style="mask-type:alpha" maskUnits="userSpaceOnUse" x="10" y="18" width="266" height="305">
<path d="M46.7293 29.1882C22.7182 22.3056 13.9866 37.5046 12.6222 45.9644C0.0278406 94.6125 45.2478 90.0774 69.4321 81.7288C58.595 163.197 -22.7755 212.764 37.2142 295.301C97.2038 377.839 320.802 247.842 267.356 262.286C224.6 273.842 162.284 257.472 136.47 247.842C133.998 209.314 126.959 124.887 118.581 95.4075C108.108 58.5578 157.691 50.6962 118.581 26.6072C79.4719 2.51816 76.7433 37.7914 46.7293 29.1882Z" fill="#6DBBE9"/>
</mask>
<g mask="url(#mask0_62_6087)">
<path d="M74.3708 251.403C74.3708 208.868 40.0561 198.234 22.8988 198.234C1.40486 206.718 -8.77606 330.025 44.3927 318.146C97.5614 306.268 74.3708 304.572 74.3708 251.403Z" fill="#A8E2FB"/>
</g>
<rect width="2.60548" height="13.0741" transform="matrix(-0.982667 -0.185379 -0.185379 0.982667 25.6045 220.299)" fill="#253464"/>
<rect width="2.60549" height="13.0741" transform="matrix(-0.992784 0.119918 0.119918 0.992784 38.7095 245.502)" fill="#253464"/>
<rect width="2.60548" height="13.0741" transform="matrix(-0.994031 0.109097 0.109097 0.994031 34.6963 213.659)" fill="#253464"/>
<rect width="2.60549" height="13.0741" transform="matrix(-0.992784 0.119918 0.119918 0.992784 45.2109 230.089)" fill="#253464"/>
<rect width="2.60548" height="13.0741" transform="matrix(-0.999687 -0.0250205 -0.0250205 0.999687 26.0439 245.412)" fill="#253464"/>
<rect width="2.60549" height="13.0741" transform="matrix(-0.990565 0.137046 0.137046 0.990565 58.0688 223.069)" fill="#253464"/>
<rect width="2.60549" height="13.0741" transform="matrix(-0.998829 0.0483704 0.0483704 0.998829 59.8818 245.235)" fill="#253464"/>
<rect width="2.60549" height="13.0741" transform="matrix(-0.998829 0.0483704 0.0483704 0.998829 51.1719 266.186)" fill="#253464"/>
<rect width="2.60548" height="13.0741" transform="matrix(-0.993799 -0.111193 -0.111193 0.993799 36.0776 264.958)" fill="#253464"/>
<rect width="2.60549" height="13.0741" transform="matrix(-0.984896 0.173149 0.173149 0.984896 64.2314 285.049)" fill="#253464"/>
<rect width="2.60549" height="13.0741" transform="matrix(-0.984896 0.173149 0.173149 0.984896 67.8926 266.495)" fill="#253464"/>
<rect width="2.60549" height="13.0741" transform="matrix(-0.995929 -0.0901431 -0.0901431 0.995929 46.0786 288.077)" fill="#253464"/>
<ellipse cx="8.96245" cy="7.19436" rx="8.96245" ry="7.19436" transform="matrix(-1 0 0 1 140.776 258.387)" fill="#253464"/>
<ellipse cx="6.23518" cy="5.00512" rx="6.23518" ry="5.00512" transform="matrix(-1 0 0 1 122.852 241.6)" fill="#253464"/>
<ellipse cx="6.23518" cy="5.00512" rx="6.23518" ry="5.00512" transform="matrix(-1 0 0 1 116.616 258.387)" fill="#253464"/>
<path d="M69.069 224.72C79.4587 207.647 100.557 172.695 101.832 169.471L127.934 188.93C116.817 201.601 92.654 228.864 84.9315 236.546C77.2091 244.228 78.5076 237.356 80.1221 232.96C71.9427 240.525 73.1192 233.432 74.7298 228.94C64.3633 235.546 66.6365 228.879 69.069 224.72Z" fill="#5EA1C9"/>
</svg>
