<svg width="298" height="393" viewBox="0 0 298 393" fill="none" xmlns="http://www.w3.org/2000/svg">
<path d="M26.3836 122.715C41.5785 138.031 72.7301 169.206 75.7775 171.378L48.6158 193.681C38.2221 178.746 15.9231 146.354 9.87681 136.269C3.83052 126.184 10.694 129.328 14.8815 132.16C9.07635 121.626 16.2036 124.699 20.4929 127.552C16.2603 114.976 22.6565 119.087 26.3836 122.715Z" fill="#5EA1C9"/>
<path fill-rule="evenodd" clip-rule="evenodd" d="M149.05 392.586H131.86L131.86 392.585H109.918C107.241 386.758 107.414 375.294 129.523 376.05C129.932 376.064 130.333 376.077 130.727 376.091L127.542 329.717H153.636L149.05 392.586Z" fill="#253464"/>
<path fill-rule="evenodd" clip-rule="evenodd" d="M102.108 392.587H103.918L108.503 329.718H82.4095L85.5949 376.093C85.2015 376.08 84.8006 376.066 84.392 376.052C62.2824 375.296 62.1092 386.76 64.7862 392.587H102.108L102.108 392.587Z" fill="#253464"/>
<path d="M150.33 28.3091C145.863 23.8421 135.174 30.1704 130.388 33.8929L112.456 85.1924L124.804 284.622L250.943 306.61L285.504 284.622C285.105 280.184 281.943 271.307 272.488 271.307C263.032 271.307 264.059 282.977 265.755 288.812H250.943C253.886 283.675 256.449 272.743 243.163 270.11C229.877 267.477 230.346 280.583 232.241 287.465H221.319C224.561 283.226 228.052 274.06 216.083 271.307C204.114 268.554 201.72 278.937 202.019 284.473L191.995 283.126C194.688 278.987 197.621 269.93 187.806 266.818C177.991 263.706 173.842 273.102 172.994 278.189C168.007 277.64 158.391 276.184 159.828 274.748C161.623 272.953 164.017 269.661 161.474 262.629C159.439 257.004 149.454 260.285 144.717 262.629V253.802C150.252 255.298 161.354 255.477 161.474 244.226C161.593 232.975 149.155 234.053 142.921 235.998L141.575 225.076C147.26 225.275 158.511 223.55 158.032 215.051C157.554 206.553 146.263 208.119 140.677 209.965L139.031 192.609C143.919 192.709 153.544 191.203 152.945 184.38C152.347 177.558 142.822 179.044 138.134 180.64L136.488 171.364C141.824 172.71 152.287 172.89 151.449 162.836C150.611 152.782 139.829 153.859 134.543 155.654L132.598 150.118C138.134 149.719 148.846 147.455 147.41 141.59C145.973 135.725 136.139 137.052 131.401 138.448L130.388 133.604C135.972 133.87 146.74 132.168 145.145 123.234C143.55 114.3 133.047 115.789 127.995 117.65L124.804 98.5055C129.457 100.367 139.482 101.856 142.353 92.9217C145.225 83.9876 131.85 79.6269 124.804 78.5633L130.388 68.1934C135.307 72.7136 146.182 79.7599 150.33 71.783C154.478 63.8061 144.347 58.0894 138.764 56.2281L142.353 47.4536C154.318 45.8582 155.914 33.8929 150.33 28.3091Z" fill="#253464"/>
<path d="M50.4755 31.5347C24.5557 24.105 15.1301 40.5122 13.6572 49.6445C0.0617552 102.16 48.8763 97.2639 74.9829 88.2517C63.2844 176.195 -24.5542 229.703 40.204 318.801C104.962 407.9 346.334 267.569 288.64 283.162C242.485 295.635 175.215 277.964 147.349 267.569C144.681 225.978 137.083 134.841 128.039 103.018C116.734 63.2389 170.257 54.7523 128.039 28.7485C85.8207 2.74465 82.8753 40.8217 50.4755 31.5347Z" fill="#6DBBE9"/>
<ellipse cx="14.3312" cy="18.8464" rx="14.3312" ry="18.8464" transform="matrix(-1 0 0 1 112.456 6.48022)" fill="#DFFFFF"/>
<ellipse cx="9.29853" cy="12.2281" rx="9.29853" ry="12.2281" transform="matrix(-1 0 0 1 107.423 19.7172)" fill="black"/>
<ellipse cx="14.3312" cy="18.8464" rx="14.3312" ry="18.8464" transform="matrix(-1 0 0 1 79.8669 0.871094)" fill="#DFFFFF"/>
<ellipse cx="9.29853" cy="12.2281" rx="9.29853" ry="12.2281" transform="matrix(-1 0 0 1 74.8347 14.1095)" fill="black"/>
<path d="M34.2373 74.7002C42.6431 43.3489 50.1401 61.6372 52.8379 74.7002C36.935 77.6536 21.4108 72.5231 15.6366 69.5886C29.8356 45.5072 33.9533 62.9624 34.2373 74.7002Z" fill="white"/>
<path d="M12.2469 68.2557C20.7078 72.7539 43.0916 79.9508 64.9395 72.7538" stroke="black" stroke-width="3"/>
<mask id="mask0_1_995" style="mask-type:alpha" maskUnits="userSpaceOnUse" x="11" y="19" width="287" height="330">
<path d="M50.4755 31.5344C24.5557 24.1048 15.1301 40.5119 13.6572 49.6442C0.0617552 102.159 48.8763 97.2636 74.9829 88.2514C63.2844 176.195 -24.5542 229.702 40.204 318.801C104.962 407.899 346.334 267.569 288.64 283.161C242.485 295.635 175.215 277.964 147.349 267.569C144.681 225.978 137.083 134.841 128.039 103.018C116.734 63.2386 170.257 54.752 128.039 28.7482C85.8207 2.74441 82.8753 40.8215 50.4755 31.5344Z" fill="#6DBBE9"/>
</mask>
<g mask="url(#mask0_1_995)">
<path d="M80.3139 271.413C80.3139 225.497 43.2716 214.018 24.7504 214.018C1.54795 223.176 -9.44225 356.284 47.9528 343.462C105.348 330.64 80.3139 328.808 80.3139 271.413Z" fill="#A8E2FB"/>
</g>
<rect width="2.81259" height="14.1134" transform="matrix(-0.982667 -0.185379 -0.185379 0.982667 27.6719 237.836)" fill="#253464"/>
<rect width="2.81259" height="14.1134" transform="matrix(-0.992784 0.119918 0.119918 0.992784 41.8188 265.043)" fill="#253464"/>
<rect width="2.81259" height="14.1134" transform="matrix(-0.994031 0.109097 0.109097 0.994031 37.4861 230.668)" fill="#253464"/>
<rect width="2.81259" height="14.1134" transform="matrix(-0.992784 0.119918 0.119918 0.992784 48.8372 248.405)" fill="#253464"/>
<rect width="2.81259" height="14.1134" transform="matrix(-0.999687 -0.0250205 -0.0250205 0.999687 28.1465 264.946)" fill="#253464"/>
<rect width="2.81259" height="14.1134" transform="matrix(-0.990565 0.137046 0.137046 0.990565 62.7166 240.826)" fill="#253464"/>
<rect width="2.81259" height="14.1134" transform="matrix(-0.998829 0.0483704 0.0483704 0.998829 64.6738 264.754)" fill="#253464"/>
<rect width="2.81259" height="14.1134" transform="matrix(-0.998829 0.0483704 0.0483704 0.998829 55.2712 287.371)" fill="#253464"/>
<rect width="2.81259" height="14.1134" transform="matrix(-0.993799 -0.111193 -0.111193 0.993799 38.978 286.045)" fill="#253464"/>
<rect width="2.81259" height="14.1134" transform="matrix(-0.984896 0.173149 0.173149 0.984896 69.3699 307.733)" fill="#253464"/>
<rect width="2.81259" height="14.1134" transform="matrix(-0.984896 0.173149 0.173149 0.984896 73.3213 287.704)" fill="#253464"/>
<rect width="2.81259" height="14.1134" transform="matrix(-0.995929 -0.0901431 -0.0901431 0.995929 49.7737 311.002)" fill="#253464"/>
<ellipse cx="9.67487" cy="7.76623" rx="9.67487" ry="7.76623" transform="matrix(-1 0 0 1 151.998 278.952)" fill="#253464"/>
<ellipse cx="6.73081" cy="5.40297" rx="6.73081" ry="5.40297" transform="matrix(-1 0 0 1 132.648 260.831)" fill="#253464"/>
<ellipse cx="6.73081" cy="5.40297" rx="6.73081" ry="5.40297" transform="matrix(-1 0 0 1 125.917 278.952)" fill="#253464"/>
<path d="M74.5915 242.609C85.8071 224.179 108.582 186.449 109.959 182.968L138.135 203.975C126.135 217.653 100.051 247.082 91.715 255.375C83.3787 263.667 84.7804 256.25 86.5233 251.504C77.6937 259.671 78.9636 252.014 80.7023 247.165C69.5117 254.295 71.9657 247.099 74.5915 242.609Z" fill="#5EA1C9"/>
</svg>
