<svg width="26" height="29" viewBox="0 0 26 29" fill="none" xmlns="http://www.w3.org/2000/svg">
<path fill-rule="evenodd" clip-rule="evenodd" d="M18.4928 3.27242C17.3188 3.12645 15.839 3.12646 13.9512 3.12646H11.8024C9.91454 3.12646 8.43475 3.12645 7.26073 3.27242C6.06265 3.42137 5.0919 3.7308 4.26307 4.42185C3.7613 4.84021 3.32003 5.34659 2.95547 5.9224C2.78927 6.18491 2.64695 6.46216 2.52551 6.75725C2.15362 7.66091 1.98775 8.70878 1.9069 9.95835C1.82666 11.1988 1.82666 12.7193 1.82666 14.5941V14.681C1.82665 16.8474 1.82665 18.5455 1.95384 19.8928C2.08365 21.2677 2.35329 22.3817 2.95547 23.3328C3.32003 23.9086 3.76129 24.415 4.26307 24.8334C5.0919 25.5244 6.06265 25.8338 7.26073 25.9828C8.43473 26.1287 9.91449 26.1287 11.8023 26.1287H13.9512C15.839 26.1287 17.3188 26.1287 18.4928 25.9828C19.6909 25.8338 20.6617 25.5244 21.4905 24.8334C21.9923 24.415 22.4335 23.9086 22.7981 23.3328C23.4003 22.3817 23.6699 21.2677 23.7997 19.8928C23.9269 18.5455 23.9269 16.8474 23.9269 14.6811V14.5933C23.9269 12.7057 23.9269 11.1771 23.8449 9.93165C23.7623 8.67657 23.5927 7.62522 23.2121 6.7189C23.0942 6.43801 22.957 6.17343 22.7981 5.9224C22.4335 5.34659 21.9923 4.8402 21.4905 4.42185C20.6617 3.7308 19.6909 3.42137 18.4928 3.27242ZM5.16936 5.85333C5.69155 5.41795 6.35992 5.16417 7.42681 5.03153C8.50812 4.89709 9.90448 4.89587 11.8489 4.89587H13.9047C15.8491 4.89587 17.2454 4.89709 18.3268 5.03153C19.3936 5.16417 20.062 5.41795 20.5842 5.85333C20.9549 6.1624 21.2809 6.53647 21.5503 6.96182L19.6001 9.19978C17.8715 11.1835 16.6287 12.607 15.5568 13.5455C14.5027 14.4685 13.7049 14.8387 12.8768 14.8387C12.0487 14.8387 11.2509 14.4685 10.1967 13.5455C9.12482 12.607 7.88205 11.1835 6.15344 9.19978L4.20326 6.96182C4.47265 6.53647 4.79866 6.1624 5.16936 5.85333ZM22.1664 8.75715C22.2285 9.1349 22.2746 9.56581 22.3074 10.0649C22.3845 11.2362 22.385 12.6987 22.385 14.6276C22.385 16.8589 22.384 18.4613 22.2668 19.7022C22.1512 20.9265 21.9301 21.6935 21.5507 22.2928C21.2812 22.7184 20.9551 23.0927 20.5842 23.4019C20.062 23.8372 19.3936 24.091 18.3268 24.2237C17.2454 24.3581 15.8491 24.3593 13.9047 24.3593H11.8489C9.90448 24.3593 8.50812 24.3581 7.42681 24.2237C6.35992 24.091 5.69155 23.8372 5.16936 23.4019C4.79849 23.0927 4.47233 22.7184 4.20288 22.2928C3.82349 21.6935 3.60234 20.9265 3.48675 19.7022C3.3696 18.4613 3.36854 16.8589 3.36854 14.6276C3.36854 12.7125 3.36902 11.2568 3.44455 10.0894C3.47751 9.57989 3.52407 9.14109 3.58719 8.75715L5.10487 10.4988C6.78271 12.4242 8.0976 13.9332 9.26147 14.9522C10.4528 15.9953 11.576 16.6081 12.8768 16.6081C14.1776 16.6081 15.3008 15.9953 16.4921 14.9522C17.656 13.9332 18.9708 12.4243 20.6487 10.4988L22.1664 8.75715Z" fill="#FAFAFA"/>
</svg>
