<svg width="640" height="122" viewBox="0 0 640 122" fill="none" xmlns="http://www.w3.org/2000/svg">
<path d="M67.6476 115.142C60.9276 118.982 52.7676 121.062 44.4476 121.062C23.0076 121.062 0.927637 107.302 0.927637 77.8624C0.927637 48.2624 23.0076 34.9824 44.2876 34.9824C52.7676 34.9824 60.9276 37.0624 67.6476 40.9024C71.1676 42.9824 72.7676 46.0224 72.7676 49.0624C72.7676 52.9024 70.2076 56.4224 66.2076 56.4224C65.0876 56.4224 63.8076 56.1024 62.3676 55.3024C57.7276 52.9024 52.2876 51.6224 47.0076 51.6224C32.9276 51.6224 19.1676 59.9424 19.1676 78.0224C19.1676 94.9824 32.2876 104.262 46.6876 104.262C51.8076 104.262 57.2476 103.142 62.2076 100.582C63.4876 99.9424 64.6076 99.6224 65.7276 99.6224C69.7276 99.6224 72.4476 103.302 72.4476 107.302C72.4476 110.182 71.0076 113.222 67.6476 115.142ZM128.99 121.062C103.39 121.062 84.5101 102.822 84.5101 77.8624C84.5101 53.0624 103.39 34.6624 128.99 34.6624C154.59 34.6624 173.47 53.0624 173.47 77.8624C173.47 102.822 154.59 121.062 128.99 121.062ZM128.99 104.582C144.35 104.582 155.71 93.0624 155.71 77.8624C155.71 62.6624 144.35 51.1424 128.99 51.1424C113.79 51.1424 102.27 62.6624 102.27 77.8624C102.27 93.0624 113.79 104.582 128.99 104.582ZM228.525 120.902C204.845 120.902 185.005 105.382 185.005 74.8224V59.7824C185.005 30.5024 199.405 11.3024 225.645 6.1824L254.285 0.582397C254.765 0.582397 255.245 0.4224 255.565 0.4224C259.565 0.4224 263.405 3.6224 263.405 8.1024C263.405 11.6224 260.845 14.9824 257.005 15.7824L229.325 21.3824C216.845 23.9424 203.565 29.8624 202.605 54.3424C208.685 42.6624 220.525 38.3424 231.405 38.3424C254.765 38.3424 271.885 54.8224 271.885 79.1424C271.885 103.622 253.805 120.902 228.525 120.902ZM228.685 104.422C243.405 104.422 253.965 93.8624 253.965 78.9824C253.965 64.2624 243.405 53.7024 228.685 53.7024C213.805 53.7024 203.245 64.2624 203.245 78.9824C203.245 93.8624 213.805 104.422 228.685 104.422ZM303.16 62.1824H323.96C343.48 62.1824 356.92 73.0624 356.92 90.8224C356.92 108.742 343.48 119.462 323.96 119.462H292.76C287.96 119.462 285.08 116.742 285.08 111.782V44.7424C285.08 39.7824 289.24 35.6224 294.2 35.6224C299 35.6224 303.16 39.7824 303.16 44.7424V62.1824ZM378.04 35.6224C382.68 35.6224 387.16 38.6624 387.16 44.7424V111.142C387.16 117.222 382.68 120.422 378.04 120.422C373.56 120.422 368.92 117.222 368.92 111.142V44.7424C368.92 38.6624 373.56 35.6224 378.04 35.6224ZM303.16 103.942H322.04C331.96 103.942 338.84 99.4624 338.84 90.8224C338.84 82.1824 331.96 77.5424 322.04 77.5424H303.16V103.942ZM404.894 36.4224H458.174C462.654 36.4224 466.334 40.1024 466.334 44.5824C466.334 49.0624 462.654 52.7424 458.174 52.7424H440.574V111.302C440.574 116.102 436.574 120.422 431.614 120.422C426.494 120.422 422.494 116.102 422.494 111.302V52.7424H404.894C400.414 52.7424 396.574 49.0624 396.574 44.5824C396.574 40.1024 400.414 36.4224 404.894 36.4224ZM546.589 120.422C541.629 120.422 537.469 116.262 537.469 111.462V62.9824L495.069 116.102C492.509 119.142 489.149 120.742 485.789 120.742C480.509 120.742 475.549 116.742 475.549 109.862V44.4224C475.549 39.6224 479.549 35.4624 484.669 35.4624C489.629 35.4624 493.629 39.6224 493.629 44.4224V93.7024L536.189 39.6224C538.589 36.5824 541.949 35.1424 545.149 35.1424C550.429 35.1424 555.549 39.1424 555.549 46.1824V111.462C555.549 116.262 551.549 120.422 546.589 120.422ZM600.211 36.4224H628.531C635.731 36.4224 639.731 40.4224 639.731 47.6224V111.942C639.731 116.582 635.731 120.582 631.091 120.582C626.131 120.582 622.291 116.422 622.291 111.782C622.291 99.1424 622.291 91.7824 622.611 87.3024L588.211 117.542C586.131 119.302 583.891 120.102 581.651 120.102C577.171 120.102 573.171 117.062 573.171 113.062C573.171 111.302 573.971 109.382 575.891 107.462C586.771 96.5824 594.611 91.1424 599.571 87.9424H597.491C585.331 87.9424 569.651 81.0624 569.651 62.1824C569.651 45.8624 581.491 36.4224 600.211 36.4224ZM601.491 75.6224H622.291V52.2624H601.491C592.371 52.2624 587.091 56.7424 587.091 63.7824C587.091 70.8224 592.211 75.6224 601.491 75.6224Z" fill="white"/>
</svg>
