<svg width="643" height="126" viewBox="0 0 643 126" fill="none" xmlns="http://www.w3.org/2000/svg">
<path fill-rule="evenodd" clip-rule="evenodd" d="M77.2287 41.044L77.2409 41.0512C81.192 43.3859 83.1652 46.9426 83.1652 50.6444C83.1652 55.1096 80.1175 59.7311 74.8552 59.7311C73.393 59.7311 71.8377 59.3131 70.2111 58.4142C65.9982 56.2405 61.0344 55.0713 56.2159 55.0713C49.7395 55.0713 43.4521 56.9874 38.8207 60.8528C34.2386 64.6771 31.1305 70.5264 31.1305 78.7587C31.1305 86.4476 34.0853 92.2772 38.5825 96.2079C43.1127 100.167 49.3181 102.291 55.9053 102.291C60.6018 102.291 65.5719 101.262 70.0815 98.9345L70.0926 98.9288L70.1037 98.9232C71.5201 98.215 72.909 97.7863 74.3892 97.7863C79.6657 97.7863 82.8545 102.58 82.8545 107.184C82.8545 110.661 81.0964 114.263 77.2164 116.48C70.3769 120.389 62.1189 122.483 53.7307 122.483C42.9305 122.483 31.8942 119.02 23.528 111.756C15.1195 104.455 9.54004 93.4244 9.54004 78.6033C9.54004 63.7058 15.1191 52.7473 23.5171 45.5402C31.8692 38.3726 42.8663 35.034 53.5753 35.034C62.1155 35.034 70.3742 37.1271 77.2164 41.037L77.2287 41.044ZM71.1273 56.7022C72.5253 57.4788 73.7679 57.7895 74.8552 57.7895C78.7384 57.7895 81.2236 54.3723 81.2236 50.6444C81.2236 47.6932 79.6703 44.742 76.2531 42.7227C69.7294 38.9949 61.8077 36.9756 53.5753 36.9756C32.9168 36.9756 11.4816 49.8678 11.4816 78.6033C11.4816 107.184 32.9168 120.542 53.7307 120.542C61.8077 120.542 69.7294 118.522 76.2531 114.795C79.515 112.931 80.913 109.979 80.913 107.184C80.913 103.3 78.2724 99.7279 74.3892 99.7279C73.3019 99.7279 72.2146 100.039 70.972 100.66C66.1569 103.145 60.8757 104.232 55.9053 104.232C41.9258 104.232 29.1889 95.2234 29.1889 78.7587C29.1889 61.2067 42.5471 53.1297 56.2159 53.1297C61.3417 53.1297 66.6228 54.3723 71.1273 56.7022ZM135.804 122.483C109.936 122.483 90.6816 103.963 90.6816 78.6033C90.6816 53.4041 109.931 34.7234 135.804 34.7234C161.677 34.7234 180.927 53.4041 180.927 78.6033C180.927 103.963 161.672 122.483 135.804 122.483ZM135.804 102.601C149.636 102.601 159.802 92.2948 159.802 78.6033C159.802 64.9119 149.636 54.6053 135.804 54.6053C122.12 54.6053 111.806 64.9196 111.806 78.6033C111.806 92.2871 122.12 102.601 135.804 102.601ZM260.081 18.3363L233.209 23.7728C221.854 26.102 209.817 31.2965 207.583 51.5041C207.433 52.8576 207.328 54.2784 207.269 55.7702C207.932 54.497 208.665 53.3138 209.46 52.2166C215.741 43.5424 225.852 40.2375 235.228 40.2375C257.906 40.2375 274.526 56.2362 274.526 79.846C274.526 103.611 256.974 120.386 232.432 120.386C209.444 120.386 190.183 105.32 190.183 75.6521V61.0514C190.183 32.6265 204.163 13.9872 229.636 9.01671L257.44 3.58025C257.697 3.58025 257.953 3.53317 258.184 3.49085C258.372 3.4563 258.543 3.42492 258.683 3.42492C262.566 3.42492 266.294 6.53147 266.294 10.8806C266.294 14.2978 263.808 17.5597 260.081 18.3363ZM229.265 7.11105L257.252 1.63866H257.44C257.48 1.63866 257.559 1.63107 257.772 1.59231C257.855 1.57732 257.999 1.55003 258.128 1.53018C258.258 1.51015 258.459 1.48333 258.683 1.48333C263.506 1.48333 268.235 5.33171 268.235 10.8806C268.235 15.2144 265.108 19.2723 260.477 20.2371L260.466 20.2394L233.599 25.6748C233.599 25.6749 233.598 25.675 233.597 25.6752C227.662 26.8928 221.852 28.8547 217.399 33.1838C214.02 36.4679 211.275 41.2616 209.974 48.5119C216.729 41.1174 226.394 38.2959 235.228 38.2959C247.034 38.2959 257.365 42.4672 264.75 49.8113C272.138 57.1584 276.468 67.5711 276.468 79.846C276.468 104.756 257.973 122.328 232.432 122.328C220.517 122.328 209.441 118.419 201.334 110.537C193.211 102.639 188.242 90.9233 188.242 75.6521V61.0514C188.242 46.5266 191.815 34.3176 198.808 25.0677C205.816 15.7996 216.127 9.67448 229.265 7.11105ZM232.588 102.446C245.797 102.446 255.188 93.0719 255.188 79.6906C255.188 66.4728 245.805 57.0905 232.588 57.0905C219.206 57.0905 209.832 66.481 209.832 79.6906C209.832 86.4416 212.22 92.1083 216.195 96.0833C220.17 100.058 225.837 102.446 232.588 102.446ZM306.829 61.4397H325.08C334.902 61.4397 343.384 64.1778 349.444 69.3394C355.538 74.5296 359.019 82.0359 359.019 91.1849C359.019 100.408 355.541 107.917 349.441 113.091C343.378 118.234 334.895 120.93 325.08 120.93H294.791C292.102 120.93 289.693 120.162 287.954 118.45C286.21 116.732 285.394 114.315 285.394 111.533V46.4506C285.394 40.5631 290.302 35.6553 296.189 35.6553C301.944 35.6553 306.829 40.5854 306.829 46.4506V61.4397ZM325.08 63.3813C344.03 63.3813 357.078 73.9435 357.078 91.1849C357.078 108.582 344.03 118.988 325.08 118.988H294.791C290.132 118.988 287.336 116.348 287.336 111.533V46.4506C287.336 41.6354 291.374 37.5969 296.189 37.5969C300.849 37.5969 304.888 41.6354 304.888 46.4506V63.3813H325.08ZM384.991 38.3629C387.08 40.2308 388.376 42.9836 388.376 46.4506V110.911C388.376 114.375 387.084 117.157 385.01 119.06C382.964 120.937 380.267 121.862 377.581 121.862C372.342 121.862 366.786 118.06 366.786 110.911V46.4506C366.786 42.9615 368.137 40.2118 370.237 38.3555C372.301 36.532 374.987 35.6553 377.581 35.6553C380.241 35.6553 382.936 36.5257 384.991 38.3629ZM306.829 101.98H323.216C327.773 101.98 331.394 100.947 333.824 99.1404C336.18 97.3893 337.584 94.7961 337.584 91.1849C337.584 87.5699 336.176 84.9319 333.811 83.1416C331.378 81.3005 327.76 80.2343 323.216 80.2343H306.829V101.98ZM323.216 103.922C332.847 103.922 339.526 99.5725 339.526 91.1849C339.526 82.7972 332.847 78.2927 323.216 78.2927H304.888V103.922H323.216ZM403.65 36.432H455.374C460.796 36.432 465.238 40.8738 465.238 46.2953C465.238 51.7167 460.796 56.1585 455.374 56.1585H440.23V111.067C440.23 116.732 435.543 121.862 429.59 121.862C423.503 121.862 418.795 116.755 418.795 111.067V56.1585H403.65C398.278 56.1585 393.632 51.7652 393.632 46.2953C393.632 40.8253 398.278 36.432 403.65 36.432ZM403.65 54.217C399.301 54.217 395.573 50.6444 395.573 46.2953C395.573 41.9461 399.301 38.3736 403.65 38.3736H455.374C459.724 38.3736 463.296 41.9461 463.296 46.2953C463.296 50.6444 459.724 54.217 455.374 54.217H438.288V111.067C438.288 115.727 434.405 119.92 429.59 119.92C424.62 119.92 420.736 115.727 420.736 111.067V54.217H403.65ZM491.192 115.727C488.707 118.678 485.445 120.231 482.183 120.231C477.057 120.231 472.242 116.348 472.242 109.669V46.1399C472.242 41.4801 476.125 37.4416 481.096 37.4416C485.911 37.4416 489.794 41.4801 489.794 46.1399V93.9808L531.111 41.4801C533.441 38.5289 536.703 37.131 539.809 37.131C544.935 37.131 549.906 41.0141 549.906 47.8485V111.222C549.906 115.882 546.022 119.92 541.207 119.92C536.392 119.92 532.354 115.882 532.354 111.222V64.1579L491.192 115.727ZM530.412 69.7027L492.693 116.958L492.677 116.977C489.866 120.315 486.082 122.173 482.183 122.173C476.024 122.173 470.3 117.459 470.3 109.669V46.1399C470.3 40.4078 475.053 35.5 481.096 35.5C487.005 35.5 491.736 40.4303 491.736 46.1399V88.3741L529.585 40.2794L529.587 40.277C532.291 36.852 536.118 35.1894 539.809 35.1894C545.95 35.1894 551.847 39.8848 551.847 47.8485V111.222C551.847 116.932 547.117 121.862 541.207 121.862C535.342 121.862 530.412 116.976 530.412 111.222V69.7027ZM581.614 117.125C579.595 118.833 577.42 119.61 575.246 119.61C570.897 119.61 567.014 116.659 567.014 112.775C567.014 111.067 567.79 109.203 569.654 107.339C578.295 98.6979 584.961 93.5916 589.736 90.3188C590.04 90.111 590.335 89.9106 590.623 89.7171C591.344 89.2331 592.017 88.7927 592.643 88.389H590.623C590.144 88.389 589.659 88.378 589.17 88.3556C577.607 87.8274 563.596 80.9657 563.596 63.3813C563.596 47.5379 575.091 38.3736 593.264 38.3736H620.757C627.747 38.3736 631.63 42.2568 631.63 49.2465V111.688C631.63 116.193 627.747 120.076 623.242 120.076C618.427 120.076 614.699 116.037 614.699 111.533C614.699 101.528 614.699 94.9306 614.867 90.4779C614.906 89.4694 614.952 88.5708 615.01 87.7677L581.614 117.125ZM612.87 92.2336C612.757 96.643 612.757 102.767 612.757 111.376V111.533C612.757 117.063 617.309 122.017 623.242 122.017C628.819 122.017 633.571 117.265 633.571 111.688V49.2465C633.571 45.4004 632.497 42.126 630.187 39.816C627.877 37.506 624.603 36.432 620.757 36.432H593.264C583.874 36.432 575.968 38.7985 570.375 43.4423C564.735 48.1246 561.655 54.9512 561.655 63.3813C561.655 73.1637 565.754 79.9883 571.518 84.3116C576.032 87.6971 581.493 89.4998 586.666 90.0998C582.006 93.4404 575.894 98.3528 568.281 105.966C566.147 108.1 565.072 110.432 565.072 112.775C565.072 118.098 570.232 121.551 575.246 121.551C577.916 121.551 580.528 120.587 582.868 118.607L582.882 118.595L612.87 92.2336ZM614.699 76.4288H594.506C585.497 76.4288 580.527 71.7689 580.527 64.9345C580.527 58.1001 585.653 53.751 594.506 53.751H614.699V76.4288ZM612.757 55.6926H594.506C590.374 55.6926 587.362 56.709 585.421 58.2864C583.529 59.8248 582.469 62.0449 582.469 64.9345C582.469 67.8502 583.51 70.158 585.398 71.767C587.319 73.405 590.32 74.4872 594.506 74.4872H612.757V55.6926ZM92.6232 78.6033C92.6232 102.834 110.952 120.542 135.804 120.542C160.657 120.542 178.985 102.834 178.985 78.6033C178.985 54.5276 160.657 36.665 135.804 36.665C110.952 36.665 92.6232 54.5276 92.6232 78.6033ZM161.744 78.6033C161.744 93.3594 150.716 104.543 135.804 104.543C121.048 104.543 109.865 93.3594 109.865 78.6033C109.865 63.8473 121.048 52.6637 135.804 52.6637C150.716 52.6637 161.744 63.8473 161.744 78.6033ZM257.129 79.6906C257.129 94.1361 246.878 104.388 232.588 104.388C218.142 104.388 207.891 94.1361 207.891 79.6906C207.891 65.4005 218.142 55.1489 232.588 55.1489C246.878 55.1489 257.129 65.4005 257.129 79.6906ZM386.435 46.4506C386.435 40.5482 382.085 37.5969 377.581 37.5969C373.232 37.5969 368.727 40.5482 368.727 46.4506V110.911C368.727 116.814 373.232 119.92 377.581 119.92C382.085 119.92 386.435 116.814 386.435 110.911V46.4506Z" fill="white"/>
</svg>
