<svg width="640" height="121" viewBox="0 0 640 121" fill="none" xmlns="http://www.w3.org/2000/svg">
<path d="M67.2516 114.813L66.2594 113.076L67.2516 114.813ZM67.2516 40.5728L68.2691 38.851L68.2566 38.8435L68.2439 38.8363L67.2516 40.5728ZM61.9716 54.9728L62.9429 53.2245L62.9169 53.21L62.8905 53.1964L61.9716 54.9728ZM61.8116 100.253L60.9172 98.464L60.9057 98.4697L60.8944 98.4756L61.8116 100.253ZM66.2594 113.076C59.8646 116.73 52.0511 118.733 44.0516 118.733V122.733C52.6922 122.733 61.1987 120.575 68.2439 116.549L66.2594 113.076ZM44.0516 118.733C33.7367 118.733 23.345 115.42 15.5629 108.663C7.82432 101.943 2.53164 91.7059 2.53164 77.5328H-1.46836C-1.46836 92.7997 4.27896 104.162 12.9404 111.683C21.5582 119.166 32.9266 122.733 44.0516 122.733V118.733ZM2.53164 77.5328C2.53164 63.2785 7.82475 53.1267 15.5341 46.5105C23.2908 39.8539 33.6428 36.6528 43.8916 36.6528V32.6528C32.8604 32.6528 21.5325 36.0918 12.9291 43.4751C4.27853 50.899 -1.46836 62.1871 -1.46836 77.5328H2.53164ZM43.8916 36.6528C52.0546 36.6528 59.8674 38.6567 66.2594 42.3093L68.2439 38.8363C61.1959 34.8089 52.6887 32.6528 43.8916 32.6528V36.6528ZM66.2342 42.2947C69.2042 44.0497 70.3716 46.466 70.3716 48.7328H74.3716C74.3716 44.9196 72.3391 41.256 68.2691 38.851L66.2342 42.2947ZM70.3716 48.7328C70.3716 51.8134 68.391 54.0928 65.8116 54.0928V58.0928C71.2323 58.0928 74.3716 53.3323 74.3716 48.7328H70.3716ZM65.8116 54.0928C65.0861 54.0928 64.1374 53.8881 62.9429 53.2245L61.0004 56.7211C62.6859 57.6575 64.2972 58.0928 65.8116 58.0928V54.0928ZM62.8905 53.1964C57.9554 50.6438 52.1987 49.2928 46.6116 49.2928V53.2928C51.5846 53.2928 56.7079 54.5019 61.0528 56.7492L62.8905 53.1964ZM46.6116 49.2928C39.2029 49.2928 31.7594 51.479 26.1301 56.1773C20.4501 60.918 16.7716 68.0928 16.7716 77.6928H20.7716C20.7716 69.2128 23.9732 63.1876 28.6932 59.2483C33.4638 55.2666 39.9404 53.2928 46.6116 53.2928V49.2928ZM16.7716 77.6928C16.7716 86.7325 20.288 93.8476 25.8155 98.6787C31.309 103.48 38.677 105.933 46.2916 105.933V101.933C39.5063 101.933 33.1143 99.7455 28.4478 95.6669C23.8153 91.618 20.7716 85.6131 20.7716 77.6928H16.7716ZM46.2916 105.933C51.6939 105.933 57.4542 104.752 62.7289 102.03L60.8944 98.4756C56.2491 100.873 51.1294 101.933 46.2916 101.933V105.933ZM62.7061 102.042C63.8071 101.491 64.6163 101.293 65.3316 101.293V97.2928C63.807 97.2928 62.3762 97.7345 60.9172 98.464L62.7061 102.042ZM65.3316 101.293C67.8964 101.293 70.0516 103.715 70.0516 106.973H74.0516C74.0516 102.231 70.7669 97.2928 65.3316 97.2928V101.293ZM70.0516 106.973C70.0516 109.151 68.9826 111.52 66.2594 113.076L68.2439 116.549C72.2407 114.265 74.0516 110.555 74.0516 106.973H70.0516ZM128.594 118.733C104.04 118.733 86.1141 101.331 86.1141 77.5328H82.1141C82.1141 103.655 101.948 122.733 128.594 122.733V118.733ZM86.1141 77.5328C86.1141 53.8901 104.045 36.3328 128.594 36.3328V32.3328C101.943 32.3328 82.1141 51.5755 82.1141 77.5328H86.1141ZM128.594 36.3328C153.143 36.3328 171.074 53.8901 171.074 77.5328H175.074C175.074 51.5755 155.245 32.3328 128.594 32.3328V36.3328ZM171.074 77.5328C171.074 101.331 153.148 118.733 128.594 118.733V122.733C155.24 122.733 175.074 103.655 175.074 77.5328H171.074ZM128.594 106.253C145.067 106.253 157.314 93.8295 157.314 77.5328H153.314C153.314 91.6362 142.842 102.253 128.594 102.253V106.253ZM157.314 77.5328C157.314 61.2362 145.067 48.8128 128.594 48.8128V52.8128C142.842 52.8128 153.314 63.4295 153.314 77.5328H157.314ZM128.594 48.8128C112.29 48.8128 99.8741 61.2282 99.8741 77.5328H103.874C103.874 63.4374 114.499 52.8128 128.594 52.8128V48.8128ZM99.8741 77.5328C99.8741 93.8374 112.29 106.253 128.594 106.253V102.253C114.499 102.253 103.874 91.6282 103.874 77.5328H99.8741ZM225.249 5.85281L225.632 7.81579L225.633 7.81564L225.249 5.85281ZM253.889 0.252808V-1.74719H253.695L253.505 -1.71002L253.889 0.252808ZM256.609 15.4528L257.006 17.4131L257.017 17.4108L256.609 15.4528ZM228.929 21.0528L228.533 19.0925L228.527 19.0936L228.929 21.0528ZM202.209 54.0128L200.211 53.9344L203.983 54.9363L202.209 54.0128ZM228.129 118.573C216.723 118.573 206.372 114.839 198.883 107.559C191.411 100.294 186.609 89.3223 186.609 74.4928H182.609C182.609 90.2233 187.728 102.292 196.095 110.427C204.446 118.546 215.856 122.573 228.129 122.573V118.573ZM186.609 74.4928V59.4528H182.609V74.4928H186.609ZM186.609 59.4528C186.609 45.1345 190.128 33.4708 196.685 24.799C203.227 16.1459 212.925 10.2952 225.632 7.81579L224.866 3.88983C211.333 6.53037 200.712 12.8397 193.494 22.3866C186.29 31.9148 182.609 44.4911 182.609 59.4528H186.609ZM225.633 7.81564L254.273 2.21564L253.505 -1.71002L224.865 3.88998L225.633 7.81564ZM253.889 2.25281C254.328 2.25281 254.726 2.18063 254.947 2.14055C255.082 2.11599 255.144 2.1041 255.206 2.09455C255.267 2.08518 255.24 2.09281 255.169 2.09281V-1.90719C254.938 -1.90719 254.732 -1.87957 254.598 -1.85893C254.465 -1.83849 254.316 -1.81038 254.231 -1.79493C254.012 -1.75501 253.93 -1.74719 253.889 -1.74719V2.25281ZM255.169 2.09281C258.201 2.09281 261.009 4.52866 261.009 7.77281H265.009C265.009 2.05696 260.138 -1.90719 255.169 -1.90719V2.09281ZM261.009 7.77281C261.009 10.3487 259.111 12.8887 256.201 13.4949L257.017 17.4108C261.788 16.4169 265.009 12.237 265.009 7.77281H261.009ZM256.213 13.4925L228.533 19.0925L229.326 23.0131L257.006 17.4131L256.213 13.4925ZM228.527 19.0936C222.162 20.3993 215.267 22.6184 209.855 27.8787C204.395 33.1856 200.705 41.3259 200.211 53.9344L204.208 54.0912C204.673 42.2197 208.103 35.16 212.643 30.747C217.231 26.2872 223.217 24.2663 229.331 23.012L228.527 19.0936ZM203.983 54.9363C209.609 44.1286 220.603 40.0128 231.009 40.0128V36.0128C219.655 36.0128 206.969 40.537 200.435 53.0893L203.983 54.9363ZM231.009 40.0128C242.209 40.0128 251.806 43.9561 258.599 50.711C265.389 57.4629 269.489 67.137 269.489 78.8128H273.489C273.489 66.1686 269.03 55.4427 261.419 47.8747C253.812 40.3095 243.17 36.0128 231.009 36.0128V40.0128ZM269.489 78.8128C269.489 102.114 252.38 118.573 228.129 118.573V122.573C254.438 122.573 273.489 104.472 273.489 78.8128H269.489ZM228.289 106.093C244.122 106.093 255.569 94.629 255.569 78.6528H251.569C251.569 92.4366 241.896 102.093 228.289 102.093V106.093ZM255.569 78.6528C255.569 62.8282 244.114 51.3728 228.289 51.3728V55.3728C241.905 55.3728 251.569 65.0374 251.569 78.6528H255.569ZM228.289 51.3728C212.313 51.3728 200.849 62.8198 200.849 78.6528H204.849C204.849 65.0458 214.505 55.3728 228.289 55.3728V51.3728ZM200.849 78.6528C200.849 86.5788 203.67 93.4616 208.575 98.367C213.48 103.272 220.363 106.093 228.289 106.093V102.093C221.335 102.093 215.498 99.6332 211.403 95.5386C207.309 91.444 204.849 85.6069 204.849 78.6528H200.849ZM302.764 61.8528H300.764V63.8528H302.764V61.8528ZM302.764 103.613H300.764V105.613H302.764V103.613ZM302.764 77.2128V75.2128H300.764V77.2128H302.764ZM302.764 63.8528H323.564V59.8528H302.764V63.8528ZM323.564 63.8528C332.967 63.8528 340.71 66.4723 346.067 71.0354C351.39 75.5691 354.524 82.157 354.524 90.4928H358.524C358.524 81.0686 354.938 73.3365 348.661 67.9902C342.418 62.6733 333.681 59.8528 323.564 59.8528V63.8528ZM354.524 90.4928C354.524 98.9127 351.388 105.497 346.07 110.008C340.716 114.55 332.974 117.133 323.564 117.133V121.133C333.674 121.133 342.412 118.356 348.658 113.058C354.941 107.728 358.524 99.993 358.524 90.4928H354.524ZM323.564 117.133H292.364V121.133H323.564V117.133ZM292.364 117.133C290.335 117.133 288.976 116.563 288.128 115.728C287.284 114.897 286.684 113.547 286.684 111.453H282.684C282.684 114.319 283.524 116.808 285.321 118.578C287.112 120.342 289.594 121.133 292.364 121.133V117.133ZM286.684 111.453V44.4128H282.684V111.453H286.684ZM286.684 44.4128C286.684 40.5574 289.949 37.2928 293.804 37.2928V33.2928C287.74 33.2928 282.684 38.3482 282.684 44.4128H286.684ZM293.804 37.2928C297.477 37.2928 300.764 40.5345 300.764 44.4128H304.764C304.764 38.3712 299.732 33.2928 293.804 33.2928V37.2928ZM300.764 44.4128V61.8528H304.764V44.4128H300.764ZM377.644 37.2928C379.544 37.2928 381.328 37.9163 382.611 39.0637C383.859 40.1797 384.764 41.9041 384.764 44.4128H388.764C388.764 40.8416 387.429 38.0059 385.277 36.0819C383.161 34.1893 380.385 33.2928 377.644 33.2928V37.2928ZM384.764 44.4128V110.813H388.764V44.4128H384.764ZM384.764 110.813C384.764 113.325 383.856 115.1 382.592 116.259C381.299 117.446 379.517 118.093 377.644 118.093V122.093C380.411 122.093 383.19 121.14 385.296 119.206C387.433 117.246 388.764 114.38 388.764 110.813H384.764ZM377.644 118.093C374.08 118.093 370.524 115.609 370.524 110.813H366.524C366.524 118.177 372.248 122.093 377.644 122.093V118.093ZM370.524 110.813V44.4128H366.524V110.813H370.524ZM370.524 44.4128C370.524 41.9269 371.452 40.1993 372.729 39.0715C374.043 37.9097 375.836 37.2928 377.644 37.2928V33.2928C374.972 33.2928 372.205 34.1959 370.08 36.0742C367.916 37.9863 366.524 40.8187 366.524 44.4128H370.524ZM302.764 105.613H321.644V101.613H302.764V105.613ZM321.644 105.613C326.87 105.613 331.541 104.437 334.957 101.898C338.45 99.3017 340.444 95.4129 340.444 90.4928H336.444C336.444 94.2127 334.998 96.8839 332.571 98.6876C330.068 100.548 326.338 101.613 321.644 101.613V105.613ZM340.444 90.4928C340.444 85.5765 338.454 81.6539 334.971 79.018C331.557 76.4345 326.884 75.2128 321.644 75.2128V79.2128C326.324 79.2128 330.051 80.3111 332.557 82.2076C334.994 84.0517 336.444 86.7691 336.444 90.4928H340.444ZM321.644 75.2128H302.764V79.2128H321.644V75.2128ZM300.764 77.2128V103.613H304.764V77.2128H300.764ZM440.178 52.4128V50.4128H438.178V52.4128H440.178ZM422.098 52.4128H424.098V50.4128H422.098V52.4128ZM404.498 38.0928H457.778V34.0928H404.498V38.0928ZM457.778 38.0928C461.153 38.0928 463.938 40.8774 463.938 44.2528H467.938C467.938 38.6682 463.362 34.0928 457.778 34.0928V38.0928ZM463.938 44.2528C463.938 47.6282 461.153 50.4128 457.778 50.4128V54.4128C463.362 54.4128 467.938 49.8374 467.938 44.2528H463.938ZM457.778 50.4128H440.178V54.4128H457.778V50.4128ZM438.178 52.4128V110.973H442.178V52.4128H438.178ZM438.178 110.973C438.178 114.737 435.005 118.093 431.218 118.093V122.093C437.35 122.093 442.178 116.808 442.178 110.973H438.178ZM431.218 118.093C427.248 118.093 424.098 114.714 424.098 110.973H420.098C420.098 116.832 424.948 122.093 431.218 122.093V118.093ZM424.098 110.973V52.4128H420.098V110.973H424.098ZM422.098 50.4128H404.498V54.4128H422.098V50.4128ZM404.498 50.4128C401.072 50.4128 398.178 47.5783 398.178 44.2528H394.178C394.178 49.8873 398.964 54.4128 404.498 54.4128V50.4128ZM398.178 44.2528C398.178 40.9273 401.072 38.0928 404.498 38.0928V34.0928C398.964 34.0928 394.178 38.6183 394.178 44.2528H398.178ZM537.073 62.6528H539.073V56.9412L535.51 61.4051L537.073 62.6528ZM494.673 115.773L496.203 117.061L496.22 117.041L496.236 117.02L494.673 115.773ZM493.233 93.3728H491.233V99.1481L494.805 94.6097L493.233 93.3728ZM535.793 39.2928L534.223 38.0535L534.221 38.0559L535.793 39.2928ZM546.193 118.093C542.315 118.093 539.073 114.805 539.073 111.133H535.073C535.073 117.06 540.151 122.093 546.193 122.093V118.093ZM539.073 111.133V62.6528H535.073V111.133H539.073ZM535.51 61.4051L493.11 114.525L496.236 117.02L538.636 63.9005L535.51 61.4051ZM493.143 114.485C490.918 117.127 488.097 118.413 485.393 118.413V122.413C489.409 122.413 493.308 120.499 496.203 117.061L493.143 114.485ZM485.393 118.413C481.177 118.413 477.153 115.268 477.153 109.533H473.153C473.153 117.557 479.049 122.413 485.393 122.413V118.413ZM477.153 109.533V44.0928H473.153V109.533H477.153ZM477.153 44.0928C477.153 40.3974 480.257 37.1328 484.273 37.1328V33.1328C478.048 33.1328 473.153 38.1882 473.153 44.0928H477.153ZM484.273 37.1328C488.105 37.1328 491.233 40.3742 491.233 44.0928H495.233C495.233 38.2114 490.361 33.1328 484.273 33.1328V37.1328ZM491.233 44.0928V93.3728H495.233V44.0928H491.233ZM494.805 94.6097L537.365 40.5297L534.221 38.0559L491.661 92.1359L494.805 94.6097ZM537.363 40.5321C539.377 37.9802 542.155 36.8128 544.753 36.8128V32.8128C540.951 32.8128 537.008 34.5254 534.223 38.0535L537.363 40.5321ZM544.753 36.8128C548.988 36.8128 553.153 39.9761 553.153 45.8528H557.153C557.153 37.6495 551.078 32.8128 544.753 32.8128V36.8128ZM553.153 45.8528V111.133H557.153V45.8528H553.153ZM553.153 111.133C553.153 114.851 550.025 118.093 546.193 118.093V122.093C552.281 122.093 557.153 117.014 557.153 111.133H553.153ZM622.215 86.9728L624.21 87.1153L624.558 82.2508L620.895 85.4707L622.215 86.9728ZM587.815 117.213L589.107 118.74L589.122 118.727L589.136 118.715L587.815 117.213ZM575.495 107.133L574.081 105.719L574.081 105.719L575.495 107.133ZM599.175 87.6128L600.26 89.2934L605.965 85.6128H599.175V87.6128ZM621.895 75.2928V77.2928H623.895V75.2928H621.895ZM621.895 51.9328H623.895V49.9328H621.895V51.9328ZM599.815 38.0928H628.135V34.0928H599.815V38.0928ZM628.135 38.0928C631.374 38.0928 633.601 38.9865 635.021 40.407C636.442 41.8275 637.335 44.0546 637.335 47.2928H641.335C641.335 43.331 640.229 39.9581 637.85 37.5786C635.47 35.1991 632.097 34.0928 628.135 34.0928V38.0928ZM637.335 47.2928V111.613H641.335V47.2928H637.335ZM637.335 111.613C637.335 115.148 634.231 118.253 630.695 118.253V122.253C636.44 122.253 641.335 117.357 641.335 111.613H637.335ZM630.695 118.253C626.887 118.253 623.895 115.036 623.895 111.453H619.895C619.895 117.15 624.584 122.253 630.695 122.253V118.253ZM623.895 111.453C623.895 98.7675 623.897 91.5042 624.21 87.1153L620.22 86.8303C619.894 91.4014 619.895 98.8581 619.895 111.453H623.895ZM620.895 85.4707L586.495 115.711L589.136 118.715L623.536 88.4749L620.895 85.4707ZM586.524 115.686C584.775 117.166 582.984 117.773 581.255 117.773V121.773C584.006 121.773 586.696 120.78 589.107 118.74L586.524 115.686ZM581.255 117.773C577.46 117.773 574.775 115.25 574.775 112.733H570.775C570.775 118.215 576.091 121.773 581.255 121.773V117.773ZM574.775 112.733C574.775 111.626 575.268 110.189 576.91 108.547L574.081 105.719C571.883 107.917 570.775 110.319 570.775 112.733H574.775ZM576.91 108.547C587.672 97.7843 595.397 92.4308 600.26 89.2934L598.091 85.9322C593.034 89.1948 585.078 94.7213 574.081 105.719L576.91 108.547ZM599.175 85.6128H597.095V89.6128H599.175V85.6128ZM597.095 85.6128C591.347 85.6128 584.836 83.9782 579.815 80.2128C574.873 76.5062 571.255 70.6561 571.255 61.8528H567.255C567.255 71.9295 571.478 78.9594 577.415 83.4128C583.275 87.8074 590.684 89.6128 597.095 89.6128V85.6128ZM571.255 61.8528C571.255 54.2165 574.003 48.3684 578.793 44.3916C583.631 40.3751 590.768 38.0928 599.815 38.0928V34.0928C590.143 34.0928 582 36.5305 576.238 41.314C570.428 46.1372 567.255 53.1692 567.255 61.8528H571.255ZM601.095 77.2928H621.895V73.2928H601.095V77.2928ZM623.895 75.2928V51.9328H619.895V75.2928H623.895ZM621.895 49.9328H601.095V53.9328H621.895V49.9328ZM601.095 49.9328C596.232 49.9328 592.135 51.1258 589.214 53.501C586.243 55.9163 584.695 59.3894 584.695 63.4528H588.695C588.695 60.4762 589.788 58.1893 591.737 56.6047C593.736 54.9798 596.839 53.9328 601.095 53.9328V49.9328ZM584.695 63.4528C584.695 67.4895 586.182 71.0322 589.118 73.5348C592.019 76.0076 596.128 77.2928 601.095 77.2928V73.2928C596.783 73.2928 593.692 72.178 591.713 70.4908C589.769 68.8334 588.695 66.4561 588.695 63.4528H584.695Z" fill="white"/>
</svg>
