<svg width="296" height="465" viewBox="0 0 296 465" fill="none" xmlns="http://www.w3.org/2000/svg">
<path d="M247.145 61.1985H213.475C203.208 103.548 193.635 205.342 237.486 273.729C238.873 276.56 241.682 284.749 241.823 294.861V382.96C240.94 388.579 241.242 393.846 220.977 397.517C205.825 400.263 198.598 405.824 198.598 409.031H247.145V395.081V382.96V326.7V273.729V61.1985Z" fill="#F75D2C"/>
<path d="M247.145 61.1987H280.815C291.082 103.548 300.655 205.343 256.804 273.729C255.417 276.56 252.608 284.75 252.467 294.861V382.961C253.35 388.579 253.048 393.846 273.313 397.517C288.465 400.263 295.692 405.824 295.692 409.031H247.145V395.082V382.961V326.7V273.729V61.1987Z" fill="#F75D2C"/>
<mask id="mask0_1_97" style="mask-type:alpha" maskUnits="userSpaceOnUse" x="198" y="61" width="98" height="349">
<path d="M247.145 61.1985H213.475C203.208 103.548 193.635 205.342 237.486 273.729C238.873 276.56 241.682 284.749 241.823 294.861V382.96C240.94 388.579 241.242 393.846 220.977 397.517C205.825 400.263 198.598 405.824 198.598 409.031H247.145V395.081V382.96V326.7V273.729V61.1985Z" fill="#F75D2C"/>
<path d="M247.145 61.1987H280.815C291.082 103.548 300.655 205.343 256.804 273.729C255.417 276.56 252.608 284.75 252.467 294.861V382.961C253.35 388.579 253.048 393.846 273.313 397.517C288.465 400.263 295.692 405.824 295.692 409.031H247.145V395.082V382.961V326.7V273.729V61.1987Z" fill="#F75D2C"/>
</mask>
<g mask="url(#mask0_1_97)">
<rect x="198.598" y="78.4917" width="97.0947" height="178.399" fill="#FFEA2E"/>
</g>
<path d="M247.992 1.5592C236.933 3.50805 216.38 14.2327 222.632 41.5403C228.885 68.848 273.529 44.661 276.048 41.5403C278.568 38.4197 280.009 35.6524 276.048 29.8158C271.098 22.52 212.992 27.2102 232.534 78.2806C233.837 78.2806 235.921 85.5764 246.605 82.9707C257.288 80.3651 271.795 75.4144 259.893 64.7313C247.992 54.0482 220.288 81.4074 216.119 104.337C211.95 127.266 247.647 136.126 264.063 122.576C280.478 109.027 259.633 98.344 244.26 116.844C228.887 135.344 240.09 162.443 259.893 155.147" stroke="#C20C39" stroke-width="2"/>
<circle cx="236.085" cy="98.8885" r="2.01046" fill="white"/>
<circle cx="228.879" cy="109.916" r="3.1856" fill="white"/>
<circle cx="267.252" cy="96.8785" r="2.01046" fill="white"/>
<circle cx="273.429" cy="127.038" r="2.01046" fill="white"/>
<circle cx="261.555" cy="137.092" r="3.68635" fill="white"/>
<circle cx="215.783" cy="125.028" r="2.01046" fill="white"/>
<circle cx="234.075" cy="154.354" r="2.01046" fill="white"/>
<circle cx="263.566" cy="162.18" r="2.01046" fill="white"/>
<path d="M59.6887 101.575H171.924V359.869C171.924 365.392 167.447 369.869 161.924 369.869H69.6887C64.1659 369.869 59.6887 365.392 59.6887 359.869V101.575Z" fill="#BEF3FF"/>
<path d="M21.8239 145.166C9.96047 120.104 24.5979 88.3067 54.5176 74.1433C84.4372 59.9799 118.309 68.8144 130.173 93.8755C127.423 95.1778 105.916 105.353 75.9961 119.516C46.0764 133.679 21.8239 145.166 21.8239 145.166Z" fill="#FEDC01"/>
<path d="M22.2665 144.82C23.6531 115.305 32.175 104.25 62.0947 90.0871C92.0143 75.9238 106.228 76.2648 129.934 93.8451C127.184 95.1474 105.889 105.234 75.9698 119.398C46.0501 133.561 22.2665 144.82 22.2665 144.82Z" fill="#F9E900"/>
<path d="M71.1649 90.1591L76.5834 119.232L55.8279 97.4194L71.1649 90.1591Z" fill="#FEDC01"/>
<path d="M52.1355 99.1672L73.7433 120.576L35.6603 113.572C39.1654 107.462 48.1043 101.423 52.1355 99.1672Z" fill="#FEDC01"/>
<path d="M34.2276 117.385C45.8042 119.204 69.0762 122.785 69.5518 122.56L27.4342 142.498C27.8679 136.034 32.1439 123.063 34.2276 117.385Z" fill="#FEDC01"/>
<path d="M75.3532 88.1764L80.4529 117.4L97.1331 84.4718C94.8947 83.0233 81.6805 86.338 75.3532 88.1764Z" fill="#FEDC01"/>
<path d="M100.474 86.1468L85.8044 114.867L125.742 95.961C121.214 92.1367 107.01 87.8248 100.474 86.1468Z" fill="#FEDC01"/>
<path d="M59.2949 123.277H171.53V338.168C171.53 343.691 167.053 348.168 161.53 348.168H69.2949C63.7721 348.168 59.2949 343.691 59.2949 338.168V123.277Z" fill="#F35248"/>
<rect x="136.863" y="48.4972" width="8.09065" height="314.061" transform="rotate(3.91645 136.863 48.4972)" fill="#3C181D"/>
<rect x="152.792" y="48.2131" width="8.09065" height="314.061" transform="rotate(1.43343 152.792 48.2131)" fill="#3C181D"/>
<path d="M109.077 132.911C100.829 142.109 86.3422 142.57 76.7196 133.941C67.097 125.312 65.9828 110.861 74.231 101.663C82.4791 92.4645 102.195 98.5444 111.817 107.173C121.44 115.802 117.326 123.713 109.077 132.911Z" fill="#9A3822"/>
<circle cx="73.7264" cy="148.076" r="3.25619" fill="white"/>
<circle cx="85.7592" cy="164.319" r="2.50288" fill="white"/>
<circle cx="101.155" cy="153.657" r="1.66624" fill="white"/>
<circle cx="121.008" cy="135.216" r="1.39745" fill="white"/>
<circle cx="114.015" cy="171.287" r="1.39745" fill="white"/>
<circle cx="123.854" cy="161.816" r="1.74035" fill="white"/>
<circle cx="164.606" cy="136.956" r="1.74035" fill="white"/>
<circle cx="144.935" cy="156.077" r="2.50288" fill="white"/>
<path d="M118.715 183.399H248.978L196.112 427.812H170.856L118.715 183.399Z" fill="#4CAEE1"/>
<path d="M183.848 402.555L255.462 448.994H112.233L183.848 402.555Z" fill="#4CAEE1"/>
<path d="M221.213 145.831L269.258 97.0949L273.937 102.327L227.49 149.321L189.973 331.676L183.012 330.966L221.213 145.831Z" fill="#253464"/>
<ellipse cx="224.19" cy="151.567" rx="17.8024" ry="16.5705" transform="rotate(-4.1243 224.19 151.567)" fill="#253464"/>
<circle cx="201.172" cy="198.025" r="2.34195" fill="white"/>
<circle cx="228.714" cy="190.583" r="2.26127" fill="white"/>
<circle cx="177.177" cy="263.429" r="1.0892" fill="white"/>
<circle cx="152.186" cy="265.601" r="3.26102" fill="white"/>
<circle cx="170.165" cy="280.047" r="2.2468" fill="white"/>
<circle cx="185.457" cy="271.076" r="1.60749" fill="white"/>
<circle cx="212.05" cy="279.788" r="1.98765" fill="white"/>
<path d="M201.173 222.21C175.919 233.658 144.367 218.498 130.699 188.349C117.031 158.2 126.423 124.478 151.677 113.03C152.933 115.801 162.752 137.473 176.42 167.622C190.088 197.771 201.173 222.21 201.173 222.21Z" fill="#FEDC01"/>
<path d="M200.834 221.762C171.346 219.888 160.433 211.185 146.765 181.036C133.097 150.887 133.673 136.68 151.642 113.268C152.899 116.039 162.633 137.497 176.301 167.646C189.969 197.795 200.834 221.762 200.834 221.762Z" fill="#F9E900"/>
<path d="M146.988 171.968L176.146 167.03L153.994 187.423L146.988 171.968Z" fill="#FEDC01"/>
<path d="M155.681 191.144L177.443 169.892L169.812 207.854C163.761 204.249 157.87 195.211 155.681 191.144Z" fill="#FEDC01"/>
<path d="M173.601 209.349C175.61 197.805 179.575 174.595 179.358 174.115L198.598 216.556C192.142 216.016 179.243 211.527 173.601 209.349Z" fill="#FEDC01"/>
<path d="M145.074 167.748L174.378 163.131L141.729 145.91C140.244 148.124 143.341 161.391 145.074 167.748Z" fill="#FEDC01"/>
<path d="M143.459 142.597L171.933 157.738L153.689 117.494C149.791 121.958 145.245 136.09 143.459 142.597Z" fill="#FEDC01"/>
<mask id="mask1_1_97" style="mask-type:alpha" maskUnits="userSpaceOnUse" x="112" y="183" width="144" height="266">
<path d="M118.717 183.399H248.98L196.114 427.812H170.858L118.717 183.399Z" fill="#4D9BC4"/>
<path d="M183.849 402.555L255.464 448.993H112.235L183.849 402.555Z" fill="#4D9BC4"/>
</mask>
<g mask="url(#mask1_1_97)">
<rect x="118.718" y="288.952" width="130.263" height="123.836" fill="#AAF0FF"/>
<rect x="118.718" y="206.21" width="130.263" height="47.2529" fill="#AAF0FF"/>
</g>
</svg>
