<svg width="296" height="463" viewBox="0 0 296 463" fill="none" xmlns="http://www.w3.org/2000/svg">
<g clip-path="url(#clip0_78_146)">
<path d="M29.2271 197.146C46.176 209.236 80.8898 233.813 84.1542 235.398L61.3011 260.154C49.0395 247.722 22.6808 220.725 15.3387 212.19C7.9966 203.655 15.0867 205.593 19.5496 207.629C12.3728 198.64 19.7067 200.474 24.2708 202.515C18.3045 191.391 25.0891 194.301 29.2271 197.146Z" fill="#EEB00F"/>
<path fill-rule="evenodd" clip-rule="evenodd" d="M170.313 422.621L172.081 422.619L176.5 363.234L151.033 363.259L154.183 407.058C153.799 407.046 153.407 407.033 153.008 407.021C131.43 406.327 131.271 417.155 133.889 422.656L170.313 422.621L170.313 422.621Z" fill="#ECBC40"/>
<path fill-rule="evenodd" clip-rule="evenodd" d="M130.213 418.253L113.435 418.269L113.435 418.269L92.0221 418.289C89.4042 412.788 89.563 401.96 111.142 402.654C111.54 402.667 111.931 402.679 112.315 402.691L109.164 358.893L134.631 358.868L130.213 418.253Z" fill="#ECBC40"/>
<path d="M146.066 111.791C192.223 74.0866 153.15 75.425 127.845 80.8072L135.086 361.887L276.867 369.737C281.011 333.338 258.46 349.267 246.666 361.781C261.268 314.94 225.088 330.664 205.173 344.381C244.257 295.402 199.892 305.354 172.824 316.452C242.121 274.753 195.038 273.364 162.834 277.882C216.911 251.499 182.18 243.418 158.055 242.675C218.155 228.534 180.441 217.394 154.072 213.591C216.071 199.754 178.302 185.118 151.667 179.53C215.548 148.545 176.152 142.127 148.468 142.791C204.139 128.041 170.063 115.979 146.066 111.791Z" fill="#EB5D3A"/>
<path d="M99.1903 68.7253C131.628 68.204 144.399 83.6022 146.729 91.3665C153.253 157.092 168.818 293.982 178.89 315.743C188.962 337.503 260.696 363.484 295.304 373.755C220.491 379.418 66.3418 385.274 48.2524 363.393C30.163 341.511 36.1237 287.353 41.3652 263.009L82.7026 150.507C69.6407 151.469 38.7004 152.047 19.4348 146.67C0.169283 141.293 2.52167 127.679 6.1061 121.544C3.51775 64.5239 58.6427 69.3768 99.1903 68.7253Z" fill="#FCC537"/>
<mask id="mask0_78_146" style="mask-type:alpha" maskUnits="userSpaceOnUse" x="3" y="68" width="293" height="311">
<path d="M99.1903 68.7262C131.628 68.2049 144.399 83.6031 146.729 91.3673C153.253 157.092 168.818 293.983 178.89 315.743C188.962 337.504 260.696 363.485 295.304 373.755C220.491 379.419 66.3418 385.275 48.2524 363.394C30.163 341.512 36.1237 287.354 41.3652 263.009L82.7026 150.508C69.6407 151.47 38.7004 152.048 19.4348 146.671C0.169283 141.293 2.52167 127.679 6.1061 121.545C3.51775 64.5248 58.6427 69.3777 99.1903 68.7262Z" fill="#FCC537"/>
</mask>
<g mask="url(#mask0_78_146)">
<path d="M110.404 380.335C113.556 267.693 60.8264 263.237 34.0674 275.09L30.0936 380.412L110.404 380.335Z" fill="#FDCF8C"/>
</g>
<ellipse cx="13.9867" cy="17.8004" rx="13.9867" ry="17.8004" transform="matrix(-1 0.000947909 0.000947909 1 102.588 45.6118)" fill="#F5F5F5"/>
<ellipse cx="9.07474" cy="11.5491" rx="9.07474" ry="11.5491" transform="matrix(-1 0.000947909 0.000947909 1 97.688 58.1179)" fill="black"/>
<ellipse cx="13.9867" cy="17.8004" rx="13.9867" ry="17.8004" transform="matrix(-1 0.000947909 0.000947909 1 70.7769 40.3434)" fill="#F5F5F5"/>
<ellipse cx="9.07474" cy="11.5491" rx="9.07474" ry="11.5491" transform="matrix(-1 0.000947909 0.000947909 1 65.8765 52.8505)" fill="black"/>
<path d="M27.3393 125.392C19.8657 81.4671 6.84573 119.774 5.64231 121.719C44.6988 130.857 66.1084 127.947 71.9312 125.35C82.9216 135.642 102.766 148.919 94.2219 119.691C105.344 127.392 124.246 135.797 110.882 107.818C106.87 112.681 93.4616 122.997 71.9312 125.35C57.9261 99.0816 50.1616 115.586 48.0299 127.122C41.5781 101.624 31.5479 115.345 27.3393 125.392Z" fill="white"/>
<path d="M5.70909 121.728C32.0291 128.996 90.7928 135.443 115.287 103.081" stroke="black" stroke-width="3"/>
<ellipse cx="9.44201" cy="7.33498" rx="9.44201" ry="7.33498" transform="matrix(-1 0.000947909 0.000947909 1 195.371 348.605)" fill="#EB5D3A"/>
<ellipse cx="6.56881" cy="5.10295" rx="6.56881" ry="5.10295" transform="matrix(-1 0.000947909 0.000947909 1 176.47 331.506)" fill="#EB5D3A"/>
<ellipse cx="6.56881" cy="5.10295" rx="6.56881" ry="5.10295" transform="matrix(-1 0.000947909 0.000947909 1 169.917 348.629)" fill="#EB5D3A"/>
<rect width="2.74191" height="13.3452" transform="matrix(-0.98391 -0.178666 -0.190401 0.981706 50.4497 284.614)" fill="#FCC537"/>
<rect width="2.74365" height="13.3362" transform="matrix(-0.993126 0.117047 0.124793 0.992183 63.5454 309.354)" fill="#FCC537"/>
<rect width="2.74386" height="13.335" transform="matrix(-0.994306 0.106562 0.113627 0.993523 65.2476 280.944)" fill="#FCC537"/>
<rect width="2.74365" height="13.3362" transform="matrix(-0.993126 0.117047 0.124793 0.992183 76.3408 297.688)" fill="#FCC537"/>
<rect width="2.74485" height="13.33" transform="matrix(-0.999729 -0.0232667 -0.0249058 0.99969 52.0288 319.936)" fill="#FCC537"/>
<rect width="2.74327" height="13.3382" transform="matrix(-0.991029 0.133647 0.14246 0.989801 52.4668 344.642)" fill="#FCC537"/>
<rect width="2.7447" height="13.3307" transform="matrix(-0.998859 0.0477614 0.0509244 0.998702 91.8115 313.112)" fill="#FCC537"/>
<rect width="2.7447" height="13.3307" transform="matrix(-0.998859 0.0477614 0.0509244 0.998702 82.6548 334.484)" fill="#FCC537"/>
<rect width="2.74382" height="13.3353" transform="matrix(-0.99429 -0.106708 -0.113907 0.993491 66.752 333.249)" fill="#FCC537"/>
<rect width="2.74229" height="13.3432" transform="matrix(-0.985674 0.168661 0.179668 0.983727 96.4336 353.704)" fill="#FCC537"/>
<rect width="2.74229" height="13.3432" transform="matrix(-0.985674 0.168661 0.179668 0.983727 100.272 334.781)" fill="#FCC537"/>
<rect width="2.74419" height="13.3333" transform="matrix(-0.996268 -0.0863153 -0.0921764 0.995743 77.311 356.81)" fill="#FCC537"/>
<path d="M95.6983 284.189C105.954 266.392 126.77 229.963 127.983 226.629L156.241 245.444C145.044 258.785 120.694 287.498 112.871 295.624C105.048 303.75 106.14 296.698 107.664 292.157C99.3554 300.181 100.311 292.909 101.827 288.27C91.1768 295.402 93.3036 288.521 95.6983 284.189Z" fill="#EEB00F"/>
</g>
<defs>
<clipPath id="clip0_78_146">
<rect width="295.35" height="462.91" fill="white"/>
</clipPath>
</defs>
</svg>
