<svg width="36" height="35" viewBox="0 0 36 35" fill="none" xmlns="http://www.w3.org/2000/svg">
<path d="M19.125 16.0417C19.125 15.4376 18.6213 14.9479 18 14.9479C17.3787 14.9479 16.875 15.4376 16.875 16.0417V24.7917C16.875 25.3957 17.3787 25.8854 18 25.8854C18.6213 25.8854 19.125 25.3957 19.125 24.7917V16.0417Z" fill="#FAFAFA"/>
<path fill-rule="evenodd" clip-rule="evenodd" d="M18 1.82294C9.09441 1.82294 1.875 8.84181 1.875 17.5C1.875 26.1582 9.09441 33.1771 18 33.1771C26.9056 33.1771 34.125 26.1582 34.125 17.5C34.125 8.84181 26.9056 1.82294 18 1.82294ZM4.125 17.5C4.125 10.0499 10.337 4.01044 18 4.01044C25.663 4.01044 31.875 10.0499 31.875 17.5C31.875 24.9501 25.663 30.9896 18 30.9896C10.337 30.9896 4.125 24.9501 4.125 17.5Z" fill="#FAFAFA"/>
<path d="M19.5 11.6667C19.5 12.4721 18.8284 13.125 18 13.125C17.1716 13.125 16.5 12.4721 16.5 11.6667C16.5 10.8613 17.1716 10.2084 18 10.2084C18.8284 10.2084 19.5 10.8613 19.5 11.6667Z" fill="#FAFAFA"/>
</svg>
