<svg width="47" height="46" viewBox="0 0 47 46" fill="none" xmlns="http://www.w3.org/2000/svg">
<g clip-path="url(#clip0_1_883)">
<path fill-rule="evenodd" clip-rule="evenodd" d="M3.51393 3.48992C3.32136 2.73647 2.54088 2.27838 1.77068 2.46677C1.00048 2.65515 0.532218 3.41866 0.724787 4.17212L2.74083 12.0602L4.61687 19.7177C5.41458 22.9737 6.04247 25.5367 6.78757 27.5277C7.55186 29.5701 8.48912 31.1556 9.99289 32.3715C10.1227 32.4764 10.2549 32.5784 10.3894 32.6774C11.9486 33.8246 13.7432 34.3467 15.9515 34.5978C18.1044 34.8426 20.7984 34.8425 24.221 34.8425H25.3586C28.3199 34.8425 30.651 34.8426 32.529 34.6568C34.4526 34.4665 36.0353 34.0716 37.4596 33.1992C38.1352 32.7854 38.7629 32.3011 39.3317 31.7548C40.6711 30.4686 41.4658 28.8534 42.1498 26.759C42.653 25.2186 43.1217 23.3339 43.6857 21.034L43.8258 20.4623C44.242 18.7637 44.585 17.3637 44.7175 16.2295C44.8551 15.0524 44.7989 13.9316 44.1983 12.9083C43.9414 12.4706 43.6202 12.0721 43.245 11.7257C42.3677 10.9158 41.2666 10.6012 40.0644 10.4577C38.9061 10.3194 37.4345 10.3195 35.6489 10.3195L5.25944 10.3195L3.51393 3.48992ZM7.39141 18.9753L5.95983 13.132H35.5556C37.4579 13.132 38.7527 13.1345 39.7162 13.2495C40.6559 13.3617 41.0412 13.5584 41.2717 13.7712C41.4423 13.9287 41.5883 14.1098 41.705 14.3087C41.8629 14.5776 41.9686 14.99 41.8611 15.9101C41.7634 16.7462 41.5172 17.8091 41.1539 19.2998L27.0362 19.2998C26.2423 19.2998 25.5987 19.9294 25.5987 20.706C25.5987 21.4827 26.2423 22.1123 27.0362 22.1123L40.4612 22.1123C40.1948 23.1746 39.9521 24.103 39.7123 24.9248H32.7862C31.9923 24.9248 31.3487 25.5544 31.3487 26.331C31.3487 27.1077 31.9923 27.7373 32.7862 27.7373H38.7026C38.2943 28.6049 37.8532 29.2335 37.3176 29.7478C36.8972 30.1516 36.4333 30.5095 35.9339 30.8154C35.0252 31.372 33.9274 31.6916 32.2397 31.8585C30.5231 32.0284 28.337 32.03 25.2799 32.03H24.3125C20.7785 32.03 18.2512 32.0278 16.2834 31.8041C14.352 31.5845 13.1172 31.1652 12.1176 30.4297C12.0181 30.3566 11.9204 30.2812 11.8245 30.2036C10.8603 29.4241 10.1558 28.3471 9.48734 26.5609C8.80631 24.741 8.21509 22.3373 7.39141 18.9753Z" fill="#FAFAFA"/>
<path d="M20.2774 39.3573C20.2774 40.4474 19.3741 41.331 18.2599 41.331C17.1456 41.331 16.2423 40.4474 16.2423 39.3573C16.2423 38.2673 17.1456 37.3837 18.2599 37.3837C19.3741 37.3837 20.2774 38.2673 20.2774 39.3573Z" fill="#FAFAFA"/>
<path d="M32.3827 39.3573C32.3827 40.4474 31.4794 41.331 30.3651 41.331C29.2509 41.331 28.3476 40.4474 28.3476 39.3573C28.3476 38.2673 29.2509 37.3837 30.3651 37.3837C31.4794 37.3837 32.3827 38.2673 32.3827 39.3573Z" fill="#FAFAFA"/>
</g>
<defs>
<clipPath id="clip0_1_883">
<rect width="46" height="45" fill="white" transform="translate(0.202515 0.0810547)"/>
</clipPath>
</defs>
</svg>
