<svg width="47" height="46" viewBox="0 0 47 46" fill="none" xmlns="http://www.w3.org/2000/svg">
<g clip-path="url(#clip0_171_212)">
<path d="M3.66627 3.67608C3.47371 2.92262 2.69323 2.46454 1.92303 2.65292C1.15282 2.84131 0.684561 3.60482 0.877131 4.35828L2.89317 12.2464L4.76921 19.9038C5.56692 23.1599 6.19481 25.7229 6.93991 27.7139C7.70421 29.7563 8.64147 31.3418 10.1452 32.5577C10.275 32.6626 10.4072 32.7646 10.5418 32.8636C12.1009 34.0108 13.8955 34.5329 16.1039 34.7839C18.2567 35.0287 20.9507 35.0287 24.3733 35.0287H25.511C28.4722 35.0287 30.8034 35.0287 32.6814 34.8429C34.6049 34.6526 36.1876 34.2577 37.6119 33.3853C38.2875 32.9715 38.9153 32.4873 39.4841 31.941C40.607 30.8625 41.3471 29.5529 41.9601 27.9234H32.9386C32.1446 27.9234 31.5011 27.2938 31.5011 26.5172C31.5011 25.7405 32.1446 25.1109 32.9386 25.1109H42.8475C43.0817 24.2587 43.3188 23.3237 43.5726 22.2984L27.1886 22.2984C26.3946 22.2984 25.7511 21.6688 25.7511 20.8922C25.7511 20.1155 26.3946 19.4859 27.1886 19.4859L44.261 19.4859C44.5457 18.2985 44.7689 17.2799 44.8699 16.4157C45.0074 15.2386 44.9513 14.1178 44.3506 13.0944C44.0937 12.6567 43.7725 12.2583 43.3973 11.9119C42.52 11.102 41.4189 10.7874 40.2168 10.6439C39.0584 10.5056 37.5868 10.5056 35.8012 10.5057L5.41178 10.5057L3.66627 3.67608Z" fill="#FAFAFA"/>
<path d="M18.4122 41.5172C19.5265 41.5172 20.4298 40.6335 20.4298 39.5435C20.4298 38.4535 19.5265 37.5698 18.4122 37.5698C17.298 37.5698 16.3947 38.4535 16.3947 39.5435C16.3947 40.6335 17.298 41.5172 18.4122 41.5172Z" fill="#FAFAFA"/>
<path d="M30.5175 41.5172C31.6318 41.5172 32.5351 40.6335 32.5351 39.5435C32.5351 38.4535 31.6318 37.5698 30.5175 37.5698C29.4032 37.5698 28.5 38.4535 28.5 39.5435C28.5 40.6335 29.4032 41.5172 30.5175 41.5172Z" fill="#FAFAFA"/>
</g>
<defs>
<clipPath id="clip0_171_212">
<rect width="46" height="45" fill="white" transform="translate(0.35498 0.267212)"/>
</clipPath>
</defs>
</svg>
