<svg width="47" height="46" viewBox="0 0 47 46" fill="none" xmlns="http://www.w3.org/2000/svg">
<path fill-rule="evenodd" clip-rule="evenodd" d="M40.159 7.96025C37.6145 5.4218 34.7819 4.63651 32.1217 4.82702C29.5335 5.01237 27.2027 6.11069 25.5003 7.16712C24.1577 8.00022 22.2468 8.00022 20.9043 7.16712C19.2019 6.1107 16.871 5.0124 14.2828 4.82704C11.6227 4.63654 8.7901 5.42183 6.24561 7.96025C3.24166 10.957 2.2992 14.6565 2.67766 18.3985C3.05175 22.0975 4.71029 25.8576 6.92234 29.1895C9.1403 32.5302 11.9735 35.5296 14.8158 37.7075C17.5957 39.8375 20.6202 41.3622 23.2023 41.3622C25.7844 41.3622 28.809 39.8375 31.5888 37.7075C34.4312 35.5296 37.2644 32.5302 39.4823 29.1895C41.6943 25.8576 43.3529 22.0975 43.727 18.3985C44.1054 14.6565 43.163 10.957 40.159 7.96025ZM27.0403 9.54209C28.5457 8.60788 30.4091 7.76969 32.3316 7.63201C34.1822 7.49948 36.1769 8.00461 38.1063 9.92941C40.4125 12.2301 41.176 15.0558 40.8659 18.1216C40.5515 21.2306 39.127 24.561 37.0712 27.6576C35.0213 30.7452 32.4017 33.5121 29.816 35.4933C27.1678 37.5225 24.7891 38.5497 23.2023 38.5497C21.6155 38.5497 19.2368 37.5225 16.5886 35.4933C14.003 33.5121 11.3834 30.7452 9.33344 27.6576C7.27759 24.561 5.85311 21.2306 5.53869 18.1216C5.22863 15.0558 5.99217 12.2301 8.29836 9.92941C10.2277 8.00464 12.2223 7.49951 14.0729 7.63204C15.9955 7.76972 17.8588 8.6079 19.3643 9.5421C21.6469 10.9586 24.7577 10.9586 27.0403 9.54209Z" fill="#FAFAFA"/>
</svg>
