<svg width="257" height="171" viewBox="0 0 257 171" fill="none" xmlns="http://www.w3.org/2000/svg">
<path d="M93.1518 85.38V75.5618H94.6603V79.8317H95.6575L99.1859 75.5618H101.129L97.166 80.2919L101.18 85.38H99.237L96.0154 81.238H94.6603V85.38H93.1518ZM106.404 85.5846C105.518 85.5846 104.74 85.3736 104.071 84.9517C103.406 84.5299 102.886 83.9397 102.511 83.1811C102.141 82.4226 101.955 81.5363 101.955 80.5221C101.955 79.4993 102.141 78.6066 102.511 77.8438C102.886 77.081 103.406 76.4887 104.071 76.0668C104.74 75.6449 105.518 75.434 106.404 75.434C107.29 75.434 108.066 75.6449 108.731 76.0668C109.4 76.4887 109.92 77.081 110.29 77.8438C110.665 78.6066 110.853 79.4993 110.853 80.5221C110.853 81.5363 110.665 82.4226 110.29 83.1811C109.92 83.9397 109.4 84.5299 108.731 84.9517C108.066 85.3736 107.29 85.5846 106.404 85.5846ZM106.404 84.2294C107.077 84.2294 107.631 84.0569 108.066 83.7117C108.501 83.3665 108.822 82.9127 109.031 82.3502C109.24 81.7877 109.344 81.1783 109.344 80.5221C109.344 79.8658 109.24 79.2543 109.031 78.6875C108.822 78.1208 108.501 77.6627 108.066 77.3132C107.631 76.9638 107.077 76.7891 106.404 76.7891C105.731 76.7891 105.177 76.9638 104.742 77.3132C104.308 77.6627 103.986 78.1208 103.777 78.6875C103.568 79.2543 103.464 79.8658 103.464 80.5221C103.464 81.1783 103.568 81.7877 103.777 82.3502C103.986 82.9127 104.308 83.3665 104.742 83.7117C105.177 84.0569 105.731 84.2294 106.404 84.2294ZM118.525 83.3346L121.951 75.5618H123.383L119.139 85.38H117.911L113.744 75.5618H115.15L118.525 83.3346ZM114.664 75.5618V85.38H113.156V75.5618H114.664ZM122.386 85.38V75.5618H123.894V85.38H122.386ZM133.227 79.7806V81.1868H127.806V79.7806H133.227ZM128.164 75.5618V85.38H126.656V75.5618H128.164ZM134.377 75.5618V85.38H132.869V75.5618H134.377ZM140.021 85.6101C139.399 85.6101 138.835 85.4929 138.328 85.2586C137.82 85.0199 137.418 84.6769 137.119 84.2294C136.821 83.7777 136.672 83.2323 136.672 82.5931C136.672 82.0306 136.783 81.5746 137.004 81.2252C137.226 80.8715 137.522 80.5945 137.893 80.3942C138.264 80.1939 138.673 80.0448 139.12 79.9468C139.572 79.8445 140.026 79.7635 140.482 79.7039C141.078 79.6272 141.562 79.5696 141.933 79.5313C142.308 79.4887 142.58 79.4184 142.751 79.3203C142.926 79.2223 143.013 79.0519 143.013 78.809V78.7578C143.013 78.1272 142.84 77.6371 142.495 77.2877C142.154 76.9382 141.637 76.7635 140.942 76.7635C140.222 76.7635 139.657 76.9212 139.248 77.2365C138.839 77.5519 138.551 77.8885 138.385 78.2465L136.953 77.7351C137.209 77.1385 137.55 76.674 137.976 76.3417C138.406 76.005 138.875 75.7706 139.382 75.6385C139.894 75.5022 140.396 75.434 140.891 75.434C141.206 75.434 141.568 75.4723 141.977 75.549C142.391 75.6215 142.789 75.7728 143.173 76.0029C143.561 76.233 143.882 76.5803 144.138 77.0448C144.394 77.5093 144.521 78.1314 144.521 78.9113V85.38H143.013V84.0505H142.936C142.834 84.2635 142.664 84.4915 142.425 84.7344C142.186 84.9773 141.869 85.184 141.472 85.3544C141.076 85.5249 140.592 85.6101 140.021 85.6101ZM140.252 84.255C140.848 84.255 141.351 84.1378 141.76 83.9034C142.173 83.6691 142.485 83.3665 142.693 82.9958C142.906 82.625 143.013 82.2351 143.013 81.826V80.4453C142.949 80.5221 142.808 80.5924 142.591 80.6563C142.378 80.7159 142.131 80.7692 141.85 80.8161C141.573 80.8587 141.302 80.8971 141.038 80.9311C140.778 80.961 140.567 80.9865 140.405 81.0078C140.013 81.059 139.646 81.1421 139.306 81.2571C138.969 81.3679 138.696 81.5363 138.487 81.7621C138.283 81.9837 138.181 82.2863 138.181 82.6698C138.181 83.1939 138.374 83.5902 138.762 83.8587C139.154 84.1229 139.651 84.255 140.252 84.255ZM145.939 76.9681V75.5618H153.916V76.9681H150.695V85.38H149.186V76.9681H145.939ZM158.496 85.6101C157.874 85.6101 157.309 85.4929 156.802 85.2586C156.295 85.0199 155.892 84.6769 155.594 84.2294C155.296 83.7777 155.147 83.2323 155.147 82.5931C155.147 82.0306 155.257 81.5746 155.479 81.2252C155.701 80.8715 155.997 80.5945 156.368 80.3942C156.738 80.1939 157.147 80.0448 157.595 79.9468C158.047 79.8445 158.5 79.7635 158.956 79.7039C159.553 79.6272 160.037 79.5696 160.407 79.5313C160.782 79.4887 161.055 79.4184 161.225 79.3203C161.4 79.2223 161.488 79.0519 161.488 78.809V78.7578C161.488 78.1272 161.315 77.6371 160.97 77.2877C160.629 76.9382 160.111 76.7635 159.417 76.7635C158.696 76.7635 158.132 76.9212 157.723 77.2365C157.314 77.5519 157.026 77.8885 156.86 78.2465L155.428 77.7351C155.684 77.1385 156.024 76.674 156.451 76.3417C156.881 76.005 157.35 75.7706 157.857 75.6385C158.368 75.5022 158.871 75.434 159.365 75.434C159.681 75.434 160.043 75.4723 160.452 75.549C160.865 75.6215 161.264 75.7728 161.647 76.0029C162.035 76.233 162.357 76.5803 162.613 77.0448C162.868 77.5093 162.996 78.1314 162.996 78.9113V85.38H161.488V84.0505H161.411C161.309 84.2635 161.138 84.4915 160.899 84.7344C160.661 84.9773 160.343 85.184 159.947 85.3544C159.551 85.5249 159.067 85.6101 158.496 85.6101ZM158.726 84.255C159.323 84.255 159.826 84.1378 160.235 83.9034C160.648 83.6691 160.959 83.3665 161.168 82.9958C161.381 82.625 161.488 82.2351 161.488 81.826V80.4453C161.424 80.5221 161.283 80.5924 161.066 80.6563C160.853 80.7159 160.605 80.7692 160.324 80.8161C160.047 80.8587 159.777 80.8971 159.512 80.9311C159.252 80.961 159.042 80.9865 158.88 81.0078C158.488 81.059 158.121 81.1421 157.78 81.2571C157.444 81.3679 157.171 81.5363 156.962 81.7621C156.757 81.9837 156.655 82.2863 156.655 82.6698C156.655 83.1939 156.849 83.5902 157.237 83.8587C157.629 84.1229 158.125 84.255 158.726 84.255ZM60.4014 110.193V105.974H61.2195C61.4198 105.765 61.5924 105.539 61.7373 105.296C61.8822 105.053 62.0079 104.766 62.1144 104.433C62.2252 104.097 62.319 103.688 62.3957 103.206C62.4724 102.72 62.5406 102.134 62.6002 101.448L62.9326 97.5618H69.1712V105.974H70.6798V110.193H69.1712V107.38H61.9099V110.193H60.4014ZM62.9326 105.974H67.6627V98.9681H64.3389L64.0832 101.448C63.9766 102.475 63.8445 103.372 63.6869 104.139C63.5292 104.906 63.2778 105.518 62.9326 105.974ZM71.8128 107.38V105.974H72.1707C72.4647 105.974 72.7098 105.916 72.9058 105.801C73.1018 105.682 73.2595 105.475 73.3788 105.181C73.5024 104.883 73.5961 104.469 73.6601 103.941C73.7282 103.408 73.7772 102.731 73.8071 101.908L73.9861 97.5618H80.5315V107.38H79.023V98.9681H75.4179L75.2645 102.471C75.2304 103.276 75.1579 103.986 75.0471 104.599C74.9406 105.209 74.7765 105.72 74.5549 106.134C74.3376 106.547 74.0478 106.858 73.6856 107.067C73.3234 107.276 72.8696 107.38 72.3241 107.38H71.8128ZM89.2055 107.38V98.9425H86.5976C86.0095 98.9425 85.5471 99.0789 85.2105 99.3516C84.8738 99.6243 84.7055 99.9993 84.7055 100.477C84.7055 100.945 84.8568 101.314 85.1593 101.582C85.4662 101.851 85.8859 101.985 86.4186 101.985H89.589V103.391H86.4186C85.7538 103.391 85.1807 103.274 84.6991 103.04C84.2176 102.805 83.8468 102.471 83.5869 102.036C83.327 101.597 83.197 101.077 83.197 100.477C83.197 99.8715 83.3334 99.3516 83.6061 98.9169C83.8788 98.4823 84.2687 98.1478 84.7758 97.9134C85.2872 97.679 85.8944 97.5618 86.5976 97.5618H90.6373V107.38H89.2055ZM82.6601 107.38L85.447 102.496H87.0834L84.2964 107.38H82.6601ZM104.529 97.5618V98.9681H99.9777V107.38H98.4692V97.5618H104.529ZM108.239 105.156L112.97 97.5618H114.708V107.38H113.2V99.7863L108.495 107.38H106.731V97.5618H108.239V105.156ZM116.135 98.9681V97.5618H124.112V98.9681H120.891V107.38H119.382V98.9681H116.135ZM128.692 107.61C128.07 107.61 127.506 107.493 126.998 107.259C126.491 107.02 126.089 106.677 125.79 106.229C125.492 105.778 125.343 105.232 125.343 104.593C125.343 104.031 125.454 103.575 125.675 103.225C125.897 102.871 126.193 102.594 126.564 102.394C126.935 102.194 127.344 102.045 127.791 101.947C128.243 101.844 128.697 101.764 129.153 101.704C129.749 101.627 130.233 101.57 130.604 101.531C130.979 101.489 131.251 101.418 131.422 101.32C131.596 101.222 131.684 101.052 131.684 100.809V100.758C131.684 100.127 131.511 99.6371 131.166 99.2877C130.825 98.9382 130.307 98.7635 129.613 98.7635C128.893 98.7635 128.328 98.9212 127.919 99.2365C127.51 99.5519 127.222 99.8885 127.056 100.246L125.624 99.7351C125.88 99.1385 126.221 98.674 126.647 98.3417C127.077 98.005 127.546 97.7706 128.053 97.6385C128.565 97.5022 129.067 97.434 129.562 97.434C129.877 97.434 130.239 97.4723 130.648 97.549C131.062 97.6215 131.46 97.7728 131.844 98.0029C132.231 98.233 132.553 98.5803 132.809 99.0448C133.065 99.5093 133.192 100.131 133.192 100.911V107.38H131.684V106.05H131.607C131.505 106.264 131.334 106.492 131.096 106.734C130.857 106.977 130.54 107.184 130.143 107.354C129.747 107.525 129.263 107.61 128.692 107.61ZM128.922 106.255C129.519 106.255 130.022 106.138 130.431 105.903C130.844 105.669 131.155 105.367 131.364 104.996C131.577 104.625 131.684 104.235 131.684 103.826V102.445C131.62 102.522 131.479 102.592 131.262 102.656C131.049 102.716 130.802 102.769 130.52 102.816C130.244 102.859 129.973 102.897 129.709 102.931C129.449 102.961 129.238 102.987 129.076 103.008C128.684 103.059 128.317 103.142 127.976 103.257C127.64 103.368 127.367 103.536 127.158 103.762C126.954 103.984 126.851 104.286 126.851 104.67C126.851 105.194 127.045 105.59 127.433 105.859C127.825 106.123 128.322 106.255 128.922 106.255ZM135.946 111.062V97.5618H137.403V99.1215H137.582C137.693 98.951 137.846 98.7337 138.042 98.4695C138.243 98.201 138.528 97.9624 138.899 97.7536C139.274 97.5405 139.781 97.434 140.42 97.434C141.247 97.434 141.976 97.6407 142.606 98.054C143.237 98.4674 143.729 99.0533 144.083 99.8118C144.437 100.57 144.613 101.465 144.613 102.496C144.613 103.536 144.437 104.438 144.083 105.2C143.729 105.959 143.239 106.547 142.613 106.965C141.986 107.378 141.264 107.585 140.446 107.585C139.815 107.585 139.31 107.48 138.931 107.271C138.552 107.058 138.26 106.818 138.055 106.549C137.851 106.276 137.693 106.05 137.582 105.871H137.454V111.062H135.946ZM137.429 102.471C137.429 103.212 137.537 103.867 137.755 104.433C137.972 104.996 138.289 105.437 138.707 105.756C139.125 106.072 139.636 106.229 140.241 106.229C140.872 106.229 141.398 106.063 141.82 105.731C142.246 105.394 142.566 104.943 142.779 104.376C142.996 103.805 143.105 103.17 143.105 102.471C143.105 101.781 142.998 101.158 142.785 100.604C142.576 100.046 142.259 99.6051 141.833 99.2813C141.411 98.9532 140.88 98.7891 140.241 98.7891C139.628 98.7891 139.112 98.9446 138.694 99.2557C138.277 99.5625 137.961 99.9929 137.748 100.547C137.535 101.097 137.429 101.738 137.429 102.471ZM148.423 105.156L153.153 97.5618H154.892V107.38H153.383V99.7863L148.679 107.38H146.914V97.5618H148.423V105.156ZM161.643 107.585C160.723 107.585 159.93 107.367 159.266 106.933C158.601 106.498 158.089 105.899 157.731 105.136C157.373 104.374 157.195 103.502 157.195 102.522C157.195 101.525 157.378 100.645 157.744 99.8821C158.115 99.1151 158.631 98.5164 159.291 98.086C159.956 97.6513 160.731 97.434 161.618 97.434C162.308 97.434 162.93 97.5618 163.484 97.8175C164.038 98.0732 164.492 98.4311 164.846 98.8914C165.199 99.3516 165.419 99.8885 165.504 100.502H163.996C163.881 100.055 163.625 99.6584 163.229 99.3132C162.837 98.9638 162.308 98.7891 161.643 98.7891C161.055 98.7891 160.54 98.9425 160.096 99.2493C159.658 99.5519 159.315 99.9801 159.067 100.534C158.824 101.084 158.703 101.729 158.703 102.471C158.703 103.229 158.822 103.89 159.061 104.452C159.304 105.015 159.645 105.452 160.084 105.763C160.527 106.074 161.047 106.229 161.643 106.229C162.035 106.229 162.391 106.161 162.711 106.025C163.03 105.889 163.301 105.693 163.523 105.437C163.744 105.181 163.902 104.874 163.996 104.516H165.504C165.419 105.096 165.208 105.618 164.871 106.082C164.539 106.543 164.098 106.909 163.548 107.182C163.003 107.45 162.368 107.585 161.643 107.585ZM166.936 98.9681V97.5618H174.913V98.9681H171.692V107.38H170.183V98.9681H166.936ZM180.593 107.585C179.706 107.585 178.929 107.374 178.259 106.952C177.595 106.53 177.075 105.94 176.7 105.181C176.329 104.423 176.144 103.536 176.144 102.522C176.144 101.499 176.329 100.607 176.7 99.8438C177.075 99.081 177.595 98.4887 178.259 98.0668C178.929 97.6449 179.706 97.434 180.593 97.434C181.479 97.434 182.255 97.6449 182.919 98.0668C183.588 98.4887 184.108 99.081 184.479 99.8438C184.854 100.607 185.041 101.499 185.041 102.522C185.041 103.536 184.854 104.423 184.479 105.181C184.108 105.94 183.588 106.53 182.919 106.952C182.255 107.374 181.479 107.585 180.593 107.585ZM180.593 106.229C181.266 106.229 181.82 106.057 182.255 105.712C182.689 105.367 183.011 104.913 183.22 104.35C183.429 103.788 183.533 103.178 183.533 102.522C183.533 101.866 183.429 101.254 183.22 100.688C183.011 100.121 182.689 99.6627 182.255 99.3132C181.82 98.9638 181.266 98.7891 180.593 98.7891C179.919 98.7891 179.365 98.9638 178.931 99.3132C178.496 99.6627 178.174 100.121 177.965 100.688C177.757 101.254 177.652 101.866 177.652 102.522C177.652 103.178 177.757 103.788 177.965 104.35C178.174 104.913 178.496 105.367 178.931 105.712C179.365 106.057 179.919 106.229 180.593 106.229ZM187.344 107.38V97.5618H191.358C192.415 97.5618 193.255 97.8005 193.877 98.2777C194.499 98.755 194.81 99.3857 194.81 100.17C194.81 100.766 194.633 101.229 194.28 101.557C193.926 101.881 193.472 102.1 192.918 102.215C193.28 102.266 193.632 102.394 193.973 102.599C194.318 102.803 194.603 103.085 194.829 103.443C195.055 103.796 195.168 104.231 195.168 104.746C195.168 105.249 195.04 105.699 194.785 106.095C194.529 106.492 194.162 106.805 193.685 107.035C193.208 107.265 192.637 107.38 191.972 107.38H187.344ZM188.776 105.999H191.972C192.492 105.999 192.899 105.876 193.193 105.629C193.487 105.381 193.634 105.045 193.634 104.619C193.634 104.112 193.487 103.713 193.193 103.423C192.899 103.129 192.492 102.982 191.972 102.982H188.776V105.999ZM188.776 101.678H191.358C191.763 101.678 192.111 101.623 192.4 101.512C192.69 101.397 192.912 101.235 193.065 101.026C193.223 100.813 193.302 100.562 193.302 100.272C193.302 99.8587 193.129 99.5348 192.784 99.3005C192.439 99.0618 191.964 98.9425 191.358 98.9425H188.776V101.678Z" fill="#84BC33"/>
</svg>
