<svg width="257" height="171" viewBox="0 0 257 171" fill="none" xmlns="http://www.w3.org/2000/svg">
<path d="M93.1519 85.38V75.5618H94.6604V79.8317H95.6575L99.186 75.5618H101.129L97.1661 80.2919L101.18 85.38H99.2371L96.0155 81.238H94.6604V85.38H93.1519ZM106.404 85.5846C105.518 85.5846 104.74 85.3736 104.071 84.9517C103.406 84.5299 102.886 83.9397 102.511 83.1811C102.141 82.4226 101.955 81.5363 101.955 80.5221C101.955 79.4993 102.141 78.6066 102.511 77.8438C102.886 77.081 103.406 76.4887 104.071 76.0668C104.74 75.6449 105.518 75.434 106.404 75.434C107.291 75.434 108.066 75.6449 108.731 76.0668C109.4 76.4887 109.92 77.081 110.291 77.8438C110.666 78.6066 110.853 79.4993 110.853 80.5221C110.853 81.5363 110.666 82.4226 110.291 83.1811C109.92 83.9397 109.4 84.5299 108.731 84.9517C108.066 85.3736 107.291 85.5846 106.404 85.5846ZM106.404 84.2294C107.077 84.2294 107.631 84.0569 108.066 83.7117C108.501 83.3665 108.822 82.9127 109.031 82.3502C109.24 81.7877 109.345 81.1783 109.345 80.5221C109.345 79.8658 109.24 79.2543 109.031 78.6875C108.822 78.1208 108.501 77.6627 108.066 77.3132C107.631 76.9638 107.077 76.7891 106.404 76.7891C105.731 76.7891 105.177 76.9638 104.742 77.3132C104.308 77.6627 103.986 78.1208 103.777 78.6875C103.568 79.2543 103.464 79.8658 103.464 80.5221C103.464 81.1783 103.568 81.7877 103.777 82.3502C103.986 82.9127 104.308 83.3665 104.742 83.7117C105.177 84.0569 105.731 84.2294 106.404 84.2294ZM118.525 83.3346L121.951 75.5618H123.383L119.139 85.38H117.911L113.744 75.5618H115.15L118.525 83.3346ZM114.664 75.5618V85.38H113.156V75.5618H114.664ZM122.386 85.38V75.5618H123.894V85.38H122.386ZM133.227 79.7806V81.1868H127.806V79.7806H133.227ZM128.164 75.5618V85.38H126.656V75.5618H128.164ZM134.377 75.5618V85.38H132.869V75.5618H134.377ZM140.022 85.6101C139.399 85.6101 138.835 85.4929 138.328 85.2586C137.821 85.0199 137.418 84.6769 137.12 84.2294C136.821 83.7777 136.672 83.2323 136.672 82.5931C136.672 82.0306 136.783 81.5746 137.004 81.2252C137.226 80.8715 137.522 80.5945 137.893 80.3942C138.264 80.1939 138.673 80.0448 139.12 79.9468C139.572 79.8445 140.026 79.7635 140.482 79.7039C141.078 79.6272 141.562 79.5696 141.933 79.5313C142.308 79.4887 142.58 79.4184 142.751 79.3203C142.926 79.2223 143.013 79.0519 143.013 78.809V78.7578C143.013 78.1272 142.84 77.6371 142.495 77.2877C142.154 76.9382 141.637 76.7635 140.942 76.7635C140.222 76.7635 139.657 76.9212 139.248 77.2365C138.839 77.5519 138.551 77.8885 138.385 78.2465L136.953 77.7351C137.209 77.1385 137.55 76.674 137.976 76.3417C138.406 76.005 138.875 75.7706 139.382 75.6385C139.894 75.5022 140.397 75.434 140.891 75.434C141.206 75.434 141.568 75.4723 141.978 75.549C142.391 75.6215 142.789 75.7728 143.173 76.0029C143.561 76.233 143.882 76.5803 144.138 77.0448C144.394 77.5093 144.522 78.1314 144.522 78.9113V85.38H143.013V84.0505H142.936C142.834 84.2635 142.664 84.4915 142.425 84.7344C142.186 84.9773 141.869 85.184 141.473 85.3544C141.076 85.5249 140.593 85.6101 140.022 85.6101ZM140.252 84.255C140.848 84.255 141.351 84.1378 141.76 83.9034C142.174 83.6691 142.485 83.3665 142.693 82.9958C142.906 82.625 143.013 82.2351 143.013 81.826V80.4453C142.949 80.5221 142.808 80.5924 142.591 80.6563C142.378 80.7159 142.131 80.7692 141.85 80.8161C141.573 80.8587 141.302 80.8971 141.038 80.9311C140.778 80.961 140.567 80.9865 140.405 81.0078C140.013 81.059 139.647 81.1421 139.306 81.2571C138.969 81.3679 138.696 81.5363 138.487 81.7621C138.283 81.9837 138.181 82.2863 138.181 82.6698C138.181 83.1939 138.375 83.5902 138.762 83.8587C139.154 84.1229 139.651 84.255 140.252 84.255ZM145.939 76.9681V75.5618H153.916V76.9681H150.695V85.38H149.186V76.9681H145.939ZM158.496 85.6101C157.874 85.6101 157.309 85.4929 156.802 85.2586C156.295 85.0199 155.892 84.6769 155.594 84.2294C155.296 83.7777 155.147 83.2323 155.147 82.5931C155.147 82.0306 155.258 81.5746 155.479 81.2252C155.701 80.8715 155.997 80.5945 156.368 80.3942C156.738 80.1939 157.147 80.0448 157.595 79.9468C158.047 79.8445 158.5 79.7635 158.956 79.7039C159.553 79.6272 160.037 79.5696 160.407 79.5313C160.782 79.4887 161.055 79.4184 161.226 79.3203C161.4 79.2223 161.488 79.0519 161.488 78.809V78.7578C161.488 78.1272 161.315 77.6371 160.97 77.2877C160.629 76.9382 160.111 76.7635 159.417 76.7635C158.696 76.7635 158.132 76.9212 157.723 77.2365C157.314 77.5519 157.026 77.8885 156.86 78.2465L155.428 77.7351C155.684 77.1385 156.025 76.674 156.451 76.3417C156.881 76.005 157.35 75.7706 157.857 75.6385C158.368 75.5022 158.871 75.434 159.365 75.434C159.681 75.434 160.043 75.4723 160.452 75.549C160.865 75.6215 161.264 75.7728 161.647 76.0029C162.035 76.233 162.357 76.5803 162.613 77.0448C162.868 77.5093 162.996 78.1314 162.996 78.9113V85.38H161.488V84.0505H161.411C161.309 84.2635 161.138 84.4915 160.9 84.7344C160.661 84.9773 160.343 85.184 159.947 85.3544C159.551 85.5249 159.067 85.6101 158.496 85.6101ZM158.726 84.255C159.323 84.255 159.826 84.1378 160.235 83.9034C160.648 83.6691 160.959 83.3665 161.168 82.9958C161.381 82.625 161.488 82.2351 161.488 81.826V80.4453C161.424 80.5221 161.283 80.5924 161.066 80.6563C160.853 80.7159 160.606 80.7692 160.324 80.8161C160.047 80.8587 159.777 80.8971 159.512 80.9311C159.253 80.961 159.042 80.9865 158.88 81.0078C158.488 81.059 158.121 81.1421 157.78 81.2571C157.444 81.3679 157.171 81.5363 156.962 81.7621C156.758 81.9837 156.655 82.2863 156.655 82.6698C156.655 83.1939 156.849 83.5902 157.237 83.8587C157.629 84.1229 158.125 84.255 158.726 84.255ZM45.1172 110.193V105.974H45.9354C46.1357 105.765 46.3083 105.539 46.4532 105.296C46.5981 105.053 46.7238 104.766 46.8303 104.433C46.9411 104.097 47.0349 103.688 47.1116 103.206C47.1883 102.72 47.2564 102.134 47.3161 101.448L47.6485 97.5618H53.8871V105.974H55.3956V110.193H53.8871V107.38H46.6258V110.193H45.1172ZM47.6485 105.974H52.3786V98.9681H49.0547L48.7991 101.448C48.6925 102.475 48.5604 103.372 48.4027 104.139C48.2451 104.906 47.9937 105.518 47.6485 105.974ZM56.5286 107.38V105.974H56.8866C57.1806 105.974 57.4257 105.916 57.6217 105.801C57.8177 105.682 57.9754 105.475 58.0947 105.181C58.2183 104.883 58.312 104.469 58.3759 103.941C58.4441 103.408 58.4931 102.731 58.523 101.908L58.7019 97.5618H65.2474V107.38H63.7389V98.9681H60.1338L59.9803 102.471C59.9463 103.276 59.8738 103.986 59.763 104.599C59.6565 105.209 59.4924 105.72 59.2708 106.134C59.0535 106.547 58.7637 106.858 58.4015 107.067C58.0393 107.276 57.5855 107.38 57.04 107.38H56.5286ZM73.9214 107.38V98.9425H71.3134C70.7254 98.9425 70.263 99.0789 69.9264 99.3516C69.5897 99.6243 69.4214 99.9993 69.4214 100.477C69.4214 100.945 69.5727 101.314 69.8752 101.582C70.182 101.851 70.6018 101.985 71.1345 101.985H74.3049V103.391H71.1345C70.4697 103.391 69.8965 103.274 69.415 103.04C68.9335 102.805 68.5627 102.471 68.3028 102.036C68.0428 101.597 67.9129 101.077 67.9129 100.477C67.9129 99.8715 68.0492 99.3516 68.322 98.9169C68.5947 98.4823 68.9846 98.1478 69.4917 97.9134C70.0031 97.679 70.6103 97.5618 71.3134 97.5618H75.3532V107.38H73.9214ZM67.3759 107.38L70.1629 102.496H71.7992L69.0123 107.38H67.3759ZM90.472 93.88L91.239 94.8005C90.9407 95.0902 90.5956 95.2926 90.2035 95.4077C89.8115 95.5228 89.3683 95.5931 88.874 95.6186C88.3797 95.6442 87.83 95.6698 87.2248 95.6953C86.543 95.7209 85.9784 95.8871 85.5309 96.1939C85.0835 96.5007 84.7383 96.9439 84.4954 97.5235C84.2525 98.103 84.097 98.8147 84.0288 99.6584H84.1567C84.489 99.0448 84.9493 98.5931 85.5373 98.3033C86.1254 98.0135 86.7561 97.8686 87.4294 97.8686C88.1964 97.8686 88.8868 98.0476 89.5004 98.4056C90.114 98.7635 90.5998 99.2941 90.9578 99.9972C91.3157 100.7 91.4947 101.568 91.4947 102.599C91.4947 103.626 91.3115 104.512 90.945 105.258C90.5828 106.004 90.0736 106.579 89.4173 106.984C88.7653 107.384 88.0004 107.585 87.1226 107.585C86.2447 107.585 85.4755 107.378 84.815 106.965C84.1545 106.547 83.641 105.929 83.2746 105.111C82.9081 104.288 82.7248 103.272 82.7248 102.062V101.014C82.7248 98.8274 83.0956 97.1698 83.8371 96.0405C84.5828 94.9113 85.7035 94.3274 87.1993 94.2891C87.7277 94.2721 88.1986 94.2678 88.6119 94.2763C89.0253 94.2848 89.3853 94.2657 89.6922 94.2188C89.999 94.1719 90.2589 94.059 90.472 93.88ZM87.1226 106.229C87.7149 106.229 88.2241 106.08 88.6503 105.782C89.0807 105.484 89.4109 105.064 89.641 104.523C89.8711 103.977 89.9862 103.336 89.9862 102.599C89.9862 101.883 89.869 101.273 89.6346 100.771C89.4045 100.268 89.0743 99.8843 88.6439 99.6201C88.2135 99.3559 87.6978 99.2238 87.097 99.2238C86.6581 99.2238 86.2639 99.2983 85.9145 99.4475C85.565 99.5966 85.2667 99.8161 85.0196 100.106C84.7724 100.396 84.5807 100.749 84.4443 101.167C84.3122 101.585 84.2419 102.062 84.2334 102.599C84.2334 103.698 84.4912 104.578 85.0068 105.239C85.5224 105.899 86.2277 106.229 87.1226 106.229ZM96.6915 107.61C96.0693 107.61 95.5047 107.493 94.9976 107.259C94.4905 107.02 94.0878 106.677 93.7895 106.229C93.4912 105.778 93.342 105.232 93.342 104.593C93.342 104.031 93.4528 103.575 93.6744 103.225C93.896 102.871 94.1922 102.594 94.5629 102.394C94.9336 102.194 95.3427 102.045 95.7902 101.947C96.2419 101.844 96.6957 101.764 97.1517 101.704C97.7483 101.627 98.2319 101.57 98.6027 101.531C98.9777 101.489 99.2504 101.418 99.4209 101.32C99.5956 101.222 99.6829 101.052 99.6829 100.809V100.758C99.6829 100.127 99.5103 99.6371 99.1652 99.2877C98.8243 98.9382 98.3065 98.7635 97.6119 98.7635C96.8917 98.7635 96.3271 98.9212 95.918 99.2365C95.5089 99.5519 95.2213 99.8885 95.0551 100.246L93.6233 99.7351C93.879 99.1385 94.2199 98.674 94.646 98.3417C95.0764 98.005 95.5451 97.7706 96.0523 97.6385C96.5636 97.5022 97.0665 97.434 97.5608 97.434C97.8761 97.434 98.2383 97.4723 98.6474 97.549C99.0608 97.6215 99.4592 97.7728 99.8427 98.0029C100.231 98.233 100.552 98.5803 100.808 99.0448C101.064 99.5093 101.191 100.131 101.191 100.911V107.38H99.6829V106.05H99.6062C99.504 106.264 99.3335 106.492 99.0949 106.734C98.8562 106.977 98.5388 107.184 98.1425 107.354C97.7461 107.525 97.2625 107.61 96.6915 107.61ZM96.9216 106.255C97.5182 106.255 98.021 106.138 98.4301 105.903C98.8434 105.669 99.1545 105.367 99.3633 104.996C99.5764 104.625 99.6829 104.235 99.6829 103.826V102.445C99.619 102.522 99.4784 102.592 99.2611 102.656C99.048 102.716 98.8008 102.769 98.5196 102.816C98.2426 102.859 97.972 102.897 97.7078 102.931C97.4478 102.961 97.2369 102.987 97.075 103.008C96.6829 103.059 96.3165 103.142 95.9755 103.257C95.6389 103.368 95.3662 103.536 95.1574 103.762C94.9528 103.984 94.8505 104.286 94.8505 104.67C94.8505 105.194 95.0444 105.59 95.4322 105.859C95.8243 106.123 96.3207 106.255 96.9216 106.255ZM103.945 111.062V97.5618H105.402V99.1215H105.581C105.692 98.951 105.845 98.7337 106.041 98.4695C106.242 98.201 106.527 97.9624 106.898 97.7536C107.273 97.5405 107.78 97.434 108.419 97.434C109.246 97.434 109.975 97.6407 110.605 98.054C111.236 98.4674 111.728 99.0533 112.082 99.8118C112.436 100.57 112.612 101.465 112.612 102.496C112.612 103.536 112.436 104.438 112.082 105.2C111.728 105.959 111.238 106.547 110.612 106.965C109.985 107.378 109.263 107.585 108.445 107.585C107.814 107.585 107.309 107.48 106.93 107.271C106.551 107.058 106.259 106.818 106.054 106.549C105.85 106.276 105.692 106.05 105.581 105.871H105.453V111.062H103.945ZM105.428 102.471C105.428 103.212 105.536 103.867 105.754 104.433C105.971 104.996 106.289 105.437 106.706 105.756C107.124 106.072 107.635 106.229 108.24 106.229C108.871 106.229 109.397 106.063 109.819 105.731C110.245 105.394 110.565 104.943 110.778 104.376C110.995 103.805 111.104 103.17 111.104 102.471C111.104 101.781 110.997 101.158 110.784 100.604C110.576 100.046 110.258 99.6051 109.832 99.2813C109.41 98.9532 108.879 98.7891 108.24 98.7891C107.627 98.7891 107.111 98.9446 106.693 99.2557C106.276 99.5625 105.96 99.9929 105.747 100.547C105.534 101.097 105.428 101.738 105.428 102.471ZM117.803 107.61C117.181 107.61 116.616 107.493 116.109 107.259C115.602 107.02 115.199 106.677 114.901 106.229C114.603 105.778 114.453 105.232 114.453 104.593C114.453 104.031 114.564 103.575 114.786 103.225C115.007 102.871 115.303 102.594 115.674 102.394C116.045 102.194 116.454 102.045 116.902 101.947C117.353 101.844 117.807 101.764 118.263 101.704C118.86 101.627 119.343 101.57 119.714 101.531C120.089 101.489 120.362 101.418 120.532 101.32C120.707 101.222 120.794 101.052 120.794 100.809V100.758C120.794 100.127 120.622 99.6371 120.277 99.2877C119.936 98.9382 119.418 98.7635 118.723 98.7635C118.003 98.7635 117.438 98.9212 117.029 99.2365C116.62 99.5519 116.333 99.8885 116.166 100.246L114.735 99.7351C114.99 99.1385 115.331 98.674 115.757 98.3417C116.188 98.005 116.656 97.7706 117.164 97.6385C117.675 97.5022 118.178 97.434 118.672 97.434C118.987 97.434 119.35 97.4723 119.759 97.549C120.172 97.6215 120.571 97.7728 120.954 98.0029C121.342 98.233 121.664 98.5803 121.919 99.0448C122.175 99.5093 122.303 100.131 122.303 100.911V107.38H120.794V106.05H120.718C120.615 106.264 120.445 106.492 120.206 106.734C119.968 106.977 119.65 107.184 119.254 107.354C118.857 107.525 118.374 107.61 117.803 107.61ZM118.033 106.255C118.629 106.255 119.132 106.138 119.541 105.903C119.955 105.669 120.266 105.367 120.475 104.996C120.688 104.625 120.794 104.235 120.794 103.826V102.445C120.73 102.522 120.59 102.592 120.372 102.656C120.159 102.716 119.912 102.769 119.631 102.816C119.354 102.859 119.083 102.897 118.819 102.931C118.559 102.961 118.348 102.987 118.186 103.008C117.794 103.059 117.428 103.142 117.087 103.257C116.75 103.368 116.478 103.536 116.269 103.762C116.064 103.984 115.962 104.286 115.962 104.67C115.962 105.194 116.156 105.59 116.544 105.859C116.936 106.123 117.432 106.255 118.033 106.255ZM132.343 93.88L133.11 94.8005C132.812 95.0902 132.467 95.2926 132.075 95.4077C131.683 95.5228 131.239 95.5931 130.745 95.6186C130.251 95.6442 129.701 95.6698 129.096 95.6953C128.414 95.7209 127.849 95.8871 127.402 96.1939C126.955 96.5007 126.609 96.9439 126.367 97.5235C126.124 98.103 125.968 98.8147 125.9 99.6584H126.028C126.36 99.0448 126.82 98.5931 127.408 98.3033C127.996 98.0135 128.627 97.8686 129.3 97.8686C130.068 97.8686 130.758 98.0476 131.371 98.4056C131.985 98.7635 132.471 99.2941 132.829 99.9972C133.187 100.7 133.366 101.568 133.366 102.599C133.366 103.626 133.183 104.512 132.816 105.258C132.454 106.004 131.945 106.579 131.288 106.984C130.636 107.384 129.871 107.585 128.994 107.585C128.116 107.585 127.347 107.378 126.686 106.965C126.026 106.547 125.512 105.929 125.146 105.111C124.779 104.288 124.596 103.272 124.596 102.062V101.014C124.596 98.8274 124.967 97.1698 125.708 96.0405C126.454 94.9113 127.575 94.3274 129.07 94.2891C129.599 94.2721 130.07 94.2678 130.483 94.2763C130.896 94.2848 131.256 94.2657 131.563 94.2188C131.87 94.1719 132.13 94.059 132.343 93.88ZM128.994 106.229C129.586 106.229 130.095 106.08 130.521 105.782C130.952 105.484 131.282 105.064 131.512 104.523C131.742 103.977 131.857 103.336 131.857 102.599C131.857 101.883 131.74 101.273 131.506 100.771C131.276 100.268 130.945 99.8843 130.515 99.6201C130.085 99.3559 129.569 99.2238 128.968 99.2238C128.529 99.2238 128.135 99.2983 127.786 99.4475C127.436 99.5966 127.138 99.8161 126.891 100.106C126.644 100.396 126.452 100.749 126.315 101.167C126.183 101.585 126.113 102.062 126.104 102.599C126.104 103.698 126.362 104.578 126.878 105.239C127.394 105.899 128.099 106.229 128.994 106.229ZM138.563 107.61C137.94 107.61 137.376 107.493 136.869 107.259C136.362 107.02 135.959 106.677 135.661 106.229C135.362 105.778 135.213 105.232 135.213 104.593C135.213 104.031 135.324 103.575 135.546 103.225C135.767 102.871 136.063 102.594 136.434 102.394C136.805 102.194 137.214 102.045 137.661 101.947C138.113 101.844 138.567 101.764 139.023 101.704C139.619 101.627 140.103 101.57 140.474 101.531C140.849 101.489 141.121 101.418 141.292 101.32C141.467 101.222 141.554 101.052 141.554 100.809V100.758C141.554 100.127 141.381 99.6371 141.036 99.2877C140.695 98.9382 140.178 98.7635 139.483 98.7635C138.763 98.7635 138.198 98.9212 137.789 99.2365C137.38 99.5519 137.092 99.8885 136.926 100.246L135.494 99.7351C135.75 99.1385 136.091 98.674 136.517 98.3417C136.947 98.005 137.416 97.7706 137.923 97.6385C138.435 97.5022 138.938 97.434 139.432 97.434C139.747 97.434 140.109 97.4723 140.519 97.549C140.932 97.6215 141.33 97.7728 141.714 98.0029C142.102 98.233 142.423 98.5803 142.679 99.0448C142.935 99.5093 143.063 100.131 143.063 100.911V107.38H141.554V106.05H141.477C141.375 106.264 141.205 106.492 140.966 106.734C140.727 106.977 140.41 107.184 140.014 107.354C139.617 107.525 139.134 107.61 138.563 107.61ZM138.793 106.255C139.389 106.255 139.892 106.138 140.301 105.903C140.715 105.669 141.026 105.367 141.234 104.996C141.447 104.625 141.554 104.235 141.554 103.826V102.445C141.49 102.522 141.349 102.592 141.132 102.656C140.919 102.716 140.672 102.769 140.391 102.816C140.114 102.859 139.843 102.897 139.579 102.931C139.319 102.961 139.108 102.987 138.946 103.008C138.554 103.059 138.188 103.142 137.847 103.257C137.51 103.368 137.237 103.536 137.028 103.762C136.824 103.984 136.722 104.286 136.722 104.67C136.722 105.194 136.916 105.59 137.303 105.859C137.695 106.123 138.192 106.255 138.793 106.255ZM152.387 101.781V103.187H146.966V101.781H152.387ZM147.324 97.5618V107.38H145.816V97.5618H147.324ZM153.538 97.5618V107.38H152.029V97.5618H153.538ZM169.69 105.974L169.511 110.193H167.952V107.38H166.673V105.974H169.69ZM156.292 97.5618H157.801V105.974H161.508V97.5618H163.017V105.974H166.724V97.5618H168.233V107.38H156.292V97.5618ZM173.393 105.156L178.123 97.5618H179.862V107.38H178.353V99.7863L173.648 107.38H171.884V97.5618H173.393V105.156ZM182.625 107.38V97.5618H184.133V101.832H185.13L188.659 97.5618H190.602L186.639 102.292L190.653 107.38H188.71L185.488 103.238H184.133V107.38H182.625ZM195.877 107.585C194.99 107.585 194.213 107.374 193.544 106.952C192.879 106.53 192.359 105.94 191.984 105.181C191.613 104.423 191.428 103.536 191.428 102.522C191.428 101.499 191.613 100.607 191.984 99.8438C192.359 99.081 192.879 98.4887 193.544 98.0668C194.213 97.6449 194.99 97.434 195.877 97.434C196.763 97.434 197.539 97.6449 198.204 98.0668C198.873 98.4887 199.392 99.081 199.763 99.8438C200.138 100.607 200.326 101.499 200.326 102.522C200.326 103.536 200.138 104.423 199.763 105.181C199.392 105.94 198.873 106.53 198.204 106.952C197.539 107.374 196.763 107.585 195.877 107.585ZM195.877 106.229C196.55 106.229 197.104 106.057 197.539 105.712C197.973 105.367 198.295 104.913 198.504 104.35C198.713 103.788 198.817 103.178 198.817 102.522C198.817 101.866 198.713 101.254 198.504 100.688C198.295 100.121 197.973 99.6627 197.539 99.3132C197.104 98.9638 196.55 98.7891 195.877 98.7891C195.204 98.7891 194.65 98.9638 194.215 99.3132C193.78 99.6627 193.459 100.121 193.25 100.688C193.041 101.254 192.936 101.866 192.936 102.522C192.936 103.178 193.041 103.788 193.25 104.35C193.459 104.913 193.78 105.367 194.215 105.712C194.65 106.057 195.204 106.229 195.877 106.229ZM202.628 107.38V97.5618H206.643C207.699 97.5618 208.539 97.8005 209.161 98.2777C209.783 98.755 210.094 99.3857 210.094 100.17C210.094 100.766 209.917 101.229 209.564 101.557C209.21 101.881 208.756 102.1 208.202 102.215C208.565 102.266 208.916 102.394 209.257 102.599C209.602 102.803 209.888 103.085 210.114 103.443C210.339 103.796 210.452 104.231 210.452 104.746C210.452 105.249 210.324 105.699 210.069 106.095C209.813 106.492 209.447 106.805 208.969 107.035C208.492 107.265 207.921 107.38 207.256 107.38H202.628ZM204.06 105.999H207.256C207.776 105.999 208.183 105.876 208.477 105.629C208.771 105.381 208.918 105.045 208.918 104.619C208.918 104.112 208.771 103.713 208.477 103.423C208.183 103.129 207.776 102.982 207.256 102.982H204.06V105.999ZM204.06 101.678H206.643C207.047 101.678 207.395 101.623 207.685 101.512C207.974 101.397 208.196 101.235 208.349 101.026C208.507 100.813 208.586 100.562 208.586 100.272C208.586 99.8587 208.413 99.5348 208.068 99.3005C207.723 99.0618 207.248 98.9425 206.643 98.9425H204.06V101.678Z" fill="#84BC33"/>
</svg>
