<svg width="256" height="170" viewBox="0 0 256 170" fill="none" xmlns="http://www.w3.org/2000/svg">
<path d="M87.6159 79.5L82.4319 73.26L83.8479 72.42L89.6319 79.5H87.6159ZM78.3759 79.5V66.9H80.0799V79.5H78.3759ZM79.5519 73.884V72.42H83.6079V73.884H79.5519ZM83.9919 73.38L82.4079 73.14L87.4239 66.9H89.2719L83.9919 73.38ZM97.0599 79.62C95.8439 79.62 94.7479 79.348 93.7719 78.804C92.8119 78.244 92.0519 77.484 91.4919 76.524C90.9319 75.548 90.6519 74.436 90.6519 73.188C90.6519 71.924 90.9319 70.812 91.4919 69.852C92.0519 68.892 92.8119 68.14 93.7719 67.596C94.7319 67.052 95.8279 66.78 97.0599 66.78C98.3079 66.78 99.4119 67.052 100.372 67.596C101.348 68.14 102.108 68.892 102.652 69.852C103.212 70.812 103.492 71.924 103.492 73.188C103.492 74.436 103.212 75.548 102.652 76.524C102.108 77.484 101.348 78.244 100.372 78.804C99.3959 79.348 98.2919 79.62 97.0599 79.62ZM97.0599 78.108C97.9719 78.108 98.7799 77.908 99.4839 77.508C100.188 77.092 100.74 76.516 101.14 75.78C101.556 75.028 101.764 74.164 101.764 73.188C101.764 72.196 101.556 71.332 101.14 70.596C100.74 69.86 100.188 69.292 99.4839 68.892C98.7799 68.476 97.9799 68.268 97.0839 68.268C96.1879 68.268 95.3879 68.476 94.6839 68.892C93.9799 69.292 93.4199 69.86 93.0039 70.596C92.5879 71.332 92.3799 72.196 92.3799 73.188C92.3799 74.164 92.5879 75.028 93.0039 75.78C93.4199 76.516 93.9799 77.092 94.6839 77.508C95.3879 77.908 96.1799 78.108 97.0599 78.108ZM107.134 79.5V66.9H108.862L114.574 76.572H113.854L119.662 66.9H121.246V79.5H119.686V68.844L119.998 68.988L114.574 77.964H113.806L108.334 68.892L108.694 68.82V79.5H107.134ZM126.095 79.5V66.9H127.799V72.468H135.743V66.9H137.447V79.5H135.743V73.932H127.799V79.5H126.095ZM150.114 79.5V76.716L150.042 76.26V71.604C150.042 70.532 149.738 69.708 149.13 69.132C148.538 68.556 147.65 68.268 146.466 68.268C145.65 68.268 144.874 68.404 144.138 68.676C143.402 68.948 142.778 69.308 142.266 69.756L141.498 68.484C142.138 67.94 142.906 67.524 143.802 67.236C144.698 66.932 145.642 66.78 146.634 66.78C148.266 66.78 149.522 67.188 150.402 68.004C151.298 68.804 151.746 70.028 151.746 71.676V79.5H150.114ZM145.77 79.62C144.826 79.62 144.002 79.468 143.298 79.164C142.61 78.844 142.082 78.412 141.714 77.868C141.346 77.308 141.162 76.668 141.162 75.948C141.162 75.292 141.314 74.7 141.618 74.172C141.938 73.628 142.45 73.196 143.154 72.876C143.874 72.54 144.834 72.372 146.034 72.372H150.378V73.644H146.082C144.866 73.644 144.018 73.86 143.538 74.292C143.074 74.724 142.842 75.26 142.842 75.9C142.842 76.62 143.122 77.196 143.682 77.628C144.242 78.06 145.026 78.276 146.034 78.276C146.994 78.276 147.818 78.06 148.506 77.628C149.21 77.18 149.722 76.54 150.042 75.708L150.426 76.884C150.106 77.716 149.546 78.38 148.746 78.876C147.962 79.372 146.97 79.62 145.77 79.62ZM158.682 79.5V67.932L159.114 68.388H153.906V66.9H165.162V68.388H159.954L160.386 67.932V79.5H158.682ZM175.45 79.5V76.716L175.378 76.26V71.604C175.378 70.532 175.074 69.708 174.466 69.132C173.874 68.556 172.986 68.268 171.802 68.268C170.986 68.268 170.21 68.404 169.474 68.676C168.738 68.948 168.114 69.308 167.602 69.756L166.834 68.484C167.474 67.94 168.242 67.524 169.138 67.236C170.034 66.932 170.978 66.78 171.97 66.78C173.602 66.78 174.858 67.188 175.738 68.004C176.634 68.804 177.082 70.028 177.082 71.676V79.5H175.45ZM171.106 79.62C170.162 79.62 169.338 79.468 168.634 79.164C167.946 78.844 167.418 78.412 167.05 77.868C166.682 77.308 166.498 76.668 166.498 75.948C166.498 75.292 166.65 74.7 166.954 74.172C167.274 73.628 167.786 73.196 168.49 72.876C169.21 72.54 170.17 72.372 171.37 72.372H175.714V73.644H171.418C170.202 73.644 169.354 73.86 168.874 74.292C168.41 74.724 168.178 75.26 168.178 75.9C168.178 76.62 168.458 77.196 169.018 77.628C169.578 78.06 170.362 78.276 171.37 78.276C172.33 78.276 173.154 78.06 173.842 77.628C174.546 77.18 175.058 76.54 175.378 75.708L175.762 76.884C175.442 77.716 174.882 78.38 174.082 78.876C173.298 79.372 172.306 79.62 171.106 79.62ZM42.7542 105.684V95.388H36.6822L36.5382 98.196C36.5062 99.044 36.4502 99.876 36.3702 100.692C36.3062 101.508 36.1862 102.26 36.0102 102.948C35.8502 103.62 35.6182 104.172 35.3142 104.604C35.0102 105.02 34.6182 105.26 34.1382 105.324L32.4342 105.012C32.9302 105.028 33.3382 104.852 33.6582 104.484C33.9782 104.1 34.2262 103.58 34.4022 102.924C34.5782 102.268 34.7062 101.524 34.7862 100.692C34.8662 99.844 34.9302 98.98 34.9782 98.1L35.1462 93.9H44.4582V105.684H42.7542ZM31.9062 109.548V105.012H46.4262V109.548H44.8182V106.5H33.5142V109.548H31.9062ZM47.443 106.476L47.563 105.012C47.675 105.028 47.779 105.052 47.875 105.084C47.987 105.1 48.083 105.108 48.163 105.108C48.675 105.108 49.083 104.916 49.387 104.532C49.707 104.148 49.947 103.636 50.107 102.996C50.267 102.356 50.379 101.636 50.443 100.836C50.507 100.02 50.563 99.204 50.611 98.388L50.827 93.9H60.067V106.5H58.363V94.884L58.795 95.388H51.931L52.339 94.86L52.147 98.508C52.099 99.596 52.011 100.636 51.883 101.628C51.771 102.62 51.587 103.492 51.331 104.244C51.091 104.996 50.755 105.588 50.323 106.02C49.891 106.436 49.339 106.644 48.667 106.644C48.475 106.644 48.275 106.628 48.067 106.596C47.875 106.564 47.667 106.524 47.443 106.476ZM73.0471 106.5V101.964L73.3591 102.324H69.0871C67.4711 102.324 66.2071 101.972 65.2951 101.268C64.3831 100.564 63.9271 99.54 63.9271 98.196C63.9271 96.756 64.4151 95.684 65.3911 94.98C66.3671 94.26 67.6711 93.9 69.3031 93.9H74.6071V106.5H73.0471ZM63.8311 106.5L67.2871 101.652H69.0631L65.6791 106.5H63.8311ZM73.0471 101.46V94.884L73.3591 95.388H69.3511C68.1831 95.388 67.2711 95.612 66.6151 96.06C65.9751 96.508 65.6551 97.236 65.6551 98.244C65.6551 100.116 66.8471 101.052 69.2311 101.052H73.3591L73.0471 101.46ZM85.747 106.5V93.9H94.675V95.388H87.019L87.451 94.956V106.5H85.747ZM97.1376 106.5V93.9H98.8416V103.908L107.266 93.9H108.778V106.5H107.074V96.468L98.6736 106.5H97.1376ZM116.061 106.5V94.932L116.493 95.388H111.285V93.9H122.541V95.388H117.333L117.765 94.932V106.5H116.061ZM132.829 106.5V103.716L132.757 103.26V98.604C132.757 97.532 132.453 96.708 131.845 96.132C131.253 95.556 130.365 95.268 129.181 95.268C128.365 95.268 127.589 95.404 126.853 95.676C126.117 95.948 125.493 96.308 124.981 96.756L124.213 95.484C124.853 94.94 125.621 94.524 126.517 94.236C127.413 93.932 128.357 93.78 129.349 93.78C130.981 93.78 132.237 94.188 133.117 95.004C134.013 95.804 134.461 97.028 134.461 98.676V106.5H132.829ZM128.485 106.62C127.541 106.62 126.717 106.468 126.013 106.164C125.325 105.844 124.797 105.412 124.429 104.868C124.061 104.308 123.877 103.668 123.877 102.948C123.877 102.292 124.029 101.7 124.333 101.172C124.653 100.628 125.165 100.196 125.869 99.876C126.589 99.54 127.549 99.372 128.749 99.372H133.093V100.644H128.797C127.581 100.644 126.733 100.86 126.253 101.292C125.789 101.724 125.557 102.26 125.557 102.9C125.557 103.62 125.837 104.196 126.397 104.628C126.957 105.06 127.741 105.276 128.749 105.276C129.709 105.276 130.533 105.06 131.221 104.628C131.925 104.18 132.437 103.54 132.757 102.708L133.141 103.884C132.821 104.716 132.261 105.38 131.461 105.876C130.677 106.372 129.685 106.62 128.485 106.62ZM145.501 106.62C144.413 106.62 143.429 106.372 142.549 105.876C141.669 105.364 140.965 104.636 140.437 103.692C139.925 102.732 139.669 101.564 139.669 100.188C139.669 98.812 139.925 97.652 140.437 96.708C140.949 95.748 141.645 95.02 142.525 94.524C143.405 94.028 144.397 93.78 145.501 93.78C146.701 93.78 147.773 94.052 148.717 94.596C149.677 95.124 150.429 95.876 150.973 96.852C151.517 97.812 151.789 98.924 151.789 100.188C151.789 101.468 151.517 102.588 150.973 103.548C150.429 104.508 149.677 105.26 148.717 105.804C147.773 106.348 146.701 106.62 145.501 106.62ZM138.997 111.156V93.9H140.629V97.692L140.461 100.212L140.701 102.756V111.156H138.997ZM145.381 105.108C146.277 105.108 147.077 104.908 147.781 104.508C148.485 104.092 149.045 103.516 149.461 102.78C149.877 102.028 150.085 101.164 150.085 100.188C150.085 99.212 149.877 98.356 149.461 97.62C149.045 96.884 148.485 96.308 147.781 95.892C147.077 95.476 146.277 95.268 145.381 95.268C144.485 95.268 143.677 95.476 142.957 95.892C142.253 96.308 141.693 96.884 141.277 97.62C140.877 98.356 140.677 99.212 140.677 100.188C140.677 101.164 140.877 102.028 141.277 102.78C141.693 103.516 142.253 104.092 142.957 104.508C143.677 104.908 144.485 105.108 145.381 105.108ZM155.45 106.5V93.9H157.154V103.908L165.578 93.9H167.09V106.5H165.386V96.468L156.986 106.5H155.45ZM177.254 106.62C176.006 106.62 174.886 106.348 173.894 105.804C172.918 105.244 172.15 104.484 171.59 103.524C171.03 102.548 170.75 101.436 170.75 100.188C170.75 98.924 171.03 97.812 171.59 96.852C172.15 95.892 172.918 95.14 173.894 94.596C174.886 94.052 176.006 93.78 177.254 93.78C178.326 93.78 179.294 93.988 180.158 94.404C181.022 94.82 181.702 95.444 182.198 96.276L180.926 97.14C180.494 96.5 179.958 96.028 179.318 95.724C178.678 95.42 177.982 95.268 177.23 95.268C176.334 95.268 175.526 95.476 174.806 95.892C174.086 96.292 173.518 96.86 173.102 97.596C172.686 98.332 172.478 99.196 172.478 100.188C172.478 101.18 172.686 102.044 173.102 102.78C173.518 103.516 174.086 104.092 174.806 104.508C175.526 104.908 176.334 105.108 177.23 105.108C177.982 105.108 178.678 104.956 179.318 104.652C179.958 104.348 180.494 103.884 180.926 103.26L182.198 104.124C181.702 104.94 181.022 105.564 180.158 105.996C179.294 106.412 178.326 106.62 177.254 106.62ZM187.663 106.5V94.932L188.095 95.388H182.887V93.9H194.143V95.388H188.935L189.367 94.932V106.5H187.663ZM201.204 106.62C199.988 106.62 198.892 106.348 197.916 105.804C196.956 105.244 196.196 104.484 195.636 103.524C195.076 102.548 194.796 101.436 194.796 100.188C194.796 98.924 195.076 97.812 195.636 96.852C196.196 95.892 196.956 95.14 197.916 94.596C198.876 94.052 199.972 93.78 201.204 93.78C202.452 93.78 203.556 94.052 204.516 94.596C205.492 95.14 206.252 95.892 206.796 96.852C207.356 97.812 207.636 98.924 207.636 100.188C207.636 101.436 207.356 102.548 206.796 103.524C206.252 104.484 205.492 105.244 204.516 105.804C203.54 106.348 202.436 106.62 201.204 106.62ZM201.204 105.108C202.116 105.108 202.924 104.908 203.628 104.508C204.332 104.092 204.884 103.516 205.284 102.78C205.7 102.028 205.908 101.164 205.908 100.188C205.908 99.196 205.7 98.332 205.284 97.596C204.884 96.86 204.332 96.292 203.628 95.892C202.924 95.476 202.124 95.268 201.228 95.268C200.332 95.268 199.532 95.476 198.828 95.892C198.124 96.292 197.564 96.86 197.148 97.596C196.732 98.332 196.524 99.196 196.524 100.188C196.524 101.164 196.732 102.028 197.148 102.78C197.564 103.516 198.124 104.092 198.828 104.508C199.532 104.908 200.324 105.108 201.204 105.108ZM211.278 106.5V93.9H216.846C218.27 93.9 219.39 94.172 220.206 94.716C221.038 95.26 221.454 96.06 221.454 97.116C221.454 98.14 221.062 98.932 220.278 99.492C219.494 100.036 218.462 100.308 217.182 100.308L217.518 99.804C219.022 99.804 220.126 100.084 220.83 100.644C221.534 101.204 221.886 102.012 221.886 103.068C221.886 104.156 221.486 105.004 220.686 105.612C219.902 106.204 218.678 106.5 217.014 106.5H211.278ZM212.934 105.156H216.942C218.014 105.156 218.822 104.988 219.366 104.652C219.926 104.3 220.206 103.74 220.206 102.972C220.206 102.204 219.958 101.644 219.462 101.292C218.966 100.94 218.182 100.764 217.11 100.764H212.934V105.156ZM212.934 99.492H216.726C217.702 99.492 218.446 99.308 218.958 98.94C219.486 98.572 219.75 98.036 219.75 97.332C219.75 96.628 219.486 96.1 218.958 95.748C218.446 95.396 217.702 95.22 216.726 95.22H212.934V99.492Z" fill="#84BC33"/>
</svg>
