<svg width="256" height="170" viewBox="0 0 256 170" fill="none" xmlns="http://www.w3.org/2000/svg">
<path d="M87.6159 79.5L82.4319 73.26L83.8479 72.42L89.6319 79.5H87.6159ZM78.3759 79.5V66.9H80.0799V79.5H78.3759ZM79.5519 73.884V72.42H83.6079V73.884H79.5519ZM83.9919 73.38L82.4079 73.14L87.4239 66.9H89.2719L83.9919 73.38ZM97.0599 79.62C95.8439 79.62 94.7479 79.348 93.7719 78.804C92.8119 78.244 92.0519 77.484 91.4919 76.524C90.9319 75.548 90.6519 74.436 90.6519 73.188C90.6519 71.924 90.9319 70.812 91.4919 69.852C92.0519 68.892 92.8119 68.14 93.7719 67.596C94.7319 67.052 95.8279 66.78 97.0599 66.78C98.3079 66.78 99.4119 67.052 100.372 67.596C101.348 68.14 102.108 68.892 102.652 69.852C103.212 70.812 103.492 71.924 103.492 73.188C103.492 74.436 103.212 75.548 102.652 76.524C102.108 77.484 101.348 78.244 100.372 78.804C99.3959 79.348 98.2919 79.62 97.0599 79.62ZM97.0599 78.108C97.9719 78.108 98.7799 77.908 99.4839 77.508C100.188 77.092 100.74 76.516 101.14 75.78C101.556 75.028 101.764 74.164 101.764 73.188C101.764 72.196 101.556 71.332 101.14 70.596C100.74 69.86 100.188 69.292 99.4839 68.892C98.7799 68.476 97.9799 68.268 97.0839 68.268C96.1879 68.268 95.3879 68.476 94.6839 68.892C93.9799 69.292 93.4199 69.86 93.0039 70.596C92.5879 71.332 92.3799 72.196 92.3799 73.188C92.3799 74.164 92.5879 75.028 93.0039 75.78C93.4199 76.516 93.9799 77.092 94.6839 77.508C95.3879 77.908 96.1799 78.108 97.0599 78.108ZM107.134 79.5V66.9H108.862L114.574 76.572H113.854L119.662 66.9H121.246V79.5H119.686V68.844L119.998 68.988L114.574 77.964H113.806L108.334 68.892L108.694 68.82V79.5H107.134ZM126.095 79.5V66.9H127.799V72.468H135.743V66.9H137.447V79.5H135.743V73.932H127.799V79.5H126.095ZM150.114 79.5V76.716L150.042 76.26V71.604C150.042 70.532 149.738 69.708 149.13 69.132C148.538 68.556 147.65 68.268 146.466 68.268C145.65 68.268 144.874 68.404 144.138 68.676C143.402 68.948 142.778 69.308 142.266 69.756L141.498 68.484C142.138 67.94 142.906 67.524 143.802 67.236C144.698 66.932 145.642 66.78 146.634 66.78C148.266 66.78 149.522 67.188 150.402 68.004C151.298 68.804 151.746 70.028 151.746 71.676V79.5H150.114ZM145.77 79.62C144.826 79.62 144.002 79.468 143.298 79.164C142.61 78.844 142.082 78.412 141.714 77.868C141.346 77.308 141.162 76.668 141.162 75.948C141.162 75.292 141.314 74.7 141.618 74.172C141.938 73.628 142.45 73.196 143.154 72.876C143.874 72.54 144.834 72.372 146.034 72.372H150.378V73.644H146.082C144.866 73.644 144.018 73.86 143.538 74.292C143.074 74.724 142.842 75.26 142.842 75.9C142.842 76.62 143.122 77.196 143.682 77.628C144.242 78.06 145.026 78.276 146.034 78.276C146.994 78.276 147.818 78.06 148.506 77.628C149.21 77.18 149.722 76.54 150.042 75.708L150.426 76.884C150.106 77.716 149.546 78.38 148.746 78.876C147.962 79.372 146.97 79.62 145.77 79.62ZM158.682 79.5V67.932L159.114 68.388H153.906V66.9H165.162V68.388H159.954L160.386 67.932V79.5H158.682ZM175.45 79.5V76.716L175.378 76.26V71.604C175.378 70.532 175.074 69.708 174.466 69.132C173.874 68.556 172.986 68.268 171.802 68.268C170.986 68.268 170.21 68.404 169.474 68.676C168.738 68.948 168.114 69.308 167.602 69.756L166.834 68.484C167.474 67.94 168.242 67.524 169.138 67.236C170.034 66.932 170.978 66.78 171.97 66.78C173.602 66.78 174.858 67.188 175.738 68.004C176.634 68.804 177.082 70.028 177.082 71.676V79.5H175.45ZM171.106 79.62C170.162 79.62 169.338 79.468 168.634 79.164C167.946 78.844 167.418 78.412 167.05 77.868C166.682 77.308 166.498 76.668 166.498 75.948C166.498 75.292 166.65 74.7 166.954 74.172C167.274 73.628 167.786 73.196 168.49 72.876C169.21 72.54 170.17 72.372 171.37 72.372H175.714V73.644H171.418C170.202 73.644 169.354 73.86 168.874 74.292C168.41 74.724 168.178 75.26 168.178 75.9C168.178 76.62 168.458 77.196 169.018 77.628C169.578 78.06 170.362 78.276 171.37 78.276C172.33 78.276 173.154 78.06 173.842 77.628C174.546 77.18 175.058 76.54 175.378 75.708L175.762 76.884C175.442 77.716 174.882 78.38 174.082 78.876C173.298 79.372 172.306 79.62 171.106 79.62ZM18.719 105.684V95.388H12.647L12.503 98.196C12.471 99.044 12.415 99.876 12.335 100.692C12.271 101.508 12.151 102.26 11.975 102.948C11.815 103.62 11.583 104.172 11.279 104.604C10.975 105.02 10.583 105.26 10.103 105.324L8.39903 105.012C8.89503 105.028 9.30303 104.852 9.62303 104.484C9.94303 104.1 10.191 103.58 10.367 102.924C10.543 102.268 10.671 101.524 10.751 100.692C10.831 99.844 10.895 98.98 10.943 98.1L11.111 93.9H20.423V105.684H18.719ZM7.87103 109.548V105.012H22.391V109.548H20.783V106.5H9.47903V109.548H7.87103ZM23.4078 106.476L23.5278 105.012C23.6398 105.028 23.7438 105.052 23.8398 105.084C23.9518 105.1 24.0478 105.108 24.1278 105.108C24.6398 105.108 25.0478 104.916 25.3518 104.532C25.6718 104.148 25.9118 103.636 26.0718 102.996C26.2318 102.356 26.3438 101.636 26.4078 100.836C26.4718 100.02 26.5278 99.204 26.5758 98.388L26.7918 93.9H36.0318V106.5H34.3278V94.884L34.7598 95.388H27.8958L28.3038 94.86L28.1118 98.508C28.0638 99.596 27.9758 100.636 27.8478 101.628C27.7358 102.62 27.5518 103.492 27.2958 104.244C27.0558 104.996 26.7198 105.588 26.2878 106.02C25.8558 106.436 25.3038 106.644 24.6318 106.644C24.4398 106.644 24.2398 106.628 24.0318 106.596C23.8398 106.564 23.6318 106.524 23.4078 106.476ZM49.0119 106.5V101.964L49.3239 102.324H45.0519C43.4359 102.324 42.1719 101.972 41.2599 101.268C40.3479 100.564 39.8919 99.54 39.8919 98.196C39.8919 96.756 40.3799 95.684 41.3559 94.98C42.3319 94.26 43.6359 93.9 45.2679 93.9H50.5719V106.5H49.0119ZM39.7959 106.5L43.2519 101.652H45.0279L41.6439 106.5H39.7959ZM49.0119 101.46V94.884L49.3239 95.388H45.3159C44.1479 95.388 43.2359 95.612 42.5799 96.06C41.9399 96.508 41.6199 97.236 41.6199 98.244C41.6199 100.116 42.8119 101.052 45.1959 101.052H49.3239L49.0119 101.46ZM67.3758 106.644C66.3518 106.644 65.4398 106.476 64.6398 106.14C63.8558 105.804 63.1838 105.292 62.6238 104.604C62.0638 103.916 61.6398 103.068 61.3518 102.06C61.0638 101.036 60.9198 99.852 60.9198 98.508C60.9198 97.308 61.0318 96.26 61.2558 95.364C61.4798 94.452 61.7918 93.668 62.1918 93.012C62.5918 92.356 63.0558 91.804 63.5838 91.356C64.1278 90.892 64.7118 90.524 65.3358 90.252C65.9758 89.964 66.6318 89.748 67.3038 89.604L72.9678 88.284L73.2558 89.868L67.9278 91.068C67.5918 91.148 67.1838 91.26 66.7038 91.404C66.2398 91.548 65.7598 91.764 65.2638 92.052C64.7838 92.34 64.3358 92.74 63.9198 93.252C63.5038 93.764 63.1678 94.428 62.9118 95.244C62.6718 96.044 62.5518 97.044 62.5518 98.244C62.5518 98.5 62.5598 98.708 62.5758 98.868C62.5918 99.012 62.6078 99.172 62.6238 99.348C62.6558 99.508 62.6798 99.748 62.6958 100.068L61.9518 99.444C62.1278 98.468 62.4878 97.62 63.0318 96.9C63.5758 96.164 64.2558 95.596 65.0718 95.196C65.9038 94.78 66.8238 94.572 67.8318 94.572C68.9998 94.572 70.0398 94.828 70.9518 95.34C71.8638 95.836 72.5758 96.532 73.0878 97.428C73.6158 98.324 73.8798 99.364 73.8798 100.548C73.8798 101.716 73.6078 102.764 73.0638 103.692C72.5358 104.62 71.7838 105.348 70.8078 105.876C69.8318 106.388 68.6878 106.644 67.3758 106.644ZM67.5678 105.228C68.4638 105.228 69.2558 105.028 69.9438 104.628C70.6318 104.212 71.1678 103.652 71.5518 102.948C71.9518 102.244 72.1518 101.452 72.1518 100.572C72.1518 99.708 71.9518 98.94 71.5518 98.268C71.1678 97.596 70.6318 97.068 69.9438 96.684C69.2558 96.284 68.4558 96.084 67.5438 96.084C66.6478 96.084 65.8558 96.276 65.1678 96.66C64.4798 97.028 63.9358 97.548 63.5358 98.22C63.1518 98.892 62.9598 99.668 62.9598 100.548C62.9598 101.428 63.1518 102.22 63.5358 102.924C63.9358 103.628 64.4798 104.188 65.1678 104.604C65.8718 105.02 66.6718 105.228 67.5678 105.228ZM85.2858 106.5V103.716L85.2138 103.26V98.604C85.2138 97.532 84.9098 96.708 84.3018 96.132C83.7098 95.556 82.8218 95.268 81.6378 95.268C80.8218 95.268 80.0458 95.404 79.3098 95.676C78.5738 95.948 77.9498 96.308 77.4378 96.756L76.6698 95.484C77.3098 94.94 78.0778 94.524 78.9738 94.236C79.8698 93.932 80.8138 93.78 81.8058 93.78C83.4378 93.78 84.6938 94.188 85.5738 95.004C86.4698 95.804 86.9178 97.028 86.9178 98.676V106.5H85.2858ZM80.9418 106.62C79.9978 106.62 79.1738 106.468 78.4698 106.164C77.7818 105.844 77.2538 105.412 76.8858 104.868C76.5178 104.308 76.3338 103.668 76.3338 102.948C76.3338 102.292 76.4858 101.7 76.7898 101.172C77.1098 100.628 77.6218 100.196 78.3258 99.876C79.0458 99.54 80.0058 99.372 81.2058 99.372H85.5498V100.644H81.2538C80.0378 100.644 79.1898 100.86 78.7098 101.292C78.2458 101.724 78.0138 102.26 78.0138 102.9C78.0138 103.62 78.2938 104.196 78.8538 104.628C79.4138 105.06 80.1978 105.276 81.2058 105.276C82.1658 105.276 82.9898 105.06 83.6778 104.628C84.3818 104.18 84.8938 103.54 85.2138 102.708L85.5978 103.884C85.2778 104.716 84.7178 105.38 83.9178 105.876C83.1338 106.372 82.1418 106.62 80.9418 106.62ZM97.958 106.62C96.87 106.62 95.886 106.372 95.006 105.876C94.126 105.364 93.422 104.636 92.894 103.692C92.382 102.732 92.126 101.564 92.126 100.188C92.126 98.812 92.382 97.652 92.894 96.708C93.406 95.748 94.102 95.02 94.982 94.524C95.862 94.028 96.854 93.78 97.958 93.78C99.158 93.78 100.23 94.052 101.174 94.596C102.134 95.124 102.886 95.876 103.43 96.852C103.974 97.812 104.246 98.924 104.246 100.188C104.246 101.468 103.974 102.588 103.43 103.548C102.886 104.508 102.134 105.26 101.174 105.804C100.23 106.348 99.158 106.62 97.958 106.62ZM91.454 111.156V93.9H93.086V97.692L92.918 100.212L93.158 102.756V111.156H91.454ZM97.838 105.108C98.734 105.108 99.534 104.908 100.238 104.508C100.942 104.092 101.502 103.516 101.918 102.78C102.334 102.028 102.542 101.164 102.542 100.188C102.542 99.212 102.334 98.356 101.918 97.62C101.502 96.884 100.942 96.308 100.238 95.892C99.534 95.476 98.734 95.268 97.838 95.268C96.942 95.268 96.134 95.476 95.414 95.892C94.71 96.308 94.15 96.884 93.734 97.62C93.334 98.356 93.134 99.212 93.134 100.188C93.134 101.164 93.334 102.028 93.734 102.78C94.15 103.516 94.71 104.092 95.414 104.508C96.134 104.908 96.942 105.108 97.838 105.108ZM115.661 106.5V103.716L115.589 103.26V98.604C115.589 97.532 115.285 96.708 114.677 96.132C114.085 95.556 113.197 95.268 112.013 95.268C111.197 95.268 110.421 95.404 109.685 95.676C108.949 95.948 108.325 96.308 107.813 96.756L107.045 95.484C107.685 94.94 108.453 94.524 109.349 94.236C110.245 93.932 111.189 93.78 112.181 93.78C113.813 93.78 115.069 94.188 115.949 95.004C116.845 95.804 117.293 97.028 117.293 98.676V106.5H115.661ZM111.317 106.62C110.373 106.62 109.549 106.468 108.845 106.164C108.157 105.844 107.629 105.412 107.261 104.868C106.893 104.308 106.709 103.668 106.709 102.948C106.709 102.292 106.861 101.7 107.165 101.172C107.485 100.628 107.997 100.196 108.701 99.876C109.421 99.54 110.381 99.372 111.581 99.372H115.925V100.644H111.629C110.413 100.644 109.565 100.86 109.085 101.292C108.621 101.724 108.389 102.26 108.389 102.9C108.389 103.62 108.669 104.196 109.229 104.628C109.789 105.06 110.573 105.276 111.581 105.276C112.541 105.276 113.365 105.06 114.053 104.628C114.757 104.18 115.269 103.54 115.589 102.708L115.973 103.884C115.653 104.716 115.093 105.38 114.293 105.876C113.509 106.372 112.517 106.62 111.317 106.62ZM127.493 106.644C126.469 106.644 125.557 106.476 124.757 106.14C123.973 105.804 123.301 105.292 122.741 104.604C122.181 103.916 121.757 103.068 121.469 102.06C121.181 101.036 121.037 99.852 121.037 98.508C121.037 97.308 121.149 96.26 121.373 95.364C121.597 94.452 121.909 93.668 122.309 93.012C122.709 92.356 123.173 91.804 123.701 91.356C124.245 90.892 124.829 90.524 125.453 90.252C126.093 89.964 126.749 89.748 127.421 89.604L133.085 88.284L133.373 89.868L128.045 91.068C127.709 91.148 127.301 91.26 126.821 91.404C126.357 91.548 125.877 91.764 125.381 92.052C124.901 92.34 124.453 92.74 124.037 93.252C123.621 93.764 123.285 94.428 123.029 95.244C122.789 96.044 122.669 97.044 122.669 98.244C122.669 98.5 122.677 98.708 122.693 98.868C122.709 99.012 122.725 99.172 122.741 99.348C122.773 99.508 122.797 99.748 122.813 100.068L122.069 99.444C122.245 98.468 122.605 97.62 123.149 96.9C123.693 96.164 124.373 95.596 125.189 95.196C126.021 94.78 126.941 94.572 127.949 94.572C129.117 94.572 130.157 94.828 131.069 95.34C131.981 95.836 132.693 96.532 133.205 97.428C133.733 98.324 133.997 99.364 133.997 100.548C133.997 101.716 133.725 102.764 133.181 103.692C132.653 104.62 131.901 105.348 130.925 105.876C129.949 106.388 128.805 106.644 127.493 106.644ZM127.685 105.228C128.581 105.228 129.373 105.028 130.061 104.628C130.749 104.212 131.285 103.652 131.669 102.948C132.069 102.244 132.269 101.452 132.269 100.572C132.269 99.708 132.069 98.94 131.669 98.268C131.285 97.596 130.749 97.068 130.061 96.684C129.373 96.284 128.573 96.084 127.661 96.084C126.765 96.084 125.973 96.276 125.285 96.66C124.597 97.028 124.053 97.548 123.653 98.22C123.269 98.892 123.077 99.668 123.077 100.548C123.077 101.428 123.269 102.22 123.653 102.924C124.053 103.628 124.597 104.188 125.285 104.604C125.989 105.02 126.789 105.228 127.685 105.228ZM145.403 106.5V103.716L145.331 103.26V98.604C145.331 97.532 145.027 96.708 144.419 96.132C143.827 95.556 142.939 95.268 141.755 95.268C140.939 95.268 140.163 95.404 139.427 95.676C138.691 95.948 138.067 96.308 137.555 96.756L136.787 95.484C137.427 94.94 138.195 94.524 139.091 94.236C139.987 93.932 140.931 93.78 141.923 93.78C143.555 93.78 144.811 94.188 145.691 95.004C146.587 95.804 147.035 97.028 147.035 98.676V106.5H145.403ZM141.059 106.62C140.115 106.62 139.291 106.468 138.587 106.164C137.899 105.844 137.371 105.412 137.003 104.868C136.635 104.308 136.451 103.668 136.451 102.948C136.451 102.292 136.603 101.7 136.907 101.172C137.227 100.628 137.739 100.196 138.443 99.876C139.163 99.54 140.123 99.372 141.323 99.372H145.667V100.644H141.371C140.155 100.644 139.307 100.86 138.827 101.292C138.363 101.724 138.131 102.26 138.131 102.9C138.131 103.62 138.411 104.196 138.971 104.628C139.531 105.06 140.315 105.276 141.323 105.276C142.283 105.276 143.107 105.06 143.795 104.628C144.499 104.18 145.011 103.54 145.331 102.708L145.715 103.884C145.395 104.716 144.835 105.38 144.035 105.876C143.251 106.372 142.259 106.62 141.059 106.62ZM151.571 106.5V93.9H153.275V99.468H161.219V93.9H162.923V106.5H161.219V100.932H153.275V106.5H151.571ZM176.047 105.012L175.663 105.468V93.9H177.367V105.468L176.911 105.012H183.943L183.487 105.468V93.9H185.191V106.5H167.767V93.9H169.471V105.468L169.039 105.012H176.047ZM185.527 109.26V106.044L185.959 106.5H183.391V105.012H187.135V109.26H185.527ZM190.032 106.5V93.9H191.736V103.908L200.16 93.9H201.672V106.5H199.968V96.468L191.568 106.5H190.032ZM215.796 106.5L210.612 100.26L212.028 99.42L217.812 106.5H215.796ZM206.556 106.5V93.9H208.26V106.5H206.556ZM207.732 100.884V99.42H211.788V100.884H207.732ZM212.172 100.38L210.588 100.14L215.604 93.9H217.452L212.172 100.38ZM225.24 106.62C224.024 106.62 222.928 106.348 221.952 105.804C220.992 105.244 220.232 104.484 219.672 103.524C219.112 102.548 218.832 101.436 218.832 100.188C218.832 98.924 219.112 97.812 219.672 96.852C220.232 95.892 220.992 95.14 221.952 94.596C222.912 94.052 224.008 93.78 225.24 93.78C226.488 93.78 227.592 94.052 228.552 94.596C229.528 95.14 230.288 95.892 230.832 96.852C231.392 97.812 231.672 98.924 231.672 100.188C231.672 101.436 231.392 102.548 230.832 103.524C230.288 104.484 229.528 105.244 228.552 105.804C227.576 106.348 226.472 106.62 225.24 106.62ZM225.24 105.108C226.152 105.108 226.96 104.908 227.664 104.508C228.368 104.092 228.92 103.516 229.32 102.78C229.736 102.028 229.944 101.164 229.944 100.188C229.944 99.196 229.736 98.332 229.32 97.596C228.92 96.86 228.368 96.292 227.664 95.892C226.96 95.476 226.16 95.268 225.264 95.268C224.368 95.268 223.568 95.476 222.864 95.892C222.16 96.292 221.6 96.86 221.184 97.596C220.768 98.332 220.56 99.196 220.56 100.188C220.56 101.164 220.768 102.028 221.184 102.78C221.6 103.516 222.16 104.092 222.864 104.508C223.568 104.908 224.36 105.108 225.24 105.108ZM235.313 106.5V93.9H240.881C242.305 93.9 243.425 94.172 244.241 94.716C245.073 95.26 245.489 96.06 245.489 97.116C245.489 98.14 245.097 98.932 244.313 99.492C243.529 100.036 242.497 100.308 241.217 100.308L241.553 99.804C243.057 99.804 244.161 100.084 244.865 100.644C245.569 101.204 245.921 102.012 245.921 103.068C245.921 104.156 245.521 105.004 244.721 105.612C243.937 106.204 242.713 106.5 241.049 106.5H235.313ZM236.969 105.156H240.977C242.049 105.156 242.857 104.988 243.401 104.652C243.961 104.3 244.241 103.74 244.241 102.972C244.241 102.204 243.993 101.644 243.497 101.292C243.001 100.94 242.217 100.764 241.145 100.764H236.969V105.156ZM236.969 99.492H240.761C241.737 99.492 242.481 99.308 242.993 98.94C243.521 98.572 243.785 98.036 243.785 97.332C243.785 96.628 243.521 96.1 242.993 95.748C242.481 95.396 241.737 95.22 240.761 95.22H236.969V99.492Z" fill="#84BC33"/>
</svg>
