<svg width="257" height="171" viewBox="0 0 257 171" fill="none" xmlns="http://www.w3.org/2000/svg">
<path d="M72.2076 85.38V75.5618H79.9292V85.38H78.4207V76.9681H73.7161V85.38H72.2076ZM86.8006 85.5846C85.8546 85.5846 85.0386 85.3758 84.3525 84.9581C83.6707 84.5363 83.1444 83.9482 82.7736 83.1939C82.4072 82.4354 82.2239 81.5533 82.2239 80.5476C82.2239 79.542 82.4072 78.6556 82.7736 77.8885C83.1444 77.1172 83.66 76.5164 84.3205 76.086C84.9853 75.6513 85.7609 75.434 86.6472 75.434C87.1586 75.434 87.6636 75.5192 88.1621 75.6897C88.6607 75.8601 89.1145 76.1371 89.5236 76.5206C89.9327 76.8999 90.2587 77.4027 90.5016 78.0292C90.7445 78.6556 90.866 79.4269 90.866 80.3431V80.9823H83.2978V79.6783H89.3319C89.3319 79.1243 89.2211 78.63 88.9995 78.1954C88.7822 77.7607 88.4711 77.4177 88.0663 77.1662C87.6657 76.9148 87.1927 76.7891 86.6472 76.7891C86.0464 76.7891 85.5265 76.9383 85.0876 77.2366C84.6529 77.5306 84.3184 77.9141 84.084 78.3871C83.8496 78.8601 83.7324 79.3672 83.7324 79.9084V80.7777C83.7324 81.5192 83.8603 82.1478 84.116 82.6634C84.3759 83.1748 84.736 83.5647 85.1962 83.8331C85.6565 84.0973 86.1913 84.2295 86.8006 84.2295C87.1969 84.2295 87.5549 84.1741 87.8745 84.0633C88.1984 83.9482 88.4775 83.7777 88.7118 83.5519C88.9462 83.3218 89.1273 83.0363 89.2552 82.6954L90.7126 83.1045C90.5591 83.5988 90.3013 84.0334 89.9391 84.4084C89.5769 84.7792 89.1295 85.0689 88.5968 85.2777C88.0641 85.4823 87.4654 85.5846 86.8006 85.5846ZM93.1607 89.0618V75.5618H94.6181V77.1215H94.7971C94.9079 76.951 95.0613 76.7337 95.2573 76.4695C95.4576 76.201 95.7431 75.9624 96.1138 75.7536C96.4888 75.5405 96.9959 75.434 97.6351 75.434C98.4618 75.434 99.1905 75.6407 99.8212 76.054C100.452 76.4674 100.944 77.0533 101.298 77.8118C101.651 78.5704 101.828 79.4652 101.828 80.4965C101.828 81.5363 101.651 82.4375 101.298 83.2003C100.944 83.9589 100.454 84.5469 99.8276 84.9645C99.2012 85.3779 98.4789 85.5846 97.6607 85.5846C97.03 85.5846 96.5251 85.4802 96.1458 85.2714C95.7665 85.0583 95.4746 84.8175 95.2701 84.5491C95.0655 84.2763 94.9079 84.0505 94.7971 83.8715H94.6692V89.0618H93.1607ZM94.6437 80.4709C94.6437 81.2124 94.7523 81.8665 94.9697 82.4333C95.187 82.9958 95.5045 83.4368 95.9221 83.7564C96.3397 84.0718 96.8511 84.2295 97.4562 84.2295C98.0868 84.2295 98.6131 84.0633 99.035 83.7309C99.4611 83.3942 99.7807 82.9425 99.9938 82.3758C100.211 81.8047 100.32 81.1698 100.32 80.4709C100.32 79.7806 100.213 79.1584 100 78.6045C99.7914 78.0462 99.4739 77.6052 99.0478 77.2813C98.6259 76.9532 98.0954 76.7891 97.4562 76.7891C96.8425 76.7891 96.3269 76.9447 95.9093 77.2557C95.4917 77.5625 95.1763 77.9929 94.9633 78.5469C94.7502 79.0966 94.6437 79.738 94.6437 80.4709ZM104.129 85.38V75.5618H108.144C109.2 75.5618 110.04 75.8005 110.662 76.2777C111.284 76.755 111.595 77.3857 111.595 78.1698C111.595 78.7664 111.419 79.2287 111.065 79.5569C110.711 79.8807 110.257 80.1002 109.703 80.2152C110.066 80.2664 110.417 80.3942 110.758 80.5988C111.103 80.8033 111.389 81.0846 111.615 81.4425C111.84 81.7962 111.953 82.2309 111.953 82.7465C111.953 83.2493 111.825 83.6989 111.57 84.0952C111.314 84.4915 110.948 84.8047 110.47 85.0348C109.993 85.265 109.422 85.38 108.757 85.38H104.129ZM105.561 83.9993H108.757C109.277 83.9993 109.684 83.8758 109.978 83.6286C110.272 83.3814 110.419 83.0448 110.419 82.6187C110.419 82.1116 110.272 81.7131 109.978 81.4233C109.684 81.1293 109.277 80.9823 108.757 80.9823H105.561V83.9993ZM105.561 79.6783H108.144C108.548 79.6783 108.896 79.6229 109.186 79.5121C109.475 79.3971 109.697 79.2351 109.85 79.0263C110.008 78.8133 110.087 78.5618 110.087 78.2721C110.087 77.8587 109.914 77.5348 109.569 77.3005C109.224 77.0618 108.749 76.9425 108.144 76.9425H105.561V79.6783ZM115.541 79.1158H118.353C119.504 79.1158 120.384 79.4077 120.993 79.9915C121.603 80.5753 121.907 81.3147 121.907 82.2096C121.907 82.7976 121.771 83.3324 121.498 83.814C121.226 84.2912 120.825 84.6726 120.297 84.9581C119.768 85.2394 119.12 85.38 118.353 85.38H114.237V75.5618H115.745V83.9738H118.353C118.95 83.9738 119.44 83.8161 119.824 83.5008C120.207 83.1854 120.399 82.7806 120.399 82.2863C120.399 81.7664 120.207 81.3424 119.824 81.0143C119.44 80.6861 118.95 80.5221 118.353 80.5221H115.541V79.1158ZM123.467 85.38V75.5618H124.976V85.38H123.467ZM129.245 83.1556L133.976 75.5618H135.714V85.38H134.206V77.7863L129.501 85.38H127.737V75.5618H129.245V83.1556ZM132.978 72.2891H134.385C134.385 72.9795 134.146 73.5441 133.669 73.983C133.191 74.4219 132.544 74.6414 131.726 74.6414C130.92 74.6414 130.279 74.4219 129.802 73.983C129.329 73.5441 129.092 72.9795 129.092 72.2891H130.498C130.498 72.6215 130.59 72.9134 130.773 73.1648C130.961 73.4162 131.278 73.542 131.726 73.542C132.173 73.542 132.493 73.4162 132.684 73.1648C132.88 72.9134 132.978 72.6215 132.978 72.2891ZM146.787 76.8402C146.446 76.8445 146.103 76.9319 145.758 77.1023C145.417 77.2728 145.131 77.4986 144.901 77.7799C144.675 78.0569 144.562 78.3658 144.562 78.7067H143.079C143.079 78.2806 143.182 77.8715 143.386 77.4795C143.591 77.0874 143.866 76.738 144.211 76.4312C144.56 76.1243 144.957 75.8814 145.4 75.7025C145.847 75.5235 146.31 75.434 146.787 75.434C147.682 75.434 148.44 75.6598 149.062 76.1116C149.689 76.5633 150.164 77.1598 150.488 77.9013C150.816 78.6428 150.98 79.4482 150.98 80.3175V80.6755C150.98 81.5405 150.816 82.3459 150.488 83.0917C150.164 83.8331 149.689 84.4297 149.062 84.8814C148.44 85.3331 147.682 85.559 146.787 85.559C146.071 85.559 145.434 85.4013 144.876 85.086C144.317 84.7664 143.878 84.3402 143.559 83.8076C143.239 83.2749 143.079 82.6826 143.079 82.0306H144.562C144.562 82.4013 144.667 82.7486 144.876 83.0725C145.089 83.3921 145.363 83.652 145.7 83.8523C146.041 84.0483 146.403 84.1485 146.787 84.1527C147.358 84.1485 147.844 83.9695 148.244 83.6158C148.645 83.2621 148.949 82.8189 149.158 82.2863C149.367 81.7536 149.471 81.2167 149.471 80.6755V80.3175C149.471 79.7635 149.367 79.2223 149.158 78.6939C148.954 78.1613 148.651 77.7202 148.251 77.3708C147.854 77.0214 147.366 76.8445 146.787 76.8402ZM150.085 79.7295V81.1357H145.79V79.7295H150.085ZM151.995 76.9681V75.5618H159.972V76.9681H156.75V85.38H155.242V76.9681H151.995ZM164.552 85.6101C163.93 85.6101 163.365 85.4929 162.858 85.2586C162.351 85.0199 161.948 84.6769 161.65 84.2295C161.352 83.7777 161.202 83.2323 161.202 82.5931C161.202 82.0306 161.313 81.5746 161.535 81.2252C161.756 80.8715 162.053 80.5945 162.423 80.3942C162.794 80.1939 163.203 80.0448 163.651 79.9468C164.102 79.8445 164.556 79.7635 165.012 79.7039C165.609 79.6272 166.092 79.5697 166.463 79.5313C166.838 79.4887 167.111 79.4184 167.281 79.3204C167.456 79.2223 167.543 79.0519 167.543 78.809V78.7579C167.543 78.1272 167.371 77.6371 167.026 77.2877C166.685 76.9383 166.167 76.7635 165.472 76.7635C164.752 76.7635 164.188 76.9212 163.778 77.2366C163.369 77.5519 163.082 77.8885 162.916 78.2465L161.484 77.7351C161.739 77.1385 162.08 76.6741 162.506 76.3417C162.937 76.005 163.406 75.7706 163.913 75.6385C164.424 75.5022 164.927 75.434 165.421 75.434C165.737 75.434 166.099 75.4723 166.508 75.5491C166.921 75.6215 167.32 75.7728 167.703 76.0029C168.091 76.233 168.413 76.5803 168.668 77.0448C168.924 77.5093 169.052 78.1314 169.052 78.9113V85.38H167.543V84.0505H167.467C167.364 84.2635 167.194 84.4915 166.955 84.7344C166.717 84.9773 166.399 85.184 166.003 85.3545C165.607 85.5249 165.123 85.6101 164.552 85.6101ZM164.782 84.255C165.379 84.255 165.881 84.1378 166.291 83.9035C166.704 83.6691 167.015 83.3665 167.224 82.9958C167.437 82.625 167.543 82.2351 167.543 81.826V80.4454C167.479 80.5221 167.339 80.5924 167.121 80.6563C166.908 80.716 166.661 80.7692 166.38 80.8161C166.103 80.8587 165.832 80.8971 165.568 80.9312C165.308 80.961 165.097 80.9866 164.935 81.0079C164.543 81.059 164.177 81.1421 163.836 81.2572C163.499 81.3679 163.227 81.5363 163.018 81.7621C162.813 81.9837 162.711 82.2863 162.711 82.6698C162.711 83.1939 162.905 83.5902 163.293 83.8587C163.685 84.1229 164.181 84.255 164.782 84.255ZM171.192 85.38L175.18 80.3942L171.243 75.5618H173.033L176.305 79.755H177.123V75.5618H178.632V79.755H179.425L182.697 75.5618H184.487L180.575 80.3942L184.538 85.38H182.723L179.399 81.1613H178.632V85.38H177.123V81.1613H176.356L173.007 85.38H171.192Z" fill="#84BC33"/>
</svg>
