<svg width="256" height="170" viewBox="0 0 256 170" fill="none" xmlns="http://www.w3.org/2000/svg">
<path d="M83.7001 93.644C82.6761 93.644 81.7641 93.476 80.9641 93.14C80.1801 92.804 79.5081 92.292 78.9481 91.604C78.3881 90.916 77.9641 90.068 77.6761 89.06C77.3881 88.036 77.2441 86.852 77.2441 85.508C77.2441 84.308 77.3561 83.26 77.5801 82.364C77.8041 81.452 78.1161 80.668 78.5161 80.012C78.9161 79.356 79.3801 78.804 79.9081 78.356C80.4521 77.892 81.0361 77.524 81.6601 77.252C82.3001 76.964 82.9561 76.748 83.6281 76.604L89.2921 75.284L89.5801 76.868L84.2521 78.068C83.9161 78.148 83.5081 78.26 83.0281 78.404C82.5641 78.548 82.0841 78.764 81.5881 79.052C81.1081 79.34 80.6601 79.74 80.2441 80.252C79.8281 80.764 79.4921 81.428 79.2361 82.244C78.9961 83.044 78.8761 84.044 78.8761 85.244C78.8761 85.5 78.8841 85.708 78.9001 85.868C78.9161 86.012 78.9321 86.172 78.9481 86.348C78.9801 86.508 79.0041 86.748 79.0201 87.068L78.2761 86.444C78.4521 85.468 78.8121 84.62 79.3561 83.9C79.9001 83.164 80.5801 82.596 81.3961 82.196C82.2281 81.78 83.1481 81.572 84.1561 81.572C85.3241 81.572 86.3641 81.828 87.2761 82.34C88.1881 82.836 88.9001 83.532 89.4121 84.428C89.9401 85.324 90.2041 86.364 90.2041 87.548C90.2041 88.716 89.9321 89.764 89.3881 90.692C88.8601 91.62 88.1081 92.348 87.1321 92.876C86.1561 93.388 85.0121 93.644 83.7001 93.644ZM83.8921 92.228C84.7881 92.228 85.5801 92.028 86.2681 91.628C86.9561 91.212 87.4921 90.652 87.8761 89.948C88.2761 89.244 88.4761 88.452 88.4761 87.572C88.4761 86.708 88.2761 85.94 87.8761 85.268C87.4921 84.596 86.9561 84.068 86.2681 83.684C85.5801 83.284 84.7801 83.084 83.8681 83.084C82.9721 83.084 82.1801 83.276 81.4921 83.66C80.8041 84.028 80.2601 84.548 79.8601 85.22C79.4761 85.892 79.2841 86.668 79.2841 87.548C79.2841 88.428 79.4761 89.22 79.8601 89.924C80.2601 90.628 80.8041 91.188 81.4921 91.604C82.1961 92.02 82.9961 92.228 83.8921 92.228ZM101.61 93.5V90.716L101.538 90.26V85.604C101.538 84.532 101.234 83.708 100.626 83.132C100.034 82.556 99.1461 82.268 97.9621 82.268C97.1461 82.268 96.3701 82.404 95.6341 82.676C94.8981 82.948 94.2741 83.308 93.7621 83.756L92.9941 82.484C93.6341 81.94 94.4021 81.524 95.2981 81.236C96.1941 80.932 97.1381 80.78 98.1301 80.78C99.7621 80.78 101.018 81.188 101.898 82.004C102.794 82.804 103.242 84.028 103.242 85.676V93.5H101.61ZM97.2661 93.62C96.3221 93.62 95.4981 93.468 94.7941 93.164C94.1061 92.844 93.5781 92.412 93.2101 91.868C92.8421 91.308 92.6581 90.668 92.6581 89.948C92.6581 89.292 92.8101 88.7 93.1141 88.172C93.4341 87.628 93.9461 87.196 94.6501 86.876C95.3701 86.54 96.3301 86.372 97.5301 86.372H101.874V87.644H97.5781C96.3621 87.644 95.5141 87.86 95.0341 88.292C94.5701 88.724 94.3381 89.26 94.3381 89.9C94.3381 90.62 94.6181 91.196 95.1781 91.628C95.7381 92.06 96.5221 92.276 97.5301 92.276C98.4901 92.276 99.3141 92.06 100.002 91.628C100.706 91.18 101.218 90.54 101.538 89.708L101.922 90.884C101.602 91.716 101.042 92.38 100.242 92.876C99.4581 93.372 98.4661 93.62 97.2661 93.62ZM113.058 93.62C111.81 93.62 110.69 93.348 109.698 92.804C108.722 92.244 107.954 91.484 107.394 90.524C106.834 89.548 106.554 88.436 106.554 87.188C106.554 85.924 106.834 84.812 107.394 83.852C107.954 82.892 108.722 82.14 109.698 81.596C110.69 81.052 111.81 80.78 113.058 80.78C114.13 80.78 115.098 80.988 115.962 81.404C116.826 81.82 117.506 82.444 118.002 83.276L116.73 84.14C116.298 83.5 115.762 83.028 115.122 82.724C114.482 82.42 113.786 82.268 113.034 82.268C112.138 82.268 111.33 82.476 110.61 82.892C109.89 83.292 109.322 83.86 108.906 84.596C108.49 85.332 108.282 86.196 108.282 87.188C108.282 88.18 108.49 89.044 108.906 89.78C109.322 90.516 109.89 91.092 110.61 91.508C111.33 91.908 112.138 92.108 113.034 92.108C113.786 92.108 114.482 91.956 115.122 91.652C115.762 91.348 116.298 90.884 116.73 90.26L118.002 91.124C117.506 91.94 116.826 92.564 115.962 92.996C115.098 93.412 114.13 93.62 113.058 93.62ZM126.371 93.62C125.123 93.62 124.003 93.348 123.011 92.804C122.035 92.244 121.267 91.484 120.707 90.524C120.147 89.548 119.867 88.436 119.867 87.188C119.867 85.924 120.147 84.812 120.707 83.852C121.267 82.892 122.035 82.14 123.011 81.596C124.003 81.052 125.123 80.78 126.371 80.78C127.443 80.78 128.411 80.988 129.275 81.404C130.139 81.82 130.819 82.444 131.315 83.276L130.043 84.14C129.611 83.5 129.075 83.028 128.435 82.724C127.795 82.42 127.099 82.268 126.347 82.268C125.451 82.268 124.643 82.476 123.923 82.892C123.203 83.292 122.635 83.86 122.219 84.596C121.803 85.332 121.595 86.196 121.595 87.188C121.595 88.18 121.803 89.044 122.219 89.78C122.635 90.516 123.203 91.092 123.923 91.508C124.643 91.908 125.451 92.108 126.347 92.108C127.099 92.108 127.795 91.956 128.435 91.652C129.075 91.348 129.611 90.884 130.043 90.26L131.315 91.124C130.819 91.94 130.139 92.564 129.275 92.996C128.411 93.412 127.443 93.62 126.371 93.62ZM139.803 93.62C138.491 93.62 137.339 93.348 136.347 92.804C135.355 92.244 134.579 91.484 134.019 90.524C133.459 89.548 133.179 88.436 133.179 87.188C133.179 85.94 133.443 84.836 133.971 83.876C134.515 82.916 135.251 82.164 136.179 81.62C137.123 81.06 138.179 80.78 139.347 80.78C140.531 80.78 141.579 81.052 142.491 81.596C143.419 82.124 144.147 82.876 144.675 83.852C145.203 84.812 145.467 85.924 145.467 87.188C145.467 87.268 145.459 87.356 145.443 87.452C145.443 87.532 145.443 87.62 145.443 87.716H134.475V86.444H144.531L143.859 86.948C143.859 86.036 143.659 85.228 143.259 84.524C142.875 83.804 142.347 83.244 141.675 82.844C141.003 82.444 140.227 82.244 139.347 82.244C138.483 82.244 137.707 82.444 137.019 82.844C136.331 83.244 135.795 83.804 135.411 84.524C135.027 85.244 134.835 86.068 134.835 86.996V87.26C134.835 88.22 135.043 89.068 135.459 89.804C135.891 90.524 136.483 91.092 137.235 91.508C138.003 91.908 138.875 92.108 139.851 92.108C140.619 92.108 141.331 91.972 141.987 91.7C142.659 91.428 143.235 91.012 143.715 90.452L144.675 91.556C144.115 92.228 143.411 92.74 142.563 93.092C141.731 93.444 140.811 93.62 139.803 93.62ZM149.239 93.5V80.9H150.943V90.908L159.367 80.9H160.879V93.5H159.175V83.468L150.775 93.5H149.239ZM154.951 79.076C153.895 79.076 153.039 78.812 152.383 78.284C151.743 77.74 151.407 76.964 151.375 75.956H152.599C152.615 76.596 152.839 77.1 153.271 77.468C153.703 77.836 154.263 78.02 154.951 78.02C155.639 78.02 156.199 77.836 156.631 77.468C157.079 77.1 157.311 76.596 157.327 75.956H158.551C158.535 76.964 158.199 77.74 157.543 78.284C156.887 78.812 156.023 79.076 154.951 79.076ZM165.763 93.5V80.9H167.467V86.468H175.411V80.9H177.115V93.5H175.411V87.932H167.467V93.5H165.763Z" fill="#84BC33"/>
</svg>
