<svg width="257" height="171" viewBox="0 0 257 171" fill="none" xmlns="http://www.w3.org/2000/svg">
<path d="M100.456 71.88L101.223 72.8005C100.925 73.0902 100.58 73.2927 100.188 73.4077C99.7959 73.5228 99.3527 73.5931 98.8584 73.6186C98.364 73.6442 97.8143 73.6698 97.2092 73.6954C96.5274 73.7209 95.9628 73.8871 95.5153 74.1939C95.0679 74.5008 94.7227 74.9439 94.4798 75.5235C94.2369 76.103 94.0814 76.8147 94.0132 77.6584H94.141C94.4734 77.0448 94.9336 76.5931 95.5217 76.3033C96.1098 76.0135 96.7405 75.8686 97.4138 75.8686C98.1808 75.8686 98.8711 76.0476 99.4848 76.4056C100.098 76.7635 100.584 77.2941 100.942 77.9972C101.3 78.7003 101.479 79.5675 101.479 80.5988C101.479 81.6258 101.296 82.5121 100.929 83.2579C100.567 84.0036 100.058 84.5789 99.4017 84.9837C98.7497 85.3843 97.9848 85.5846 97.1069 85.5846C96.2291 85.5846 95.4599 85.3779 94.7994 84.9645C94.1389 84.5469 93.6254 83.929 93.2589 83.1108C92.8925 82.2884 92.7092 81.2721 92.7092 80.0618V79.0135C92.7092 76.8275 93.08 75.1698 93.8214 74.0405C94.5672 72.9113 95.6879 72.3275 97.1836 72.2891C97.7121 72.2721 98.1829 72.2678 98.5963 72.2763C99.0096 72.2848 99.3697 72.2657 99.6765 72.2188C99.9834 72.1719 100.243 72.059 100.456 71.88ZM97.1069 84.2294C97.6993 84.2294 98.2085 84.0803 98.6346 83.782C99.065 83.4837 99.3953 83.064 99.6254 82.5228C99.8555 81.9773 99.9706 81.336 99.9706 80.5988C99.9706 79.8829 99.8534 79.2735 99.619 78.7706C99.3889 78.2678 99.0586 77.8843 98.6282 77.6201C98.1978 77.3559 97.6822 77.2238 97.0814 77.2238C96.6425 77.2238 96.2483 77.2983 95.8988 77.4475C95.5494 77.5966 95.2511 77.8161 95.004 78.1059C94.7568 78.3956 94.565 78.7493 94.4287 79.1669C94.2966 79.5846 94.2263 80.0618 94.2177 80.5988C94.2177 81.6982 94.4755 82.5782 94.9912 83.2387C95.5068 83.8992 96.2121 84.2294 97.1069 84.2294ZM106.676 85.6101C106.054 85.6101 105.489 85.4929 104.982 85.2586C104.475 85.0199 104.072 84.6769 103.774 84.2294C103.476 83.7777 103.326 83.2323 103.326 82.5931C103.326 82.0306 103.437 81.5746 103.659 81.2252C103.88 80.8715 104.177 80.5945 104.547 80.3942C104.918 80.1939 105.327 80.0448 105.775 79.9468C106.226 79.8445 106.68 79.7635 107.136 79.7039C107.733 79.6272 108.216 79.5696 108.587 79.5313C108.962 79.4887 109.235 79.4184 109.405 79.3204C109.58 79.2223 109.667 79.0519 109.667 78.809V78.7579C109.667 78.1272 109.495 77.6371 109.15 77.2877C108.809 76.9383 108.291 76.7635 107.596 76.7635C106.876 76.7635 106.311 76.9212 105.902 77.2365C105.493 77.5519 105.206 77.8885 105.039 78.2465L103.608 77.7351C103.863 77.1385 104.204 76.674 104.63 76.3417C105.061 76.005 105.53 75.7706 106.037 75.6385C106.548 75.5022 107.051 75.434 107.545 75.434C107.86 75.434 108.223 75.4723 108.632 75.549C109.045 75.6215 109.444 75.7728 109.827 76.0029C110.215 76.233 110.537 76.5803 110.792 77.0448C111.048 77.5093 111.176 78.1314 111.176 78.9113V85.38H109.667V84.0505H109.591C109.488 84.2635 109.318 84.4915 109.079 84.7344C108.841 84.9773 108.523 85.184 108.127 85.3544C107.731 85.5249 107.247 85.6101 106.676 85.6101ZM106.906 84.255C107.503 84.255 108.005 84.1378 108.414 83.9035C108.828 83.6691 109.139 83.3665 109.348 82.9958C109.561 82.625 109.667 82.2351 109.667 81.826V80.4454C109.603 80.5221 109.463 80.5924 109.245 80.6563C109.032 80.7159 108.785 80.7692 108.504 80.8161C108.227 80.8587 107.956 80.8971 107.692 80.9311C107.432 80.961 107.221 80.9865 107.059 81.0079C106.667 81.059 106.301 81.1421 105.96 81.2571C105.623 81.3679 105.351 81.5363 105.142 81.7621C104.937 81.9837 104.835 82.2863 104.835 82.6698C104.835 83.1939 105.029 83.5902 105.417 83.8587C105.809 84.1229 106.305 84.255 106.906 84.255ZM117.918 85.5846C116.997 85.5846 116.205 85.3672 115.54 84.9326C114.875 84.4979 114.364 83.8992 114.006 83.1364C113.648 82.3736 113.469 81.5022 113.469 80.5221C113.469 79.5249 113.652 78.6449 114.019 77.8821C114.389 77.1151 114.905 76.5164 115.566 76.086C116.23 75.6513 117.006 75.434 117.892 75.434C118.583 75.434 119.205 75.5618 119.759 75.8175C120.313 76.0732 120.767 76.4311 121.12 76.8914C121.474 77.3516 121.693 77.8885 121.779 78.5022H120.27C120.155 78.0547 119.899 77.6584 119.503 77.3133C119.111 76.9638 118.583 76.7891 117.918 76.7891C117.33 76.7891 116.814 76.9425 116.371 77.2493C115.932 77.5519 115.589 77.9802 115.342 78.5341C115.099 79.0838 114.978 79.7294 114.978 80.4709C114.978 81.2294 115.097 81.89 115.335 82.4525C115.578 83.015 115.919 83.4517 116.358 83.7628C116.801 84.0739 117.321 84.2294 117.918 84.2294C118.31 84.2294 118.666 84.1613 118.985 84.0249C119.305 83.8885 119.576 83.6925 119.797 83.4368C120.019 83.1811 120.176 82.8743 120.27 82.5164H121.779C121.693 83.0959 121.482 83.6179 121.146 84.0824C120.813 84.5427 120.372 84.9091 119.823 85.1819C119.277 85.4503 118.642 85.5846 117.918 85.5846ZM127.973 85.5846C127.052 85.5846 126.259 85.3672 125.595 84.9326C124.93 84.4979 124.419 83.8992 124.061 83.1364C123.703 82.3736 123.524 81.5022 123.524 80.5221C123.524 79.5249 123.707 78.6449 124.073 77.8821C124.444 77.1151 124.96 76.5164 125.62 76.086C126.285 75.6513 127.061 75.434 127.947 75.434C128.637 75.434 129.259 75.5618 129.813 75.8175C130.367 76.0732 130.821 76.4311 131.175 76.8914C131.529 77.3516 131.748 77.8885 131.833 78.5022H130.325C130.21 78.0547 129.954 77.6584 129.558 77.3133C129.166 76.9638 128.637 76.7891 127.973 76.7891C127.384 76.7891 126.869 76.9425 126.426 77.2493C125.987 77.5519 125.644 77.9802 125.397 78.5341C125.154 79.0838 125.032 79.7294 125.032 80.4709C125.032 81.2294 125.152 81.89 125.39 82.4525C125.633 83.015 125.974 83.4517 126.413 83.7628C126.856 84.0739 127.376 84.2294 127.973 84.2294C128.365 84.2294 128.72 84.1613 129.04 84.0249C129.36 83.8885 129.63 83.6925 129.852 83.4368C130.073 83.1811 130.231 82.8743 130.325 82.5164H131.833C131.748 83.0959 131.537 83.6179 131.201 84.0824C130.868 84.5427 130.427 84.9091 129.877 85.1819C129.332 85.4503 128.697 85.5846 127.973 85.5846ZM138.155 85.5846C137.209 85.5846 136.393 85.3758 135.707 84.9581C135.025 84.5363 134.499 83.9482 134.128 83.1939C133.762 82.4354 133.578 81.5533 133.578 80.5476C133.578 79.5419 133.762 78.6556 134.128 77.8885C134.499 77.1172 135.014 76.5164 135.675 76.086C136.34 75.6513 137.115 75.434 138.002 75.434C138.513 75.434 139.018 75.5192 139.517 75.6897C140.015 75.8601 140.469 76.1371 140.878 76.5206C141.287 76.8999 141.613 77.4027 141.856 78.0292C142.099 78.6556 142.22 79.4269 142.22 80.3431V80.9823H134.652V79.6783H140.686C140.686 79.1243 140.576 78.63 140.354 78.1954C140.137 77.7607 139.826 77.4177 139.421 77.1662C139.02 76.9148 138.547 76.7891 138.002 76.7891C137.401 76.7891 136.881 76.9383 136.442 77.2365C136.007 77.5306 135.673 77.9141 135.438 78.3871C135.204 78.8601 135.087 79.3672 135.087 79.9084V80.7777C135.087 81.5192 135.215 82.1478 135.47 82.6634C135.73 83.1748 136.09 83.5647 136.551 83.8331C137.011 84.0973 137.546 84.2294 138.155 84.2294C138.551 84.2294 138.909 84.174 139.229 84.0633C139.553 83.9482 139.832 83.7777 140.066 83.5519C140.301 83.3218 140.482 83.0363 140.61 82.6954L142.067 83.1044C141.914 83.5988 141.656 84.0334 141.294 84.4084C140.931 84.7792 140.484 85.0689 139.951 85.2777C139.419 85.4823 138.82 85.5846 138.155 85.5846ZM146.024 83.1556L150.754 75.5618H152.492V85.38H150.984V77.7863L146.279 85.38H144.515V75.5618H146.024V83.1556ZM149.757 72.2891H151.163C151.163 72.9794 150.924 73.5441 150.447 73.983C149.97 74.4219 149.322 74.6414 148.504 74.6414C147.698 74.6414 147.057 74.4219 146.58 73.983C146.107 73.5441 145.87 72.9794 145.87 72.2891H147.277C147.277 72.6215 147.368 72.9134 147.551 73.1648C147.739 73.4162 148.056 73.5419 148.504 73.5419C148.951 73.5419 149.271 73.4162 149.463 73.1648C149.659 72.9134 149.757 72.6215 149.757 72.2891ZM161.826 79.7806V81.1868H156.406V79.7806H161.826ZM156.764 75.5618V85.38H155.255V75.5618H156.764ZM162.977 75.5618V85.38H161.468V75.5618H162.977Z" fill="#84BC33"/>
</svg>
