<svg width="256" height="170" viewBox="0 0 256 170" fill="none" xmlns="http://www.w3.org/2000/svg">
<path d="M48.9384 93.5V80.9H60.2664V93.5H58.5624V81.932L58.9944 82.388H50.2104L50.6424 81.932V93.5H48.9384ZM70.5103 93.62C69.1983 93.62 68.0463 93.348 67.0543 92.804C66.0623 92.244 65.2863 91.484 64.7263 90.524C64.1663 89.548 63.8863 88.436 63.8863 87.188C63.8863 85.94 64.1503 84.836 64.6783 83.876C65.2223 82.916 65.9583 82.164 66.8863 81.62C67.8303 81.06 68.8863 80.78 70.0543 80.78C71.2383 80.78 72.2863 81.052 73.1983 81.596C74.1263 82.124 74.8543 82.876 75.3823 83.852C75.9103 84.812 76.1743 85.924 76.1743 87.188C76.1743 87.268 76.1663 87.356 76.1503 87.452C76.1503 87.532 76.1503 87.62 76.1503 87.716H65.1823V86.444H75.2383L74.5663 86.948C74.5663 86.036 74.3663 85.228 73.9663 84.524C73.5823 83.804 73.0543 83.244 72.3823 82.844C71.7103 82.444 70.9343 82.244 70.0543 82.244C69.1903 82.244 68.4143 82.444 67.7263 82.844C67.0383 83.244 66.5023 83.804 66.1183 84.524C65.7343 85.244 65.5423 86.068 65.5423 86.996V87.26C65.5423 88.22 65.7503 89.068 66.1663 89.804C66.5983 90.524 67.1903 91.092 67.9423 91.508C68.7103 91.908 69.5823 92.108 70.5583 92.108C71.3263 92.108 72.0383 91.972 72.6943 91.7C73.3663 91.428 73.9423 91.012 74.4223 90.452L75.3823 91.556C74.8223 92.228 74.1183 92.74 73.2703 93.092C72.4383 93.444 71.5183 93.62 70.5103 93.62ZM86.4502 93.62C85.3622 93.62 84.3782 93.372 83.4982 92.876C82.6182 92.364 81.9142 91.636 81.3862 90.692C80.8742 89.732 80.6182 88.564 80.6182 87.188C80.6182 85.812 80.8742 84.652 81.3862 83.708C81.8982 82.748 82.5942 82.02 83.4742 81.524C84.3542 81.028 85.3462 80.78 86.4502 80.78C87.6502 80.78 88.7222 81.052 89.6662 81.596C90.6262 82.124 91.3782 82.876 91.9222 83.852C92.4662 84.812 92.7382 85.924 92.7382 87.188C92.7382 88.468 92.4662 89.588 91.9222 90.548C91.3782 91.508 90.6262 92.26 89.6662 92.804C88.7222 93.348 87.6502 93.62 86.4502 93.62ZM79.9462 98.156V80.9H81.5782V84.692L81.4102 87.212L81.6502 89.756V98.156H79.9462ZM86.3302 92.108C87.2262 92.108 88.0262 91.908 88.7302 91.508C89.4342 91.092 89.9942 90.516 90.4102 89.78C90.8262 89.028 91.0342 88.164 91.0342 87.188C91.0342 86.212 90.8262 85.356 90.4102 84.62C89.9942 83.884 89.4342 83.308 88.7302 82.892C88.0262 82.476 87.2262 82.268 86.3302 82.268C85.4342 82.268 84.6262 82.476 83.9062 82.892C83.2022 83.308 82.6422 83.884 82.2262 84.62C81.8262 85.356 81.6262 86.212 81.6262 87.188C81.6262 88.164 81.8262 89.028 82.2262 89.78C82.6422 90.516 83.2022 91.092 83.9062 91.508C84.6262 91.908 85.4342 92.108 86.3302 92.108ZM96.3993 93.5V80.9H101.967C103.391 80.9 104.511 81.172 105.327 81.716C106.159 82.26 106.575 83.06 106.575 84.116C106.575 85.14 106.183 85.932 105.399 86.492C104.615 87.036 103.583 87.308 102.303 87.308L102.639 86.804C104.143 86.804 105.247 87.084 105.951 87.644C106.655 88.204 107.007 89.012 107.007 90.068C107.007 91.156 106.607 92.004 105.807 92.612C105.023 93.204 103.799 93.5 102.135 93.5H96.3993ZM98.0553 92.156H102.063C103.135 92.156 103.943 91.988 104.487 91.652C105.047 91.3 105.327 90.74 105.327 89.972C105.327 89.204 105.079 88.644 104.583 88.292C104.087 87.94 103.303 87.764 102.231 87.764H98.0553V92.156ZM98.0553 86.492H101.847C102.823 86.492 103.567 86.308 104.079 85.94C104.607 85.572 104.871 85.036 104.871 84.332C104.871 83.628 104.607 83.1 104.079 82.748C103.567 82.396 102.823 82.22 101.847 82.22H98.0553V86.492ZM123.289 93.5V80.9H124.993V93.5H123.289ZM116.305 85.34C117.889 85.356 119.097 85.708 119.929 86.396C120.761 87.084 121.177 88.076 121.177 89.372C121.177 90.716 120.729 91.748 119.833 92.468C118.937 93.188 117.657 93.54 115.993 93.524L111.001 93.5V80.9H112.705V85.292L116.305 85.34ZM115.873 92.228C117.057 92.244 117.945 92.012 118.537 91.532C119.145 91.036 119.449 90.316 119.449 89.372C119.449 88.428 119.153 87.74 118.561 87.308C117.969 86.86 117.073 86.628 115.873 86.612L112.705 86.564V92.18L115.873 92.228ZM129.845 93.5V80.9H131.549V90.908L139.973 80.9H141.485V93.5H139.781V83.468L131.381 93.5H129.845ZM135.557 79.076C134.501 79.076 133.645 78.812 132.989 78.284C132.349 77.74 132.013 76.964 131.981 75.956H133.205C133.221 76.596 133.445 77.1 133.877 77.468C134.309 77.836 134.869 78.02 135.557 78.02C136.245 78.02 136.805 77.836 137.237 77.468C137.685 77.1 137.917 76.596 137.933 75.956H139.157C139.141 76.964 138.805 77.74 138.149 78.284C137.493 78.812 136.629 79.076 135.557 79.076ZM154.401 87.74V86.444H161.721V87.74H154.401ZM156.081 80.78C157.361 80.78 158.505 81.06 159.513 81.62C160.521 82.164 161.313 82.924 161.889 83.9C162.481 84.86 162.777 85.956 162.777 87.188C162.777 88.42 162.481 89.524 161.889 90.5C161.313 91.476 160.521 92.244 159.513 92.804C158.505 93.364 157.361 93.644 156.081 93.644C155.041 93.644 154.073 93.484 153.177 93.164C152.297 92.828 151.553 92.348 150.945 91.724L151.953 90.716C152.497 91.228 153.113 91.612 153.801 91.868C154.489 92.108 155.225 92.228 156.009 92.228C157.001 92.228 157.881 92.012 158.649 91.58C159.433 91.132 160.049 90.532 160.497 89.78C160.945 89.012 161.169 88.148 161.169 87.188C161.169 86.228 160.945 85.372 160.497 84.62C160.049 83.852 159.433 83.252 158.649 82.82C157.881 82.388 157.001 82.172 156.009 82.172C155.225 82.172 154.489 82.3 153.801 82.556C153.113 82.796 152.497 83.172 151.953 83.684L150.945 82.7C151.553 82.06 152.297 81.58 153.177 81.26C154.073 80.94 155.041 80.78 156.081 80.78ZM168.292 93.5V81.932L168.724 82.388H163.516V80.9H174.772V82.388H169.564L169.996 81.932V93.5H168.292ZM185.059 93.5V90.716L184.987 90.26V85.604C184.987 84.532 184.683 83.708 184.075 83.132C183.483 82.556 182.595 82.268 181.411 82.268C180.595 82.268 179.819 82.404 179.083 82.676C178.347 82.948 177.723 83.308 177.211 83.756L176.443 82.484C177.083 81.94 177.851 81.524 178.747 81.236C179.643 80.932 180.587 80.78 181.579 80.78C183.211 80.78 184.467 81.188 185.347 82.004C186.243 82.804 186.691 84.028 186.691 85.676V93.5H185.059ZM180.715 93.62C179.771 93.62 178.947 93.468 178.243 93.164C177.555 92.844 177.027 92.412 176.659 91.868C176.291 91.308 176.107 90.668 176.107 89.948C176.107 89.292 176.259 88.7 176.563 88.172C176.883 87.628 177.395 87.196 178.099 86.876C178.819 86.54 179.779 86.372 180.979 86.372H185.323V87.644H181.027C179.811 87.644 178.963 87.86 178.483 88.292C178.019 88.724 177.787 89.26 177.787 89.9C177.787 90.62 178.067 91.196 178.627 91.628C179.187 92.06 179.971 92.276 180.979 92.276C181.939 92.276 182.763 92.06 183.451 91.628C184.155 91.18 184.667 90.54 184.987 89.708L185.371 90.884C185.051 91.716 184.491 92.38 183.691 92.876C182.907 93.372 181.915 93.62 180.715 93.62ZM206.179 93.5L201.859 87.26L203.275 86.42L208.219 93.5H206.179ZM199.027 87.884V86.42H203.011V87.884H199.027ZM203.443 87.38L201.811 87.14L206.011 80.9H207.859L203.443 87.38ZM191.251 93.5H189.211L194.155 86.42L195.547 87.26L191.251 93.5ZM199.555 93.5H197.851V80.9H199.555V93.5ZM198.379 87.884H194.419V86.42H198.379V87.884ZM194.011 87.38L189.571 80.9H191.419L195.595 87.14L194.011 87.38Z" fill="#84BC33"/>
</svg>
