<svg width="257" height="171" viewBox="0 0 257 171" fill="none" xmlns="http://www.w3.org/2000/svg">
<path d="M71.9702 85.38V75.5618H79.6918V85.38H78.1833V76.9681H73.4787V85.38H71.9702ZM86.4354 85.5846C85.5491 85.5846 84.7714 85.3736 84.1023 84.9517C83.4375 84.5299 82.9177 83.9397 82.5427 83.1811C82.1719 82.4226 81.9866 81.5363 81.9866 80.5221C81.9866 79.4993 82.1719 78.6066 82.5427 77.8438C82.9177 77.081 83.4375 76.4887 84.1023 76.0668C84.7714 75.6449 85.5491 75.434 86.4354 75.434C87.3218 75.434 88.0974 75.6449 88.7621 76.0668C89.4312 76.4887 89.951 77.081 90.3218 77.8438C90.6968 78.6066 90.8843 79.4993 90.8843 80.5221C90.8843 81.5363 90.6968 82.4226 90.3218 83.1811C89.951 83.9397 89.4312 84.5299 88.7621 84.9517C88.0974 85.3736 87.3218 85.5846 86.4354 85.5846ZM86.4354 84.2294C87.1087 84.2294 87.6627 84.0569 88.0974 83.7117C88.532 83.3665 88.8537 82.9127 89.0626 82.3502C89.2714 81.7877 89.3758 81.1783 89.3758 80.5221C89.3758 79.8658 89.2714 79.2543 89.0626 78.6875C88.8537 78.1208 88.532 77.6627 88.0974 77.3132C87.6627 76.9638 87.1087 76.7891 86.4354 76.7891C85.7621 76.7891 85.2081 76.9638 84.7735 77.3132C84.3388 77.6627 84.0171 78.1208 83.8083 78.6875C83.5995 79.2543 83.4951 79.8658 83.4951 80.5221C83.4951 81.1783 83.5995 81.7877 83.8083 82.3502C84.0171 82.9127 84.3388 83.3665 84.7735 83.7117C85.2081 84.0569 85.7621 84.2294 86.4354 84.2294ZM92.3177 85.38V83.9738H92.6757C92.9697 83.9738 93.2147 83.9162 93.4107 83.8012C93.6068 83.6819 93.7644 83.4752 93.8838 83.1811C94.0073 82.8828 94.1011 82.4695 94.165 81.9411C94.2332 81.4084 94.2822 80.7309 94.312 79.9084L94.491 75.5618H101.036V85.38H99.5279V76.9681H95.9228L95.7694 80.4709C95.7353 81.2763 95.6629 81.9858 95.5521 82.5995C95.4455 83.2088 95.2815 83.7202 95.0599 84.1336C94.8426 84.5469 94.5528 84.858 94.1906 85.0668C93.8284 85.2756 93.3745 85.38 92.8291 85.38H92.3177ZM103.804 85.38V75.5618H105.313V79.8317H106.31L109.838 75.5618H111.781L107.818 80.2919L111.833 85.38H109.889L106.668 81.238H105.313V85.38H103.804ZM116.361 85.6101C115.739 85.6101 115.175 85.4929 114.667 85.2586C114.16 85.0199 113.758 84.6769 113.459 84.2294C113.161 83.7777 113.012 83.2323 113.012 82.5931C113.012 82.0306 113.123 81.5746 113.344 81.2252C113.566 80.8715 113.862 80.5945 114.233 80.3942C114.604 80.1939 115.013 80.0448 115.46 79.9468C115.912 79.8445 116.366 79.7635 116.822 79.7039C117.418 79.6272 117.902 79.5696 118.273 79.5313C118.648 79.4887 118.92 79.4184 119.091 79.3203C119.265 79.2223 119.353 79.0519 119.353 78.809V78.7578C119.353 78.1272 119.18 77.6371 118.835 77.2877C118.494 76.9382 117.976 76.7635 117.282 76.7635C116.562 76.7635 115.997 76.9212 115.588 77.2365C115.179 77.5519 114.891 77.8885 114.725 78.2465L113.293 77.7351C113.549 77.1385 113.89 76.674 114.316 76.3417C114.746 76.005 115.215 75.7706 115.722 75.6385C116.234 75.5022 116.736 75.434 117.231 75.434C117.546 75.434 117.908 75.4723 118.317 75.549C118.731 75.6215 119.129 75.7728 119.513 76.0029C119.9 76.233 120.222 76.5803 120.478 77.0448C120.734 77.5093 120.861 78.1314 120.861 78.9113V85.38H119.353V84.0505H119.276C119.174 84.2635 119.003 84.4915 118.765 84.7344C118.526 84.9773 118.209 85.184 117.812 85.3544C117.416 85.5249 116.932 85.6101 116.361 85.6101ZM116.591 84.255C117.188 84.255 117.691 84.1378 118.1 83.9034C118.513 83.6691 118.824 83.3665 119.033 82.9958C119.246 82.625 119.353 82.2351 119.353 81.826V80.4453C119.289 80.5221 119.148 80.5924 118.931 80.6563C118.718 80.7159 118.471 80.7692 118.19 80.8161C117.913 80.8587 117.642 80.8971 117.378 80.9311C117.118 80.961 116.907 80.9865 116.745 81.0078C116.353 81.059 115.986 81.1421 115.645 81.2571C115.309 81.3679 115.036 81.5363 114.827 81.7621C114.623 81.9837 114.52 82.2863 114.52 82.6698C114.52 83.1939 114.714 83.5902 115.102 83.8587C115.494 84.1229 115.991 84.255 116.591 84.255ZM127.629 88.1925V83.9738H128.447C128.647 83.7649 128.82 83.5391 128.965 83.2962C129.11 83.0533 129.235 82.7657 129.342 82.4333C129.453 82.0966 129.547 81.6875 129.623 81.206C129.7 80.7202 129.768 80.1343 129.828 79.4482L130.16 75.5618H136.399V83.9738H137.907V88.1925H136.399V85.38H129.137V88.1925H127.629ZM130.16 83.9738H134.89V76.9681H131.566L131.311 79.4482C131.204 80.4752 131.072 81.3722 130.914 82.1392C130.757 82.9063 130.505 83.5178 130.16 83.9738ZM139.04 85.38V83.9738H139.398C139.692 83.9738 139.937 83.9162 140.133 83.8012C140.329 83.6819 140.487 83.4752 140.606 83.1811C140.73 82.8828 140.824 82.4695 140.888 81.9411C140.956 81.4084 141.005 80.7309 141.035 79.9084L141.214 75.5618H147.759V85.38H146.251V76.9681H142.645L142.492 80.4709C142.458 81.2763 142.386 81.9858 142.275 82.5995C142.168 83.2088 142.004 83.7202 141.783 84.1336C141.565 84.5469 141.275 84.858 140.913 85.0668C140.551 85.2756 140.097 85.38 139.552 85.38H139.04ZM156.433 85.38V76.9425H153.825C153.237 76.9425 152.775 77.0789 152.438 77.3516C152.101 77.6243 151.933 77.9993 151.933 78.4766C151.933 78.9453 152.084 79.314 152.387 79.5824C152.694 79.8509 153.114 79.9851 153.646 79.9851H156.817V81.3914H153.646C152.981 81.3914 152.408 81.2742 151.927 81.0398C151.445 80.8054 151.074 80.4709 150.815 80.0363C150.555 79.5973 150.425 79.0774 150.425 78.4766C150.425 77.8715 150.561 77.3516 150.834 76.9169C151.106 76.4823 151.496 76.1478 152.003 75.9134C152.515 75.679 153.122 75.5618 153.825 75.5618H157.865V85.38H156.433ZM149.888 85.38L152.675 80.4965H154.311L151.524 85.38H149.888ZM169.685 85.5846C168.765 85.5846 167.972 85.3672 167.308 84.9326C166.643 84.4979 166.131 83.8992 165.773 83.1364C165.416 82.3736 165.237 81.5022 165.237 80.5221C165.237 79.5249 165.42 78.6449 165.786 77.8821C166.157 77.1151 166.673 76.5164 167.333 76.086C167.998 75.6513 168.773 75.434 169.66 75.434C170.35 75.434 170.972 75.5618 171.526 75.8175C172.08 76.0732 172.534 76.4311 172.888 76.8914C173.242 77.3516 173.461 77.8885 173.546 78.5022H172.038C171.923 78.0547 171.667 77.6584 171.271 77.3132C170.879 76.9638 170.35 76.7891 169.685 76.7891C169.097 76.7891 168.582 76.9425 168.139 77.2493C167.7 77.5519 167.357 77.9801 167.109 78.5341C166.867 79.0838 166.745 79.7294 166.745 80.4709C166.745 81.2294 166.864 81.8899 167.103 82.4524C167.346 83.0149 167.687 83.4517 168.126 83.7628C168.569 84.0739 169.089 84.2294 169.685 84.2294C170.077 84.2294 170.433 84.1613 170.753 84.0249C171.072 83.8885 171.343 83.6925 171.565 83.4368C171.786 83.1811 171.944 82.8743 172.038 82.5164H173.546C173.461 83.0959 173.25 83.6179 172.913 84.0824C172.581 84.5426 172.14 84.9091 171.59 85.1819C171.045 85.4503 170.41 85.5846 169.685 85.5846ZM179.459 85.5846C178.641 85.5846 177.918 85.3779 177.292 84.9645C176.666 84.5469 176.175 83.9588 175.822 83.2003C175.468 82.4375 175.291 81.5363 175.291 80.4965C175.291 79.4652 175.468 78.5703 175.822 77.8118C176.175 77.0533 176.668 76.4674 177.298 76.054C177.929 75.6407 178.658 75.434 179.484 75.434C180.124 75.434 180.629 75.5405 180.999 75.7536C181.374 75.9624 181.66 76.201 181.856 76.4695C182.056 76.7337 182.212 76.951 182.322 77.1215H182.45V72.2891H183.959V85.38H182.501V83.8715H182.322C182.212 84.0505 182.054 84.2763 181.849 84.549C181.645 84.8175 181.353 85.0583 180.974 85.2713C180.595 85.4801 180.09 85.5846 179.459 85.5846ZM179.663 84.2294C180.269 84.2294 180.78 84.0718 181.197 83.7564C181.615 83.4368 181.933 82.9958 182.15 82.4333C182.367 81.8665 182.476 81.2124 182.476 80.4709C182.476 79.738 182.369 79.0966 182.156 78.5469C181.943 77.9929 181.628 77.5625 181.21 77.2557C180.793 76.9446 180.277 76.7891 179.663 76.7891C179.024 76.7891 178.492 76.9532 178.065 77.2813C177.644 77.6051 177.326 78.0462 177.113 78.6044C176.904 79.1584 176.8 79.7806 176.8 80.4709C176.8 81.1698 176.906 81.8047 177.119 82.3757C177.337 82.9425 177.656 83.3942 178.078 83.7309C178.504 84.0632 179.033 84.2294 179.663 84.2294Z" fill="#84BC33"/>
</svg>
