<svg width="256" height="170" viewBox="0 0 256 170" fill="none" xmlns="http://www.w3.org/2000/svg">
<path d="M92.8837 79.5V66.9H104.212V79.5H102.508V67.932L102.94 68.388H94.1557L94.5877 67.932V79.5H92.8837ZM114.24 79.62C113.024 79.62 111.928 79.348 110.952 78.804C109.992 78.244 109.232 77.484 108.672 76.524C108.112 75.548 107.832 74.436 107.832 73.188C107.832 71.924 108.112 70.812 108.672 69.852C109.232 68.892 109.992 68.14 110.952 67.596C111.912 67.052 113.008 66.78 114.24 66.78C115.488 66.78 116.592 67.052 117.552 67.596C118.528 68.14 119.288 68.892 119.832 69.852C120.392 70.812 120.672 71.924 120.672 73.188C120.672 74.436 120.392 75.548 119.832 76.524C119.288 77.484 118.528 78.244 117.552 78.804C116.576 79.348 115.472 79.62 114.24 79.62ZM114.24 78.108C115.152 78.108 115.96 77.908 116.664 77.508C117.368 77.092 117.92 76.516 118.32 75.78C118.736 75.028 118.944 74.164 118.944 73.188C118.944 72.196 118.736 71.332 118.32 70.596C117.92 69.86 117.368 69.292 116.664 68.892C115.96 68.476 115.16 68.268 114.264 68.268C113.368 68.268 112.568 68.476 111.864 68.892C111.16 69.292 110.6 69.86 110.184 70.596C109.768 71.332 109.56 72.196 109.56 73.188C109.56 74.164 109.768 75.028 110.184 75.78C110.6 76.516 111.16 77.092 111.864 77.508C112.568 77.908 113.36 78.108 114.24 78.108ZM121.939 79.476L122.059 78.012C122.171 78.028 122.275 78.052 122.371 78.084C122.483 78.1 122.579 78.108 122.659 78.108C123.171 78.108 123.579 77.916 123.883 77.532C124.203 77.148 124.443 76.636 124.603 75.996C124.763 75.356 124.875 74.636 124.939 73.836C125.003 73.02 125.059 72.204 125.107 71.388L125.323 66.9H134.563V79.5H132.859V67.884L133.291 68.388H126.427L126.835 67.86L126.643 71.508C126.595 72.596 126.507 73.636 126.379 74.628C126.267 75.62 126.083 76.492 125.827 77.244C125.587 77.996 125.251 78.588 124.819 79.02C124.387 79.436 123.835 79.644 123.163 79.644C122.971 79.644 122.771 79.628 122.563 79.596C122.371 79.564 122.163 79.524 121.939 79.476ZM148.647 79.5L143.463 73.26L144.879 72.42L150.663 79.5H148.647ZM139.407 79.5V66.9H141.111V79.5H139.407ZM140.583 73.884V72.42H144.639V73.884H140.583ZM145.023 73.38L143.439 73.14L148.455 66.9H150.303L145.023 73.38ZM160.942 79.5V76.716L160.87 76.26V71.604C160.87 70.532 160.566 69.708 159.958 69.132C159.366 68.556 158.478 68.268 157.294 68.268C156.478 68.268 155.702 68.404 154.966 68.676C154.23 68.948 153.606 69.308 153.094 69.756L152.326 68.484C152.966 67.94 153.734 67.524 154.63 67.236C155.526 66.932 156.47 66.78 157.462 66.78C159.094 66.78 160.35 67.188 161.23 68.004C162.126 68.804 162.574 70.028 162.574 71.676V79.5H160.942ZM156.598 79.62C155.654 79.62 154.83 79.468 154.126 79.164C153.438 78.844 152.91 78.412 152.542 77.868C152.174 77.308 151.99 76.668 151.99 75.948C151.99 75.292 152.142 74.7 152.446 74.172C152.766 73.628 153.278 73.196 153.982 72.876C154.702 72.54 155.662 72.372 156.862 72.372H161.206V73.644H156.91C155.694 73.644 154.846 73.86 154.366 74.292C153.902 74.724 153.67 75.26 153.67 75.9C153.67 76.62 153.95 77.196 154.51 77.628C155.07 78.06 155.854 78.276 156.862 78.276C157.822 78.276 158.646 78.06 159.334 77.628C160.038 77.18 160.55 76.54 160.87 75.708L161.254 76.884C160.934 77.716 160.374 78.38 159.574 78.876C158.79 79.372 157.798 79.62 156.598 79.62ZM98.0315 105.684V95.388H91.9595L91.8155 98.196C91.7835 99.044 91.7275 99.876 91.6475 100.692C91.5835 101.508 91.4635 102.26 91.2875 102.948C91.1275 103.62 90.8955 104.172 90.5915 104.604C90.2875 105.02 89.8955 105.26 89.4155 105.324L87.7115 105.012C88.2075 105.028 88.6155 104.852 88.9355 104.484C89.2555 104.1 89.5035 103.58 89.6795 102.924C89.8555 102.268 89.9835 101.524 90.0635 100.692C90.1435 99.844 90.2075 98.98 90.2555 98.1L90.4235 93.9H99.7355V105.684H98.0315ZM87.1835 109.548V105.012H101.704V109.548H100.096V106.5H88.7915V109.548H87.1835ZM102.72 106.476L102.84 105.012C102.952 105.028 103.056 105.052 103.152 105.084C103.264 105.1 103.36 105.108 103.44 105.108C103.952 105.108 104.36 104.916 104.664 104.532C104.984 104.148 105.224 103.636 105.384 102.996C105.544 102.356 105.656 101.636 105.72 100.836C105.784 100.02 105.84 99.204 105.888 98.388L106.104 93.9H115.344V106.5H113.64V94.884L114.072 95.388H107.208L107.616 94.86L107.424 98.508C107.376 99.596 107.288 100.636 107.16 101.628C107.048 102.62 106.864 103.492 106.608 104.244C106.368 104.996 106.032 105.588 105.6 106.02C105.168 106.436 104.616 106.644 103.944 106.644C103.752 106.644 103.552 106.628 103.344 106.596C103.152 106.564 102.944 106.524 102.72 106.476ZM128.324 106.5V101.964L128.636 102.324H124.364C122.748 102.324 121.484 101.972 120.572 101.268C119.66 100.564 119.204 99.54 119.204 98.196C119.204 96.756 119.692 95.684 120.668 94.98C121.644 94.26 122.948 93.9 124.58 93.9H129.884V106.5H128.324ZM119.108 106.5L122.564 101.652H124.34L120.956 106.5H119.108ZM128.324 101.46V94.884L128.636 95.388H124.628C123.46 95.388 122.548 95.612 121.892 96.06C121.252 96.508 120.932 97.236 120.932 98.244C120.932 100.116 122.124 101.052 124.508 101.052H128.636L128.324 101.46ZM146.208 106.62C144.96 106.62 143.84 106.348 142.848 105.804C141.872 105.244 141.104 104.484 140.544 103.524C139.984 102.548 139.704 101.436 139.704 100.188C139.704 98.924 139.984 97.812 140.544 96.852C141.104 95.892 141.872 95.14 142.848 94.596C143.84 94.052 144.96 93.78 146.208 93.78C147.28 93.78 148.248 93.988 149.112 94.404C149.976 94.82 150.656 95.444 151.152 96.276L149.88 97.14C149.448 96.5 148.912 96.028 148.272 95.724C147.632 95.42 146.936 95.268 146.184 95.268C145.288 95.268 144.48 95.476 143.76 95.892C143.04 96.292 142.472 96.86 142.056 97.596C141.64 98.332 141.432 99.196 141.432 100.188C141.432 101.18 141.64 102.044 142.056 102.78C142.472 103.516 143.04 104.092 143.76 104.508C144.48 104.908 145.288 105.108 146.184 105.108C146.936 105.108 147.632 104.956 148.272 104.652C148.912 104.348 149.448 103.884 149.88 103.26L151.152 104.124C150.656 104.94 149.976 105.564 149.112 105.996C148.248 106.412 147.28 106.62 146.208 106.62ZM159.305 106.62C158.105 106.62 157.025 106.348 156.065 105.804C155.121 105.26 154.377 104.508 153.833 103.548C153.289 102.572 153.017 101.452 153.017 100.188C153.017 98.908 153.289 97.788 153.833 96.828C154.377 95.868 155.121 95.124 156.065 94.596C157.025 94.052 158.105 93.78 159.305 93.78C160.409 93.78 161.393 94.028 162.257 94.524C163.137 95.02 163.833 95.748 164.345 96.708C164.873 97.652 165.137 98.812 165.137 100.188C165.137 101.548 164.881 102.708 164.369 103.668C163.857 104.628 163.161 105.364 162.281 105.876C161.417 106.372 160.425 106.62 159.305 106.62ZM159.425 105.108C160.321 105.108 161.121 104.908 161.825 104.508C162.545 104.092 163.105 103.516 163.505 102.78C163.921 102.028 164.129 101.164 164.129 100.188C164.129 99.196 163.921 98.332 163.505 97.596C163.105 96.86 162.545 96.292 161.825 95.892C161.121 95.476 160.321 95.268 159.425 95.268C158.545 95.268 157.753 95.476 157.049 95.892C156.345 96.292 155.785 96.86 155.369 97.596C154.953 98.332 154.745 99.196 154.745 100.188C154.745 101.164 154.953 102.028 155.369 102.78C155.785 103.516 156.345 104.092 157.049 104.508C157.753 104.908 158.545 105.108 159.425 105.108ZM164.177 106.5V102.708L164.345 100.164L164.105 97.62V88.692H165.809V106.5H164.177Z" fill="#84BC33"/>
</svg>
