<svg width="256" height="170" viewBox="0 0 256 170" fill="none" xmlns="http://www.w3.org/2000/svg">
<path d="M77.5322 94V81.4H79.2362V86.968H87.1802V81.4H88.8842V94H87.1802V88.432H79.2362V94H77.5322ZM101.551 94V91.216L101.479 90.76V86.104C101.479 85.032 101.175 84.208 100.567 83.632C99.9755 83.056 99.0875 82.768 97.9035 82.768C97.0875 82.768 96.3115 82.904 95.5755 83.176C94.8395 83.448 94.2155 83.808 93.7035 84.256L92.9355 82.984C93.5755 82.44 94.3435 82.024 95.2395 81.736C96.1355 81.432 97.0795 81.28 98.0715 81.28C99.7035 81.28 100.959 81.688 101.839 82.504C102.735 83.304 103.183 84.528 103.183 86.176V94H101.551ZM97.2075 94.12C96.2635 94.12 95.4395 93.968 94.7355 93.664C94.0475 93.344 93.5195 92.912 93.1515 92.368C92.7835 91.808 92.5995 91.168 92.5995 90.448C92.5995 89.792 92.7515 89.2 93.0555 88.672C93.3755 88.128 93.8875 87.696 94.5915 87.376C95.3115 87.04 96.2715 86.872 97.4715 86.872H101.815V88.144H97.5195C96.3035 88.144 95.4555 88.36 94.9755 88.792C94.5115 89.224 94.2795 89.76 94.2795 90.4C94.2795 91.12 94.5595 91.696 95.1195 92.128C95.6795 92.56 96.4635 92.776 97.4715 92.776C98.4315 92.776 99.2555 92.56 99.9435 92.128C100.647 91.68 101.159 91.04 101.479 90.208L101.863 91.384C101.543 92.216 100.983 92.88 100.183 93.376C99.3995 93.872 98.4075 94.12 97.2075 94.12ZM116 92.512L115.616 92.968V81.4H117.32V92.968L116.864 92.512H123.896L123.44 92.968V81.4H125.144V94H107.72V81.4H109.424V92.968L108.992 92.512H116ZM141.931 94.144C140.907 94.144 139.995 93.976 139.195 93.64C138.411 93.304 137.739 92.792 137.179 92.104C136.619 91.416 136.195 90.568 135.907 89.56C135.619 88.536 135.475 87.352 135.475 86.008C135.475 84.808 135.587 83.76 135.811 82.864C136.035 81.952 136.347 81.168 136.747 80.512C137.147 79.856 137.611 79.304 138.139 78.856C138.683 78.392 139.267 78.024 139.891 77.752C140.531 77.464 141.187 77.248 141.859 77.104L147.523 75.784L147.811 77.368L142.483 78.568C142.147 78.648 141.739 78.76 141.259 78.904C140.795 79.048 140.315 79.264 139.819 79.552C139.339 79.84 138.891 80.24 138.475 80.752C138.059 81.264 137.723 81.928 137.467 82.744C137.227 83.544 137.107 84.544 137.107 85.744C137.107 86 137.115 86.208 137.131 86.368C137.147 86.512 137.163 86.672 137.179 86.848C137.211 87.008 137.235 87.248 137.251 87.568L136.507 86.944C136.683 85.968 137.043 85.12 137.587 84.4C138.131 83.664 138.811 83.096 139.627 82.696C140.459 82.28 141.379 82.072 142.387 82.072C143.555 82.072 144.595 82.328 145.507 82.84C146.419 83.336 147.131 84.032 147.643 84.928C148.171 85.824 148.435 86.864 148.435 88.048C148.435 89.216 148.163 90.264 147.619 91.192C147.091 92.12 146.339 92.848 145.363 93.376C144.387 93.888 143.243 94.144 141.931 94.144ZM142.123 92.728C143.019 92.728 143.811 92.528 144.499 92.128C145.187 91.712 145.723 91.152 146.107 90.448C146.507 89.744 146.707 88.952 146.707 88.072C146.707 87.208 146.507 86.44 146.107 85.768C145.723 85.096 145.187 84.568 144.499 84.184C143.811 83.784 143.011 83.584 142.099 83.584C141.203 83.584 140.411 83.776 139.723 84.16C139.035 84.528 138.491 85.048 138.091 85.72C137.707 86.392 137.515 87.168 137.515 88.048C137.515 88.928 137.707 89.72 138.091 90.424C138.491 91.128 139.035 91.688 139.723 92.104C140.427 92.52 141.227 92.728 142.123 92.728ZM159.841 94V91.216L159.769 90.76V86.104C159.769 85.032 159.465 84.208 158.857 83.632C158.265 83.056 157.377 82.768 156.193 82.768C155.377 82.768 154.601 82.904 153.865 83.176C153.129 83.448 152.505 83.808 151.993 84.256L151.225 82.984C151.865 82.44 152.633 82.024 153.529 81.736C154.425 81.432 155.369 81.28 156.361 81.28C157.993 81.28 159.249 81.688 160.129 82.504C161.025 83.304 161.473 84.528 161.473 86.176V94H159.841ZM155.497 94.12C154.553 94.12 153.729 93.968 153.025 93.664C152.337 93.344 151.809 92.912 151.441 92.368C151.073 91.808 150.889 91.168 150.889 90.448C150.889 89.792 151.041 89.2 151.345 88.672C151.665 88.128 152.177 87.696 152.881 87.376C153.601 87.04 154.561 86.872 155.761 86.872H160.105V88.144H155.809C154.593 88.144 153.745 88.36 153.265 88.792C152.801 89.224 152.569 89.76 152.569 90.4C152.569 91.12 152.849 91.696 153.409 92.128C153.969 92.56 154.753 92.776 155.761 92.776C156.721 92.776 157.545 92.56 158.233 92.128C158.937 91.68 159.449 91.04 159.769 90.208L160.153 91.384C159.833 92.216 159.273 92.88 158.473 93.376C157.689 93.872 156.697 94.12 155.497 94.12ZM172.513 94.12C171.425 94.12 170.441 93.872 169.561 93.376C168.681 92.864 167.977 92.136 167.449 91.192C166.937 90.232 166.681 89.064 166.681 87.688C166.681 86.312 166.937 85.152 167.449 84.208C167.961 83.248 168.657 82.52 169.537 82.024C170.417 81.528 171.409 81.28 172.513 81.28C173.713 81.28 174.785 81.552 175.729 82.096C176.689 82.624 177.441 83.376 177.985 84.352C178.529 85.312 178.801 86.424 178.801 87.688C178.801 88.968 178.529 90.088 177.985 91.048C177.441 92.008 176.689 92.76 175.729 93.304C174.785 93.848 173.713 94.12 172.513 94.12ZM166.009 98.656V81.4H167.641V85.192L167.473 87.712L167.713 90.256V98.656H166.009ZM172.393 92.608C173.289 92.608 174.089 92.408 174.793 92.008C175.497 91.592 176.057 91.016 176.473 90.28C176.889 89.528 177.097 88.664 177.097 87.688C177.097 86.712 176.889 85.856 176.473 85.12C176.057 84.384 175.497 83.808 174.793 83.392C174.089 82.976 173.289 82.768 172.393 82.768C171.497 82.768 170.689 82.976 169.969 83.392C169.265 83.808 168.705 84.384 168.289 85.12C167.889 85.856 167.689 86.712 167.689 87.688C167.689 88.664 167.889 89.528 168.289 90.28C168.705 91.016 169.265 91.592 169.969 92.008C170.689 92.408 171.497 92.608 172.393 92.608Z" fill="#84BC33"/>
</svg>
