<svg width="257" height="171" viewBox="0 0 257 171" fill="none" xmlns="http://www.w3.org/2000/svg">
<path d="M120.873 71.88L121.64 72.8005C121.342 73.0902 120.997 73.2926 120.605 73.4077C120.213 73.5228 119.77 73.5931 119.275 73.6186C118.781 73.6442 118.231 73.6698 117.626 73.6953C116.944 73.7209 116.38 73.8871 115.932 74.1939C115.485 74.5007 115.14 74.9439 114.897 75.5235C114.654 76.103 114.498 76.8147 114.43 77.6584H114.558C114.89 77.0448 115.351 76.5931 115.939 76.3033C116.527 76.0135 117.158 75.8686 117.831 75.8686C118.598 75.8686 119.288 76.0476 119.902 76.4056C120.515 76.7635 121.001 77.2941 121.359 77.9972C121.717 78.7003 121.896 79.5675 121.896 80.5988C121.896 81.6257 121.713 82.5121 121.346 83.2578C120.984 84.0036 120.475 84.5789 119.819 84.9837C119.167 85.3843 118.402 85.5846 117.524 85.5846C116.646 85.5846 115.877 85.3779 115.216 84.9645C114.556 84.5469 114.042 83.929 113.676 83.1108C113.31 82.2884 113.126 81.2721 113.126 80.0618V79.0135C113.126 76.8274 113.497 75.1698 114.238 74.0405C114.984 72.9113 116.105 72.3274 117.601 72.2891C118.129 72.2721 118.6 72.2678 119.013 72.2763C119.427 72.2848 119.787 72.2657 120.094 72.2188C120.4 72.1719 120.66 72.059 120.873 71.88ZM117.524 84.2294C118.116 84.2294 118.626 84.0803 119.052 83.782C119.482 83.4837 119.812 83.064 120.042 82.5228C120.273 81.9773 120.388 81.336 120.388 80.5988C120.388 79.8828 120.27 79.2735 120.036 78.7706C119.806 78.2678 119.476 77.8843 119.045 77.6201C118.615 77.3559 118.099 77.2238 117.498 77.2238C117.06 77.2238 116.665 77.2983 116.316 77.4475C115.966 77.5966 115.668 77.8161 115.421 78.1059C115.174 78.3956 114.982 78.7493 114.846 79.1669C114.714 79.5846 114.643 80.0618 114.635 80.5988C114.635 81.6982 114.893 82.5782 115.408 83.2387C115.924 83.8992 116.629 84.2294 117.524 84.2294ZM127.093 85.6101C126.471 85.6101 125.906 85.4929 125.399 85.2586C124.892 85.0199 124.489 84.6769 124.191 84.2294C123.893 83.7777 123.743 83.2323 123.743 82.5931C123.743 82.0306 123.854 81.5746 124.076 81.2252C124.297 80.8715 124.594 80.5945 124.964 80.3942C125.335 80.1939 125.744 80.0448 126.192 79.9468C126.643 79.8445 127.097 79.7635 127.553 79.7039C128.15 79.6272 128.633 79.5696 129.004 79.5313C129.379 79.4887 129.652 79.4184 129.822 79.3203C129.997 79.2223 130.084 79.0519 130.084 78.809V78.7578C130.084 78.1272 129.912 77.6371 129.567 77.2877C129.226 76.9382 128.708 76.7635 128.013 76.7635C127.293 76.7635 126.729 76.9212 126.319 77.2365C125.91 77.5519 125.623 77.8885 125.457 78.2465L124.025 77.7351C124.28 77.1385 124.621 76.674 125.047 76.3417C125.478 76.005 125.947 75.7706 126.454 75.6385C126.965 75.5022 127.468 75.434 127.962 75.434C128.278 75.434 128.64 75.4723 129.049 75.549C129.462 75.6215 129.861 75.7728 130.244 76.0029C130.632 76.233 130.954 76.5803 131.209 77.0448C131.465 77.5093 131.593 78.1314 131.593 78.9113V85.38H130.084V84.0505H130.008C129.905 84.2635 129.735 84.4915 129.496 84.7344C129.258 84.9773 128.94 85.184 128.544 85.3544C128.148 85.5249 127.664 85.6101 127.093 85.6101ZM127.323 84.255C127.92 84.255 128.422 84.1378 128.832 83.9034C129.245 83.6691 129.556 83.3665 129.765 82.9958C129.978 82.625 130.084 82.2351 130.084 81.826V80.4453C130.02 80.5221 129.88 80.5924 129.662 80.6563C129.449 80.7159 129.202 80.7692 128.921 80.8161C128.644 80.8587 128.373 80.8971 128.109 80.9311C127.849 80.961 127.638 80.9865 127.476 81.0078C127.084 81.059 126.718 81.1421 126.377 81.2571C126.04 81.3679 125.768 81.5363 125.559 81.7621C125.354 81.9837 125.252 82.2863 125.252 82.6698C125.252 83.1939 125.446 83.5902 125.834 83.8587C126.226 84.1229 126.722 84.255 127.323 84.255ZM134.346 89.0618V75.5618H135.804V77.1215H135.983C136.093 76.951 136.247 76.7337 136.443 76.4695C136.643 76.201 136.929 75.9624 137.299 75.7536C137.674 75.5405 138.181 75.434 138.821 75.434C139.647 75.434 140.376 75.6407 141.007 76.054C141.637 76.4674 142.13 77.0533 142.483 77.8118C142.837 78.5703 143.014 79.4652 143.014 80.4965C143.014 81.5363 142.837 82.4375 142.483 83.2003C142.13 83.9588 141.64 84.5469 141.013 84.9645C140.387 85.3779 139.664 85.5846 138.846 85.5846C138.216 85.5846 137.711 85.4801 137.331 85.2713C136.952 85.0583 136.66 84.8175 136.456 84.549C136.251 84.2763 136.093 84.0505 135.983 83.8715H135.855V89.0618H134.346ZM135.829 80.4709C135.829 81.2124 135.938 81.8665 136.155 82.4333C136.373 82.9958 136.69 83.4368 137.108 83.7564C137.525 84.0718 138.037 84.2294 138.642 84.2294C139.272 84.2294 139.799 84.0632 140.221 83.7309C140.647 83.3942 140.966 82.9425 141.179 82.3757C141.397 81.8047 141.505 81.1698 141.505 80.4709C141.505 79.7806 141.399 79.1584 141.186 78.6044C140.977 78.0462 140.659 77.6051 140.233 77.2813C139.811 76.9532 139.281 76.7891 138.642 76.7891C138.028 76.7891 137.512 76.9446 137.095 77.2557C136.677 77.5625 136.362 77.9929 136.149 78.5469C135.936 79.0966 135.829 79.738 135.829 80.4709Z" fill="#84BC33"/>
</svg>
