<svg width="257" height="171" viewBox="0 0 257 171" fill="none" xmlns="http://www.w3.org/2000/svg">
<path d="M83.9673 85.38V75.5618H85.4758V79.8317H86.473L90.0014 75.5618H91.9446L87.9815 80.2919L91.9957 85.38H90.0525L86.8309 81.238H85.4758V85.38H83.9673ZM97.2196 85.5846C96.3332 85.5846 95.5555 85.3736 94.8865 84.9517C94.2217 84.5299 93.7018 83.9397 93.3268 83.1811C92.9561 82.4226 92.7707 81.5363 92.7707 80.5221C92.7707 79.4993 92.9561 78.6066 93.3268 77.8438C93.7018 77.081 94.2217 76.4887 94.8865 76.0668C95.5555 75.6449 96.3332 75.434 97.2196 75.434C98.106 75.434 98.8815 75.6449 99.5463 76.0668C100.215 76.4887 100.735 77.081 101.106 77.8438C101.481 78.6066 101.668 79.4993 101.668 80.5221C101.668 81.5363 101.481 82.4226 101.106 83.1811C100.735 83.9397 100.215 84.5299 99.5463 84.9517C98.8815 85.3736 98.106 85.5846 97.2196 85.5846ZM97.2196 84.2294C97.8929 84.2294 98.4469 84.0569 98.8815 83.7117C99.3162 83.3665 99.6379 82.9127 99.8467 82.3502C100.056 81.7877 100.16 81.1783 100.16 80.5221C100.16 79.8658 100.056 79.2543 99.8467 78.6875C99.6379 78.1208 99.3162 77.6627 98.8815 77.3132C98.4469 76.9638 97.8929 76.7891 97.2196 76.7891C96.5463 76.7891 95.9923 76.9638 95.5577 77.3132C95.123 77.6627 94.8013 78.1208 94.5925 78.6875C94.3837 79.2543 94.2793 79.8658 94.2793 80.5221C94.2793 81.1783 94.3837 81.7877 94.5925 82.3502C94.8013 82.9127 95.123 83.3665 95.5577 83.7117C95.9923 84.0569 96.5463 84.2294 97.2196 84.2294ZM103.971 85.38V75.5618H107.985C109.042 75.5618 109.882 75.8005 110.504 76.2777C111.126 76.755 111.437 77.3857 111.437 78.1698C111.437 78.7664 111.26 79.2287 110.907 79.5569C110.553 79.8807 110.099 80.1002 109.545 80.2152C109.907 80.2664 110.259 80.3942 110.6 80.5988C110.945 80.8033 111.23 81.0846 111.456 81.4425C111.682 81.7962 111.795 82.2309 111.795 82.7465C111.795 83.2493 111.667 83.6989 111.412 84.0952C111.156 84.4915 110.789 84.8047 110.312 85.0348C109.835 85.2649 109.264 85.38 108.599 85.38H103.971ZM105.403 83.9993H108.599C109.119 83.9993 109.526 83.8757 109.82 83.6286C110.114 83.3814 110.261 83.0448 110.261 82.6186C110.261 82.1115 110.114 81.7131 109.82 81.4233C109.526 81.1293 109.119 80.9823 108.599 80.9823H105.403V83.9993ZM105.403 79.6783H107.985C108.39 79.6783 108.738 79.6229 109.027 79.5121C109.317 79.397 109.539 79.2351 109.692 79.0263C109.85 78.8132 109.929 78.5618 109.929 78.2721C109.929 77.8587 109.756 77.5348 109.411 77.3005C109.066 77.0618 108.591 76.9425 107.985 76.9425H105.403V79.6783ZM118.067 85.5846C117.181 85.5846 116.403 85.3736 115.734 84.9517C115.069 84.5299 114.549 83.9397 114.174 83.1811C113.804 82.4226 113.618 81.5363 113.618 80.5221C113.618 79.4993 113.804 78.6066 114.174 77.8438C114.549 77.081 115.069 76.4887 115.734 76.0668C116.403 75.6449 117.181 75.434 118.067 75.434C118.954 75.434 119.729 75.6449 120.394 76.0668C121.063 76.4887 121.583 77.081 121.954 77.8438C122.329 78.6066 122.516 79.4993 122.516 80.5221C122.516 81.5363 122.329 82.4226 121.954 83.1811C121.583 83.9397 121.063 84.5299 120.394 84.9517C119.729 85.3736 118.954 85.5846 118.067 85.5846ZM118.067 84.2294C118.741 84.2294 119.295 84.0569 119.729 83.7117C120.164 83.3665 120.486 82.9127 120.694 82.3502C120.903 81.7877 121.008 81.1783 121.008 80.5221C121.008 79.8658 120.903 79.2543 120.694 78.6875C120.486 78.1208 120.164 77.6627 119.729 77.3132C119.295 76.9638 118.741 76.7891 118.067 76.7891C117.394 76.7891 116.84 76.9638 116.405 77.3132C115.971 77.6627 115.649 78.1208 115.44 78.6875C115.231 79.2543 115.127 79.8658 115.127 80.5221C115.127 81.1783 115.231 81.7877 115.44 82.3502C115.649 82.9127 115.971 83.3665 116.405 83.7117C116.84 84.0569 117.394 84.2294 118.067 84.2294ZM124.819 89.0618V75.5618H126.276V77.1215H126.455C126.566 76.951 126.719 76.7337 126.915 76.4695C127.116 76.201 127.401 75.9624 127.772 75.7536C128.147 75.5405 128.654 75.434 129.293 75.434C130.12 75.434 130.849 75.6407 131.479 76.054C132.11 76.4674 132.602 77.0533 132.956 77.8118C133.31 78.5703 133.486 79.4652 133.486 80.4965C133.486 81.5363 133.31 82.4375 132.956 83.2003C132.602 83.9588 132.112 84.5469 131.486 84.9645C130.859 85.3779 130.137 85.5846 129.319 85.5846C128.688 85.5846 128.183 85.4801 127.804 85.2713C127.425 85.0583 127.133 84.8175 126.928 84.549C126.724 84.2763 126.566 84.0505 126.455 83.8715H126.327V89.0618H124.819ZM126.302 80.4709C126.302 81.2124 126.41 81.8665 126.628 82.4333C126.845 82.9958 127.163 83.4368 127.58 83.7564C127.998 84.0718 128.509 84.2294 129.114 84.2294C129.745 84.2294 130.271 84.0632 130.693 83.7309C131.119 83.3942 131.439 82.9425 131.652 82.3757C131.869 81.8047 131.978 81.1698 131.978 80.4709C131.978 79.7806 131.871 79.1584 131.658 78.6044C131.45 78.0462 131.132 77.6051 130.706 77.2813C130.284 76.9532 129.754 76.7891 129.114 76.7891C128.501 76.7891 127.985 76.9446 127.567 77.2557C127.15 77.5625 126.834 77.9929 126.621 78.5469C126.408 79.0966 126.302 79.738 126.302 80.4709ZM135.788 85.38V75.5618H137.296V79.8317H138.293L141.822 75.5618H143.765L139.802 80.2919L143.816 85.38H141.873L138.651 81.238H137.296V85.38H135.788ZM146.964 83.1556L151.694 75.5618H153.433V85.38H151.924V77.7863L147.22 85.38H145.456V75.5618H146.964V83.1556ZM162.767 79.7806V81.1868H157.346V79.7806H162.767ZM157.704 75.5618V85.38H156.196V75.5618H157.704ZM163.917 75.5618V85.38H162.409V75.5618H163.917ZM172.732 75.5618V76.9681H168.181V85.38H166.672V75.5618H172.732Z" fill="#84BC33"/>
</svg>
