<svg width="256" height="170" viewBox="0 0 256 170" fill="none" xmlns="http://www.w3.org/2000/svg">
<path d="M53.2275 93.5V80.9H58.7955C60.2195 80.9 61.3395 81.172 62.1555 81.716C62.9875 82.26 63.4035 83.06 63.4035 84.116C63.4035 85.14 63.0115 85.932 62.2275 86.492C61.4435 87.036 60.4115 87.308 59.1315 87.308L59.4675 86.804C60.9715 86.804 62.0755 87.084 62.7795 87.644C63.4835 88.204 63.8355 89.012 63.8355 90.068C63.8355 91.156 63.4355 92.004 62.6355 92.612C61.8515 93.204 60.6275 93.5 58.9635 93.5H53.2275ZM54.8835 92.156H58.8915C59.9635 92.156 60.7715 91.988 61.3155 91.652C61.8755 91.3 62.1555 90.74 62.1555 89.972C62.1555 89.204 61.9075 88.644 61.4115 88.292C60.9155 87.94 60.1315 87.764 59.0595 87.764H54.8835V92.156ZM54.8835 86.492H58.6755C59.6515 86.492 60.3955 86.308 60.9075 85.94C61.4355 85.572 61.6995 85.036 61.6995 84.332C61.6995 83.628 61.4355 83.1 60.9075 82.748C60.3955 82.396 59.6515 82.22 58.6755 82.22H54.8835V86.492ZM70.229 93.5V81.932L70.661 82.388H65.453V80.9H76.709V82.388H71.501L71.933 81.932V93.5H70.229ZM83.7708 93.62C82.5548 93.62 81.4588 93.348 80.4828 92.804C79.5228 92.244 78.7628 91.484 78.2028 90.524C77.6428 89.548 77.3628 88.436 77.3628 87.188C77.3628 85.924 77.6428 84.812 78.2028 83.852C78.7628 82.892 79.5228 82.14 80.4828 81.596C81.4428 81.052 82.5388 80.78 83.7708 80.78C85.0188 80.78 86.1228 81.052 87.0828 81.596C88.0588 82.14 88.8188 82.892 89.3628 83.852C89.9228 84.812 90.2028 85.924 90.2028 87.188C90.2028 88.436 89.9228 89.548 89.3628 90.524C88.8188 91.484 88.0588 92.244 87.0828 92.804C86.1068 93.348 85.0028 93.62 83.7708 93.62ZM83.7708 92.108C84.6828 92.108 85.4908 91.908 86.1948 91.508C86.8988 91.092 87.4508 90.516 87.8508 89.78C88.2668 89.028 88.4748 88.164 88.4748 87.188C88.4748 86.196 88.2668 85.332 87.8508 84.596C87.4508 83.86 86.8988 83.292 86.1948 82.892C85.4908 82.476 84.6908 82.268 83.7948 82.268C82.8988 82.268 82.0988 82.476 81.3948 82.892C80.6908 83.292 80.1308 83.86 79.7148 84.596C79.2988 85.332 79.0908 86.196 79.0908 87.188C79.0908 88.164 79.2988 89.028 79.7148 89.78C80.1308 90.516 80.6908 91.092 81.3948 91.508C82.0988 91.908 82.8908 92.108 83.7708 92.108ZM100.349 93.62C99.2607 93.62 98.2767 93.372 97.3967 92.876C96.5167 92.364 95.8127 91.636 95.2847 90.692C94.7727 89.732 94.5167 88.564 94.5167 87.188C94.5167 85.812 94.7727 84.652 95.2847 83.708C95.7967 82.748 96.4927 82.02 97.3727 81.524C98.2527 81.028 99.2447 80.78 100.349 80.78C101.549 80.78 102.621 81.052 103.565 81.596C104.525 82.124 105.277 82.876 105.821 83.852C106.365 84.812 106.637 85.924 106.637 87.188C106.637 88.468 106.365 89.588 105.821 90.548C105.277 91.508 104.525 92.26 103.565 92.804C102.621 93.348 101.549 93.62 100.349 93.62ZM93.8447 98.156V80.9H95.4767V84.692L95.3087 87.212L95.5487 89.756V98.156H93.8447ZM100.229 92.108C101.125 92.108 101.925 91.908 102.629 91.508C103.333 91.092 103.893 90.516 104.309 89.78C104.725 89.028 104.933 88.164 104.933 87.188C104.933 86.212 104.725 85.356 104.309 84.62C103.893 83.884 103.333 83.308 102.629 82.892C101.925 82.476 101.125 82.268 100.229 82.268C99.3327 82.268 98.5247 82.476 97.8047 82.892C97.1007 83.308 96.5407 83.884 96.1247 84.62C95.7247 85.356 95.5247 86.212 95.5247 87.188C95.5247 88.164 95.7247 89.028 96.1247 89.78C96.5407 90.516 97.1007 91.092 97.8047 91.508C98.5247 91.908 99.3327 92.108 100.229 92.108ZM115.482 93.62C114.266 93.62 113.17 93.348 112.194 92.804C111.234 92.244 110.474 91.484 109.914 90.524C109.354 89.548 109.074 88.436 109.074 87.188C109.074 85.924 109.354 84.812 109.914 83.852C110.474 82.892 111.234 82.14 112.194 81.596C113.154 81.052 114.25 80.78 115.482 80.78C116.73 80.78 117.834 81.052 118.794 81.596C119.77 82.14 120.53 82.892 121.074 83.852C121.634 84.812 121.914 85.924 121.914 87.188C121.914 88.436 121.634 89.548 121.074 90.524C120.53 91.484 119.77 92.244 118.794 92.804C117.818 93.348 116.714 93.62 115.482 93.62ZM115.482 92.108C116.394 92.108 117.202 91.908 117.906 91.508C118.61 91.092 119.162 90.516 119.562 89.78C119.978 89.028 120.186 88.164 120.186 87.188C120.186 86.196 119.978 85.332 119.562 84.596C119.162 83.86 118.61 83.292 117.906 82.892C117.202 82.476 116.402 82.268 115.506 82.268C114.61 82.268 113.81 82.476 113.106 82.892C112.402 83.292 111.842 83.86 111.426 84.596C111.01 85.332 110.802 86.196 110.802 87.188C110.802 88.164 111.01 89.028 111.426 89.78C111.842 90.516 112.402 91.092 113.106 91.508C113.81 91.908 114.602 92.108 115.482 92.108ZM125.556 93.5V80.9H127.26V90.908L135.684 80.9H137.196V93.5H135.492V83.468L127.092 93.5H125.556ZM131.268 79.076C130.212 79.076 129.356 78.812 128.7 78.284C128.06 77.74 127.724 76.964 127.692 75.956H128.916C128.932 76.596 129.156 77.1 129.588 77.468C130.02 77.836 130.58 78.02 131.268 78.02C131.956 78.02 132.516 77.836 132.948 77.468C133.396 77.1 133.628 76.596 133.644 75.956H134.868C134.852 76.964 134.516 77.74 133.86 78.284C133.204 78.812 132.34 79.076 131.268 79.076ZM150.112 87.74V86.444H157.432V87.74H150.112ZM151.792 80.78C153.072 80.78 154.216 81.06 155.224 81.62C156.232 82.164 157.024 82.924 157.6 83.9C158.192 84.86 158.488 85.956 158.488 87.188C158.488 88.42 158.192 89.524 157.6 90.5C157.024 91.476 156.232 92.244 155.224 92.804C154.216 93.364 153.072 93.644 151.792 93.644C150.752 93.644 149.784 93.484 148.888 93.164C148.008 92.828 147.264 92.348 146.656 91.724L147.664 90.716C148.208 91.228 148.824 91.612 149.512 91.868C150.2 92.108 150.936 92.228 151.72 92.228C152.712 92.228 153.592 92.012 154.36 91.58C155.144 91.132 155.76 90.532 156.208 89.78C156.656 89.012 156.88 88.148 156.88 87.188C156.88 86.228 156.656 85.372 156.208 84.62C155.76 83.852 155.144 83.252 154.36 82.82C153.592 82.388 152.712 82.172 151.72 82.172C150.936 82.172 150.2 82.3 149.512 82.556C148.824 82.796 148.208 83.172 147.664 83.684L146.656 82.7C147.264 82.06 148.008 81.58 148.888 81.26C149.784 80.94 150.752 80.78 151.792 80.78ZM164.002 93.5V81.932L164.434 82.388H159.226V80.9H170.482V82.388H165.274L165.706 81.932V93.5H164.002ZM180.77 93.5V90.716L180.698 90.26V85.604C180.698 84.532 180.394 83.708 179.786 83.132C179.194 82.556 178.306 82.268 177.122 82.268C176.306 82.268 175.53 82.404 174.794 82.676C174.058 82.948 173.434 83.308 172.922 83.756L172.154 82.484C172.794 81.94 173.562 81.524 174.458 81.236C175.354 80.932 176.298 80.78 177.29 80.78C178.922 80.78 180.178 81.188 181.058 82.004C181.954 82.804 182.402 84.028 182.402 85.676V93.5H180.77ZM176.426 93.62C175.482 93.62 174.658 93.468 173.954 93.164C173.266 92.844 172.738 92.412 172.37 91.868C172.002 91.308 171.818 90.668 171.818 89.948C171.818 89.292 171.97 88.7 172.274 88.172C172.594 87.628 173.106 87.196 173.81 86.876C174.53 86.54 175.49 86.372 176.69 86.372H181.034V87.644H176.738C175.522 87.644 174.674 87.86 174.194 88.292C173.73 88.724 173.498 89.26 173.498 89.9C173.498 90.62 173.778 91.196 174.338 91.628C174.898 92.06 175.682 92.276 176.69 92.276C177.65 92.276 178.474 92.06 179.162 91.628C179.866 91.18 180.378 90.54 180.698 89.708L181.082 90.884C180.762 91.716 180.202 92.38 179.402 92.876C178.618 93.372 177.626 93.62 176.426 93.62ZM201.89 93.5L197.57 87.26L198.986 86.42L203.93 93.5H201.89ZM194.738 87.884V86.42H198.722V87.884H194.738ZM199.154 87.38L197.522 87.14L201.722 80.9H203.57L199.154 87.38ZM186.962 93.5H184.922L189.866 86.42L191.258 87.26L186.962 93.5ZM195.266 93.5H193.562V80.9H195.266V93.5ZM194.09 87.884H190.13V86.42H194.09V87.884ZM189.722 87.38L185.282 80.9H187.13L191.306 87.14L189.722 87.38Z" fill="#84BC33"/>
</svg>
