<svg width="257" height="171" viewBox="0 0 257 171" fill="none" xmlns="http://www.w3.org/2000/svg">
<path d="M74.1411 85.38V75.5618H78.1553C79.2121 75.5618 80.0516 75.8005 80.6738 76.2777C81.2959 76.755 81.607 77.3857 81.607 78.1698C81.607 78.7664 81.4302 79.2287 81.0765 79.5569C80.7228 79.8807 80.269 80.1002 79.715 80.2152C80.0772 80.2664 80.4288 80.3942 80.7697 80.5988C81.1148 80.8033 81.4004 81.0846 81.6262 81.4425C81.8521 81.7962 81.965 82.2309 81.965 82.7465C81.965 83.2493 81.8371 83.6989 81.5815 84.0952C81.3258 84.4915 80.9593 84.8047 80.482 85.0348C80.0048 85.2649 79.4337 85.38 78.769 85.38H74.1411ZM75.5729 83.9993H78.769C79.2888 83.9993 79.6958 83.8757 79.9898 83.6286C80.2839 83.3814 80.4309 83.0448 80.4309 82.6186C80.4309 82.1115 80.2839 81.7131 79.9898 81.4233C79.6958 81.1293 79.2888 80.9823 78.769 80.9823H75.5729V83.9993ZM75.5729 79.6783H78.1553C78.5602 79.6783 78.9075 79.6229 79.1972 79.5121C79.487 79.397 79.7086 79.2351 79.862 79.0263C80.0197 78.8132 80.0985 78.5618 80.0985 78.2721C80.0985 77.8587 79.9259 77.5348 79.5807 77.3005C79.2356 77.0618 78.7604 76.9425 78.1553 76.9425H75.5729V79.6783ZM83.686 76.9681V75.5618H91.6633V76.9681H88.4417V85.38H86.9332V76.9681H83.686ZM97.3426 85.5846C96.4563 85.5846 95.6786 85.3736 95.0095 84.9517C94.3448 84.5299 93.8249 83.9397 93.4499 83.1811C93.0792 82.4226 92.8938 81.5363 92.8938 80.5221C92.8938 79.4993 93.0792 78.6066 93.4499 77.8438C93.8249 77.081 94.3448 76.4887 95.0095 76.0668C95.6786 75.6449 96.4563 75.434 97.3426 75.434C98.229 75.434 99.0046 75.6449 99.6694 76.0668C100.338 76.4887 100.858 77.081 101.229 77.8438C101.604 78.6066 101.792 79.4993 101.792 80.5221C101.792 81.5363 101.604 82.4226 101.229 83.1811C100.858 83.9397 100.338 84.5299 99.6694 84.9517C99.0046 85.3736 98.229 85.5846 97.3426 85.5846ZM97.3426 84.2294C98.0159 84.2294 98.5699 84.0569 99.0046 83.7117C99.4392 83.3665 99.761 82.9127 99.9698 82.3502C100.179 81.7877 100.283 81.1783 100.283 80.5221C100.283 79.8658 100.179 79.2543 99.9698 78.6875C99.761 78.1208 99.4392 77.6627 99.0046 77.3132C98.5699 76.9638 98.0159 76.7891 97.3426 76.7891C96.6694 76.7891 96.1154 76.9638 95.6807 77.3132C95.2461 77.6627 94.9243 78.1208 94.7155 78.6875C94.5067 79.2543 94.4023 79.8658 94.4023 80.5221C94.4023 81.1783 94.5067 81.7877 94.7155 82.3502C94.9243 82.9127 95.2461 83.3665 95.6807 83.7117C96.1154 84.0569 96.6694 84.2294 97.3426 84.2294ZM104.094 89.0618V75.5618H105.552V77.1215H105.731C105.841 76.951 105.995 76.7337 106.191 76.4695C106.391 76.201 106.677 75.9624 107.047 75.7536C107.422 75.5405 107.929 75.434 108.569 75.434C109.395 75.434 110.124 75.6407 110.755 76.054C111.385 76.4674 111.878 77.0533 112.231 77.8118C112.585 78.5703 112.762 79.4652 112.762 80.4965C112.762 81.5363 112.585 82.4375 112.231 83.2003C111.878 83.9588 111.388 84.5469 110.761 84.9645C110.135 85.3779 109.412 85.5846 108.594 85.5846C107.964 85.5846 107.459 85.4801 107.079 85.2713C106.7 85.0583 106.408 84.8175 106.204 84.549C105.999 84.2763 105.841 84.0505 105.731 83.8715H105.603V89.0618H104.094ZM105.577 80.4709C105.577 81.2124 105.686 81.8665 105.903 82.4333C106.121 82.9958 106.438 83.4368 106.856 83.7564C107.273 84.0718 107.785 84.2294 108.39 84.2294C109.02 84.2294 109.547 84.0632 109.969 83.7309C110.395 83.3942 110.714 82.9425 110.927 82.3757C111.145 81.8047 111.253 81.1698 111.253 80.4709C111.253 79.7806 111.147 79.1584 110.934 78.6044C110.725 78.0462 110.407 77.6051 109.981 77.2813C109.559 76.9532 109.029 76.7891 108.39 76.7891C107.776 76.7891 107.26 76.9446 106.843 77.2557C106.425 77.5625 106.11 77.9929 105.897 78.5469C105.684 79.0966 105.577 79.738 105.577 80.4709ZM119.052 85.5846C118.165 85.5846 117.388 85.3736 116.719 84.9517C116.054 84.5299 115.534 83.9397 115.159 83.1811C114.788 82.4226 114.603 81.5363 114.603 80.5221C114.603 79.4993 114.788 78.6066 115.159 77.8438C115.534 77.081 116.054 76.4887 116.719 76.0668C117.388 75.6449 118.165 75.434 119.052 75.434C119.938 75.434 120.714 75.6449 121.378 76.0668C122.047 76.4887 122.567 77.081 122.938 77.8438C123.313 78.6066 123.5 79.4993 123.5 80.5221C123.5 81.5363 123.313 82.4226 122.938 83.1811C122.567 83.9397 122.047 84.5299 121.378 84.9517C120.714 85.3736 119.938 85.5846 119.052 85.5846ZM119.052 84.2294C119.725 84.2294 120.279 84.0569 120.714 83.7117C121.148 83.3665 121.47 82.9127 121.679 82.3502C121.888 81.7877 121.992 81.1783 121.992 80.5221C121.992 79.8658 121.888 79.2543 121.679 78.6875C121.47 78.1208 121.148 77.6627 120.714 77.3132C120.279 76.9638 119.725 76.7891 119.052 76.7891C118.378 76.7891 117.824 76.9638 117.39 77.3132C116.955 77.6627 116.633 78.1208 116.424 78.6875C116.216 79.2543 116.111 79.8658 116.111 80.5221C116.111 81.1783 116.216 81.7877 116.424 82.3502C116.633 82.9127 116.955 83.3665 117.39 83.7117C117.824 84.0569 118.378 84.2294 119.052 84.2294ZM127.312 83.1556L132.042 75.5618H133.781V85.38H132.272V77.7863L127.567 85.38H125.803V75.5618H127.312V83.1556ZM131.045 72.2891H132.451C132.451 72.9794 132.212 73.5441 131.735 73.983C131.258 74.4219 130.61 74.6414 129.792 74.6414C128.986 74.6414 128.345 74.4219 127.868 73.983C127.395 73.5441 127.158 72.9794 127.158 72.2891H128.565C128.565 72.6215 128.656 72.9134 128.839 73.1648C129.027 73.4162 129.344 73.5419 129.792 73.5419C130.239 73.5419 130.559 73.4162 130.751 73.1648C130.947 72.9134 131.045 72.6215 131.045 72.2891ZM144.853 76.8402C144.512 76.8445 144.169 76.9319 143.824 77.1023C143.483 77.2728 143.198 77.4986 142.967 77.7799C142.742 78.0569 142.629 78.3658 142.629 78.7067H141.146C141.146 78.2806 141.248 77.8715 141.453 77.4794C141.657 77.0874 141.932 76.738 142.277 76.4311C142.627 76.1243 143.023 75.8814 143.466 75.7024C143.913 75.5235 144.376 75.434 144.853 75.434C145.748 75.434 146.507 75.6598 147.129 76.1115C147.755 76.5632 148.23 77.1598 148.554 77.9013C148.882 78.6428 149.046 79.4482 149.046 80.3175V80.6755C149.046 81.5405 148.882 82.3459 148.554 83.0917C148.23 83.8331 147.755 84.4297 147.129 84.8814C146.507 85.3331 145.748 85.559 144.853 85.559C144.137 85.559 143.5 85.4013 142.942 85.086C142.384 84.7664 141.945 84.3402 141.625 83.8076C141.306 83.2749 141.146 82.6826 141.146 82.0306H142.629C142.629 82.4013 142.733 82.7486 142.942 83.0725C143.155 83.3921 143.43 83.652 143.766 83.8523C144.107 84.0483 144.47 84.1485 144.853 84.1527C145.424 84.1485 145.91 83.9695 146.311 83.6158C146.711 83.2621 147.016 82.8189 147.225 82.2863C147.433 81.7536 147.538 81.2167 147.538 80.6755V80.3175C147.538 79.7635 147.433 79.2223 147.225 78.6939C147.02 78.1613 146.717 77.7202 146.317 77.3708C145.921 77.0213 145.433 76.8445 144.853 76.8402ZM148.151 79.7294V81.1357H143.856V79.7294H148.151ZM150.061 76.9681V75.5618H158.038V76.9681H154.817V85.38H153.308V76.9681H150.061ZM162.618 85.6101C161.996 85.6101 161.431 85.4929 160.924 85.2586C160.417 85.0199 160.015 84.6769 159.716 84.2294C159.418 83.7777 159.269 83.2323 159.269 82.5931C159.269 82.0306 159.38 81.5746 159.601 81.2252C159.823 80.8715 160.119 80.5945 160.49 80.3942C160.86 80.1939 161.269 80.0448 161.717 79.9468C162.169 79.8445 162.622 79.7635 163.078 79.7039C163.675 79.6272 164.159 79.5696 164.529 79.5313C164.904 79.4887 165.177 79.4184 165.348 79.3203C165.522 79.2223 165.61 79.0519 165.61 78.809V78.7578C165.61 78.1272 165.437 77.6371 165.092 77.2877C164.751 76.9382 164.233 76.7635 163.539 76.7635C162.818 76.7635 162.254 76.9212 161.845 77.2365C161.436 77.5519 161.148 77.8885 160.982 78.2465L159.55 77.7351C159.806 77.1385 160.147 76.674 160.573 76.3417C161.003 76.005 161.472 75.7706 161.979 75.6385C162.49 75.5022 162.993 75.434 163.488 75.434C163.803 75.434 164.165 75.4723 164.574 75.549C164.988 75.6215 165.386 75.7728 165.769 76.0029C166.157 76.233 166.479 76.5803 166.735 77.0448C166.99 77.5093 167.118 78.1314 167.118 78.9113V85.38H165.61V84.0505H165.533C165.431 84.2635 165.26 84.4915 165.022 84.7344C164.783 84.9773 164.466 85.184 164.069 85.3544C163.673 85.5249 163.189 85.6101 162.618 85.6101ZM162.848 84.255C163.445 84.255 163.948 84.1378 164.357 83.9034C164.77 83.6691 165.081 83.3665 165.29 82.9958C165.503 82.625 165.61 82.2351 165.61 81.826V80.4453C165.546 80.5221 165.405 80.5924 165.188 80.6563C164.975 80.7159 164.728 80.7692 164.446 80.8161C164.169 80.8587 163.899 80.8971 163.635 80.9311C163.375 80.961 163.164 80.9865 163.002 81.0078C162.61 81.059 162.243 81.1421 161.902 81.2571C161.566 81.3679 161.293 81.5363 161.084 81.7621C160.88 81.9837 160.777 82.2863 160.777 82.6698C160.777 83.1939 160.971 83.5902 161.359 83.8587C161.751 84.1229 162.247 84.255 162.848 84.255ZM169.258 85.38L173.247 80.3942L169.309 75.5618H171.099L174.372 79.755H175.19V75.5618H176.698V79.755H177.491L180.764 75.5618H182.553L178.641 80.3942L182.605 85.38H180.789L177.465 81.1613H176.698V85.38H175.19V81.1613H174.423L171.073 85.38H169.258Z" fill="#84BC33"/>
</svg>
