<svg width="256" height="170" viewBox="0 0 256 170" fill="none" xmlns="http://www.w3.org/2000/svg">
<path d="M72.6745 93.5L67.4905 87.26L68.9065 86.42L74.6905 93.5H72.6745ZM63.4345 93.5V80.9H65.1385V93.5H63.4345ZM64.6105 87.884V86.42H68.6665V87.884H64.6105ZM69.0505 87.38L67.4665 87.14L72.4825 80.9H74.3305L69.0505 87.38ZM82.1185 93.62C80.9025 93.62 79.8065 93.348 78.8305 92.804C77.8705 92.244 77.1105 91.484 76.5505 90.524C75.9905 89.548 75.7105 88.436 75.7105 87.188C75.7105 85.924 75.9905 84.812 76.5505 83.852C77.1105 82.892 77.8705 82.14 78.8305 81.596C79.7905 81.052 80.8865 80.78 82.1185 80.78C83.3665 80.78 84.4705 81.052 85.4305 81.596C86.4065 82.14 87.1665 82.892 87.7105 83.852C88.2705 84.812 88.5505 85.924 88.5505 87.188C88.5505 88.436 88.2705 89.548 87.7105 90.524C87.1665 91.484 86.4065 92.244 85.4305 92.804C84.4545 93.348 83.3505 93.62 82.1185 93.62ZM82.1185 92.108C83.0305 92.108 83.8385 91.908 84.5425 91.508C85.2465 91.092 85.7985 90.516 86.1985 89.78C86.6145 89.028 86.8225 88.164 86.8225 87.188C86.8225 86.196 86.6145 85.332 86.1985 84.596C85.7985 83.86 85.2465 83.292 84.5425 82.892C83.8385 82.476 83.0385 82.268 82.1425 82.268C81.2465 82.268 80.4465 82.476 79.7425 82.892C79.0385 83.292 78.4785 83.86 78.0625 84.596C77.6465 85.332 77.4385 86.196 77.4385 87.188C77.4385 88.164 77.6465 89.028 78.0625 89.78C78.4785 90.516 79.0385 91.092 79.7425 91.508C80.4465 91.908 81.2385 92.108 82.1185 92.108ZM92.1923 93.5V80.9H97.7603C99.1843 80.9 100.304 81.172 101.12 81.716C101.952 82.26 102.368 83.06 102.368 84.116C102.368 85.14 101.976 85.932 101.192 86.492C100.408 87.036 99.3763 87.308 98.0963 87.308L98.4323 86.804C99.9363 86.804 101.04 87.084 101.744 87.644C102.448 88.204 102.8 89.012 102.8 90.068C102.8 91.156 102.4 92.004 101.6 92.612C100.816 93.204 99.5923 93.5 97.9283 93.5H92.1923ZM93.8483 92.156H97.8563C98.9283 92.156 99.7363 91.988 100.28 91.652C100.84 91.3 101.12 90.74 101.12 89.972C101.12 89.204 100.872 88.644 100.376 88.292C99.8803 87.94 99.0963 87.764 98.0243 87.764H93.8483V92.156ZM93.8483 86.492H97.6403C98.6163 86.492 99.3603 86.308 99.8723 85.94C100.4 85.572 100.664 85.036 100.664 84.332C100.664 83.628 100.4 83.1 99.8723 82.748C99.3603 82.396 98.6163 82.22 97.6403 82.22H93.8483V86.492ZM111.978 93.62C110.762 93.62 109.666 93.348 108.69 92.804C107.73 92.244 106.97 91.484 106.41 90.524C105.85 89.548 105.57 88.436 105.57 87.188C105.57 85.924 105.85 84.812 106.41 83.852C106.97 82.892 107.73 82.14 108.69 81.596C109.65 81.052 110.746 80.78 111.978 80.78C113.226 80.78 114.33 81.052 115.29 81.596C116.266 82.14 117.026 82.892 117.57 83.852C118.13 84.812 118.41 85.924 118.41 87.188C118.41 88.436 118.13 89.548 117.57 90.524C117.026 91.484 116.266 92.244 115.29 92.804C114.314 93.348 113.21 93.62 111.978 93.62ZM111.978 92.108C112.89 92.108 113.698 91.908 114.402 91.508C115.106 91.092 115.658 90.516 116.058 89.78C116.474 89.028 116.682 88.164 116.682 87.188C116.682 86.196 116.474 85.332 116.058 84.596C115.658 83.86 115.106 83.292 114.402 82.892C113.698 82.476 112.898 82.268 112.002 82.268C111.106 82.268 110.306 82.476 109.602 82.892C108.898 83.292 108.338 83.86 107.922 84.596C107.506 85.332 107.298 86.196 107.298 87.188C107.298 88.164 107.506 89.028 107.922 89.78C108.338 90.516 108.898 91.092 109.602 91.508C110.306 91.908 111.098 92.108 111.978 92.108ZM128.556 93.62C127.468 93.62 126.484 93.372 125.604 92.876C124.724 92.364 124.02 91.636 123.492 90.692C122.98 89.732 122.724 88.564 122.724 87.188C122.724 85.812 122.98 84.652 123.492 83.708C124.004 82.748 124.7 82.02 125.58 81.524C126.46 81.028 127.452 80.78 128.556 80.78C129.756 80.78 130.828 81.052 131.772 81.596C132.732 82.124 133.484 82.876 134.028 83.852C134.572 84.812 134.844 85.924 134.844 87.188C134.844 88.468 134.572 89.588 134.028 90.548C133.484 91.508 132.732 92.26 131.772 92.804C130.828 93.348 129.756 93.62 128.556 93.62ZM122.052 98.156V80.9H123.684V84.692L123.516 87.212L123.756 89.756V98.156H122.052ZM128.436 92.108C129.332 92.108 130.132 91.908 130.836 91.508C131.54 91.092 132.1 90.516 132.516 89.78C132.932 89.028 133.14 88.164 133.14 87.188C133.14 86.212 132.932 85.356 132.516 84.62C132.1 83.884 131.54 83.308 130.836 82.892C130.132 82.476 129.332 82.268 128.436 82.268C127.54 82.268 126.732 82.476 126.012 82.892C125.308 83.308 124.748 83.884 124.332 84.62C123.932 85.356 123.732 86.212 123.732 87.188C123.732 88.164 123.932 89.028 124.332 89.78C124.748 90.516 125.308 91.092 126.012 91.508C126.732 91.908 127.54 92.108 128.436 92.108ZM147.745 93.5L142.561 87.26L143.977 86.42L149.761 93.5H147.745ZM138.505 93.5V80.9H140.209V93.5H138.505ZM139.681 87.884V86.42H143.737V87.884H139.681ZM144.121 87.38L142.537 87.14L147.553 80.9H149.401L144.121 87.38ZM152.45 93.5V80.9H154.154V90.908L162.578 80.9H164.09V93.5H162.386V83.468L153.986 93.5H152.45ZM168.974 93.5V80.9H170.678V86.468H178.622V80.9H180.326V93.5H178.622V87.932H170.678V93.5H168.974ZM185.169 93.5V80.9H194.097V82.388H186.441L186.873 81.956V93.5H185.169Z" fill="#84BC33"/>
</svg>
