<svg width="256" height="170" viewBox="0 0 256 170" fill="none" xmlns="http://www.w3.org/2000/svg">
<path d="M87.6159 79.5L82.4319 73.26L83.8479 72.42L89.6319 79.5H87.6159ZM78.3759 79.5V66.9H80.0799V79.5H78.3759ZM79.5519 73.884V72.42H83.6079V73.884H79.5519ZM83.9919 73.38L82.4079 73.14L87.4239 66.9H89.2719L83.9919 73.38ZM97.0599 79.62C95.8439 79.62 94.7479 79.348 93.7719 78.804C92.8119 78.244 92.0519 77.484 91.4919 76.524C90.9319 75.548 90.6519 74.436 90.6519 73.188C90.6519 71.924 90.9319 70.812 91.4919 69.852C92.0519 68.892 92.8119 68.14 93.7719 67.596C94.7319 67.052 95.8279 66.78 97.0599 66.78C98.3079 66.78 99.4119 67.052 100.372 67.596C101.348 68.14 102.108 68.892 102.652 69.852C103.212 70.812 103.492 71.924 103.492 73.188C103.492 74.436 103.212 75.548 102.652 76.524C102.108 77.484 101.348 78.244 100.372 78.804C99.3959 79.348 98.2919 79.62 97.0599 79.62ZM97.0599 78.108C97.9719 78.108 98.7799 77.908 99.4839 77.508C100.188 77.092 100.74 76.516 101.14 75.78C101.556 75.028 101.764 74.164 101.764 73.188C101.764 72.196 101.556 71.332 101.14 70.596C100.74 69.86 100.188 69.292 99.4839 68.892C98.7799 68.476 97.9799 68.268 97.0839 68.268C96.1879 68.268 95.3879 68.476 94.6839 68.892C93.9799 69.292 93.4199 69.86 93.0039 70.596C92.5879 71.332 92.3799 72.196 92.3799 73.188C92.3799 74.164 92.5879 75.028 93.0039 75.78C93.4199 76.516 93.9799 77.092 94.6839 77.508C95.3879 77.908 96.1799 78.108 97.0599 78.108ZM107.134 79.5V66.9H108.862L114.574 76.572H113.854L119.662 66.9H121.246V79.5H119.686V68.844L119.998 68.988L114.574 77.964H113.806L108.334 68.892L108.694 68.82V79.5H107.134ZM126.095 79.5V66.9H127.799V72.468H135.743V66.9H137.447V79.5H135.743V73.932H127.799V79.5H126.095ZM150.114 79.5V76.716L150.042 76.26V71.604C150.042 70.532 149.738 69.708 149.13 69.132C148.538 68.556 147.65 68.268 146.466 68.268C145.65 68.268 144.874 68.404 144.138 68.676C143.402 68.948 142.778 69.308 142.266 69.756L141.498 68.484C142.138 67.94 142.906 67.524 143.802 67.236C144.698 66.932 145.642 66.78 146.634 66.78C148.266 66.78 149.522 67.188 150.402 68.004C151.298 68.804 151.746 70.028 151.746 71.676V79.5H150.114ZM145.77 79.62C144.826 79.62 144.002 79.468 143.298 79.164C142.61 78.844 142.082 78.412 141.714 77.868C141.346 77.308 141.162 76.668 141.162 75.948C141.162 75.292 141.314 74.7 141.618 74.172C141.938 73.628 142.45 73.196 143.154 72.876C143.874 72.54 144.834 72.372 146.034 72.372H150.378V73.644H146.082C144.866 73.644 144.018 73.86 143.538 74.292C143.074 74.724 142.842 75.26 142.842 75.9C142.842 76.62 143.122 77.196 143.682 77.628C144.242 78.06 145.026 78.276 146.034 78.276C146.994 78.276 147.818 78.06 148.506 77.628C149.21 77.18 149.722 76.54 150.042 75.708L150.426 76.884C150.106 77.716 149.546 78.38 148.746 78.876C147.962 79.372 146.97 79.62 145.77 79.62ZM158.682 79.5V67.932L159.114 68.388H153.906V66.9H165.162V68.388H159.954L160.386 67.932V79.5H158.682ZM175.45 79.5V76.716L175.378 76.26V71.604C175.378 70.532 175.074 69.708 174.466 69.132C173.874 68.556 172.986 68.268 171.802 68.268C170.986 68.268 170.21 68.404 169.474 68.676C168.738 68.948 168.114 69.308 167.602 69.756L166.834 68.484C167.474 67.94 168.242 67.524 169.138 67.236C170.034 66.932 170.978 66.78 171.97 66.78C173.602 66.78 174.858 67.188 175.738 68.004C176.634 68.804 177.082 70.028 177.082 71.676V79.5H175.45ZM171.106 79.62C170.162 79.62 169.338 79.468 168.634 79.164C167.946 78.844 167.418 78.412 167.05 77.868C166.682 77.308 166.498 76.668 166.498 75.948C166.498 75.292 166.65 74.7 166.954 74.172C167.274 73.628 167.786 73.196 168.49 72.876C169.21 72.54 170.17 72.372 171.37 72.372H175.714V73.644H171.418C170.202 73.644 169.354 73.86 168.874 74.292C168.41 74.724 168.178 75.26 168.178 75.9C168.178 76.62 168.458 77.196 169.018 77.628C169.578 78.06 170.362 78.276 171.37 78.276C172.33 78.276 173.154 78.06 173.842 77.628C174.546 77.18 175.058 76.54 175.378 75.708L175.762 76.884C175.442 77.716 174.882 78.38 174.082 78.876C173.298 79.372 172.306 79.62 171.106 79.62ZM61.844 105.684V95.388H55.772L55.628 98.196C55.596 99.044 55.54 99.876 55.46 100.692C55.396 101.508 55.276 102.26 55.1 102.948C54.94 103.62 54.708 104.172 54.404 104.604C54.1 105.02 53.708 105.26 53.228 105.324L51.524 105.012C52.02 105.028 52.428 104.852 52.748 104.484C53.068 104.1 53.316 103.58 53.492 102.924C53.668 102.268 53.796 101.524 53.876 100.692C53.956 99.844 54.02 98.98 54.068 98.1L54.236 93.9H63.548V105.684H61.844ZM50.996 109.548V105.012H65.516V109.548H63.908V106.5H52.604V109.548H50.996ZM66.5328 106.476L66.6528 105.012C66.7648 105.028 66.8688 105.052 66.9648 105.084C67.0768 105.1 67.1728 105.108 67.2528 105.108C67.7648 105.108 68.1728 104.916 68.4768 104.532C68.7968 104.148 69.0368 103.636 69.1968 102.996C69.3568 102.356 69.4688 101.636 69.5328 100.836C69.5968 100.02 69.6528 99.204 69.7008 98.388L69.9168 93.9H79.1568V106.5H77.4528V94.884L77.8848 95.388H71.0208L71.4288 94.86L71.2368 98.508C71.1888 99.596 71.1008 100.636 70.9728 101.628C70.8608 102.62 70.6768 103.492 70.4208 104.244C70.1808 104.996 69.8448 105.588 69.4128 106.02C68.9808 106.436 68.4288 106.644 67.7568 106.644C67.5648 106.644 67.3648 106.628 67.1568 106.596C66.9648 106.564 66.7568 106.524 66.5328 106.476ZM92.1369 106.5V101.964L92.4489 102.324H88.1769C86.5609 102.324 85.2969 101.972 84.3849 101.268C83.4729 100.564 83.0169 99.54 83.0169 98.196C83.0169 96.756 83.5049 95.684 84.4809 94.98C85.4569 94.26 86.7609 93.9 88.3929 93.9H93.6969V106.5H92.1369ZM82.9209 106.5L86.3769 101.652H88.1529L84.7689 106.5H82.9209ZM92.1369 101.46V94.884L92.4489 95.388H88.4409C87.2729 95.388 86.3609 95.612 85.7049 96.06C85.0649 96.508 84.7449 97.236 84.7449 98.244C84.7449 100.116 85.9369 101.052 88.3209 101.052H92.4489L92.1369 101.46ZM108.221 106.644C107.309 106.644 106.405 106.516 105.509 106.26C104.613 106.004 103.821 105.612 103.133 105.084L103.685 103.812C104.293 104.26 104.997 104.604 105.797 104.844C106.597 105.068 107.389 105.18 108.173 105.18C108.957 105.164 109.637 105.052 110.213 104.844C110.789 104.636 111.237 104.348 111.557 103.98C111.877 103.612 112.037 103.196 112.037 102.732C112.037 102.06 111.733 101.54 111.125 101.172C110.517 100.788 109.685 100.596 108.629 100.596H106.469V99.348H108.509C109.133 99.348 109.685 99.268 110.165 99.108C110.645 98.948 111.013 98.716 111.269 98.412C111.541 98.108 111.677 97.748 111.677 97.332C111.677 96.884 111.517 96.5 111.197 96.18C110.893 95.86 110.469 95.62 109.925 95.46C109.381 95.3 108.765 95.22 108.077 95.22C107.453 95.236 106.805 95.332 106.133 95.508C105.461 95.668 104.797 95.916 104.141 96.252L103.661 94.932C104.397 94.548 105.125 94.26 105.845 94.068C106.581 93.86 107.317 93.756 108.053 93.756C109.061 93.724 109.965 93.844 110.765 94.116C111.581 94.388 112.229 94.78 112.709 95.292C113.189 95.788 113.429 96.388 113.429 97.092C113.429 97.716 113.237 98.26 112.853 98.724C112.469 99.188 111.957 99.548 111.317 99.804C110.677 100.06 109.949 100.188 109.133 100.188L109.205 99.732C110.645 99.732 111.765 100.012 112.565 100.572C113.381 101.132 113.789 101.892 113.789 102.852C113.789 103.604 113.541 104.268 113.045 104.844C112.549 105.404 111.877 105.844 111.029 106.164C110.197 106.484 109.261 106.644 108.221 106.644ZM125.481 106.5V103.716L125.409 103.26V98.604C125.409 97.532 125.105 96.708 124.497 96.132C123.905 95.556 123.017 95.268 121.833 95.268C121.017 95.268 120.241 95.404 119.505 95.676C118.769 95.948 118.145 96.308 117.633 96.756L116.865 95.484C117.505 94.94 118.273 94.524 119.169 94.236C120.065 93.932 121.009 93.78 122.001 93.78C123.633 93.78 124.889 94.188 125.769 95.004C126.665 95.804 127.113 97.028 127.113 98.676V106.5H125.481ZM121.137 106.62C120.193 106.62 119.369 106.468 118.665 106.164C117.977 105.844 117.449 105.412 117.081 104.868C116.713 104.308 116.529 103.668 116.529 102.948C116.529 102.292 116.681 101.7 116.985 101.172C117.305 100.628 117.817 100.196 118.521 99.876C119.241 99.54 120.201 99.372 121.401 99.372H125.745V100.644H121.449C120.233 100.644 119.385 100.86 118.905 101.292C118.441 101.724 118.209 102.26 118.209 102.9C118.209 103.62 118.489 104.196 119.049 104.628C119.609 105.06 120.393 105.276 121.401 105.276C122.361 105.276 123.185 105.06 123.873 104.628C124.577 104.18 125.089 103.54 125.409 102.708L125.793 103.884C125.473 104.716 124.913 105.38 124.113 105.876C123.329 106.372 122.337 106.62 121.137 106.62ZM131.649 106.5V93.9H133.353V99.468H141.297V93.9H143.001V106.5H141.297V100.932H133.353V106.5H131.649ZM155.981 106.5V101.964L156.293 102.324H152.021C150.405 102.324 149.141 101.972 148.229 101.268C147.317 100.564 146.861 99.54 146.861 98.196C146.861 96.756 147.349 95.684 148.325 94.98C149.301 94.26 150.605 93.9 152.237 93.9H157.541V106.5H155.981ZM146.765 106.5L150.221 101.652H151.997L148.613 106.5H146.765ZM155.981 101.46V94.884L156.293 95.388H152.285C151.117 95.388 150.205 95.612 149.549 96.06C148.909 96.508 148.589 97.236 148.589 98.244C148.589 100.116 149.781 101.052 152.165 101.052H156.293L155.981 101.46ZM164.799 106.5V94.932L165.231 95.388H160.023V93.9H171.279V95.388H166.071L166.503 94.932V106.5H164.799ZM173.743 106.5V93.9H175.447V103.908L183.871 93.9H185.383V106.5H183.679V96.468L175.279 106.5H173.743ZM190.267 106.5V93.9H191.971V103.908L200.395 93.9H201.907V106.5H200.203V96.468L191.803 106.5H190.267ZM195.979 92.076C194.923 92.076 194.067 91.812 193.411 91.284C192.771 90.74 192.435 89.964 192.403 88.956H193.627C193.643 89.596 193.867 90.1 194.299 90.468C194.731 90.836 195.291 91.02 195.979 91.02C196.667 91.02 197.227 90.836 197.659 90.468C198.107 90.1 198.339 89.596 198.355 88.956H199.579C199.563 89.964 199.227 90.74 198.571 91.284C197.915 91.812 197.051 92.076 195.979 92.076Z" fill="#84BC33"/>
</svg>
