<svg width="257" height="171" viewBox="0 0 257 171" fill="none" xmlns="http://www.w3.org/2000/svg">
<path d="M101.006 79.7806V81.1868H95.5856V79.7806H101.006ZM95.9435 75.5618V85.38H94.435V75.5618H95.9435ZM102.157 75.5618V85.38H100.648V75.5618H102.157ZM107.801 85.6101C107.179 85.6101 106.614 85.4929 106.107 85.2586C105.6 85.0199 105.197 84.6769 104.899 84.2294C104.6 83.7777 104.451 83.2323 104.451 82.5931C104.451 82.0306 104.562 81.5746 104.784 81.2252C105.005 80.8715 105.301 80.5945 105.672 80.3942C106.043 80.1939 106.452 80.0448 106.899 79.9468C107.351 79.8445 107.805 79.7635 108.261 79.7039C108.858 79.6272 109.341 79.5696 109.712 79.5313C110.087 79.4887 110.36 79.4184 110.53 79.3203C110.705 79.2223 110.792 79.0519 110.792 78.809V78.7578C110.792 78.1272 110.62 77.6371 110.274 77.2877C109.934 76.9382 109.416 76.7635 108.721 76.7635C108.001 76.7635 107.436 76.9212 107.027 77.2365C106.618 77.5519 106.331 77.8885 106.164 78.2465L104.733 77.7351C104.988 77.1385 105.329 76.674 105.755 76.3417C106.186 76.005 106.654 75.7706 107.162 75.6385C107.673 75.5022 108.176 75.434 108.67 75.434C108.985 75.434 109.348 75.4723 109.757 75.549C110.17 75.6215 110.569 75.7728 110.952 76.0029C111.34 76.233 111.662 76.5803 111.917 77.0448C112.173 77.5093 112.301 78.1314 112.301 78.9113V85.38H110.792V84.0505H110.716C110.613 84.2635 110.443 84.4915 110.204 84.7344C109.966 84.9773 109.648 85.184 109.252 85.3544C108.855 85.5249 108.372 85.6101 107.801 85.6101ZM108.031 84.255C108.627 84.255 109.13 84.1378 109.539 83.9034C109.953 83.6691 110.264 83.3665 110.473 82.9958C110.686 82.625 110.792 82.2351 110.792 81.826V80.4453C110.728 80.5221 110.588 80.5924 110.37 80.6563C110.157 80.7159 109.91 80.7692 109.629 80.8161C109.352 80.8587 109.081 80.8971 108.817 80.9311C108.557 80.961 108.346 80.9865 108.184 81.0078C107.792 81.059 107.426 81.1421 107.085 81.2571C106.748 81.3679 106.475 81.5363 106.267 81.7621C106.062 81.9837 105.96 82.2863 105.96 82.6698C105.96 83.1939 106.154 83.5902 106.542 83.8587C106.934 84.1229 107.43 84.255 108.031 84.255ZM115.054 75.5618H116.563V83.9738H120.27V75.5618H121.779V83.9738H125.486V75.5618H126.994V85.38H115.054V75.5618ZM134.198 82.8743H135.809C135.843 83.3175 136.043 83.6542 136.41 83.8843C136.781 84.1144 137.262 84.2294 137.855 84.2294C138.46 84.2294 138.977 84.1059 139.408 83.8587C139.838 83.6073 140.053 83.2024 140.053 82.6442C140.053 82.3161 139.972 82.0306 139.811 81.7877C139.649 81.5405 139.421 81.3488 139.127 81.2124C138.833 81.076 138.485 81.0078 138.085 81.0078H136.397V79.6527H138.085C138.686 79.6527 139.129 79.5164 139.414 79.2436C139.704 78.9709 139.849 78.63 139.849 78.2209C139.849 77.782 139.693 77.4304 139.382 77.1662C139.071 76.8978 138.63 76.7635 138.059 76.7635C137.484 76.7635 137.004 76.8935 136.621 77.1534C136.237 77.4091 136.035 77.7394 136.014 78.1442H134.428C134.445 77.6158 134.607 77.1492 134.914 76.7444C135.221 76.3353 135.639 76.0157 136.167 75.7855C136.695 75.5512 137.301 75.434 137.982 75.434C138.673 75.434 139.271 75.5554 139.779 75.7983C140.29 76.037 140.684 76.363 140.961 76.7763C141.242 77.1854 141.383 77.6499 141.383 78.1698C141.383 78.7238 141.227 79.1712 140.916 79.5121C140.605 79.853 140.215 80.0959 139.747 80.2408V80.3431C140.117 80.3686 140.439 80.488 140.712 80.701C140.989 80.9098 141.204 81.1847 141.357 81.5256C141.511 81.8622 141.588 82.2351 141.588 82.6442C141.588 83.2408 141.428 83.7607 141.108 84.2039C140.789 84.6428 140.35 84.9837 139.791 85.2266C139.233 85.4652 138.596 85.5846 137.88 85.5846C137.186 85.5846 136.563 85.4716 136.014 85.2458C135.464 85.0157 135.027 84.6982 134.703 84.2934C134.384 83.8843 134.215 83.4113 134.198 82.8743ZM146.596 85.6101C145.974 85.6101 145.409 85.4929 144.902 85.2586C144.395 85.0199 143.992 84.6769 143.694 84.2294C143.395 83.7777 143.246 83.2323 143.246 82.5931C143.246 82.0306 143.357 81.5746 143.579 81.2252C143.8 80.8715 144.096 80.5945 144.467 80.3942C144.838 80.1939 145.247 80.0448 145.694 79.9468C146.146 79.8445 146.6 79.7635 147.056 79.7039C147.653 79.6272 148.136 79.5696 148.507 79.5313C148.882 79.4887 149.155 79.4184 149.325 79.3203C149.5 79.2223 149.587 79.0519 149.587 78.809V78.7578C149.587 78.1272 149.415 77.6371 149.069 77.2877C148.729 76.9382 148.211 76.7635 147.516 76.7635C146.796 76.7635 146.231 76.9212 145.822 77.2365C145.413 77.5519 145.126 77.8885 144.959 78.2465L143.528 77.7351C143.783 77.1385 144.124 76.674 144.55 76.3417C144.981 76.005 145.449 75.7706 145.956 75.6385C146.468 75.5022 146.971 75.434 147.465 75.434C147.78 75.434 148.143 75.4723 148.552 75.549C148.965 75.6215 149.363 75.7728 149.747 76.0029C150.135 76.233 150.456 76.5803 150.712 77.0448C150.968 77.5093 151.096 78.1314 151.096 78.9113V85.38H149.587V84.0505H149.51C149.408 84.2635 149.238 84.4915 148.999 84.7344C148.76 84.9773 148.443 85.184 148.047 85.3544C147.65 85.5249 147.167 85.6101 146.596 85.6101ZM146.826 84.255C147.422 84.255 147.925 84.1378 148.334 83.9034C148.748 83.6691 149.059 83.3665 149.268 82.9958C149.481 82.625 149.587 82.2351 149.587 81.826V80.4453C149.523 80.5221 149.383 80.5924 149.165 80.6563C148.952 80.7159 148.705 80.7692 148.424 80.8161C148.147 80.8587 147.876 80.8971 147.612 80.9311C147.352 80.961 147.141 80.9865 146.979 81.0078C146.587 81.059 146.221 81.1421 145.88 81.2571C145.543 81.3679 145.27 81.5363 145.062 81.7621C144.857 81.9837 144.755 82.2863 144.755 82.6698C144.755 83.1939 144.949 83.5902 145.336 83.8587C145.729 84.1229 146.225 84.255 146.826 84.255ZM152.98 85.38V83.9738H153.338C153.632 83.9738 153.877 83.9162 154.073 83.8012C154.269 83.6819 154.426 83.4752 154.546 83.1811C154.669 82.8828 154.763 82.4695 154.827 81.9411C154.895 81.4084 154.944 80.7309 154.974 79.9084L155.153 75.5618H161.698V85.38H160.19V76.9681H156.585L156.431 80.4709C156.397 81.2763 156.325 81.9858 156.214 82.5995C156.108 83.2088 155.944 83.7202 155.722 84.1336C155.505 84.5469 155.215 84.858 154.853 85.0668C154.49 85.2756 154.037 85.38 153.491 85.38H152.98Z" fill="#84BC33"/>
</svg>
