<svg width="257" height="171" viewBox="0 0 257 171" fill="none" xmlns="http://www.w3.org/2000/svg">
<path d="M107.204 85.5846C106.284 85.5846 105.491 85.3672 104.826 84.9326C104.161 84.4979 103.65 83.8992 103.292 83.1364C102.934 82.3736 102.755 81.5022 102.755 80.5221C102.755 79.5249 102.938 78.6449 103.305 77.8821C103.676 77.1151 104.191 76.5164 104.852 76.086C105.517 75.6513 106.292 75.434 107.178 75.434C107.869 75.434 108.491 75.5618 109.045 75.8175C109.599 76.0732 110.053 76.4311 110.406 76.8914C110.76 77.3516 110.98 77.8885 111.065 78.5022H109.556C109.441 78.0547 109.186 77.6584 108.789 77.3132C108.397 76.9638 107.869 76.7891 107.204 76.7891C106.616 76.7891 106.1 76.9425 105.657 77.2493C105.218 77.5519 104.875 77.9801 104.628 78.5341C104.385 79.0838 104.264 79.7294 104.264 80.4709C104.264 81.2294 104.383 81.8899 104.622 82.4524C104.865 83.0149 105.205 83.4517 105.644 83.7628C106.088 84.0739 106.607 84.2294 107.204 84.2294C107.596 84.2294 107.952 84.1613 108.272 84.0249C108.591 83.8885 108.862 83.6925 109.083 83.4368C109.305 83.1811 109.463 82.8743 109.556 82.5164H111.065C110.98 83.0959 110.769 83.6179 110.432 84.0824C110.1 84.5426 109.659 84.9091 109.109 85.1819C108.563 85.4503 107.928 85.5846 107.204 85.5846ZM120.992 75.5618V83.9738H122.372V88.5505H120.864V85.38H113.27V75.5618H114.779V83.9738H119.483V75.5618H120.992ZM128.707 85.5846C127.761 85.5846 126.945 85.3757 126.259 84.9581C125.577 84.5363 125.051 83.9482 124.68 83.1939C124.313 82.4354 124.13 81.5533 124.13 80.5476C124.13 79.5419 124.313 78.6556 124.68 77.8885C125.051 77.1172 125.566 76.5164 126.227 76.086C126.892 75.6513 127.667 75.434 128.553 75.434C129.065 75.434 129.57 75.5192 130.068 75.6897C130.567 75.8601 131.021 76.1371 131.43 76.5206C131.839 76.8999 132.165 77.4027 132.408 78.0292C132.651 78.6556 132.772 79.4269 132.772 80.3431V80.9823H125.204V79.6783H131.238C131.238 79.1243 131.127 78.63 130.906 78.1953C130.688 77.7607 130.377 77.4176 129.973 77.1662C129.572 76.9148 129.099 76.7891 128.553 76.7891C127.953 76.7891 127.433 76.9382 126.994 77.2365C126.559 77.5306 126.225 77.9141 125.99 78.3871C125.756 78.8601 125.639 79.3672 125.639 79.9084V80.7777C125.639 81.5192 125.767 82.1478 126.022 82.6634C126.282 83.1747 126.642 83.5647 127.102 83.8331C127.563 84.0973 128.098 84.2294 128.707 84.2294C129.103 84.2294 129.461 84.174 129.781 84.0632C130.105 83.9482 130.384 83.7777 130.618 83.5519C130.852 83.3218 131.034 83.0363 131.161 82.6953L132.619 83.1044C132.465 83.5988 132.208 84.0334 131.845 84.4084C131.483 84.7792 131.036 85.0689 130.503 85.2777C129.97 85.4823 129.372 85.5846 128.707 85.5846ZM141.638 79.7806V81.1868H136.218V79.7806H141.638ZM136.575 75.5618V85.38H135.067V75.5618H136.575ZM142.789 75.5618V85.38H141.28V75.5618H142.789ZM148.433 85.6101C147.811 85.6101 147.246 85.4929 146.739 85.2586C146.232 85.0199 145.829 84.6769 145.531 84.2294C145.232 83.7777 145.083 83.2323 145.083 82.5931C145.083 82.0306 145.194 81.5746 145.416 81.2252C145.637 80.8715 145.933 80.5945 146.304 80.3942C146.675 80.1939 147.084 80.0448 147.531 79.9468C147.983 79.8445 148.437 79.7635 148.893 79.7039C149.49 79.6272 149.973 79.5696 150.344 79.5313C150.719 79.4887 150.992 79.4184 151.162 79.3203C151.337 79.2223 151.424 79.0519 151.424 78.809V78.7578C151.424 78.1272 151.252 77.6371 150.906 77.2877C150.566 76.9382 150.048 76.7635 149.353 76.7635C148.633 76.7635 148.068 76.9212 147.659 77.2365C147.25 77.5519 146.963 77.8885 146.796 78.2465L145.365 77.7351C145.62 77.1385 145.961 76.674 146.387 76.3417C146.818 76.005 147.286 75.7706 147.794 75.6385C148.305 75.5022 148.808 75.434 149.302 75.434C149.617 75.434 149.98 75.4723 150.389 75.549C150.802 75.6215 151.2 75.7728 151.584 76.0029C151.972 76.233 152.294 76.5803 152.549 77.0448C152.805 77.5093 152.933 78.1314 152.933 78.9113V85.38H151.424V84.0505H151.348C151.245 84.2635 151.075 84.4915 150.836 84.7344C150.598 84.9773 150.28 85.184 149.884 85.3544C149.487 85.5249 149.004 85.6101 148.433 85.6101ZM148.663 84.255C149.259 84.255 149.762 84.1378 150.171 83.9034C150.585 83.6691 150.896 83.3665 151.105 82.9958C151.318 82.625 151.424 82.2351 151.424 81.826V80.4453C151.36 80.5221 151.22 80.5924 151.002 80.6563C150.789 80.7159 150.542 80.7692 150.261 80.8161C149.984 80.8587 149.713 80.8971 149.449 80.9311C149.189 80.961 148.978 80.9865 148.816 81.0078C148.424 81.059 148.058 81.1421 147.717 81.2571C147.38 81.3679 147.107 81.5363 146.899 81.7621C146.694 81.9837 146.592 82.2863 146.592 82.6698C146.592 83.1939 146.786 83.5902 147.173 83.8587C147.566 84.1229 148.062 84.255 148.663 84.255Z" fill="#84BC33"/>
</svg>
