<svg width="256" height="170" viewBox="0 0 256 170" fill="none" xmlns="http://www.w3.org/2000/svg">
<path d="M79.6415 93.5V80.9H81.3455V86.468H89.2895V80.9H90.9935V93.5H89.2895V87.932H81.3455V93.5H79.6415ZM103.661 93.5V90.716L103.589 90.26V85.604C103.589 84.532 103.285 83.708 102.677 83.132C102.085 82.556 101.197 82.268 100.013 82.268C99.1968 82.268 98.4208 82.404 97.6848 82.676C96.9488 82.948 96.3248 83.308 95.8128 83.756L95.0448 82.484C95.6848 81.94 96.4528 81.524 97.3488 81.236C98.2448 80.932 99.1888 80.78 100.181 80.78C101.813 80.78 103.069 81.188 103.949 82.004C104.845 82.804 105.293 84.028 105.293 85.676V93.5H103.661ZM99.3168 93.62C98.3728 93.62 97.5488 93.468 96.8448 93.164C96.1568 92.844 95.6288 92.412 95.2608 91.868C94.8928 91.308 94.7088 90.668 94.7088 89.948C94.7088 89.292 94.8608 88.7 95.1648 88.172C95.4848 87.628 95.9968 87.196 96.7008 86.876C97.4208 86.54 98.3808 86.372 99.5808 86.372H103.925V87.644H99.6288C98.4128 87.644 97.5648 87.86 97.0848 88.292C96.6208 88.724 96.3888 89.26 96.3888 89.9C96.3888 90.62 96.6688 91.196 97.2288 91.628C97.7888 92.06 98.5728 92.276 99.5808 92.276C100.541 92.276 101.365 92.06 102.053 91.628C102.757 91.18 103.269 90.54 103.589 89.708L103.973 90.884C103.653 91.716 103.093 92.38 102.293 92.876C101.509 93.372 100.517 93.62 99.3168 93.62ZM118.109 92.012L117.725 92.468V80.9H119.429V92.468L118.973 92.012H126.005L125.549 92.468V80.9H127.253V93.5H109.829V80.9H111.533V92.468L111.101 92.012H118.109ZM141.76 93.644C140.848 93.644 139.944 93.516 139.048 93.26C138.152 93.004 137.36 92.612 136.672 92.084L137.224 90.812C137.832 91.26 138.536 91.604 139.336 91.844C140.136 92.068 140.928 92.18 141.712 92.18C142.496 92.164 143.176 92.052 143.752 91.844C144.328 91.636 144.776 91.348 145.096 90.98C145.416 90.612 145.576 90.196 145.576 89.732C145.576 89.06 145.272 88.54 144.664 88.172C144.056 87.788 143.224 87.596 142.168 87.596H140.008V86.348H142.048C142.672 86.348 143.224 86.268 143.704 86.108C144.184 85.948 144.552 85.716 144.808 85.412C145.08 85.108 145.216 84.748 145.216 84.332C145.216 83.884 145.056 83.5 144.736 83.18C144.432 82.86 144.008 82.62 143.464 82.46C142.92 82.3 142.304 82.22 141.616 82.22C140.992 82.236 140.344 82.332 139.672 82.508C139 82.668 138.336 82.916 137.68 83.252L137.2 81.932C137.936 81.548 138.664 81.26 139.384 81.068C140.12 80.86 140.856 80.756 141.592 80.756C142.6 80.724 143.504 80.844 144.304 81.116C145.12 81.388 145.768 81.78 146.248 82.292C146.728 82.788 146.968 83.388 146.968 84.092C146.968 84.716 146.776 85.26 146.392 85.724C146.008 86.188 145.496 86.548 144.856 86.804C144.216 87.06 143.488 87.188 142.672 87.188L142.744 86.732C144.184 86.732 145.304 87.012 146.104 87.572C146.92 88.132 147.328 88.892 147.328 89.852C147.328 90.604 147.08 91.268 146.584 91.844C146.088 92.404 145.416 92.844 144.568 93.164C143.736 93.484 142.8 93.644 141.76 93.644ZM159.02 93.5V90.716L158.948 90.26V85.604C158.948 84.532 158.644 83.708 158.036 83.132C157.444 82.556 156.556 82.268 155.372 82.268C154.556 82.268 153.78 82.404 153.044 82.676C152.308 82.948 151.684 83.308 151.172 83.756L150.404 82.484C151.044 81.94 151.812 81.524 152.708 81.236C153.604 80.932 154.548 80.78 155.54 80.78C157.172 80.78 158.428 81.188 159.308 82.004C160.204 82.804 160.652 84.028 160.652 85.676V93.5H159.02ZM154.676 93.62C153.732 93.62 152.908 93.468 152.204 93.164C151.516 92.844 150.988 92.412 150.62 91.868C150.252 91.308 150.068 90.668 150.068 89.948C150.068 89.292 150.22 88.7 150.524 88.172C150.844 87.628 151.356 87.196 152.06 86.876C152.78 86.54 153.74 86.372 154.94 86.372H159.284V87.644H154.988C153.772 87.644 152.924 87.86 152.444 88.292C151.98 88.724 151.748 89.26 151.748 89.9C151.748 90.62 152.028 91.196 152.588 91.628C153.148 92.06 153.932 92.276 154.94 92.276C155.9 92.276 156.724 92.06 157.412 91.628C158.116 91.18 158.628 90.54 158.948 89.708L159.332 90.884C159.012 91.716 158.452 92.38 157.652 92.876C156.868 93.372 155.876 93.62 154.676 93.62ZM162.884 93.476L163.004 92.012C163.116 92.028 163.22 92.052 163.316 92.084C163.428 92.1 163.524 92.108 163.604 92.108C164.116 92.108 164.524 91.916 164.828 91.532C165.148 91.148 165.388 90.636 165.548 89.996C165.708 89.356 165.82 88.636 165.884 87.836C165.948 87.02 166.004 86.204 166.052 85.388L166.268 80.9H175.508V93.5H173.804V81.884L174.236 82.388H167.372L167.78 81.86L167.588 85.508C167.54 86.596 167.452 87.636 167.324 88.628C167.212 89.62 167.028 90.492 166.772 91.244C166.532 91.996 166.196 92.588 165.764 93.02C165.332 93.436 164.78 93.644 164.108 93.644C163.916 93.644 163.716 93.628 163.508 93.596C163.316 93.564 163.108 93.524 162.884 93.476Z" fill="#84BC33"/>
</svg>
