<svg width="256" height="170" viewBox="0 0 256 170" fill="none" xmlns="http://www.w3.org/2000/svg">
<path d="M56.1572 94V81.4H57.8612V86.968H65.8052V81.4H67.5092V94H65.8052V88.432H57.8612V94H56.1572ZM80.1765 94V91.216L80.1045 90.76V86.104C80.1045 85.032 79.8005 84.208 79.1925 83.632C78.6005 83.056 77.7125 82.768 76.5285 82.768C75.7125 82.768 74.9365 82.904 74.2005 83.176C73.4645 83.448 72.8405 83.808 72.3285 84.256L71.5605 82.984C72.2005 82.44 72.9685 82.024 73.8645 81.736C74.7605 81.432 75.7045 81.28 76.6965 81.28C78.3285 81.28 79.5845 81.688 80.4645 82.504C81.3605 83.304 81.8085 84.528 81.8085 86.176V94H80.1765ZM75.8325 94.12C74.8885 94.12 74.0645 93.968 73.3605 93.664C72.6725 93.344 72.1445 92.912 71.7765 92.368C71.4085 91.808 71.2245 91.168 71.2245 90.448C71.2245 89.792 71.3765 89.2 71.6805 88.672C72.0005 88.128 72.5125 87.696 73.2165 87.376C73.9365 87.04 74.8965 86.872 76.0965 86.872H80.4405V88.144H76.1445C74.9285 88.144 74.0805 88.36 73.6005 88.792C73.1365 89.224 72.9045 89.76 72.9045 90.4C72.9045 91.12 73.1845 91.696 73.7445 92.128C74.3045 92.56 75.0885 92.776 76.0965 92.776C77.0565 92.776 77.8805 92.56 78.5685 92.128C79.2725 91.68 79.7845 91.04 80.1045 90.208L80.4885 91.384C80.1685 92.216 79.6085 92.88 78.8085 93.376C78.0245 93.872 77.0325 94.12 75.8325 94.12ZM94.6247 92.512L94.2407 92.968V81.4H95.9447V92.968L95.4887 92.512H102.521L102.065 92.968V81.4H103.769V94H86.3447V81.4H88.0487V92.968L87.6167 92.512H94.6247ZM116.434 94V91.216L116.362 90.76V86.104C116.362 85.032 116.058 84.208 115.45 83.632C114.858 83.056 113.97 82.768 112.786 82.768C111.97 82.768 111.194 82.904 110.458 83.176C109.722 83.448 109.098 83.808 108.586 84.256L107.818 82.984C108.458 82.44 109.226 82.024 110.122 81.736C111.018 81.432 111.962 81.28 112.954 81.28C114.586 81.28 115.842 81.688 116.722 82.504C117.618 83.304 118.066 84.528 118.066 86.176V94H116.434ZM112.09 94.12C111.146 94.12 110.322 93.968 109.618 93.664C108.93 93.344 108.402 92.912 108.034 92.368C107.666 91.808 107.482 91.168 107.482 90.448C107.482 89.792 107.634 89.2 107.938 88.672C108.258 88.128 108.77 87.696 109.474 87.376C110.194 87.04 111.154 86.872 112.354 86.872H116.698V88.144H112.402C111.186 88.144 110.338 88.36 109.858 88.792C109.394 89.224 109.162 89.76 109.162 90.4C109.162 91.12 109.442 91.696 110.002 92.128C110.562 92.56 111.346 92.776 112.354 92.776C113.314 92.776 114.138 92.56 114.826 92.128C115.53 91.68 116.042 91.04 116.362 90.208L116.746 91.384C116.426 92.216 115.866 92.88 115.066 93.376C114.282 93.872 113.29 94.12 112.09 94.12ZM134.164 94.12C132.916 94.12 131.796 93.848 130.804 93.304C129.828 92.744 129.06 91.984 128.5 91.024C127.94 90.048 127.66 88.936 127.66 87.688C127.66 86.424 127.94 85.312 128.5 84.352C129.06 83.392 129.828 82.64 130.804 82.096C131.796 81.552 132.916 81.28 134.164 81.28C135.236 81.28 136.204 81.488 137.068 81.904C137.932 82.32 138.612 82.944 139.108 83.776L137.836 84.64C137.404 84 136.868 83.528 136.228 83.224C135.588 82.92 134.892 82.768 134.14 82.768C133.244 82.768 132.436 82.976 131.716 83.392C130.996 83.792 130.428 84.36 130.012 85.096C129.596 85.832 129.388 86.696 129.388 87.688C129.388 88.68 129.596 89.544 130.012 90.28C130.428 91.016 130.996 91.592 131.716 92.008C132.436 92.408 133.244 92.608 134.14 92.608C134.892 92.608 135.588 92.456 136.228 92.152C136.868 91.848 137.404 91.384 137.836 90.76L139.108 91.624C138.612 92.44 137.932 93.064 137.068 93.496C136.204 93.912 135.236 94.12 134.164 94.12ZM142.407 94V81.4H144.111V92.512H151.815V81.4H153.519V94H142.407ZM153.951 97.048V93.856L154.383 94H151.815V92.512H155.559V97.048H153.951ZM164.213 94.12C162.901 94.12 161.749 93.848 160.757 93.304C159.765 92.744 158.989 91.984 158.429 91.024C157.869 90.048 157.589 88.936 157.589 87.688C157.589 86.44 157.853 85.336 158.381 84.376C158.925 83.416 159.661 82.664 160.589 82.12C161.533 81.56 162.589 81.28 163.757 81.28C164.941 81.28 165.989 81.552 166.901 82.096C167.829 82.624 168.557 83.376 169.085 84.352C169.613 85.312 169.877 86.424 169.877 87.688C169.877 87.768 169.869 87.856 169.853 87.952C169.853 88.032 169.853 88.12 169.853 88.216H158.885V86.944H168.941L168.269 87.448C168.269 86.536 168.069 85.728 167.669 85.024C167.285 84.304 166.757 83.744 166.085 83.344C165.413 82.944 164.637 82.744 163.757 82.744C162.893 82.744 162.117 82.944 161.429 83.344C160.741 83.744 160.205 84.304 159.821 85.024C159.437 85.744 159.245 86.568 159.245 87.496V87.76C159.245 88.72 159.453 89.568 159.869 90.304C160.301 91.024 160.893 91.592 161.645 92.008C162.413 92.408 163.285 92.608 164.261 92.608C165.029 92.608 165.741 92.472 166.397 92.2C167.069 91.928 167.645 91.512 168.125 90.952L169.085 92.056C168.525 92.728 167.821 93.24 166.973 93.592C166.141 93.944 165.221 94.12 164.213 94.12ZM173.649 94V81.4H175.353V86.968H183.297V81.4H185.001V94H183.297V88.432H175.353V94H173.649ZM197.669 94V91.216L197.597 90.76V86.104C197.597 85.032 197.293 84.208 196.685 83.632C196.093 83.056 195.205 82.768 194.021 82.768C193.205 82.768 192.429 82.904 191.693 83.176C190.957 83.448 190.333 83.808 189.821 84.256L189.053 82.984C189.693 82.44 190.461 82.024 191.357 81.736C192.253 81.432 193.197 81.28 194.189 81.28C195.821 81.28 197.077 81.688 197.957 82.504C198.853 83.304 199.301 84.528 199.301 86.176V94H197.669ZM193.325 94.12C192.381 94.12 191.557 93.968 190.853 93.664C190.165 93.344 189.637 92.912 189.269 92.368C188.901 91.808 188.717 91.168 188.717 90.448C188.717 89.792 188.869 89.2 189.173 88.672C189.493 88.128 190.005 87.696 190.709 87.376C191.429 87.04 192.389 86.872 193.589 86.872H197.933V88.144H193.637C192.421 88.144 191.573 88.36 191.093 88.792C190.629 89.224 190.397 89.76 190.397 90.4C190.397 91.12 190.677 91.696 191.237 92.128C191.797 92.56 192.581 92.776 193.589 92.776C194.549 92.776 195.373 92.56 196.061 92.128C196.765 91.68 197.277 91.04 197.597 90.208L197.981 91.384C197.661 92.216 197.101 92.88 196.301 93.376C195.517 93.872 194.525 94.12 193.325 94.12Z" fill="#84BC33"/>
</svg>
