<svg width="257" height="171" viewBox="0 0 257 171" fill="none" xmlns="http://www.w3.org/2000/svg">
<path d="M37.1391 85.38V75.5618H38.6476V79.8317H39.6448L43.1732 75.5618H45.1164L41.1533 80.2919L45.1675 85.38H43.2243L40.0027 81.238H38.6476V85.38H37.1391ZM50.3914 85.5846C49.505 85.5846 48.7274 85.3736 48.0583 84.9517C47.3935 84.5299 46.8737 83.9397 46.4987 83.1811C46.1279 82.4226 45.9425 81.5363 45.9425 80.5221C45.9425 79.4993 46.1279 78.6066 46.4987 77.8438C46.8737 77.081 47.3935 76.4887 48.0583 76.0668C48.7274 75.6449 49.505 75.434 50.3914 75.434C51.2778 75.434 52.0533 75.6449 52.7181 76.0668C53.3872 76.4887 53.907 77.081 54.2778 77.8438C54.6528 78.6066 54.8403 79.4993 54.8403 80.5221C54.8403 81.5363 54.6528 82.4226 54.2778 83.1811C53.907 83.9397 53.3872 84.5299 52.7181 84.9517C52.0533 85.3736 51.2778 85.5846 50.3914 85.5846ZM50.3914 84.2294C51.0647 84.2294 51.6187 84.0569 52.0533 83.7117C52.488 83.3665 52.8097 82.9127 53.0185 82.3502C53.2274 81.7877 53.3318 81.1783 53.3318 80.5221C53.3318 79.8658 53.2274 79.2543 53.0185 78.6875C52.8097 78.1208 52.488 77.6627 52.0533 77.3132C51.6187 76.9638 51.0647 76.7891 50.3914 76.7891C49.7181 76.7891 49.1641 76.9638 48.7295 77.3132C48.2948 77.6627 47.9731 78.1208 47.7643 78.6875C47.5555 79.2543 47.4511 79.8658 47.4511 80.5221C47.4511 81.1783 47.5555 81.7877 47.7643 82.3502C47.9731 82.9127 48.2948 83.3665 48.7295 83.7117C49.1641 84.0569 49.7181 84.2294 50.3914 84.2294ZM62.5123 83.3346L65.9385 75.5618H67.3703L63.126 85.38H61.8987L57.7311 75.5618H59.1373L62.5123 83.3346ZM58.6515 75.5618V85.38H57.143V75.5618H58.6515ZM66.3731 85.38V75.5618H67.8816V85.38H66.3731ZM77.214 79.7806V81.1868H71.7936V79.7806H77.214ZM72.1515 75.5618V85.38H70.643V75.5618H72.1515ZM78.3646 75.5618V85.38H76.8561V75.5618H78.3646ZM84.0088 85.6101C83.3866 85.6101 82.822 85.4929 82.3149 85.2586C81.8078 85.0199 81.4051 84.6769 81.1068 84.2294C80.8085 83.7777 80.6593 83.2323 80.6593 82.5931C80.6593 82.0306 80.7701 81.5746 80.9917 81.2252C81.2133 80.8715 81.5095 80.5945 81.8802 80.3942C82.251 80.1939 82.6601 80.0448 83.1075 79.9468C83.5592 79.8445 84.013 79.7635 84.469 79.7039C85.0656 79.6272 85.5493 79.5696 85.92 79.5313C86.295 79.4887 86.5677 79.4184 86.7382 79.3203C86.9129 79.2223 87.0003 79.0519 87.0003 78.809V78.7578C87.0003 78.1272 86.8277 77.6371 86.4825 77.2877C86.1416 76.9382 85.6238 76.7635 84.9292 76.7635C84.2091 76.7635 83.6444 76.9212 83.2353 77.2365C82.8262 77.5519 82.5386 77.8885 82.3724 78.2465L80.9406 77.7351C81.1963 77.1385 81.5372 76.674 81.9633 76.3417C82.3937 76.005 82.8625 75.7706 83.3696 75.6385C83.8809 75.5022 84.3838 75.434 84.8781 75.434C85.1934 75.434 85.5557 75.4723 85.9647 75.549C86.3781 75.6215 86.7765 75.7728 87.1601 76.0029C87.5478 76.233 87.8696 76.5803 88.1253 77.0448C88.3809 77.5093 88.5088 78.1314 88.5088 78.9113V85.38H87.0003V84.0505H86.9236C86.8213 84.2635 86.6508 84.4915 86.4122 84.7344C86.1736 84.9773 85.8561 85.184 85.4598 85.3544C85.0635 85.5249 84.5798 85.6101 84.0088 85.6101ZM84.2389 84.255C84.8355 84.255 85.3383 84.1378 85.7474 83.9034C86.1608 83.6691 86.4718 83.3665 86.6807 82.9958C86.8937 82.625 87.0003 82.2351 87.0003 81.826V80.4453C86.9363 80.5221 86.7957 80.5924 86.5784 80.6563C86.3653 80.7159 86.1182 80.7692 85.8369 80.8161C85.5599 80.8587 85.2893 80.8971 85.0251 80.9311C84.7652 80.961 84.5542 80.9865 84.3923 81.0078C84.0003 81.059 83.6338 81.1421 83.2929 81.2571C82.9562 81.3679 82.6835 81.5363 82.4747 81.7621C82.2701 81.9837 82.1679 82.2863 82.1679 82.6698C82.1679 83.1939 82.3618 83.5902 82.7495 83.8587C83.1416 84.1229 83.638 84.255 84.2389 84.255ZM89.9262 76.9681V75.5618H97.9035V76.9681H94.6819V85.38H93.1734V76.9681H89.9262ZM102.483 85.6101C101.861 85.6101 101.297 85.4929 100.789 85.2586C100.282 85.0199 99.8797 84.6769 99.5814 84.2294C99.2831 83.7777 99.134 83.2323 99.134 82.5931C99.134 82.0306 99.2448 81.5746 99.4663 81.2252C99.6879 80.8715 99.9841 80.5945 100.355 80.3942C100.726 80.1939 101.135 80.0448 101.582 79.9468C102.034 79.8445 102.488 79.7635 102.944 79.7039C103.54 79.6272 104.024 79.5696 104.395 79.5313C104.77 79.4887 105.042 79.4184 105.213 79.3203C105.388 79.2223 105.475 79.0519 105.475 78.809V78.7578C105.475 78.1272 105.302 77.6371 104.957 77.2877C104.616 76.9382 104.098 76.7635 103.404 76.7635C102.684 76.7635 102.119 76.9212 101.71 77.2365C101.301 77.5519 101.013 77.8885 100.847 78.2465L99.4152 77.7351C99.6709 77.1385 100.012 76.674 100.438 76.3417C100.868 76.005 101.337 75.7706 101.844 75.6385C102.356 75.5022 102.858 75.434 103.353 75.434C103.668 75.434 104.03 75.4723 104.439 75.549C104.853 75.6215 105.251 75.7728 105.635 76.0029C106.022 76.233 106.344 76.5803 106.6 77.0448C106.856 77.5093 106.983 78.1314 106.983 78.9113V85.38H105.475V84.0505H105.398C105.296 84.2635 105.125 84.4915 104.887 84.7344C104.648 84.9773 104.331 85.184 103.934 85.3544C103.538 85.5249 103.054 85.6101 102.483 85.6101ZM102.714 84.255C103.31 84.255 103.813 84.1378 104.222 83.9034C104.635 83.6691 104.946 83.3665 105.155 82.9958C105.368 82.625 105.475 82.2351 105.475 81.826V80.4453C105.411 80.5221 105.27 80.5924 105.053 80.6563C104.84 80.7159 104.593 80.7692 104.312 80.8161C104.035 80.8587 103.764 80.8971 103.5 80.9311C103.24 80.961 103.029 80.9865 102.867 81.0078C102.475 81.059 102.108 81.1421 101.767 81.2571C101.431 81.3679 101.158 81.5363 100.949 81.7621C100.745 81.9837 100.642 82.2863 100.642 82.6698C100.642 83.1939 100.836 83.5902 101.224 83.8587C101.616 84.1229 102.113 84.255 102.714 84.255ZM113.751 88.1925V83.9738H114.569C114.769 83.7649 114.942 83.5391 115.087 83.2962C115.232 83.0533 115.357 82.7657 115.464 82.4333C115.575 82.0966 115.669 81.6875 115.745 81.206C115.822 80.7202 115.89 80.1343 115.95 79.4482L116.282 75.5618H122.521V83.9738H124.029V88.1925H122.521V85.38H115.259V88.1925H113.751ZM116.282 83.9738H121.012V76.9681H117.688L117.433 79.4482C117.326 80.4752 117.194 81.3722 117.036 82.1392C116.879 82.9063 116.627 83.5178 116.282 83.9738ZM125.162 85.38V83.9738H125.52C125.814 83.9738 126.059 83.9162 126.255 83.8012C126.451 83.6819 126.609 83.4752 126.728 83.1811C126.852 82.8828 126.946 82.4695 127.01 81.9411C127.078 81.4084 127.127 80.7309 127.157 79.9084L127.336 75.5618H133.881V85.38H132.373V76.9681H128.767L128.614 80.4709C128.58 81.2763 128.508 81.9858 128.397 82.5995C128.29 83.2088 128.126 83.7202 127.905 84.1336C127.687 84.5469 127.397 84.858 127.035 85.0668C126.673 85.2756 126.219 85.38 125.674 85.38H125.162ZM142.555 85.38V76.9425H139.947C139.359 76.9425 138.897 77.0789 138.56 77.3516C138.223 77.6243 138.055 77.9993 138.055 78.4766C138.055 78.9453 138.206 79.314 138.509 79.5824C138.816 79.8509 139.236 79.9851 139.768 79.9851H142.939V81.3914H139.768C139.103 81.3914 138.53 81.2742 138.049 81.0398C137.567 80.8054 137.196 80.4709 136.937 80.0363C136.677 79.5973 136.547 79.0774 136.547 78.4766C136.547 77.8715 136.683 77.3516 136.956 76.9169C137.228 76.4823 137.618 76.1478 138.125 75.9134C138.637 75.679 139.244 75.5618 139.947 75.5618H143.987V85.38H142.555ZM136.01 85.38L138.797 80.4965H140.433L137.646 85.38H136.01ZM151.205 82.8743H152.816C152.85 83.3175 153.05 83.6542 153.417 83.8843C153.788 84.1144 154.269 84.2294 154.861 84.2294C155.467 84.2294 155.984 84.1059 156.415 83.8587C156.845 83.6073 157.06 83.2024 157.06 82.6442C157.06 82.3161 156.979 82.0306 156.817 81.7877C156.655 81.5405 156.427 81.3488 156.133 81.2124C155.839 81.076 155.492 81.0078 155.092 81.0078H153.404V79.6527H155.092C155.692 79.6527 156.136 79.5164 156.421 79.2436C156.711 78.9709 156.856 78.63 156.856 78.2209C156.856 77.782 156.7 77.4304 156.389 77.1662C156.078 76.8978 155.637 76.7635 155.066 76.7635C154.491 76.7635 154.011 76.8935 153.628 77.1534C153.244 77.4091 153.042 77.7394 153.02 78.1442H151.435C151.452 77.6158 151.614 77.1492 151.921 76.7444C152.228 76.3353 152.645 76.0157 153.174 75.7855C153.702 75.5512 154.307 75.434 154.989 75.434C155.68 75.434 156.278 75.5554 156.785 75.7983C157.297 76.037 157.691 76.363 157.968 76.7763C158.249 77.1854 158.39 77.6499 158.39 78.1698C158.39 78.7238 158.234 79.1712 157.923 79.5121C157.612 79.853 157.222 80.0959 156.753 80.2408V80.3431C157.124 80.3686 157.446 80.488 157.719 80.701C157.996 80.9098 158.211 81.1847 158.364 81.5256C158.518 81.8622 158.594 82.2351 158.594 82.6442C158.594 83.2408 158.435 83.7607 158.115 84.2039C157.795 84.6428 157.356 84.9837 156.798 85.2266C156.24 85.4652 155.603 85.5846 154.887 85.5846C154.192 85.5846 153.57 85.4716 153.02 85.2458C152.471 85.0157 152.034 84.6982 151.71 84.2934C151.391 83.8843 151.222 83.4113 151.205 82.8743ZM163.603 85.6101C162.98 85.6101 162.416 85.4929 161.909 85.2586C161.402 85.0199 160.999 84.6769 160.701 84.2294C160.402 83.7777 160.253 83.2323 160.253 82.5931C160.253 82.0306 160.364 81.5746 160.585 81.2252C160.807 80.8715 161.103 80.5945 161.474 80.3942C161.845 80.1939 162.254 80.0448 162.701 79.9468C163.153 79.8445 163.607 79.7635 164.063 79.7039C164.659 79.6272 165.143 79.5696 165.514 79.5313C165.889 79.4887 166.161 79.4184 166.332 79.3203C166.507 79.2223 166.594 79.0519 166.594 78.809V78.7578C166.594 78.1272 166.421 77.6371 166.076 77.2877C165.735 76.9382 165.218 76.7635 164.523 76.7635C163.803 76.7635 163.238 76.9212 162.829 77.2365C162.42 77.5519 162.132 77.8885 161.966 78.2465L160.534 77.7351C160.79 77.1385 161.131 76.674 161.557 76.3417C161.987 76.005 162.456 75.7706 162.963 75.6385C163.475 75.5022 163.978 75.434 164.472 75.434C164.787 75.434 165.149 75.4723 165.558 75.549C165.972 75.6215 166.37 75.7728 166.754 76.0029C167.142 76.233 167.463 76.5803 167.719 77.0448C167.975 77.5093 168.103 78.1314 168.103 78.9113V85.38H166.594V84.0505H166.517C166.415 84.2635 166.245 84.4915 166.006 84.7344C165.767 84.9773 165.45 85.184 165.054 85.3544C164.657 85.5249 164.174 85.6101 163.603 85.6101ZM163.833 84.255C164.429 84.255 164.932 84.1378 165.341 83.9034C165.755 83.6691 166.066 83.3665 166.274 82.9958C166.487 82.625 166.594 82.2351 166.594 81.826V80.4453C166.53 80.5221 166.389 80.5924 166.172 80.6563C165.959 80.7159 165.712 80.7692 165.431 80.8161C165.154 80.8587 164.883 80.8971 164.619 80.9311C164.359 80.961 164.148 80.9865 163.986 81.0078C163.594 81.059 163.228 81.1421 162.887 81.2571C162.55 81.3679 162.277 81.5363 162.068 81.7621C161.864 81.9837 161.762 82.2863 161.762 82.6698C161.762 83.1939 161.956 83.5902 162.343 83.8587C162.735 84.1229 163.232 84.255 163.833 84.255ZM177.427 79.7806V81.1868H172.006V79.7806H177.427ZM172.364 75.5618V85.38H170.856V75.5618H172.364ZM178.577 75.5618V85.38H177.069V75.5618H178.577ZM187.239 85.38V76.9425H184.631C184.043 76.9425 183.58 77.0789 183.244 77.3516C182.907 77.6243 182.739 77.9993 182.739 78.4766C182.739 78.9453 182.89 79.314 183.193 79.5824C183.499 79.8509 183.919 79.9851 184.452 79.9851H187.622V81.3914H184.452C183.787 81.3914 183.214 81.2742 182.732 81.0398C182.251 80.8054 181.88 80.4709 181.62 80.0363C181.36 79.5973 181.23 79.0774 181.23 78.4766C181.23 77.8715 181.367 77.3516 181.639 76.9169C181.912 76.4823 182.302 76.1478 182.809 75.9134C183.32 75.679 183.928 75.5618 184.631 75.5618H188.671V85.38H187.239ZM180.693 85.38L183.48 80.4965H185.117L182.33 85.38H180.693ZM190.104 76.9681V75.5618H198.081V76.9681H194.86V85.38H193.351V76.9681H190.104ZM201.79 83.1556L206.52 75.5618H208.259V85.38H206.75V77.7863L202.046 85.38H200.282V75.5618H201.79V83.1556ZM212.53 83.1556L217.261 75.5618H218.999V85.38H217.491V77.7863L212.786 85.38H211.022V75.5618H212.53V83.1556ZM216.263 72.2891H217.67C217.67 72.9794 217.431 73.5441 216.954 73.983C216.476 74.4219 215.829 74.6414 215.011 74.6414C214.205 74.6414 213.564 74.4219 213.087 73.983C212.614 73.5441 212.377 72.9794 212.377 72.2891H213.783C213.783 72.6215 213.875 72.9134 214.058 73.1648C214.246 73.4162 214.563 73.5419 215.011 73.5419C215.458 73.5419 215.778 73.4162 215.969 73.1648C216.165 72.9134 216.263 72.6215 216.263 72.2891Z" fill="#84BC33"/>
</svg>
