<svg width="835" height="401" viewBox="0 0 835 401" fill="none" xmlns="http://www.w3.org/2000/svg">
<path d="M97.4391 112.02C104.201 110.89 118.355 109.751 129.64 105.011C129.114 119.473 133.012 153.57 152.813 174.258C148.249 165.201 138.768 123.127 148.225 107.004L182.109 89.9303C175.079 115.715 165.388 172.465 182.863 193.19C187.411 163.45 197.134 99.396 199.634 81.0991C212.84 78.231 243.011 68.3282 258.054 51.662C267.445 70.2973 290.949 106.041 311.886 104.681C312.762 104.506 313.457 104.419 313.942 104.425C313.26 104.552 312.574 104.636 311.886 104.681C300.1 107.039 255.501 125.408 246.066 149.985C239.191 159.601 245.847 172.811 236.5 177.521C247.559 176.207 305.545 131.372 318.506 113.483C325.254 117.181 337.438 127.794 332.199 140.657C293.424 162.561 215.956 210.02 216.281 224.621C210.756 234.977 208.014 250.083 241.252 227.656C238.399 221.995 342.496 158.184 349.616 143.238L375.289 194.189L249.102 257.773C252.145 263.812 272.36 269.621 328.878 244.55L373.277 222.178C379.227 228.171 388.073 243.401 375.856 256.371C339.327 286.609 253.134 346.604 200.596 344.683C201.359 305.492 189.293 250.146 134.924 342.281C92.4482 305.476 12.1062 224.147 30.5411 193.278C31.0035 185.473 35.4117 170.38 49.3449 172.445C66.7615 175.027 90.3406 262.526 110.203 252.518C126.094 244.511 92.3204 177.292 73.4475 144.683L81.7357 129.149C88.328 149.016 104.974 191.549 118.82 202.745C132.665 213.941 110.28 147.195 97.4391 112.02Z" fill="#678E30"/>
<path d="M219.883 146.337C202.84 186.66 162.754 274.62 138.752 303.879" stroke="#96B25D" stroke-width="2" stroke-linecap="round"/>
<path d="M128.652 157.441C142.053 184.651 168.195 242.904 165.548 258.241C162.902 273.578 266.028 226.013 317.923 200.313" stroke="#96B25D" stroke-width="2" stroke-linecap="round"/>
<path d="M654.466 88.1961C679.289 65.4181 700.304 76.7876 705.811 79.1366C695.677 87.326 678.755 126.362 673.458 151.039C693.375 162.141 708.378 116.022 705.439 125.196C703.089 132.535 709.972 171.393 709.112 193.618C690.349 203.34 670.697 201.996 663.217 200.108C664.279 218.287 694.438 219.074 709.385 217.195C707.418 220.483 703.577 229.706 703.943 240.289C692.45 246.856 655.112 229.887 637.88 220.582C641.526 239.733 682.622 259.217 688.565 266.314C675.949 296.905 682.524 303.49 687.389 302.958C669.471 311.998 627.24 279.039 608.364 261.43C582.018 284.079 557.77 223.557 548.94 190.465L561.608 180.228C574.342 195.435 613.675 187.448 611.313 174.059C609.424 163.347 586.539 166.315 575.333 169.138C575.611 145.797 628.522 108.027 639.997 99.888C627.895 165.759 681.75 117.142 654.466 88.1961Z" fill="#769E40"/>
<path d="M672.559 122.391C663.483 143.612 641.724 188.933 627.298 200.456" stroke="#96B25D" stroke-width="2" stroke-linecap="round"/>
<path d="M621.149 144.608C622.062 153.925 628.012 173.382 644.513 176.677" stroke="#96B25D" stroke-width="2" stroke-linecap="round"/>
<path d="M423.958 90.7724C420.309 74.5174 457.852 53.1237 460.396 53.111C454.374 68.9215 476.353 87.0568 466.724 94.5023C457.095 101.948 465.29 111.769 469.87 111.746C473.534 111.728 481.147 95.2516 484.495 87.0158C488.958 84.2318 500.027 104.855 505.003 115.514L484.759 136.328C466.525 152.2 473.528 161.37 479.31 163.971C493.539 160.349 506.192 147.562 510.741 141.622C515.242 145.938 520.547 167.379 522.637 177.56C520.239 185.857 496.603 193.965 485.084 196.982C478.588 200.17 484.441 203.56 488.18 204.856C497.382 212.7 521.723 196.797 525.794 196.777C529.05 196.76 533.345 213.176 535.085 221.387C531.453 227.322 509.86 230.554 499.518 231.428C508.516 239.273 530.05 231.275 539.692 226.295C555.67 245.151 529.256 273.03 514.051 284.613C476.533 272.573 463.664 251.498 461.92 242.466C459.672 278.772 432.679 293.571 419.463 296.432C381.534 283.604 379.02 251.431 382.505 236.948C396.363 240.035 417.991 211.784 427.074 197.274C424.203 193.343 394.076 212.234 379.372 222.17L382.367 211.306C389.271 208.115 413.283 187.809 424.426 178.055C428.822 162.647 398.169 184.598 382.293 197.499C377.737 182.925 388.679 154.564 394.719 142.205C398.861 155.499 434.453 149.896 424.273 149.454C416.129 149.1 404.55 140.841 399.779 136.756C396.482 129.277 410.821 108.263 418.403 98.6905C417.216 105.009 428.473 110.146 434.249 111.925C437.063 105.205 428.561 95.0231 423.958 90.7724Z" fill="#678E30"/>
<path d="M448.704 105.616C447.638 108.368 450.108 214.122 461.821 234.077" stroke="#96B25D" stroke-width="2" stroke-linecap="round"/>
<path d="M498.979 173.935C489.19 180.657 464.597 192.665 452.087 188.913" stroke="#96B25D" stroke-width="2" stroke-linecap="round"/>
<path d="M416.338 121.333C419.874 128.587 431.473 144.097 449.583 148.102" stroke="#96B25D" stroke-width="2" stroke-linecap="round"/>
</svg>
