<svg width="415" height="242" viewBox="0 0 415 242" fill="none" xmlns="http://www.w3.org/2000/svg">
<path d="M262.028 139.043C270.202 120.323 285.273 121.781 289.055 121.807C285.422 128.823 286.101 154.857 289.626 170.04C303.996 171.607 300.334 142.026 301.089 147.899C301.693 152.598 315.972 172.912 321.389 185.663C313.217 195.582 301.594 199.462 296.803 200.162C302.246 210.175 319.745 203.499 327.814 198.91C327.561 201.231 327.811 207.345 330.835 213.234C325.993 219.655 300.075 218.889 287.722 217.703C294.905 227.655 323.645 228.954 328.939 231.557C329.841 251.808 335.362 253.973 338.009 252.524C330.141 261.858 297.166 253.22 281.663 247.734C272.581 266.741 242.588 238.295 228.726 221.696L233.267 212.926C244.61 218.505 265.035 204.71 260.121 197.708C256.19 192.107 243.859 199.185 238.185 203.425C232.138 190.18 252.428 156.365 256.842 149.06C267.42 189.108 285.367 148.945 262.028 139.043Z" fill="#769E40"/>
<path d="M281.493 154.078C281.933 168.202 281.51 198.927 276.303 208.838" stroke="#96B25D" stroke-width="2" stroke-linecap="round"/>
<path d="M257.928 178.759C260.928 183.803 269.513 193.385 279.85 191.349" stroke="#96B25D" stroke-width="2" stroke-linecap="round"/>
<path d="M-18.1514 41.6787C-13.4638 43.1347 -4.04711 46.9665 4.69586 47.5717C-0.300125 56.6493 -8.79331 79.7063 -2.79813 99.3139C-2.79813 92.0518 4.69585 62.0958 15.9368 54.8338H43.1025C30.3003 69.0553 5.81995 102.219 10.3163 121.1C22.8063 103.55 49.6597 65.7269 57.1537 54.8338C66.5211 57.2544 89.0031 60.6434 103.991 54.8338C103.991 69.7744 107.503 100.201 121.329 106.077C121.945 106.248 122.417 106.416 122.726 106.576C122.249 106.437 121.783 106.271 121.329 106.077C113.033 103.788 78.5988 101.164 64.6476 113.838C57.1537 117.772 57.1537 128.362 49.6597 128.362C57.1537 131.085 108.675 121.1 122.726 113.838C125.848 118.377 130.22 129.088 122.726 135.624C90.8766 137.137 26.0537 142.523 21.5573 151.964C14.6878 156.805 8.06813 165.58 36.5452 161.949C36.5452 157.41 123.663 150.148 133.03 142.886V183.735H31.8615C31.8615 188.577 42.9151 198.804 87.1295 200.983H122.726C124.599 206.732 125.349 219.32 113.358 223.677C80.2601 231.241 5.81995 241.832 -27.1535 223.677C-14.0391 198.865 -3.9222 159.589 -68.3704 200.983C-83.6706 163.765 -108.838 85.8791 -87.1054 72.0812C-84.2951 67.2398 -76.6137 59.0094 -68.3704 64.8191C-58.0662 72.0812 -71.1807 135.624 -55.256 135.624C-42.5162 135.624 -42.4538 81.7639 -44.015 54.8338L-33.7108 47.5717C-35.8965 62.3984 -38.9566 94.9567 -33.7108 106.576C-28.465 118.195 -21.2738 68.3063 -18.1514 41.6787Z" fill="#678E30"/>
<path d="M49.0816 103.071C25.1932 123.362 -28.7767 166.688 -53.5498 177.662" stroke="#96B25D" stroke-width="2" stroke-linecap="round"/>
<path d="M-12.8284 80.7766C-13.0259 102.492 -15.0794 148.161 -21.7131 157.114C-28.3467 166.068 52.9166 168.881 94.3774 169.168" stroke="#96B25D" stroke-width="2" stroke-linecap="round"/>
<path d="M310.627 75.5736C301.446 61.7882 328.466 29.4288 330.811 28.5628C330.902 45.1845 357.682 54.5527 351.452 64.6607C345.222 74.7687 356.301 81.0871 360.522 79.5283C363.898 78.2813 365.038 60.5108 365.186 51.7815C368.312 47.7123 385.906 63.0405 394.312 71.2133L383.059 97.2295C371.895 118.008 381.64 124.125 387.909 124.586C399.754 116.464 406.867 100.408 408.944 93.3956C414.644 95.8708 427.208 113.889 432.778 122.589C433.529 131.056 414.601 146.478 405.043 153.131C400.184 158.256 406.801 159.421 410.716 159.363C422.018 163.517 438.81 140.66 442.562 139.275C445.564 138.166 455.399 151.884 459.941 158.881C458.709 165.582 439.924 175.815 430.686 180.095C441.8 184.318 458.825 169.703 465.949 161.867C487.445 173.915 473.02 208.528 463.121 224.329C424.17 225.805 404.752 210.665 399.912 202.91C410.816 237.191 391.18 259.918 379.999 266.997C340.387 267.885 326.564 239.019 324.604 224.475C338.505 222.673 348.378 189.324 351.578 172.875C347.521 170.209 326.455 197.768 316.429 211.88L315.31 200.842C320.545 195.578 335.459 168.765 342.262 156.017C340.813 140.313 320.354 170.874 310.306 188.117C300.888 176.189 300.853 146.326 302.013 132.885C310.591 143.771 341.454 126.647 331.896 129.657C324.249 132.064 310.604 128.325 304.737 126.154C299.019 120.354 304.748 96.1351 308.328 84.7505C309.49 90.9835 321.722 91.9488 327.692 91.6522C327.888 84.5014 316.397 77.9537 310.627 75.5736Z" fill="#678E30"/>
<path d="M338.785 80.9736C338.785 83.8727 378.873 180.701 396.823 195.196" stroke="#96B25D" stroke-width="2" stroke-linecap="round"/>
<path d="M409.646 127.193C403.01 136.687 384.593 156.032 371.699 156.767" stroke="#96B25D" stroke-width="2" stroke-linecap="round"/>
<path d="M314.515 106.353C320.373 111.865 336.629 122.293 354.785 119.912" stroke="#96B25D" stroke-width="2" stroke-linecap="round"/>
<path d="M68.1328 145.999C68.9745 122.156 85.1536 117.202 89.0753 115.591C88.1714 124.774 99.4584 152.709 109.277 167.643C124.776 163.111 108.962 132.624 112.13 138.665C114.665 143.498 137.691 159.334 148.478 170.811C144.06 185.109 133.617 194.357 128.947 197.193C138.647 205.69 154.03 190.864 160.509 182.389C161.191 185.015 163.936 191.536 169.457 196.61C167.06 205.672 139.945 216.079 126.687 220.15C138.162 227.827 168.413 216.773 174.947 217.301C184.113 238.868 190.703 238.822 192.852 236.103C188.509 249.636 150.895 254.566 132.631 255.34C130.967 279.888 88.3819 262.048 67.2972 250.06L68.4271 238.582C82.4273 239.713 97.9421 215.899 90.0128 210.437C83.6694 206.068 73.7953 219.09 69.6512 226.147C58.0124 214.407 65.2472 168.943 66.8423 159.109C94.0645 197.947 96.2951 146.616 68.1328 145.999Z" fill="#769E40"/>
<path d="M94.3765 153.862C100.573 168.986 112.628 202.484 111.274 215.489" stroke="#96B25D" stroke-width="2" stroke-linecap="round"/>
<path d="M80.04 190.84C85.1944 195.01 97.9686 201.676 107.831 194.987" stroke="#96B25D" stroke-width="2" stroke-linecap="round"/>
<path d="M188.76 148.452C186.614 138.894 208.691 126.313 210.187 126.306C206.646 135.603 219.57 146.267 213.908 150.646C208.246 155.024 213.065 160.799 215.758 160.786C217.913 160.775 222.389 151.086 224.358 146.243C226.983 144.606 233.492 156.733 236.418 163.002L224.514 175.241C213.791 184.574 217.909 189.967 221.309 191.496C229.677 189.366 237.117 181.847 239.792 178.354C242.439 180.892 245.559 193.501 246.788 199.487C245.377 204.366 231.478 209.134 224.705 210.908C220.885 212.783 224.327 214.776 226.525 215.539C231.936 220.151 246.25 210.8 248.644 210.787C250.559 210.778 253.084 220.431 254.108 225.259C251.972 228.75 239.274 230.65 233.192 231.164C238.484 235.777 251.146 231.074 256.816 228.145C266.212 239.234 250.68 255.628 241.739 262.439C219.676 255.359 212.109 242.966 211.083 237.655C209.761 259.005 193.888 267.707 186.117 269.389C163.812 261.846 162.334 242.927 164.383 234.41C172.532 236.225 185.251 219.613 190.592 211.08C188.904 208.768 171.188 219.877 162.541 225.72L164.302 219.332C168.362 217.455 182.482 205.514 189.035 199.778C191.62 190.718 173.595 203.626 164.259 211.212C161.58 202.642 168.014 185.965 171.566 178.697C174.002 186.514 194.931 183.219 188.945 182.959C184.156 182.752 177.347 177.895 174.541 175.492C172.602 171.094 181.035 158.737 185.493 153.108C184.795 156.824 191.415 159.845 194.812 160.891C196.466 156.939 191.467 150.952 188.76 148.452Z" fill="#678E30"/>
<path d="M203.312 157.181C202.685 158.799 204.137 220.988 211.025 232.722" stroke="#96B25D" stroke-width="2" stroke-linecap="round"/>
<path d="M232.876 197.358C227.12 201.311 212.658 208.372 205.302 206.166" stroke="#96B25D" stroke-width="2" stroke-linecap="round"/>
<path d="M184.279 166.423C186.359 170.689 193.179 179.809 203.829 182.165" stroke="#96B25D" stroke-width="2" stroke-linecap="round"/>
</svg>
