<svg width="1281" height="338" viewBox="0 0 1281 338" fill="none" xmlns="http://www.w3.org/2000/svg">
<path d="M917.946 206.702C917.722 175.65 939.552 168.356 944.82 166.054C944.114 178.044 961.154 213.778 975.437 232.683C996.362 225.972 972.986 187.159 977.665 194.848C981.409 200.999 1013.8 220.381 1029.21 234.739C1023.99 253.565 1010.25 266.141 1004.03 270.076C1017.78 280.615 1037.95 260.525 1046.32 249.162C1047.4 252.541 1051.53 260.877 1059.37 267.185C1056.62 279.096 1020.15 294.058 1002.26 300.05C1018.39 309.428 1059.11 293.461 1068.07 293.804C1081.84 321.368 1090.85 320.961 1093.63 317.312C1088.47 335.14 1037.34 343.532 1012.42 345.5C1011.56 377.511 952.318 356.553 922.805 342.073L923.687 327.086C942.89 327.821 962.725 296.034 951.571 289.349C942.648 284.001 929.901 301.455 924.643 310.851C908.057 296.197 915.324 236.692 916.938 223.819C956.389 272.893 956.478 206.021 917.946 206.702Z" fill="#769E40"/>
<path d="M954.273 215.545C963.616 234.887 982.027 277.816 980.925 294.799" stroke="#96B25D" stroke-width="2" stroke-linecap="round"/>
<path d="M936.809 264.39C944.095 269.54 961.941 277.537 975.037 268.319" stroke="#96B25D" stroke-width="2" stroke-linecap="round"/>
<path d="M61.6232 52.8982C68.9567 55.176 83.6886 61.1707 97.3665 62.1175C89.5506 76.3189 76.2634 112.39 85.6426 143.065C85.6426 131.704 97.3665 84.8397 114.952 73.4786H157.452C137.423 95.7275 99.1251 147.61 106.159 177.149C125.699 149.693 167.71 90.5203 179.434 73.4786C194.089 77.2656 229.261 82.5674 252.709 73.4786C252.709 96.8525 258.203 144.454 279.832 153.647C280.797 153.913 281.536 154.176 282.019 154.427C281.272 154.21 280.544 153.949 279.832 153.647C266.854 150.064 212.984 145.959 191.158 165.788C179.434 171.942 179.434 188.51 167.71 188.51C179.434 192.77 260.036 177.149 282.019 165.788C286.903 172.888 293.742 189.646 282.019 199.871C232.192 202.238 130.78 210.664 123.745 225.434C112.998 233.008 102.642 246.736 147.193 241.055C147.193 233.955 283.484 222.593 298.139 211.232V275.139H139.866C139.866 282.713 157.159 298.713 226.33 302.121H282.019C284.949 311.116 286.122 330.808 267.364 337.625C215.583 349.459 99.1251 366.028 47.5398 337.625C68.0567 298.808 83.884 237.363 -16.9419 302.121C-40.8783 243.896 -80.2512 122.047 -46.2518 100.461C-41.8553 92.8872 -29.8381 80.0112 -16.9419 89.1001C-0.821495 100.461 -21.3384 199.871 3.57498 199.871C23.5057 199.871 23.6034 115.609 21.1609 73.4786L37.2813 62.1175C33.8618 85.3131 29.0745 136.249 37.2813 154.427C45.4881 172.604 56.7383 94.5557 61.6232 52.8982Z" fill="#678E30"/>
<path d="M166.806 148.943C129.434 180.687 45.0004 248.468 6.24414 265.637" stroke="#96B25D" stroke-width="2" stroke-linecap="round"/>
<path d="M69.9508 114.065C69.6418 148.038 66.4293 219.484 56.0513 233.492C45.6732 247.5 172.805 251.9 237.669 252.349" stroke="#96B25D" stroke-width="2" stroke-linecap="round"/>
<path d="M1072.62 123.492C1057.65 101.02 1101.7 48.2709 1105.52 46.8592C1105.67 73.9545 1149.32 89.2258 1139.17 105.703C1129.01 122.18 1147.07 132.48 1153.95 129.939C1159.46 127.906 1161.31 98.9382 1161.55 84.7084C1166.65 78.0751 1195.33 103.062 1209.03 116.385L1190.69 158.794C1172.49 192.665 1188.38 202.636 1198.6 203.387C1217.9 190.148 1229.5 163.975 1232.88 152.544C1242.18 156.579 1262.66 185.951 1271.74 200.133C1272.96 213.934 1242.11 239.074 1226.53 249.919C1218.6 258.274 1229.39 260.173 1235.77 260.079C1254.2 266.85 1281.57 229.591 1287.69 227.332C1292.58 225.525 1308.61 247.886 1316.02 259.293C1314.01 270.216 1283.39 286.898 1268.33 293.873C1286.44 300.758 1314.2 276.933 1325.81 264.16C1360.85 283.8 1337.34 340.223 1321.2 365.98C1257.71 368.387 1226.05 343.706 1218.16 331.065C1235.94 386.947 1203.93 423.995 1185.7 435.534C1121.13 436.981 1098.6 389.927 1095.4 366.219C1118.06 363.281 1134.16 308.919 1139.37 282.105C1132.76 277.759 1098.42 322.683 1082.07 345.687L1080.25 327.695C1088.78 319.113 1113.1 275.405 1124.19 254.623C1121.82 229.024 1088.47 278.842 1072.09 306.951C1056.74 287.506 1056.69 238.826 1058.58 216.917C1072.56 234.661 1122.87 206.748 1107.29 211.654C1094.82 215.579 1072.58 209.483 1063.02 205.944C1053.69 196.49 1063.03 157.01 1068.87 138.452C1070.76 148.612 1090.7 150.186 1100.44 149.702C1100.75 138.046 1082.02 127.372 1072.62 123.492Z" fill="#678E30"/>
<path d="M1118.52 132.295C1118.52 137.021 1183.87 294.862 1213.13 318.491" stroke="#96B25D" stroke-width="2" stroke-linecap="round"/>
<path d="M1234.03 207.639C1223.21 223.114 1193.19 254.649 1172.17 255.847" stroke="#96B25D" stroke-width="2" stroke-linecap="round"/>
<path d="M1078.95 173.666C1088.5 182.651 1115 199.65 1144.6 195.769" stroke="#96B25D" stroke-width="2" stroke-linecap="round"/>
<path d="M616.894 172.143C644.698 146.629 668.238 159.364 674.406 161.996C663.054 171.169 644.099 214.893 638.167 242.534C660.476 254.97 677.281 203.312 673.989 213.587C671.356 221.807 679.067 265.333 678.104 290.227C657.087 301.117 635.075 299.611 626.696 297.497C627.885 317.86 661.667 318.741 678.409 316.636C676.206 320.319 671.904 330.65 672.313 342.504C659.44 349.86 617.618 330.853 598.316 320.43C602.4 341.881 648.432 363.706 655.088 371.654C640.957 405.92 648.322 413.296 653.771 412.701C633.701 422.826 586.397 385.909 565.255 366.184C535.744 391.554 508.584 323.762 498.693 286.695L512.883 275.229C527.146 292.263 571.203 283.317 568.558 268.319C566.442 256.321 540.808 259.645 528.256 262.807C528.568 236.662 587.834 194.356 600.687 185.24C587.131 259.023 647.455 204.566 616.894 172.143Z" fill="#769E40"/>
<path d="M637.16 210.446C626.994 234.215 602.621 284.98 586.462 297.886" stroke="#96B25D" stroke-width="2" stroke-linecap="round"/>
<path d="M579.575 235.331C580.597 245.767 587.262 267.562 605.746 271.252" stroke="#96B25D" stroke-width="2" stroke-linecap="round"/>
<path d="M763.197 164.526C759.109 146.319 801.161 122.356 804.011 122.341C797.266 140.051 821.884 160.364 811.099 168.704C800.314 177.044 809.493 188.045 814.623 188.019C818.727 187.998 827.254 169.543 831.004 160.319C836.004 157.2 848.401 180.3 853.975 192.24L831.3 215.553C810.875 233.332 818.721 243.603 825.196 246.516C841.135 242.459 855.308 228.137 860.402 221.483C865.444 226.318 871.387 250.335 873.728 261.738C871.042 271.031 844.566 280.113 831.664 283.492C824.388 287.064 830.944 290.861 835.132 292.312C845.439 301.098 872.703 283.286 877.263 283.263C880.911 283.244 885.722 301.632 887.671 310.828C883.603 317.477 859.416 321.097 847.831 322.076C857.91 330.863 882.03 321.904 892.831 316.326C910.728 337.447 881.141 368.675 864.111 381.649C822.086 368.162 807.672 344.557 805.717 334.44C803.199 375.107 772.964 391.682 758.161 394.887C715.676 380.519 712.861 344.482 716.764 328.26C732.286 331.717 756.513 300.073 766.686 283.819C763.47 279.416 729.726 300.576 713.255 311.706L716.61 299.537C724.343 295.963 751.239 273.218 763.721 262.292C768.644 245.033 734.31 269.621 716.527 284.072C711.423 267.747 723.679 235.98 730.445 222.137C735.085 237.027 774.952 230.751 763.549 230.256C754.427 229.86 741.457 220.609 736.113 216.032C732.42 207.655 748.482 184.117 756.974 173.395C755.644 180.472 768.253 186.227 774.724 188.22C777.875 180.692 768.352 169.288 763.197 164.526Z" fill="#678E30"/>
<path d="M790.914 181.153C789.72 184.236 792.487 302.692 805.606 325.043" stroke="#96B25D" stroke-width="2" stroke-linecap="round"/>
<path d="M847.23 257.682C836.265 265.211 808.718 278.662 794.706 274.46" stroke="#96B25D" stroke-width="2" stroke-linecap="round"/>
<path d="M754.66 198.757C758.621 206.883 771.613 224.255 791.899 228.742" stroke="#96B25D" stroke-width="2" stroke-linecap="round"/>
<path d="M358.138 186.288C354.051 168.081 396.103 144.117 398.953 144.103C392.208 161.813 416.826 182.126 406.041 190.466C395.256 198.805 404.435 209.807 409.565 209.781C413.668 209.76 422.196 191.305 425.946 182.08C430.945 178.962 443.343 202.062 448.917 214.002L426.242 237.315C405.817 255.093 413.662 265.365 420.138 268.278C436.076 264.221 450.25 249.898 455.344 243.244C460.386 248.08 466.329 272.096 468.67 283.5C465.984 292.793 439.508 301.875 426.606 305.254C419.329 308.826 425.886 312.622 430.074 314.074C440.381 322.86 467.645 305.047 472.205 305.024C475.853 305.006 480.664 323.394 482.613 332.59C478.545 339.239 454.358 342.859 442.773 343.838C452.852 352.625 476.972 343.666 487.773 338.088C505.67 359.208 476.083 390.437 459.053 403.411C417.028 389.924 402.614 366.319 400.659 356.202C398.141 396.868 367.906 413.444 353.103 416.649C310.618 402.28 307.803 366.243 311.706 350.021C327.228 353.478 351.455 321.835 361.628 305.581C358.412 301.178 324.667 322.338 308.197 333.468L311.552 321.299C319.284 317.725 346.181 294.98 358.662 284.054C363.586 266.795 329.251 291.382 311.469 305.833C306.365 289.509 318.621 257.742 325.387 243.899C330.027 258.789 369.894 252.512 358.491 252.017C349.368 251.621 336.399 242.37 331.054 237.794C327.362 229.417 343.423 205.879 351.916 195.157C350.586 202.234 363.195 207.989 369.666 209.982C372.817 202.454 363.294 191.049 358.138 186.288Z" fill="#678E30"/>
<path d="M385.856 202.915C384.663 205.997 387.429 324.453 400.548 346.805" stroke="#96B25D" stroke-width="2" stroke-linecap="round"/>
<path d="M442.169 279.44C431.205 286.969 403.658 300.42 389.646 296.218" stroke="#96B25D" stroke-width="2" stroke-linecap="round"/>
<path d="M349.602 220.519C353.563 228.644 366.555 246.017 386.84 250.503" stroke="#96B25D" stroke-width="2" stroke-linecap="round"/>
</svg>
