<svg width="34" height="46" viewBox="0 0 34 46" fill="none" xmlns="http://www.w3.org/2000/svg">
<path fill-rule="evenodd" clip-rule="evenodd" d="M22.2631 4.18199C22.2518 4.29777 22.2469 4.41536 22.2485 4.5344C22.2497 4.61559 22.2539 4.69602 22.261 4.77558L22.1818 27.8283C19.4683 26.2225 15.6755 25.6347 11.7437 26.4836C4.92383 27.9559 0.268169 33.193 1.34502 38.1809C2.42186 43.1688 8.82344 46.0187 15.6433 44.5464C22.0191 43.1699 26.5033 38.5031 26.1805 33.8256L26.2705 7.62251L30.5335 7.56262C32.2699 7.53823 33.6577 6.11084 33.6333 4.37446C33.6089 2.63808 32.1815 1.25024 30.4451 1.27463L25.3484 1.34623C23.9274 1.3662 22.7398 2.32579 22.3686 3.6254L22.265 3.62505L22.2631 4.18199Z" fill="#84BC33"/>
</svg>
