<svg width="33" height="46" viewBox="0 0 33 46" fill="none" xmlns="http://www.w3.org/2000/svg">
<path fill-rule="evenodd" clip-rule="evenodd" d="M21.0941 4.13809C21.0839 4.25397 21.08 4.37159 21.0827 4.49061C21.0846 4.57179 21.0895 4.65218 21.0974 4.73167L21.2257 27.7842C18.4978 26.2029 14.6999 25.6493 10.7759 26.5335C3.96957 28.0672 -0.638757 33.3459 0.48295 38.324C1.60466 43.302 8.03163 46.0941 14.838 44.5604C21.2011 43.1266 25.6431 38.4196 25.2782 33.7452L25.1323 7.54239L29.3946 7.44413C31.1307 7.40411 32.5056 5.96428 32.4656 4.22819C32.4256 2.4921 30.9857 1.11717 29.2497 1.15719L24.1537 1.27467C22.7329 1.30743 21.5541 2.27767 21.1946 3.58058L21.091 3.58115L21.0941 4.13809Z" fill="white"/>
</svg>
