<svg width="25" height="34" viewBox="0 0 25 34" fill="none" xmlns="http://www.w3.org/2000/svg">
<path fill-rule="evenodd" clip-rule="evenodd" d="M15.7061 3.60735C15.698 3.69086 15.6944 3.77567 15.6956 3.86152C15.6964 3.92001 15.6995 3.97795 15.7046 4.03527L15.6473 20.7061C13.6851 19.5449 10.9425 19.1199 8.09931 19.7337C3.16763 20.7984 -0.199018 24.5855 0.579685 28.1924C1.35839 31.7993 5.98757 33.8602 10.9192 32.7955C15.5305 31.7999 18.7734 28.4243 18.5389 25.0414L18.604 6.09463L21.6867 6.05133C22.9424 6.03369 23.946 5.0015 23.9283 3.74587C23.9107 2.49024 22.8785 1.48664 21.6229 1.50428L17.9372 1.55606C16.9096 1.5705 16.0509 2.26441 15.7825 3.2042L15.7075 3.20395L15.7061 3.60735Z" fill="white"/>
</svg>
