<svg width="413" height="87" viewBox="0 0 413 87" fill="none" xmlns="http://www.w3.org/2000/svg">
<path d="M9.88764 85.7896C4.76764 85.7896 0.767637 81.6296 0.767637 76.8296V12.0296C0.767637 5.94958 5.88764 0.829584 11.9676 0.829584C14.8476 0.829584 18.0476 1.94959 20.1276 4.66958L44.6076 37.4696L69.2476 4.66958C71.0076 2.26958 74.2076 0.829584 77.2476 0.829584C83.4876 0.829584 88.4476 5.94958 88.4476 12.0296V76.8296C88.4476 81.6296 84.4476 85.7896 79.4876 85.7896C74.5276 85.7896 70.3676 81.6296 70.3676 76.6696C70.3676 50.1096 70.8476 37.7896 72.4476 23.2296C66.8476 32.5096 59.6476 43.0696 51.8076 52.9896C49.7276 55.7096 47.1676 56.9896 44.6076 56.9896C42.0476 56.9896 39.4876 55.5496 37.4076 52.9896C28.9276 42.4296 21.5676 31.0696 16.7676 23.0696C18.3676 37.6296 18.8476 50.2696 18.8476 76.6696C18.8476 81.6296 14.6876 85.7896 9.88764 85.7896ZM187.646 38.7496C188.286 45.1496 184.926 48.5096 178.686 48.5096H121.246C121.726 61.9496 133.246 71.2296 147.006 71.2296C156.926 71.2296 163.646 66.7496 168.286 60.5096C170.046 58.1096 172.286 57.1496 174.366 57.1496C178.366 57.1496 182.206 60.9896 182.206 65.3096C182.206 67.0696 181.566 68.8296 180.126 70.5896C173.246 79.0696 162.046 86.4296 146.846 86.4296C121.566 86.4296 103.166 69.3096 103.166 43.3896C103.166 18.7496 120.766 0.0295849 145.566 0.0295849C168.926 0.0295849 185.086 15.0696 187.646 38.7496ZM145.566 14.9096C132.286 14.9096 122.366 23.8696 121.406 36.1896H169.886C168.926 24.0296 159.326 14.9096 145.566 14.9096ZM211.45 85.7896C206.33 85.7896 202.33 81.6296 202.33 76.8296V9.78959C202.33 4.98959 206.33 0.829584 211.45 0.829584C216.41 0.829584 220.41 4.98959 220.41 9.78959V35.8696H262.17V9.78959C262.17 4.98959 266.33 0.829584 271.29 0.829584C276.25 0.829584 280.25 4.98959 280.25 9.78959V76.8296C280.25 81.6296 276.25 85.7896 271.29 85.7896C266.33 85.7896 262.17 81.6296 262.17 76.8296V51.7096H220.41V76.8296C220.41 81.6296 216.41 85.7896 211.45 85.7896ZM369.601 0.189583C394.241 0.189583 412.161 18.4296 412.161 43.3896C412.161 68.1896 394.241 86.2696 369.601 86.2696C347.361 86.2696 330.401 71.3896 327.361 50.2696H317.441V76.5096C317.441 81.4696 313.281 85.7896 308.481 85.7896C303.521 85.7896 299.361 81.4696 299.361 76.5096V9.94959C299.361 4.98959 303.521 0.989582 308.481 0.989582C313.281 0.989582 317.441 4.98959 317.441 9.94959V35.2296H327.521C331.041 14.5896 347.521 0.189583 369.601 0.189583ZM369.601 69.7896C384.001 69.7896 394.721 58.5896 394.721 43.2296C394.721 27.8696 384.001 16.6696 369.601 16.6696C355.361 16.6696 344.801 27.8696 344.801 43.2296C344.801 58.5896 355.361 69.7896 369.601 69.7896Z" fill="white"/>
</svg>
