<svg width="464" height="98" viewBox="0 0 464 98" fill="none" xmlns="http://www.w3.org/2000/svg">
<path d="M22.7276 5.28239L24.3304 4.08615L24.3235 4.07678L24.3164 4.06749L22.7276 5.28239ZM50.2676 42.1824L48.6648 43.3786L50.2624 45.5192L51.8667 43.3836L50.2676 42.1824ZM77.9876 5.28239L79.5867 6.48364L79.5936 6.47442L79.6004 6.46512L77.9876 5.28239ZM81.5876 26.1624L83.5757 26.3809L79.8753 25.1291L81.5876 26.1624ZM58.3676 59.6424L56.7985 58.4023L56.7886 58.4148L56.7789 58.4275L58.3676 59.6424ZM42.1676 59.6424L40.6082 60.8947L40.6154 60.9036L42.1676 59.6424ZM18.9476 25.9824L20.6626 24.9534L16.9596 26.2009L18.9476 25.9824ZM11.2076 94.5424C6.55221 94.5424 2.94764 90.7578 2.94764 86.4624H-1.05236C-1.05236 92.967 4.34307 98.5424 11.2076 98.5424V94.5424ZM2.94764 86.4624V13.5624H-1.05236V86.4624H2.94764ZM2.94764 13.5624C2.94764 7.82697 7.81221 2.9624 13.5476 2.9624V-1.0376C5.60307 -1.0376 -1.05236 5.61783 -1.05236 13.5624H2.94764ZM13.5476 2.9624C16.3121 2.9624 19.2587 4.03852 21.1389 6.4973L24.3164 4.06749C21.5166 0.406284 17.2632 -1.0376 13.5476 -1.0376V2.9624ZM21.1248 6.47864L48.6648 43.3786L51.8704 40.9862L24.3304 4.08615L21.1248 6.47864ZM51.8667 43.3836L79.5867 6.48364L76.3886 4.08115L48.6686 40.9812L51.8667 43.3836ZM79.6004 6.46512C81.1548 4.34562 84.1172 2.9624 86.9876 2.9624V-1.0376C83.0181 -1.0376 78.7805 0.81917 76.3748 4.09967L79.6004 6.46512ZM86.9876 2.9624C92.8845 2.9624 97.5876 7.80834 97.5876 13.5624H101.588C101.588 5.63645 95.1307 -1.0376 86.9876 -1.0376V2.9624ZM97.5876 13.5624V86.4624H101.588V13.5624H97.5876ZM97.5876 86.4624C97.5876 90.781 93.96 94.5424 89.5076 94.5424V98.5424C96.2153 98.5424 101.588 92.9438 101.588 86.4624H97.5876ZM89.5076 94.5424C85.0322 94.5424 81.2476 90.7578 81.2476 86.2824H77.2476C77.2476 92.967 82.8231 98.5424 89.5076 98.5424V94.5424ZM81.2476 86.2824C81.2476 56.4271 81.7876 42.6524 83.5757 26.3809L79.5996 25.9439C77.7877 42.4324 77.2476 56.3777 77.2476 86.2824H81.2476ZM79.8753 25.1291C73.6164 35.5009 65.5639 47.3114 56.7985 58.4023L59.9368 60.8825C68.8114 49.6534 76.9589 37.7039 83.3 27.1957L79.8753 25.1291ZM56.7789 58.4275C54.7481 61.0831 52.419 62.1424 50.2676 62.1424V66.1424C53.8763 66.1424 57.3071 64.3217 59.9564 60.8573L56.7789 58.4275ZM50.2676 62.1424C48.1667 62.1424 45.8077 60.9509 43.7199 58.3812L40.6154 60.9036C43.2075 64.0939 46.6086 66.1424 50.2676 66.1424V62.1424ZM43.7271 58.3901C34.2629 46.6046 26.0347 33.9068 20.6626 24.9534L17.2327 27.0114C22.6606 36.058 30.9924 48.9202 40.6082 60.8947L43.7271 58.3901ZM16.9596 26.2009C18.7476 42.4719 19.2876 56.6061 19.2876 86.2824H23.2876C23.2876 56.5587 22.7477 42.2529 20.9357 25.7639L16.9596 26.2009ZM19.2876 86.2824C19.2876 90.7808 15.4803 94.5424 11.2076 94.5424V98.5424C17.735 98.5424 23.2876 92.944 23.2876 86.2824H19.2876ZM211.186 43.6224L213.176 43.4234L213.176 43.4154L213.175 43.4074L211.186 43.6224ZM136.486 54.6024V52.6024H134.414L134.488 54.6738L136.486 54.6024ZM189.406 68.1024L191.011 69.2958L191.019 69.2851L189.406 68.1024ZM202.726 79.4424L201.178 78.1759L201.173 78.1823L202.726 79.4424ZM136.666 40.7424L134.672 40.587L134.504 42.7424H136.666V40.7424ZM191.206 40.7424V42.7424H193.37L193.2 40.585L191.206 40.7424ZM209.196 43.8214C209.52 47.0583 208.802 49.1533 207.591 50.4433C206.366 51.748 204.287 52.6024 201.106 52.6024V56.6024C204.946 56.6024 208.267 55.5668 210.507 53.1815C212.76 50.7815 213.573 47.3865 213.176 43.4234L209.196 43.8214ZM201.106 52.6024H136.486V56.6024H201.106V52.6024ZM134.488 54.6738C135.073 71.0789 149.132 82.1624 165.466 82.1624V78.1624C150.841 78.1624 138.979 68.3659 138.485 54.531L134.488 54.6738ZM165.466 82.1624C177.35 82.1624 185.472 76.7452 191.011 69.2958L187.801 66.909C182.901 73.4997 175.902 78.1624 165.466 78.1624V82.1624ZM191.019 69.2851C192.64 67.0748 194.573 66.3224 196.246 66.3224V62.3224C193.24 62.3224 190.133 63.73 187.793 66.9197L191.019 69.2851ZM196.246 66.3224C197.861 66.3224 199.572 67.1097 200.911 68.4849C202.243 69.8539 203.066 71.6653 203.066 73.5024H207.066C207.066 70.4795 205.729 67.7009 203.777 65.6949C201.83 63.6951 199.132 62.3224 196.246 62.3224V66.3224ZM203.066 73.5024C203.066 74.9502 202.554 76.4946 201.178 78.1759L204.274 80.7089C206.139 78.4302 207.066 76.0146 207.066 73.5024H203.066ZM201.173 78.1823C193.743 87.3403 181.681 95.2624 165.286 95.2624V99.2624C183.092 99.2624 196.229 90.6245 204.279 80.7025L201.173 78.1823ZM165.286 95.2624C151.523 95.2624 139.757 90.6084 131.443 82.5512C123.136 74.501 118.146 62.9306 118.146 48.8424H114.146C114.146 63.9142 119.506 76.5538 128.659 85.4237C137.805 94.2864 150.609 99.2624 165.286 99.2624V95.2624ZM118.146 48.8424C118.146 22.1622 137.114 2.0624 163.846 2.0624V-1.9376C134.778 -1.9376 114.146 20.0826 114.146 48.8424H118.146ZM163.846 2.0624C176.543 2.0624 187.156 6.14142 194.935 13.322C202.719 20.5071 207.802 30.9249 209.198 43.8374L213.175 43.4074C211.691 29.6799 206.244 18.3176 197.648 10.3828C189.047 2.44338 177.429 -1.9376 163.846 -1.9376V2.0624ZM163.846 14.8024C147.938 14.8024 135.839 25.6116 134.672 40.587L138.66 40.8978C139.653 28.1532 149.874 18.8024 163.846 18.8024V14.8024ZM136.666 42.7424H191.206V38.7424H136.666V42.7424ZM193.2 40.585C192.034 25.8099 180.314 14.8024 163.846 14.8024V18.8024C178.339 18.8024 188.219 28.3149 189.212 40.8998L193.2 40.585ZM248.045 40.3824H246.045V42.3824H248.045V40.3824ZM295.025 40.3824V42.3824H297.025V40.3824H295.025ZM295.025 58.2024H297.025V56.2024H295.025V58.2024ZM248.045 58.2024V56.2024H246.045V58.2024H248.045ZM237.965 94.5424C233.31 94.5424 229.705 90.7578 229.705 86.4624H225.705C225.705 92.967 231.101 98.5424 237.965 98.5424V94.5424ZM229.705 86.4624V11.0424H225.705V86.4624H229.705ZM229.705 11.0424C229.705 6.74697 233.31 2.9624 237.965 2.9624V-1.0376C231.101 -1.0376 225.705 4.53783 225.705 11.0424H229.705ZM237.965 2.9624C242.418 2.9624 246.045 6.72376 246.045 11.0424H250.045C250.045 4.56104 244.673 -1.0376 237.965 -1.0376V2.9624ZM246.045 11.0424V40.3824H250.045V11.0424H246.045ZM248.045 42.3824H295.025V38.3824H248.045V42.3824ZM297.025 40.3824V11.0424H293.025V40.3824H297.025ZM297.025 11.0424C297.025 6.76975 300.787 2.9624 305.285 2.9624V-1.0376C298.624 -1.0376 293.025 4.51505 293.025 11.0424H297.025ZM305.285 2.9624C309.738 2.9624 313.365 6.72376 313.365 11.0424H317.365C317.365 4.56104 311.993 -1.0376 305.285 -1.0376V2.9624ZM313.365 11.0424V86.4624H317.365V11.0424H313.365ZM313.365 86.4624C313.365 90.781 309.738 94.5424 305.285 94.5424V98.5424C311.993 98.5424 317.365 92.9438 317.365 86.4624H313.365ZM305.285 94.5424C300.787 94.5424 297.025 90.735 297.025 86.4624H293.025C293.025 92.9898 298.624 98.5424 305.285 98.5424V94.5424ZM297.025 86.4624V58.2024H293.025V86.4624H297.025ZM295.025 56.2024H248.045V60.2024H295.025V56.2024ZM246.045 58.2024V86.4624H250.045V58.2024H246.045ZM246.045 86.4624C246.045 90.781 242.418 94.5424 237.965 94.5424V98.5424C244.673 98.5424 250.045 92.9438 250.045 86.4624H246.045ZM368.366 56.5824L370.345 56.2975L370.098 54.5824H368.366V56.5824ZM357.206 56.5824V54.5824H355.206V56.5824H357.206ZM357.206 39.6624H355.206V41.6624H357.206V39.6624ZM368.546 39.6624V41.6624H370.233L370.517 39.9986L368.546 39.6624ZM415.886 2.24239C442.471 2.24239 461.766 21.8372 461.766 48.8424H465.766C465.766 19.6876 444.74 -1.75761 415.886 -1.75761V2.24239ZM461.766 48.8424C461.766 75.6528 442.486 95.0824 415.886 95.0824V99.0824C444.725 99.0824 465.766 77.832 465.766 48.8424H461.766ZM415.886 95.0824C391.846 95.0824 373.622 79.0593 370.345 56.2975L366.386 56.8673C369.95 81.6255 389.885 99.0824 415.886 99.0824V95.0824ZM368.366 54.5824H357.206V58.5824H368.366V54.5824ZM355.206 56.5824V86.1024H359.206V56.5824H355.206ZM355.206 86.1024C355.206 90.6462 351.354 94.5424 347.126 94.5424V98.5424C353.697 98.5424 359.206 92.7186 359.206 86.1024H355.206ZM347.126 94.5424C342.695 94.5424 338.866 90.623 338.866 86.1024H334.866C334.866 92.7418 340.396 98.5424 347.126 98.5424V94.5424ZM338.866 86.1024V11.2224H334.866V86.1024H338.866ZM338.866 11.2224C338.866 6.79267 342.604 3.14239 347.126 3.14239V-0.857606C340.487 -0.857606 334.866 4.49213 334.866 11.2224H338.866ZM347.126 3.14239C351.444 3.14239 355.206 6.77003 355.206 11.2224H359.206C359.206 4.51477 353.607 -0.857606 347.126 -0.857606V3.14239ZM355.206 11.2224V39.6624H359.206V11.2224H355.206ZM357.206 41.6624H368.546V37.6624H357.206V41.6624ZM370.517 39.9986C374.313 17.7388 392.021 2.24239 415.886 2.24239V-1.75761C390.07 -1.75761 370.698 15.146 366.574 39.3262L370.517 39.9986ZM415.886 80.5424C433.287 80.5424 446.146 66.9473 446.146 48.6624H442.146C442.146 64.9375 430.884 76.5424 415.886 76.5424V80.5424ZM446.146 48.6624C446.146 30.3775 433.287 16.7824 415.886 16.7824V20.7824C430.884 20.7824 442.146 32.3873 442.146 48.6624H446.146ZM415.886 16.7824C398.639 16.7824 385.986 30.4036 385.986 48.6624H389.986C389.986 32.3612 401.092 20.7824 415.886 20.7824V16.7824ZM385.986 48.6624C385.986 66.9212 398.639 80.5424 415.886 80.5424V76.5424C401.092 76.5424 389.986 64.9636 389.986 48.6624H385.986Z" fill="white"/>
</svg>
