<svg width="276" height="362" viewBox="0 0 276 362" fill="none" xmlns="http://www.w3.org/2000/svg">
<path fill-rule="evenodd" clip-rule="evenodd" d="M118.619 361.347L116.952 361.345L112.784 305.327L136.807 305.35L133.835 346.667C134.198 346.656 134.567 346.644 134.943 346.632C155.299 345.978 155.449 356.192 152.979 361.381L118.619 361.349L118.619 361.347Z" fill="#ECBC40"/>
<path fill-rule="evenodd" clip-rule="evenodd" d="M158.112 357.228L156.446 357.227L152.278 301.209L176.301 301.232L173.329 342.549C173.691 342.537 174.06 342.526 174.437 342.514C194.792 341.859 194.942 352.074 192.472 357.263L158.113 357.23L158.112 357.228Z" fill="#ECBC40"/>
<path d="M141.492 68.1424C97.9526 32.5753 134.81 33.8377 158.681 38.9149L151.851 304.058L18.1076 311.464C14.1985 277.128 35.4714 292.154 46.5965 303.958C32.8224 259.773 66.9507 274.605 85.7366 287.545C48.8685 241.343 90.7182 250.731 116.252 261.2C50.8837 221.865 95.2975 220.555 125.675 224.817C74.6642 199.929 107.426 192.306 130.184 191.606C73.491 178.266 109.066 167.757 133.94 164.171C75.4568 151.118 111.085 137.312 136.209 132.041C75.9503 102.812 113.113 96.7576 139.227 97.3841C86.7127 83.4705 118.856 72.0923 141.492 68.1424Z" fill="#EB5D3A"/>
<path d="M185.71 27.5187C155.111 27.027 143.064 41.5522 140.866 48.8762C134.712 110.875 120.03 240.004 110.529 260.531C101.028 281.058 33.3611 305.566 0.715114 315.254C71.2867 320.596 216.696 326.12 233.76 305.479C250.823 284.839 245.201 233.751 240.256 210.787L201.263 104.664C213.584 105.571 242.77 106.117 260.943 101.044C279.117 95.9717 276.898 83.1296 273.516 77.3426C275.958 23.5555 223.958 28.1333 185.71 27.5187Z" fill="#FCC537"/>
<mask id="mask0_165_198" style="mask-type:alpha" maskUnits="userSpaceOnUse" x="0" y="27" width="276" height="294">
<path d="M185.71 27.519C155.111 27.0273 143.065 41.5525 140.867 48.8765C134.713 110.875 120.03 240.004 110.53 260.531C101.029 281.058 33.3617 305.566 0.715725 315.254C71.2873 320.596 216.696 326.121 233.76 305.48C250.824 284.839 245.201 233.751 240.257 210.787L201.263 104.664C213.585 105.571 242.771 106.117 260.944 101.045C279.117 95.972 276.898 83.1299 273.517 77.3429C275.959 23.5558 223.959 28.1336 185.71 27.519Z" fill="#FCC537"/>
</mask>
<g mask="url(#mask0_165_198)">
<path d="M175.132 321.461C172.158 215.205 221.899 211.002 247.14 222.182L250.889 321.533L175.132 321.461Z" fill="#FDCF8C"/>
</g>
<ellipse cx="195.683" cy="22.5204" rx="13.1939" ry="16.7914" transform="rotate(0.0543112 195.683 22.5204)" fill="#E2E2E2"/>
<ellipse cx="195.677" cy="28.4178" rx="8.56072" ry="10.895" transform="rotate(0.0543112 195.677 28.4178)" fill="black"/>
<ellipse cx="225.691" cy="17.5484" rx="13.1939" ry="16.7914" transform="rotate(0.0543112 225.691 17.5484)" fill="#E2E2E2"/>
<ellipse cx="225.686" cy="23.4457" rx="8.56072" ry="10.895" transform="rotate(0.0543112 225.686 23.4457)" fill="black"/>
<path d="M253.488 80.9705C260.538 39.536 272.819 75.6712 273.955 77.5059C237.112 86.1259 216.917 83.3807 211.424 80.9306C201.057 90.6393 182.337 103.164 190.397 75.593C179.906 82.8566 162.075 90.7857 174.681 64.3927C178.467 68.9805 191.114 78.711 211.424 80.9306C224.635 56.1518 231.959 71.7206 233.97 82.6023C240.056 58.5502 249.518 71.4927 253.488 80.9705Z" fill="white"/>
<path d="M273.89 77.5147C249.063 84.3711 193.631 90.4521 170.525 59.9257" stroke="black" stroke-width="3"/>
<ellipse cx="103.883" cy="298.456" rx="8.90719" ry="6.91951" transform="rotate(0.0543112 103.883 298.456)" fill="#EB5D3A"/>
<ellipse cx="119.005" cy="280.22" rx="6.19674" ry="4.8139" transform="rotate(0.0543112 119.005 280.22)" fill="#EB5D3A"/>
<ellipse cx="125.186" cy="296.371" rx="6.19674" ry="4.8139" transform="rotate(0.0543112 125.186 296.371)" fill="#EB5D3A"/>
<rect width="2.5866" height="12.5893" transform="matrix(0.98391 -0.178666 0.190401 0.981706 231.688 231.166)" fill="#FCC537"/>
<rect width="2.58824" height="12.5808" transform="matrix(0.993126 0.117047 -0.124793 0.992183 219.333 254.504)" fill="#FCC537"/>
<rect width="2.58844" height="12.5797" transform="matrix(0.994306 0.106562 -0.113627 0.993523 217.728 227.704)" fill="#FCC537"/>
<rect width="2.58824" height="12.5808" transform="matrix(0.993126 0.117047 -0.124793 0.992183 207.264 243.5)" fill="#FCC537"/>
<rect width="2.58937" height="12.5749" transform="matrix(0.999729 -0.0232667 0.0249058 0.99969 230.197 264.486)" fill="#FCC537"/>
<rect width="2.58788" height="12.5826" transform="matrix(0.991029 0.133647 -0.14246 0.989801 229.784 287.791)" fill="#FCC537"/>
<rect width="2.58923" height="12.5756" transform="matrix(0.998859 0.0477614 -0.0509244 0.998702 192.67 258.048)" fill="#FCC537"/>
<rect width="2.58923" height="12.5756" transform="matrix(0.998859 0.0477614 -0.0509244 0.998702 201.308 278.209)" fill="#FCC537"/>
<rect width="2.58841" height="12.5799" transform="matrix(0.99429 -0.106708 0.113907 0.993491 216.309 277.045)" fill="#FCC537"/>
<rect width="2.58696" height="12.5874" transform="matrix(0.985674 0.168661 -0.179668 0.983727 188.31 296.34)" fill="#FCC537"/>
<rect width="2.58696" height="12.5874" transform="matrix(0.985674 0.168661 -0.179668 0.983727 184.689 278.489)" fill="#FCC537"/>
<rect width="2.58876" height="12.5781" transform="matrix(0.996268 -0.0863153 0.0921764 0.995743 206.349 299.27)" fill="#FCC537"/>
<path d="M189.004 230.765C179.33 213.977 159.694 179.614 158.55 176.469L131.894 194.217C142.456 206.802 165.425 233.886 172.805 241.551C180.185 249.217 179.154 242.565 177.716 238.281C185.554 245.851 184.653 238.991 183.223 234.615C193.269 241.342 191.263 234.851 189.004 230.765Z" fill="#EEB00F"/>
</svg>
