<svg width="413" height="88" viewBox="0 0 413 88" fill="none" xmlns="http://www.w3.org/2000/svg">
<path d="M20.1276 5.30239L21.7304 4.10615L21.7235 4.09678L21.7164 4.08749L20.1276 5.30239ZM44.6076 38.1024L43.0048 39.2986L44.6024 41.4392L46.2067 39.3036L44.6076 38.1024ZM69.2476 5.30239L70.8467 6.50364L70.8536 6.49442L70.8604 6.48512L69.2476 5.30239ZM72.4476 23.8624L74.4357 24.0809L70.7353 22.8291L72.4476 23.8624ZM51.8076 53.6224L50.2385 52.3823L50.2286 52.3948L50.2189 52.4075L51.8076 53.6224ZM37.4076 53.6224L35.8482 54.8747L35.8554 54.8836L37.4076 53.6224ZM16.7676 23.7024L18.4826 22.6734L14.7796 23.9209L16.7676 23.7024ZM9.88764 84.4224C5.87221 84.4224 2.76764 81.1578 2.76764 77.4624H-1.23236C-1.23236 83.367 3.66307 88.4224 9.88764 88.4224V84.4224ZM2.76764 77.4624V12.6624H-1.23236V77.4624H2.76764ZM2.76764 12.6624C2.76764 7.68697 6.99221 3.4624 11.9676 3.4624V-0.537603C4.78307 -0.537603 -1.23236 5.47783 -1.23236 12.6624H2.76764ZM11.9676 3.4624C14.3721 3.4624 16.9187 4.39852 18.5389 6.5173L21.7164 4.08749C19.1766 0.766284 15.3232 -0.537603 11.9676 -0.537603V3.4624ZM18.5248 6.49864L43.0048 39.2986L46.2104 36.9062L21.7304 4.10615L18.5248 6.49864ZM46.2067 39.3036L70.8467 6.50364L67.6486 4.10115L43.0086 36.9012L46.2067 39.3036ZM70.8604 6.48512C72.1948 4.66562 74.7572 3.4624 77.2476 3.4624V-0.537603C73.6581 -0.537603 69.8205 1.13917 67.6348 4.11967L70.8604 6.48512ZM77.2476 3.4624C82.3645 3.4624 86.4476 7.66834 86.4476 12.6624H90.4476C90.4476 5.49645 84.6107 -0.537603 77.2476 -0.537603V3.4624ZM86.4476 12.6624V77.4624H90.4476V12.6624H86.4476ZM86.4476 77.4624C86.4476 81.181 83.32 84.4224 79.4876 84.4224V88.4224C85.5753 88.4224 90.4476 83.3438 90.4476 77.4624H86.4476ZM79.4876 84.4224C75.6322 84.4224 72.3676 81.1578 72.3676 77.3024H68.3676C68.3676 83.367 73.4231 88.4224 79.4876 88.4224V84.4224ZM72.3676 77.3024C72.3676 50.7671 72.8476 38.5324 74.4357 24.0809L70.4596 23.6439C68.8477 38.3124 68.3676 50.7177 68.3676 77.3024H72.3676ZM70.7353 22.8291C65.1764 32.0409 58.0239 42.5314 50.2385 52.3823L53.3768 54.8625C61.2714 44.8734 68.5189 34.2439 74.16 24.8957L70.7353 22.8291ZM50.2189 52.4075C48.4481 54.7231 46.439 55.6224 44.6076 55.6224V59.6224C47.8963 59.6224 51.0071 57.9617 53.3964 54.8373L50.2189 52.4075ZM44.6076 55.6224C42.8267 55.6224 40.7877 54.6109 38.9599 52.3612L35.8554 54.8836C38.1875 57.7539 41.2686 59.6224 44.6076 59.6224V55.6224ZM38.9671 52.3701C30.5629 41.9046 23.2547 30.6268 18.4826 22.6734L15.0527 24.7314C19.8806 32.778 27.2924 44.2202 35.8482 54.8747L38.9671 52.3701ZM14.7796 23.9209C16.3676 38.3719 16.8476 50.9261 16.8476 77.3024H20.8476C20.8476 50.8787 20.3676 38.1529 18.7557 23.4839L14.7796 23.9209ZM16.8476 77.3024C16.8476 81.1808 13.5603 84.4224 9.88764 84.4224V88.4224C15.815 88.4224 20.8476 83.344 20.8476 77.3024H16.8476ZM187.646 39.3824L189.636 39.1834L189.636 39.1754L189.635 39.1674L187.646 39.3824ZM121.246 49.1424V47.1424H119.174L119.248 49.2138L121.246 49.1424ZM168.286 61.1424L169.891 62.3358L169.899 62.3251L168.286 61.1424ZM180.126 71.2224L178.578 69.9559L178.573 69.9623L180.126 71.2224ZM121.406 36.8224L119.412 36.667L119.244 38.8224H121.406V36.8224ZM169.886 36.8224V38.8224H172.051L171.88 36.665L169.886 36.8224ZM185.656 39.5814C185.94 42.4183 185.307 44.2083 184.288 45.2933C183.256 46.393 181.477 47.1424 178.686 47.1424V51.1424C182.136 51.1424 185.157 50.2118 187.204 48.0315C189.265 45.8365 189.993 42.7465 189.636 39.1834L185.656 39.5814ZM178.686 47.1424H121.246V51.1424H178.686V47.1424ZM119.248 49.2138C119.774 63.9389 132.392 73.8624 147.006 73.8624V69.8624C134.101 69.8624 123.679 61.2259 123.245 49.071L119.248 49.2138ZM147.006 73.8624C157.65 73.8624 164.932 69.0052 169.891 62.3358L166.681 59.949C162.361 65.7597 156.203 69.8624 147.006 69.8624V73.8624ZM169.899 62.3251C171.3 60.4148 172.953 59.7824 174.366 59.7824V55.7824C171.62 55.7824 168.793 57.07 166.674 59.9597L169.899 62.3251ZM174.366 59.7824C175.731 59.7824 177.197 60.4497 178.353 61.6374C179.503 62.8189 180.206 64.3753 180.206 65.9424H184.206C184.206 63.1895 182.99 60.6659 181.22 58.8474C179.456 57.0351 177.002 55.7824 174.366 55.7824V59.7824ZM180.206 65.9424C180.206 67.1702 179.774 68.4946 178.578 69.9559L181.674 72.4889C183.359 70.4302 184.206 68.2346 184.206 65.9424H180.206ZM178.573 69.9623C172.003 78.0603 161.341 85.0624 146.846 85.0624V89.0624C162.752 89.0624 174.49 81.3445 181.68 72.4825L178.573 69.9623ZM146.846 85.0624C134.664 85.0624 124.263 80.9434 116.918 73.8262C109.581 66.716 105.166 56.4906 105.166 44.0224H101.166C101.166 57.4742 105.952 68.7688 114.135 76.6987C122.31 84.6214 133.749 89.0624 146.846 89.0624V85.0624ZM105.166 44.0224C105.166 20.4222 121.935 2.6624 145.566 2.6624V-1.3376C119.598 -1.3376 101.166 18.3426 101.166 44.0224H105.166ZM145.566 2.6624C156.803 2.6624 166.181 6.27142 173.05 12.612C179.924 18.9571 184.422 28.1649 185.658 39.5974L189.635 39.1674C188.311 26.9199 183.449 16.7676 175.763 9.67279C168.072 2.57338 157.69 -1.3376 145.566 -1.3376V2.6624ZM145.566 13.5424C131.318 13.5424 120.459 23.2316 119.412 36.667L123.4 36.9778C124.273 25.7732 133.254 17.5424 145.566 17.5424V13.5424ZM121.406 38.8224H169.886V34.8224H121.406V38.8224ZM171.88 36.665C170.834 23.4099 160.314 13.5424 145.566 13.5424V17.5424C158.339 17.5424 167.019 25.9149 167.893 36.9798L171.88 36.665ZM220.41 36.5024H218.41V38.5024H220.41V36.5024ZM262.17 36.5024V38.5024H264.17V36.5024H262.17ZM262.17 52.3424H264.17V50.3424H262.17V52.3424ZM220.41 52.3424V50.3424H218.41V52.3424H220.41ZM211.45 84.4224C207.435 84.4224 204.33 81.1578 204.33 77.4624H200.33C200.33 83.367 205.226 88.4224 211.45 88.4224V84.4224ZM204.33 77.4624V10.4224H200.33V77.4624H204.33ZM204.33 10.4224C204.33 6.72697 207.435 3.4624 211.45 3.4624V-0.537603C205.226 -0.537603 200.33 4.51783 200.33 10.4224H204.33ZM211.45 3.4624C215.283 3.4624 218.41 6.70376 218.41 10.4224H222.41C222.41 4.54104 217.538 -0.537603 211.45 -0.537603V3.4624ZM218.41 10.4224V36.5024H222.41V10.4224H218.41ZM220.41 38.5024H262.17V34.5024H220.41V38.5024ZM264.17 36.5024V10.4224H260.17V36.5024H264.17ZM264.17 10.4224C264.17 6.74975 267.412 3.4624 271.29 3.4624V-0.537603C265.248 -0.537603 260.17 4.49505 260.17 10.4224H264.17ZM271.29 3.4624C275.123 3.4624 278.25 6.70376 278.25 10.4224H282.25C282.25 4.54104 277.378 -0.537603 271.29 -0.537603V3.4624ZM278.25 10.4224V77.4624H282.25V10.4224H278.25ZM278.25 77.4624C278.25 81.181 275.123 84.4224 271.29 84.4224V88.4224C277.378 88.4224 282.25 83.3438 282.25 77.4624H278.25ZM271.29 84.4224C267.412 84.4224 264.17 81.135 264.17 77.4624H260.17C260.17 83.3898 265.248 88.4224 271.29 88.4224V84.4224ZM264.17 77.4624V52.3424H260.17V77.4624H264.17ZM262.17 50.3424H220.41V54.3424H262.17V50.3424ZM218.41 52.3424V77.4624H222.41V52.3424H218.41ZM218.41 77.4624C218.41 81.181 215.283 84.4224 211.45 84.4224V88.4224C217.538 88.4224 222.41 83.3438 222.41 77.4624H218.41ZM327.361 50.9024L329.341 50.6175L329.094 48.9024H327.361V50.9024ZM317.441 50.9024V48.9024H315.441V50.9024H317.441ZM317.441 35.8624H315.441V37.8624H317.441V35.8624ZM327.521 35.8624V37.8624H329.209L329.493 36.1986L327.521 35.8624ZM369.601 2.8224C393.107 2.8224 410.161 20.1372 410.161 44.0224H414.161C414.161 17.9876 395.376 -1.1776 369.601 -1.1776V2.8224ZM410.161 44.0224C410.161 67.7328 393.122 84.9024 369.601 84.9024V88.9024C395.361 88.9024 414.161 69.912 414.161 44.0224H410.161ZM369.601 84.9024C348.342 84.9024 332.237 70.7393 329.341 50.6175L325.382 51.1873C328.565 73.3055 346.381 88.9024 369.601 88.9024V84.9024ZM327.361 48.9024H317.441V52.9024H327.361V48.9024ZM315.441 50.9024V77.1424H319.441V50.9024H315.441ZM315.441 77.1424C315.441 81.0662 312.11 84.4224 308.481 84.4224V88.4224C314.453 88.4224 319.441 83.1386 319.441 77.1424H315.441ZM308.481 84.4224C304.671 84.4224 301.361 81.043 301.361 77.1424H297.361C297.361 83.1618 302.372 88.4224 308.481 88.4224V84.4224ZM301.361 77.1424V10.5824H297.361V77.1424H301.361ZM301.361 10.5824C301.361 6.77268 304.58 3.62239 308.481 3.62239V-0.377605C302.463 -0.377605 297.361 4.47213 297.361 10.5824H301.361ZM308.481 3.62239C312.2 3.62239 315.441 6.75003 315.441 10.5824H319.441C319.441 4.49477 314.363 -0.377605 308.481 -0.377605V3.62239ZM315.441 10.5824V35.8624H319.441V10.5824H315.441ZM317.441 37.8624H327.521V33.8624H317.441V37.8624ZM329.493 36.1986C332.849 16.5188 348.497 2.8224 369.601 2.8224V-1.1776C346.546 -1.1776 329.234 13.926 325.55 35.5262L329.493 36.1986ZM369.601 72.4224C385.203 72.4224 396.721 60.2273 396.721 43.8624H392.721C392.721 58.2175 382.8 68.4224 369.601 68.4224V72.4224ZM396.721 43.8624C396.721 27.4975 385.203 15.3024 369.601 15.3024V19.3024C382.8 19.3024 392.721 29.5073 392.721 43.8624H396.721ZM369.601 15.3024C354.135 15.3024 342.801 27.5236 342.801 43.8624H346.801C346.801 29.4812 356.588 19.3024 369.601 19.3024V15.3024ZM342.801 43.8624C342.801 60.2012 354.135 72.4224 369.601 72.4224V68.4224C356.588 68.4224 346.801 58.2436 346.801 43.8624H342.801Z" fill="white"/>
</svg>
