<svg width="410" height="86" viewBox="0 0 410 86" fill="none" xmlns="http://www.w3.org/2000/svg">
<g clip-path="url(#clip0_329_354)">
<path fill-rule="evenodd" clip-rule="evenodd" d="M19.2704 4.81842C17.2 2.11101 14.0149 0.996184 11.1482 0.996184C5.09631 0.996184 0 6.0925 0 12.1444V76.6445C0 81.4223 3.98149 85.5631 9.0778 85.5631C13.8556 85.5631 17.9963 81.4223 17.9963 76.4853C17.9963 53.015 17.6152 40.4707 16.399 27.7321C16.2536 26.2083 16.0961 24.6817 15.926 23.1333C16.6694 24.3724 17.4746 25.6924 18.336 27.0778C23.0106 34.596 29.3431 44.0393 36.4705 52.9148C38.5408 55.463 41.089 56.8963 43.6371 56.8963C46.1853 56.8963 48.7335 55.6223 50.8038 52.9148C57.5257 44.4096 63.775 35.4316 68.9409 27.2024C69.7723 25.878 70.5756 24.573 71.3483 23.2925C71.1789 24.8342 71.0221 26.3506 70.8772 27.8615C69.6595 40.5545 69.278 52.8604 69.278 76.4853C69.278 81.4223 73.4187 85.5631 78.3558 85.5631C83.2928 85.5631 87.2743 81.4223 87.2743 76.6445V12.1444C87.2743 6.0925 82.3373 0.996184 76.1261 0.996184C73.1002 0.996184 69.915 2.42952 68.1631 4.81842L43.6371 37.4667L19.2704 4.81842ZM38.0188 51.6636C29.6552 41.2478 22.3822 30.0244 17.633 22.1091L13.9471 23.3507C15.5278 37.7349 16.0056 50.231 16.0056 76.4853C16.0056 80.3457 12.7335 83.5723 9.0778 83.5723C5.08095 83.5723 1.99075 80.3229 1.99075 76.6445V12.1444C1.99075 7.19195 6.19577 2.98693 11.1482 2.98693C13.5382 2.98693 16.0694 3.91617 17.6824 6.01903L43.632 40.788L69.7617 6.00493L69.7685 5.99567C71.0966 4.18459 73.6472 2.98693 76.1261 2.98693C81.2193 2.98693 85.2836 7.17342 85.2836 12.1444V76.6445C85.2836 80.346 82.1704 83.5723 78.3558 83.5723C74.5182 83.5723 71.2687 80.3229 71.2687 76.4853C71.2687 50.0727 71.7464 37.8947 73.3272 23.51L69.6439 22.264C64.1108 31.4332 56.9913 41.8752 49.242 51.6805L49.2321 51.6929L49.2225 51.7056C47.4599 54.0105 45.46 54.9056 43.6371 54.9056C41.8655 54.9056 39.8374 53.9 38.0188 51.6636ZM177.096 48.4556C183.307 48.4556 186.651 45.1111 186.014 38.7407C183.466 15.1703 167.381 0.19989 144.129 0.19989C119.444 0.19989 101.925 18.8333 101.925 43.3593C101.925 69.1593 120.24 86.2001 145.403 86.2001C160.533 86.2001 171.681 78.8742 178.529 70.4334C179.962 68.6816 180.599 66.9297 180.599 65.1778C180.599 60.8778 176.777 57.0556 172.796 57.0556C170.725 57.0556 168.495 58.0112 166.744 60.4001C162.125 66.6112 155.436 71.0705 145.562 71.0705C132.556 71.0705 121.561 62.7411 120.076 50.4463C119.997 49.7937 119.945 49.1299 119.921 48.4556H177.096ZM184.034 38.9463C184.314 41.7657 183.685 43.5453 182.672 44.6243C181.644 45.7189 179.873 46.4648 177.096 46.4648H117.858L117.932 48.5266C118.455 63.1836 131.015 73.0612 145.562 73.0612C156.157 73.0612 163.405 68.2264 168.341 61.588L168.349 61.5773C169.743 59.6758 171.388 59.0463 172.796 59.0463C174.154 59.0463 175.613 59.7106 176.764 60.8927C177.909 62.0687 178.608 63.618 178.608 65.1778C178.608 66.4 178.178 67.7182 176.988 69.1728L176.983 69.1792C170.443 77.2397 159.83 84.2094 145.403 84.2094C133.276 84.2094 122.924 80.1095 115.613 73.0251C108.31 65.9478 103.916 55.7698 103.916 43.3593C103.916 19.8682 120.606 2.19064 144.129 2.19064C155.314 2.19064 164.648 5.78295 171.485 12.0942C178.325 18.4084 182.802 27.5706 184.034 38.9463ZM117.929 38.1833L118.096 36.0379C119.138 22.6646 129.947 13.0203 144.129 13.0203C158.808 13.0203 169.279 22.8421 170.321 36.0359L170.49 38.1833H117.929ZM120.081 36.1926H168.336C168.283 35.5193 168.203 34.8554 168.098 34.2018C166.305 23.107 157.063 15.011 144.129 15.011C131.637 15.011 122.132 22.9762 120.318 34.2018C120.213 34.8547 120.133 35.5186 120.081 36.1926ZM216.635 37.8648V9.91473C216.635 6.2133 213.522 2.98693 209.708 2.98693C205.711 2.98693 202.621 6.2364 202.621 9.91473V76.6445C202.621 80.3229 205.711 83.5723 209.708 83.5723C213.522 83.5723 216.635 80.346 216.635 76.6445V49.65H262.184V76.6445C262.184 80.3002 265.41 83.5723 269.271 83.5723C273.085 83.5723 276.199 80.346 276.199 76.6445V9.91473C276.199 6.2133 273.085 2.98693 269.271 2.98693C265.41 2.98693 262.184 6.25908 262.184 9.91473V37.8648H216.635ZM218.626 76.6445C218.626 81.4223 214.645 85.5631 209.708 85.5631C204.611 85.5631 200.63 81.4223 200.63 76.6445V9.91473C200.63 5.13694 204.611 0.996184 209.708 0.996184C214.645 0.996184 218.626 5.13694 218.626 9.91473V35.8741H260.193V9.91473C260.193 5.13694 264.334 0.996184 269.271 0.996184C274.208 0.996184 278.189 5.13694 278.189 9.91473V76.6445C278.189 81.4223 274.208 85.5631 269.271 85.5631C264.334 85.5631 260.193 81.4223 260.193 76.6445V51.6408H218.626V76.6445ZM326.807 48.2167L327.053 49.9238C329.936 69.9526 345.966 84.0501 367.127 84.0501C390.539 84.0501 407.499 66.9599 407.499 43.3593C407.499 19.5845 390.524 2.34989 367.127 2.34989C346.12 2.34989 330.545 15.983 327.204 35.5717L326.922 37.2278H313.218V10.074C313.218 6.25936 309.991 3.14619 306.29 3.14619C302.406 3.14619 299.203 6.28189 299.203 10.074V76.326C299.203 80.2086 302.497 83.5723 306.29 83.5723C309.901 83.5723 313.218 80.2316 313.218 76.326V48.2167H326.807ZM325.083 50.2074C328.109 71.2297 344.99 86.0409 367.127 86.0409C391.653 86.0409 409.49 68.0445 409.49 43.3593C409.49 18.5148 391.653 0.359146 367.127 0.359146C345.149 0.359146 328.746 14.6925 325.242 35.237H315.208V10.074C315.208 5.13694 311.068 1.15544 306.29 1.15544C301.353 1.15544 297.212 5.13694 297.212 10.074V76.326C297.212 81.2631 301.353 85.5631 306.29 85.5631C311.068 85.5631 315.208 81.2631 315.208 76.326V50.2074H325.083ZM394.122 43.2C394.122 59.4892 382.657 71.6279 367.127 71.6279C351.732 71.6279 340.451 59.4632 340.451 43.2C340.451 26.9368 351.732 14.7722 367.127 14.7722C382.657 14.7722 394.122 26.9108 394.122 43.2ZM392.131 43.2C392.131 58.4889 381.46 69.6371 367.127 69.6371C352.953 69.6371 342.442 58.4889 342.442 43.2C342.442 27.9111 352.953 16.7629 367.127 16.7629C381.46 16.7629 392.131 27.9111 392.131 43.2Z" fill="white"/>
</g>
<defs>
<clipPath id="clip0_329_354">
<rect width="409.49" height="86" fill="white"/>
</clipPath>
</defs>
</svg>
