<svg width="97" height="97" viewBox="0 0 97 97" fill="none" xmlns="http://www.w3.org/2000/svg">
<path d="M80.1517 66.3073C83.5716 62.1083 70.0354 50.5226 62.8399 45.2546C66.4783 40.0283 72.8191 28.3345 69.0752 23.3693C64.3953 17.1627 52.9562 36.0461 48.5239 36.8401C44.0916 37.634 26.7798 16.5814 23.8453 23.6944C20.9108 30.8074 33.4302 42.4715 32.6669 47.9147C31.9036 53.3579 10.5502 53.1572 12.0255 58.8399C13.5009 64.5225 32.5931 63.8474 37.0705 64.3262C41.5478 64.8051 35.6194 86.361 41.3471 86.1585C47.0749 85.956 50.705 71.4904 53.4226 67.2525C56.1401 63.0146 75.8768 71.5561 80.1517 66.3073Z" fill="#F7812C"/>
<ellipse cx="30.5669" cy="28.4581" rx="1.00485" ry="0.736956" fill="#F9CA84"/>
<ellipse cx="29.5615" cy="31.4136" rx="1.00485" ry="0.736956" fill="#F9CA84"/>
<ellipse cx="41.5268" cy="36.9432" rx="1.00485" ry="0.736956" fill="#F9CA84"/>
<ellipse cx="37.9995" cy="42.5206" rx="1.00485" ry="0.736956" fill="#F9CA84"/>
<ellipse cx="44.3388" cy="42.8065" rx="1.00485" ry="0.736956" fill="#F9CA84"/>
<ellipse cx="54.4453" cy="39.5174" rx="1.00485" ry="0.736956" fill="#F9CA84"/>
<ellipse cx="50.7705" cy="64.7695" rx="1.00485" ry="0.736956" fill="#F9CA84"/>
<ellipse cx="44.625" cy="68.8297" rx="1.00485" ry="0.736956" fill="#F9CA84"/>
<ellipse cx="45.6299" cy="73.7724" rx="1.00485" ry="0.736956" fill="#F9CA84"/>
<ellipse cx="43.6206" cy="80.5977" rx="1.00485" ry="0.736956" fill="#F9CA84"/>
<ellipse cx="66.2539" cy="53.4723" rx="1.00485" ry="0.736956" fill="#F9CA84"/>
<ellipse cx="59.188" cy="61.8219" rx="1.00485" ry="0.736956" fill="#F9CA84"/>
<ellipse cx="68.6167" cy="64.0327" rx="1.00485" ry="0.736956" fill="#F9CA84"/>
<ellipse cx="76.3838" cy="62.5587" rx="1.00485" ry="0.736956" fill="#F9CA84"/>
<ellipse cx="58.1836" cy="48.7413" rx="1.00485" ry="0.736956" fill="#F9CA84"/>
<ellipse cx="44.625" cy="55.6831" rx="1.00485" ry="0.736956" fill="#F9CA84"/>
<ellipse cx="35.7895" cy="59.0031" rx="1.00485" ry="0.736956" fill="#F9CA84"/>
<ellipse cx="27.5522" cy="56.0026" rx="1.00485" ry="0.736956" fill="#F9CA84"/>
<ellipse cx="21.4917" cy="59.0031" rx="1.00485" ry="0.736956" fill="#F9CA84"/>
<ellipse cx="61.1982" cy="42.8065" rx="1.00485" ry="0.736956" fill="#F9CA84"/>
<ellipse cx="65.6577" cy="33.9805" rx="1.00485" ry="0.736956" fill="#F9CA84"/>
<ellipse cx="66.6626" cy="26.5513" rx="1.00485" ry="0.736956" fill="#F9CA84"/>
</svg>
