<svg width="683" height="369" viewBox="0 0 683 369" fill="none" xmlns="http://www.w3.org/2000/svg">
<path d="M67.1775 56.8236C37.2842 99.2793 -6.15423 90.9313 1.31891 125.895L36.1944 368.143C216.385 367.31 585.235 366.145 619.114 368.143C661.463 370.64 693.847 353.158 678.901 320.692C663.954 288.226 541.89 313.2 489.576 243.273C437.263 173.346 409.861 223.294 342.601 160.859C275.341 98.4236 292.779 110.911 225.519 73.4496C158.259 35.9886 212.943 54.933 150.665 14.9748C96.2601 -19.932 97.0708 14.3679 67.1775 56.8236Z" fill="#E9B225"/>
<ellipse cx="111.97" cy="156.556" rx="20.1009" ry="10.3928" fill="#E67F35"/>
<ellipse cx="269.547" cy="264.2" rx="16.8729" ry="6.55572" fill="#FCC537"/>
<ellipse cx="91.869" cy="270.757" rx="16.8729" ry="6.55572" fill="#FCC537"/>
<ellipse cx="300.899" cy="179.734" rx="14.4788" ry="4.74352" fill="#E57F35"/>
<ellipse cx="380.539" cy="263.166" rx="9.68005" ry="7.58973" fill="#FCC537"/>
<ellipse cx="210.727" cy="220.87" rx="11.3614" ry="5.17541" fill="#E67F35"/>
<ellipse cx="425.912" cy="329.472" rx="11.3614" ry="5.17541" fill="#E67F35"/>
<ellipse cx="242.187" cy="112.906" rx="10.4874" ry="8.5383" fill="#FCC537"/>
<ellipse cx="172.271" cy="148.018" rx="10.4874" ry="8.5383" fill="#FCC537"/>
<ellipse cx="503.227" cy="291.067" rx="8.84014" ry="7.58973" fill="#FCC537"/>
<ellipse cx="330.853" cy="298.657" rx="10.6849" ry="5.69209" fill="#E67F35"/>
<ellipse cx="146.927" cy="70.7504" rx="14.857" ry="6.64099" fill="#E67F35"/>
<ellipse cx="157.115" cy="297.708" rx="15.435" ry="4.74352" fill="#E67F35"/>
</svg>
