<svg width="101" height="99" viewBox="0 0 101 99" fill="none" xmlns="http://www.w3.org/2000/svg">
<path d="M78.1166 22.0435C74.8667 17.2745 58.9201 27.5803 51.3531 33.3294C47.1204 28.0251 37.1027 17.9954 30.8937 20.3109C23.1323 23.2052 38.9444 40.6267 38.4086 45.3952C37.8729 50.1637 11.1094 61.4495 17.4831 66.6081C23.8568 71.7666 39.5746 62.5232 44.9024 64.9567C50.2303 67.3902 43.5373 89.1398 49.7899 89.3595C56.0425 89.5791 61.1538 69.873 63.0034 65.4453C64.8529 61.0175 85.069 73.6224 86.6025 67.7105C88.136 61.7986 74.4637 53.6955 70.9607 49.6321C67.4577 45.5688 82.1789 28.0046 78.1166 22.0435Z" fill="#F7812C"/>
<ellipse cx="70.4494" cy="28.1878" rx="1.97336" ry="1.19633" fill="#F9CA84"/>
<ellipse cx="66.5024" cy="32.3953" rx="1.97336" ry="1.19633" fill="#F9CA84"/>
<ellipse cx="61.6943" cy="39.8332" rx="1.97336" ry="1.19633" fill="#F9CA84"/>
<ellipse cx="56.8862" cy="47.9527" rx="1.97336" ry="1.19633" fill="#F9CA84"/>
<ellipse cx="65.6408" cy="46.7604" rx="1.97336" ry="1.19633" fill="#F9CA84"/>
<ellipse cx="49.7087" cy="47.496" rx="1.97336" ry="1.19633" fill="#F9CA84"/>
<ellipse cx="53.6548" cy="39.8332" rx="1.97336" ry="1.19633" fill="#F9CA84"/>
<ellipse cx="42.0093" cy="42.2259" rx="1.97336" ry="1.19633" fill="#F9CA84"/>
<ellipse cx="42.5705" cy="49.1532" rx="1.97336" ry="1.19633" fill="#F9CA84"/>
<ellipse cx="38.6245" cy="53.9719" rx="1.97336" ry="1.19633" fill="#F9CA84"/>
<ellipse cx="46.9201" cy="55.1685" rx="1.97336" ry="1.19633" fill="#F9CA84"/>
<ellipse cx="45.7622" cy="59.9538" rx="1.97336" ry="1.19633" fill="#F9CA84"/>
<ellipse cx="54.3032" cy="55.1685" rx="1.97336" ry="1.19633" fill="#F9CA84"/>
<ellipse cx="64.5241" cy="55.1685" rx="1.97336" ry="1.19633" fill="#F9CA84"/>
<ellipse cx="71.9836" cy="59.9538" rx="1.97336" ry="1.19633" fill="#F9CA84"/>
<ellipse cx="80.155" cy="62.3464" rx="1.97336" ry="1.19633" fill="#F9CA84"/>
<ellipse cx="60.5776" cy="61.8996" rx="1.97336" ry="1.19633" fill="#F9CA84"/>
<ellipse cx="52.9389" cy="68.3609" rx="1.97336" ry="1.19633" fill="#F9CA84"/>
<ellipse cx="50.9663" cy="75.5156" rx="1.97336" ry="1.19633" fill="#F9CA84"/>
<ellipse cx="35.6164" cy="58.7572" rx="1.97336" ry="1.19633" fill="#F9CA84"/>
<ellipse cx="26.6853" cy="61.8996" rx="1.97336" ry="1.19633" fill="#F9CA84"/>
<ellipse cx="46.5173" cy="34.0364" rx="1.97336" ry="1.19633" fill="#F9CA84"/>
<ellipse cx="37.2763" cy="31.199" rx="1.97336" ry="1.19633" fill="#F9CA84"/>
<ellipse cx="40.0366" cy="25.7952" rx="1.97336" ry="1.19633" fill="#F9CA84"/>
<ellipse cx="52.9389" cy="81.1672" rx="1.97336" ry="1.19633" fill="#F9CA84"/>
</svg>
