<svg width="181" height="372" viewBox="0 0 181 372" fill="none" xmlns="http://www.w3.org/2000/svg">
<path d="M148.615 255.478C131.534 251.937 121.036 302.701 117.923 328.525C113.919 375.01 59.6519 380.912 53.4244 358.039C47.197 335.166 24.0665 366.156 13.3909 344.758C2.7153 323.36 33.8525 341.807 38.3006 318.933C42.7488 296.06 1.82567 320.409 0.491211 299.749C-0.843246 279.089 29.8491 304.914 33.8525 282.041C37.8558 259.168 13.3909 270.235 8.0531 235.556C2.7153 200.878 40.0799 272.449 38.3006 265.07C36.5214 257.692 53.4244 215.635 53.4244 255.478C53.4244 295.322 64.5448 300.487 59.6519 251.051C54.7589 201.615 33.8525 213.421 24.0665 184.645C14.2806 155.869 45.8625 200.878 43.1936 175.791C40.5247 150.704 20.9528 180.218 4.93938 147.753C-11.074 115.287 31.1836 169.888 33.8525 147.753C36.5214 125.617 12.9461 136.685 24.0665 112.336C35.1869 87.9869 32.0732 139.636 53.4244 159.558C74.7756 179.48 55.6485 134.471 68.5482 130.782C81.4479 127.093 65.8793 180.218 78.779 184.645C91.6787 189.072 81.8927 147.753 78.779 121.928C75.6653 96.1031 51.6452 88.7247 68.5482 85.7734C85.4512 82.822 36.9662 37.0754 59.6519 45.1917C82.3375 53.3081 57.4278 16.4157 68.5482 16.4157C79.6686 16.4157 78.3342 51.8324 86.7857 88.7247C95.2372 125.617 96.5716 96.1032 104.578 104.22C112.585 112.336 89.4546 121.19 96.5716 159.558C103.689 197.926 99.6854 141.112 112.14 159.558C124.595 178.004 89.8994 191.286 96.5716 221.537C103.244 251.789 109.027 231.867 112.14 205.305C115.254 178.742 141.943 169.888 121.926 112.336C101.909 54.7837 148.615 96.1032 132.602 76.9192C116.589 57.7351 109.471 29.6969 132.602 51.8324C155.732 73.9678 124.595 3.13439 144.167 0.182995C163.739 -2.7684 128.154 125.617 158.401 81.3464C188.648 37.0755 146.391 169.888 166.408 147.753C182.421 130.044 178.418 155.131 174.414 169.888C200.214 187.596 134.826 220.062 158.401 225.965C181.976 231.867 169.966 259.906 148.615 255.478Z" fill="#F75D2C"/>
<ellipse cx="3.59723" cy="4.05006" rx="3.59723" ry="4.05006" transform="matrix(-1 0 0 1 98.1357 181.523)" fill="#F7812C"/>
<ellipse cx="3.59723" cy="4.05006" rx="3.59723" ry="4.05006" transform="matrix(-1 0 0 1 127.315 228.404)" fill="#F7382C"/>
<ellipse cx="3.59723" cy="4.05006" rx="3.59723" ry="4.05006" transform="matrix(-1 0 0 1 148.273 203.835)" fill="#F7812C"/>
<ellipse cx="3.59723" cy="4.05006" rx="3.59723" ry="4.05006" transform="matrix(-1 0 0 1 148.273 237.494)" fill="#F7382C"/>
<ellipse cx="3.59723" cy="4.05006" rx="3.59723" ry="4.05006" transform="matrix(-1 0 0 1 133.64 107.838)" fill="#F7812C"/>
<ellipse cx="3.59723" cy="4.05006" rx="3.59723" ry="4.05006" transform="matrix(-1 0 0 1 95.6975 115.937)" fill="#F7812C"/>
<ellipse cx="3.59723" cy="4.05006" rx="3.59723" ry="4.05006" transform="matrix(-1 0 0 1 80.3379 92.8873)" fill="#F7812C"/>
<ellipse cx="3.59723" cy="4.05006" rx="3.59723" ry="4.05006" transform="matrix(-1 0 0 1 76.7395 207.044)" fill="#F7812C"/>
<ellipse cx="3.59723" cy="4.05006" rx="3.59723" ry="4.05006" transform="matrix(-1 0 0 1 75.7021 285.868)" fill="#F7812C"/>
<ellipse cx="3.59723" cy="4.05006" rx="3.59723" ry="4.05006" transform="matrix(-1 0 0 1 87.9717 318.251)" fill="#F7812C"/>
<ellipse cx="3.59723" cy="4.05006" rx="3.59723" ry="4.05006" transform="matrix(-1 0 0 1 167.154 182.962)" fill="#F7382C"/>
<ellipse cx="3.59723" cy="4.05006" rx="3.59723" ry="4.05006" transform="matrix(-1 0 0 1 161.257 92.8873)" fill="#F7382C"/>
<ellipse cx="3.59723" cy="4.05006" rx="3.59723" ry="4.05006" transform="matrix(-1 0 0 1 50.1951 266.229)" fill="#F7812C"/>
<ellipse cx="3.59723" cy="4.05006" rx="3.59723" ry="4.05006" transform="matrix(-1 0 0 1 46.3904 301.089)" fill="#F7382C"/>
<ellipse cx="3.59723" cy="4.05006" rx="3.59723" ry="4.05006" transform="matrix(-1 0 0 1 38.407 334.451)" fill="#F7382C"/>
<ellipse cx="3.59723" cy="4.05006" rx="3.59723" ry="4.05006" transform="matrix(-1 0 0 1 90.3479 269.3)" fill="#F7382C"/>
<ellipse cx="3.59723" cy="4.05006" rx="3.59723" ry="4.05006" transform="matrix(-1 0 0 1 102.892 326.35)" fill="#F7382C"/>
<ellipse cx="3.59723" cy="4.05006" rx="3.59723" ry="4.05006" transform="matrix(-1 0 0 1 113.844 292.988)" fill="#F7812C"/>
<ellipse cx="6.12124" cy="6.89181" rx="6.12124" ry="6.89181" transform="matrix(-1 0 0 1 71.2478 330.4)" fill="#F7382C"/>
<ellipse cx="2.72819" cy="3.07162" rx="2.72819" ry="3.07162" transform="matrix(-1 0 0 1 107.841 249.303)" fill="#F7382C"/>
<ellipse cx="2.72819" cy="3.07162" rx="2.72819" ry="3.07162" transform="matrix(-1 0 0 1 72.2739 271.257)" fill="#F7812C"/>
<ellipse cx="2.72819" cy="3.07162" rx="2.72819" ry="3.07162" transform="matrix(-1 0 0 1 98.1357 312.107)" fill="#F7812C"/>
<ellipse cx="2.72819" cy="3.07162" rx="2.72819" ry="3.07162" transform="matrix(-1 0 0 1 53.9104 289.917)" fill="#F7812C"/>
<ellipse cx="2.72819" cy="3.07162" rx="2.72819" ry="3.07162" transform="matrix(-1 0 0 1 89.4788 241.62)" fill="#F7812C"/>
<ellipse cx="2.72819" cy="3.07162" rx="2.72819" ry="3.07162" transform="matrix(-1 0 0 1 130.043 252.376)" fill="#F7812C"/>
<ellipse cx="2.72819" cy="3.07162" rx="2.72819" ry="3.07162" transform="matrix(-1 0 0 1 159.52 245.593)" fill="#F7812C"/>
<ellipse cx="2.72819" cy="3.07162" rx="2.72819" ry="3.07162" transform="matrix(-1 0 0 1 69.5449 246.231)" fill="#F7812C"/>
<ellipse cx="2.43737" cy="2.7442" rx="2.43737" ry="2.7442" transform="matrix(-1 0 0 1 53.9104 176.035)" fill="#F7382C"/>
<ellipse cx="2.43737" cy="2.7442" rx="2.43737" ry="2.7442" transform="matrix(-1 0 0 1 12.8821 146.69)" fill="#F7382C"/>
<ellipse cx="2.43737" cy="2.7442" rx="2.43737" ry="2.7442" transform="matrix(-1 0 0 1 70.0017 182.829)" fill="#F7812C"/>
<ellipse cx="2.43737" cy="2.7442" rx="2.43737" ry="2.7442" transform="matrix(-1 0 0 1 90.5007 149.657)" fill="#F7382C"/>
<ellipse cx="2.43737" cy="2.7442" rx="2.43737" ry="2.7442" transform="matrix(-1 0 0 1 67.5642 52.787)" fill="#F7812C"/>
<ellipse cx="2.43737" cy="2.7442" rx="2.43737" ry="2.7442" transform="matrix(-1 0 0 1 111.524 165.815)" fill="#F7812C"/>
<ellipse cx="2.43737" cy="2.7442" rx="2.43737" ry="2.7442" transform="matrix(-1 0 0 1 172.029 157.117)" fill="#F7812C"/>
<ellipse cx="2.43737" cy="2.7442" rx="2.43737" ry="2.7442" transform="matrix(-1 0 0 1 90.9402 202.397)" fill="#F7382C"/>
<ellipse cx="2.43737" cy="2.7442" rx="2.43737" ry="2.7442" transform="matrix(-1 0 0 1 122.338 207.044)" fill="#F7812C"/>
<ellipse cx="2.43737" cy="2.7442" rx="2.43737" ry="2.7442" transform="matrix(-1 0 0 1 138.515 149.435)" fill="#F7812C"/>
<ellipse cx="2.43737" cy="2.7442" rx="2.43737" ry="2.7442" transform="matrix(-1 0 0 1 142.239 70.6426)" fill="#F7382C"/>
<ellipse cx="2.43737" cy="2.7442" rx="2.43737" ry="2.7442" transform="matrix(-1 0 0 1 136.077 180.084)" fill="#F7382C"/>
<ellipse cx="2.43737" cy="2.7442" rx="2.43737" ry="2.7442" transform="matrix(-1 0 0 1 17.7576 239.203)" fill="#F7812C"/>
<ellipse cx="2.43737" cy="2.7442" rx="2.43737" ry="2.7442" transform="matrix(-1 0 0 1 100.281 344.185)" fill="#F7812C"/>
<ellipse cx="2.43737" cy="2.7442" rx="2.43737" ry="2.7442" transform="matrix(-1 0 0 1 77.1484 359.07)" fill="#F7382C"/>
<ellipse cx="1.69054" cy="1.90335" rx="1.69054" ry="1.90335" transform="matrix(-1 0 0 1 42.7925 151.339)" fill="#F7812C"/>
<ellipse cx="1.69054" cy="1.90335" rx="1.69054" ry="1.90335" transform="matrix(-1 0 0 1 68.5076 147.531)" fill="#F7812C"/>
<ellipse cx="1.69054" cy="1.90335" rx="1.69054" ry="1.90335" transform="matrix(-1 0 0 1 86.0649 114.035)" fill="#F7382C"/>
<ellipse cx="1.69054" cy="1.90335" rx="1.69054" ry="1.90335" transform="matrix(-1 0 0 1 80.3379 72.3248)" fill="#F7812C"/>
<ellipse cx="1.69054" cy="1.90335" rx="1.69054" ry="1.90335" transform="matrix(-1 0 0 1 76.9565 66.5617)" fill="#F7382C"/>
<ellipse cx="1.69054" cy="1.90335" rx="1.69054" ry="1.90335" transform="matrix(-1 0 0 1 74.8333 31.1779)" fill="#F7382C"/>
<ellipse cx="1.69054" cy="1.90335" rx="1.69054" ry="1.90335" transform="matrix(-1 0 0 1 55.6003 205.141)" fill="#F7812C"/>
<ellipse cx="1.69054" cy="1.90335" rx="1.69054" ry="1.90335" transform="matrix(-1 0 0 1 22.186 157.959)" fill="#F7812C"/>
<ellipse cx="2.43737" cy="2.7442" rx="2.43737" ry="2.7442" transform="matrix(-1 0 0 1 32.4041 115.937)" fill="#F7382C"/>
<ellipse cx="2.43737" cy="2.7442" rx="2.43737" ry="2.7442" transform="matrix(-1 0 0 1 51.4731 184.135)" fill="#F7382C"/>
<ellipse cx="2.43737" cy="2.7442" rx="2.43737" ry="2.7442" transform="matrix(-1 0 0 1 159.96 170.547)" fill="#F7812C"/>
<ellipse cx="2.43737" cy="2.7442" rx="2.43737" ry="2.7442" transform="matrix(-1 0 0 1 159.96 132.57)" fill="#F7382C"/>
<ellipse cx="2.43737" cy="2.7442" rx="2.43737" ry="2.7442" transform="matrix(-1 0 0 1 150.853 110.45)" fill="#F7812C"/>
<ellipse cx="2.43737" cy="2.7442" rx="2.43737" ry="2.7442" transform="matrix(-1 0 0 1 132.19 58.2766)" fill="#F7812C"/>
<ellipse cx="2.43737" cy="2.7442" rx="2.43737" ry="2.7442" transform="matrix(-1 0 0 1 147.113 17.0668)" fill="#F7382C"/>
<ellipse cx="2.43737" cy="2.7442" rx="2.43737" ry="2.7442" transform="matrix(-1 0 0 1 28.8223 255.447)" fill="#F7812C"/>
<ellipse cx="2.43737" cy="2.7442" rx="2.43737" ry="2.7442" transform="matrix(-1 0 0 1 36.0881 188.318)" fill="#F7382C"/>
<ellipse cx="2.43737" cy="2.7442" rx="2.43737" ry="2.7442" transform="matrix(-1 0 0 1 48.8276 249.303)" fill="#F7812C"/>
<ellipse cx="2.43737" cy="2.7442" rx="2.43737" ry="2.7442" transform="matrix(-1 0 0 1 11.3901 299.65)" fill="#F7812C"/>
<ellipse cx="2.43737" cy="2.7442" rx="2.43737" ry="2.7442" transform="matrix(-1 0 0 1 52.2202 323.607)" fill="#F7812C"/>
</svg>
