<svg width="262" height="257" viewBox="0 0 262 257" fill="none" xmlns="http://www.w3.org/2000/svg">
<path d="M202.889 57.9052C194.432 45.4948 152.933 72.3142 133.241 87.2752C122.226 73.4716 96.1563 47.3708 79.998 53.3965C59.8002 60.9286 100.949 106.266 99.5547 118.675C98.1604 131.084 28.5124 160.454 45.099 173.878C61.6857 187.303 102.589 163.248 116.454 169.581C130.319 175.914 112.901 232.514 129.173 233.086C145.444 233.657 158.746 182.375 163.559 170.852C168.372 159.33 220.982 192.132 224.972 176.747C228.963 161.362 193.383 140.275 184.267 129.701C175.151 119.126 213.461 73.4183 202.889 57.9052Z" fill="#F7812C"/>
<ellipse cx="180.829" cy="69.917" rx="5.13539" ry="3.11329" fill="#F9CA84"/>
<ellipse cx="170.555" cy="80.8677" rx="5.13539" ry="3.11329" fill="#F9CA84"/>
<ellipse cx="158.046" cy="100.227" rx="5.13539" ry="3.11329" fill="#F9CA84"/>
<ellipse cx="145.532" cy="121.354" rx="5.13539" ry="3.11329" fill="#F9CA84"/>
<ellipse cx="168.315" cy="118.25" rx="5.13539" ry="3.11329" fill="#F9CA84"/>
<ellipse cx="126.852" cy="120.164" rx="5.13539" ry="3.11329" fill="#F9CA84"/>
<ellipse cx="137.124" cy="100.222" rx="5.13539" ry="3.11329" fill="#F9CA84"/>
<ellipse cx="106.815" cy="106.449" rx="5.13539" ry="3.11329" fill="#F9CA84"/>
<ellipse cx="108.278" cy="124.479" rx="5.13539" ry="3.11329" fill="#F9CA84"/>
<ellipse cx="98.0084" cy="137.019" rx="5.13539" ry="3.11329" fill="#F9CA84"/>
<ellipse cx="119.594" cy="140.129" rx="5.13539" ry="3.11329" fill="#F9CA84"/>
<ellipse cx="116.583" cy="152.582" rx="5.13539" ry="3.11329" fill="#F9CA84"/>
<ellipse cx="138.811" cy="140.132" rx="5.13539" ry="3.11329" fill="#F9CA84"/>
<ellipse cx="165.411" cy="140.133" rx="5.13539" ry="3.11329" fill="#F9CA84"/>
<ellipse cx="184.821" cy="152.585" rx="5.13539" ry="3.11329" fill="#F9CA84"/>
<ellipse cx="206.087" cy="158.809" rx="5.13539" ry="3.11329" fill="#F9CA84"/>
<ellipse cx="155.139" cy="157.649" rx="5.13539" ry="3.11329" fill="#F9CA84"/>
<ellipse cx="135.258" cy="174.462" rx="5.13539" ry="3.11329" fill="#F9CA84"/>
<ellipse cx="130.126" cy="193.085" rx="5.13539" ry="3.11329" fill="#F9CA84"/>
<ellipse cx="90.1803" cy="149.471" rx="5.13539" ry="3.11329" fill="#F9CA84"/>
<ellipse cx="66.9381" cy="157.648" rx="5.13539" ry="3.11329" fill="#F9CA84"/>
<ellipse cx="118.548" cy="85.1362" rx="5.13539" ry="3.11329" fill="#F9CA84"/>
<ellipse cx="94.4967" cy="77.7529" rx="5.13539" ry="3.11329" fill="#F9CA84"/>
<ellipse cx="101.682" cy="63.6924" rx="5.13539" ry="3.11329" fill="#F9CA84"/>
<ellipse cx="135.258" cy="207.791" rx="5.13539" ry="3.11329" fill="#F9CA84"/>
</svg>
