<svg width="261" height="257" viewBox="0 0 261 257" fill="none" xmlns="http://www.w3.org/2000/svg">
<path d="M202.186 58.1362C193.729 45.7257 152.23 72.5451 132.538 87.5061C121.523 73.7026 95.4532 47.6018 79.2949 53.6275C59.0971 61.1596 100.246 106.497 98.8516 118.906C97.4573 131.315 27.8092 160.685 44.3959 174.109C60.9826 187.534 101.886 163.479 115.751 169.812C129.616 176.145 112.198 232.745 128.47 233.317C144.741 233.888 158.043 182.606 162.856 171.083C167.669 159.561 220.279 192.363 224.269 176.978C228.26 161.593 192.68 140.506 183.564 129.932C174.448 119.357 212.757 73.6493 202.186 58.1362Z" fill="#F7812C"/>
<ellipse cx="180.126" cy="70.1475" rx="5.13539" ry="3.11329" fill="#F9CA84"/>
<ellipse cx="169.852" cy="81.0982" rx="5.13539" ry="3.11329" fill="#F9CA84"/>
<ellipse cx="157.342" cy="100.457" rx="5.13539" ry="3.11329" fill="#F9CA84"/>
<ellipse cx="144.829" cy="121.585" rx="5.13539" ry="3.11329" fill="#F9CA84"/>
<ellipse cx="167.612" cy="118.48" rx="5.13539" ry="3.11329" fill="#F9CA84"/>
<ellipse cx="126.149" cy="120.395" rx="5.13539" ry="3.11329" fill="#F9CA84"/>
<ellipse cx="136.421" cy="100.453" rx="5.13539" ry="3.11329" fill="#F9CA84"/>
<ellipse cx="106.112" cy="106.679" rx="5.13539" ry="3.11329" fill="#F9CA84"/>
<ellipse cx="107.575" cy="124.71" rx="5.13539" ry="3.11329" fill="#F9CA84"/>
<ellipse cx="97.3053" cy="137.25" rx="5.13539" ry="3.11329" fill="#F9CA84"/>
<ellipse cx="118.891" cy="140.36" rx="5.13539" ry="3.11329" fill="#F9CA84"/>
<ellipse cx="115.88" cy="152.813" rx="5.13539" ry="3.11329" fill="#F9CA84"/>
<ellipse cx="138.108" cy="140.362" rx="5.13539" ry="3.11329" fill="#F9CA84"/>
<ellipse cx="164.708" cy="140.364" rx="5.13539" ry="3.11329" fill="#F9CA84"/>
<ellipse cx="184.118" cy="152.816" rx="5.13539" ry="3.11329" fill="#F9CA84"/>
<ellipse cx="205.383" cy="159.04" rx="5.13539" ry="3.11329" fill="#F9CA84"/>
<ellipse cx="154.436" cy="157.879" rx="5.13539" ry="3.11329" fill="#F9CA84"/>
<ellipse cx="134.555" cy="174.692" rx="5.13539" ry="3.11329" fill="#F9CA84"/>
<ellipse cx="129.423" cy="193.315" rx="5.13539" ry="3.11329" fill="#F9CA84"/>
<ellipse cx="89.4772" cy="149.701" rx="5.13539" ry="3.11329" fill="#F9CA84"/>
<ellipse cx="66.235" cy="157.879" rx="5.13539" ry="3.11329" fill="#F9CA84"/>
<ellipse cx="117.844" cy="85.3667" rx="5.13539" ry="3.11329" fill="#F9CA84"/>
<ellipse cx="93.7936" cy="77.9834" rx="5.13539" ry="3.11329" fill="#F9CA84"/>
<ellipse cx="100.979" cy="63.9229" rx="5.13539" ry="3.11329" fill="#F9CA84"/>
<ellipse cx="134.555" cy="208.021" rx="5.13539" ry="3.11329" fill="#F9CA84"/>
</svg>
