<svg width="135" height="117" viewBox="0 0 135 117" fill="none" xmlns="http://www.w3.org/2000/svg">
<path d="M56.3196 30.4774C50.5832 31.1083 52.1972 50.0265 53.7212 59.4068C47.0508 60.6541 33.4923 64.7912 32.6221 71.3606C31.5343 79.5723 54.3396 73.7888 58.2985 76.5004C62.2574 79.2119 59.659 108.141 67.2059 104.935C74.7527 101.729 73.9693 83.5112 78.6191 79.9492C83.2689 76.3873 99.3313 92.5068 102.46 87.0891C105.589 81.6713 90.5889 67.9075 87.5476 64.196C84.5062 60.4844 105.126 48.5512 100.626 44.422C96.1256 40.2928 82.5527 48.5612 77.3204 49.7468C72.0882 50.9323 63.4901 29.6889 56.3196 30.4774Z" fill="#F7812C"/>
<ellipse cx="58.1458" cy="40.1316" rx="1.97336" ry="1.19633" transform="rotate(-62.0029 58.1458 40.1316)" fill="#F9CA84"/>
<ellipse cx="60.0081" cy="45.5919" rx="1.97336" ry="1.19633" transform="rotate(-62.0029 60.0081 45.5919)" fill="#F9CA84"/>
<ellipse cx="64.3184" cy="53.3289" rx="1.97336" ry="1.19633" transform="rotate(-62.0029 64.3184 53.3289)" fill="#F9CA84"/>
<ellipse cx="69.2305" cy="61.3859" rx="1.97336" ry="1.19633" transform="rotate(-62.0029 69.2305 61.3859)" fill="#F9CA84"/>
<ellipse cx="72.2874" cy="53.096" rx="1.97336" ry="1.19633" transform="rotate(-62.0029 72.2874 53.096)" fill="#F9CA84"/>
<ellipse cx="65.458" cy="67.5089" rx="1.97336" ry="1.19633" transform="rotate(-62.0029 65.458 67.5089)" fill="#F9CA84"/>
<ellipse cx="60.5444" cy="60.4276" rx="1.97336" ry="1.19633" transform="rotate(-62.0029 60.5444 60.4276)" fill="#F9CA84"/>
<ellipse cx="57.1904" cy="71.8333" rx="1.97336" ry="1.19633" transform="rotate(-62.0029 57.1904 71.8333)" fill="#F9CA84"/>
<ellipse cx="63.5706" cy="74.5896" rx="1.97336" ry="1.19633" transform="rotate(-62.0029 63.5706 74.5896)" fill="#F9CA84"/>
<ellipse cx="65.9729" cy="80.3359" rx="1.97336" ry="1.19633" transform="rotate(-62.0029 65.9729 80.3359)" fill="#F9CA84"/>
<ellipse cx="70.9236" cy="73.5728" rx="1.97336" ry="1.19633" transform="rotate(-62.0029 70.9236 73.5728)" fill="#F9CA84"/>
<ellipse cx="74.6052" cy="76.8416" rx="1.97336" ry="1.19633" transform="rotate(-62.0029 74.6052 76.8416)" fill="#F9CA84"/>
<ellipse cx="74.3894" cy="67.0538" rx="1.97336" ry="1.19633" transform="rotate(-62.0029 74.3894 67.0538)" fill="#F9CA84"/>
<ellipse cx="79.1875" cy="58.0289" rx="1.97336" ry="1.19633" transform="rotate(-62.0029 79.1875 58.0289)" fill="#F9CA84"/>
<ellipse cx="86.9143" cy="53.6889" rx="1.97336" ry="1.19633" transform="rotate(-62.0029 86.9143 53.6889)" fill="#F9CA84"/>
<ellipse cx="92.8628" cy="47.5969" rx="1.97336" ry="1.19633" transform="rotate(-62.0029 92.8628 47.5969)" fill="#F9CA84"/>
<ellipse cx="83.2781" cy="64.6734" rx="1.97336" ry="1.19633" transform="rotate(-62.0029 83.2781 64.6734)" fill="#F9CA84"/>
<ellipse cx="85.3975" cy="74.4512" rx="1.97336" ry="1.19633" transform="rotate(-62.0029 85.3975 74.4512)" fill="#F9CA84"/>
<ellipse cx="90.7888" cy="79.5517" rx="1.97336" ry="1.19633" transform="rotate(-62.0029 90.7888 79.5517)" fill="#F9CA84"/>
<ellipse cx="68.7859" cy="85.2384" rx="1.97336" ry="1.19633" transform="rotate(-62.0029 68.7859 85.2384)" fill="#F9CA84"/>
<ellipse cx="67.3682" cy="94.5994" rx="1.97336" ry="1.19633" transform="rotate(-62.0029 67.3682 94.5994)" fill="#F9CA84"/>
<ellipse cx="52.0755" cy="64.0087" rx="1.97336" ry="1.19633" transform="rotate(-62.0029 52.0755 64.0087)" fill="#F9CA84"/>
<ellipse cx="45.2322" cy="70.8361" rx="1.97336" ry="1.19633" transform="rotate(-62.0029 45.2322 70.8361)" fill="#F9CA84"/>
<ellipse cx="41.7564" cy="65.8622" rx="1.97336" ry="1.19633" transform="rotate(-62.0029 41.7564 65.8622)" fill="#F9CA84"/>
<ellipse cx="96.7051" cy="80.4628" rx="1.97336" ry="1.19633" transform="rotate(-62.0029 96.7051 80.4628)" fill="#F9CA84"/>
</svg>
