<svg width="383" height="208" viewBox="0 0 383 208" fill="none" xmlns="http://www.w3.org/2000/svg">
<path d="M12.4728 33.9483C-5.49524 59.4673 -31.6049 54.4496 -27.113 75.4653L-6.15028 221.074C102.157 220.574 323.863 219.873 344.227 221.074C369.682 222.575 389.147 212.067 380.163 192.553C371.179 173.038 297.81 188.049 266.365 146.018C234.921 103.987 218.451 134.009 178.022 96.481C137.594 58.953 148.076 66.4586 107.648 43.9418C67.2194 21.425 100.089 32.8119 62.655 8.79414C29.9536 -12.1874 30.4409 8.42933 12.4728 33.9483Z" fill="#E9B225"/>
<ellipse cx="39.3956" cy="93.8955" rx="12.0821" ry="6.24684" fill="#E67F35"/>
<ellipse cx="134.112" cy="158.597" rx="10.1418" ry="3.94046" fill="#FCC537"/>
<ellipse cx="27.3142" cy="162.538" rx="10.1418" ry="3.94046" fill="#FCC537"/>
<ellipse cx="152.957" cy="107.827" rx="8.70282" ry="2.8512" fill="#E57F35"/>
<ellipse cx="200.827" cy="157.976" rx="5.81842" ry="4.56198" fill="#FCC537"/>
<ellipse cx="98.7553" cy="132.552" rx="6.82904" ry="3.1108" fill="#E67F35"/>
<ellipse cx="228.098" cy="197.83" rx="6.82904" ry="3.1108" fill="#E67F35"/>
<ellipse cx="117.667" cy="67.6586" rx="6.30372" ry="5.13215" fill="#FCC537"/>
<ellipse cx="75.6421" cy="88.7635" rx="6.30372" ry="5.13215" fill="#FCC537"/>
<ellipse cx="274.569" cy="174.746" rx="5.31357" ry="4.56198" fill="#FCC537"/>
<ellipse cx="170.96" cy="179.308" rx="6.42242" ry="3.42136" fill="#E67F35"/>
<ellipse cx="60.4082" cy="42.3194" rx="8.93016" ry="3.99172" fill="#E67F35"/>
<ellipse cx="66.5339" cy="178.738" rx="9.27758" ry="2.8512" fill="#E67F35"/>
</svg>
