<svg width="645" height="88" viewBox="0 0 645 88" fill="none" xmlns="http://www.w3.org/2000/svg">
<path d="M20.1276 5.30239L21.7304 4.10615L21.7235 4.09678L21.7164 4.08749L20.1276 5.30239ZM44.6076 38.1024L43.0048 39.2986L44.6024 41.4392L46.2067 39.3036L44.6076 38.1024ZM69.2476 5.30239L70.8467 6.50364L70.8536 6.49442L70.8604 6.48512L69.2476 5.30239ZM72.4476 23.8624L74.4357 24.0809L70.7353 22.8291L72.4476 23.8624ZM51.8076 53.6224L50.2385 52.3823L50.2286 52.3948L50.2189 52.4075L51.8076 53.6224ZM37.4076 53.6224L35.8482 54.8747L35.8554 54.8836L37.4076 53.6224ZM16.7676 23.7024L18.4826 22.6734L14.7796 23.9209L16.7676 23.7024ZM9.88764 84.4224C5.87221 84.4224 2.76764 81.1578 2.76764 77.4624H-1.23236C-1.23236 83.367 3.66307 88.4224 9.88764 88.4224V84.4224ZM2.76764 77.4624V12.6624H-1.23236V77.4624H2.76764ZM2.76764 12.6624C2.76764 7.68697 6.99221 3.4624 11.9676 3.4624V-0.537603C4.78307 -0.537603 -1.23236 5.47783 -1.23236 12.6624H2.76764ZM11.9676 3.4624C14.3721 3.4624 16.9187 4.39852 18.5389 6.5173L21.7164 4.08749C19.1766 0.766284 15.3232 -0.537603 11.9676 -0.537603V3.4624ZM18.5248 6.49864L43.0048 39.2986L46.2104 36.9062L21.7304 4.10615L18.5248 6.49864ZM46.2067 39.3036L70.8467 6.50364L67.6486 4.10115L43.0086 36.9012L46.2067 39.3036ZM70.8604 6.48512C72.1948 4.66562 74.7572 3.4624 77.2476 3.4624V-0.537603C73.6581 -0.537603 69.8205 1.13917 67.6348 4.11967L70.8604 6.48512ZM77.2476 3.4624C82.3645 3.4624 86.4476 7.66834 86.4476 12.6624H90.4476C90.4476 5.49645 84.6107 -0.537603 77.2476 -0.537603V3.4624ZM86.4476 12.6624V77.4624H90.4476V12.6624H86.4476ZM86.4476 77.4624C86.4476 81.181 83.32 84.4224 79.4876 84.4224V88.4224C85.5753 88.4224 90.4476 83.3438 90.4476 77.4624H86.4476ZM79.4876 84.4224C75.6322 84.4224 72.3676 81.1578 72.3676 77.3024H68.3676C68.3676 83.367 73.4231 88.4224 79.4876 88.4224V84.4224ZM72.3676 77.3024C72.3676 50.7671 72.8476 38.5324 74.4357 24.0809L70.4596 23.6439C68.8477 38.3124 68.3676 50.7177 68.3676 77.3024H72.3676ZM70.7353 22.8291C65.1764 32.0409 58.0239 42.5314 50.2385 52.3823L53.3768 54.8625C61.2714 44.8734 68.5189 34.2439 74.16 24.8957L70.7353 22.8291ZM50.2189 52.4075C48.4481 54.7231 46.439 55.6224 44.6076 55.6224V59.6224C47.8963 59.6224 51.0071 57.9617 53.3964 54.8373L50.2189 52.4075ZM44.6076 55.6224C42.8267 55.6224 40.7877 54.6109 38.9599 52.3612L35.8554 54.8836C38.1875 57.7539 41.2686 59.6224 44.6076 59.6224V55.6224ZM38.9671 52.3701C30.5629 41.9046 23.2547 30.6268 18.4826 22.6734L15.0527 24.7314C19.8806 32.778 27.2924 44.2202 35.8482 54.8747L38.9671 52.3701ZM14.7796 23.9209C16.3676 38.3719 16.8476 50.9261 16.8476 77.3024H20.8476C20.8476 50.8787 20.3676 38.1529 18.7557 23.4839L14.7796 23.9209ZM16.8476 77.3024C16.8476 81.1808 13.5603 84.4224 9.88764 84.4224V88.4224C15.815 88.4224 20.8476 83.344 20.8476 77.3024H16.8476ZM175.326 68.5024H177.326L173.475 67.7462L175.326 68.5024ZM175.326 17.4624L173.598 18.4685L177.326 24.8739V17.4624H175.326ZM184.606 3.7824C186.415 3.7824 188.207 4.39934 189.522 5.56106C190.798 6.68889 191.726 8.41648 191.726 10.9024H195.726C195.726 7.30832 194.335 4.47592 192.171 2.56374C190.045 0.685464 187.278 -0.217598 184.606 -0.217598V3.7824ZM191.726 10.9024V77.3024H195.726V10.9024H191.726ZM191.726 77.3024C191.726 81.9364 188.332 84.4224 184.606 84.4224V88.4224C190.16 88.4224 195.726 84.5084 195.726 77.3024H191.726ZM184.606 84.4224C180.834 84.4224 177.326 81.8953 177.326 77.3024H173.326C173.326 84.5495 179.098 88.4224 184.606 88.4224V84.4224ZM177.326 77.3024V68.5024H173.326V77.3024H177.326ZM173.475 67.7462C169.203 78.2049 158.368 85.0624 143.966 85.0624V89.0624C159.645 89.0624 172.17 81.5199 177.178 69.2587L173.475 67.7462ZM143.966 85.0624C131.955 85.0624 122.301 80.4495 115.633 73.0441C108.944 65.6167 105.166 55.2728 105.166 43.7024H101.166C101.166 56.132 105.229 67.4681 112.66 75.7208C120.111 83.9953 130.858 89.0624 143.966 89.0624V85.0624ZM105.166 43.7024C105.166 31.8253 109.095 21.5783 115.96 14.3163C122.813 7.06702 132.712 2.6624 144.926 2.6624V-1.3376C131.701 -1.3376 120.72 3.45777 113.053 11.5685C105.398 19.6665 101.166 30.9395 101.166 43.7024H105.166ZM144.926 2.6624C156.614 2.6624 167.755 8.42991 173.598 18.4685L177.055 16.4563C170.418 5.05489 157.879 -1.3376 144.926 -1.3376V2.6624ZM177.326 17.4624V10.9024H173.326V17.4624H177.326ZM177.326 10.9024C177.326 8.41738 178.253 6.69439 179.542 5.56863C180.87 4.40847 182.703 3.7824 184.606 3.7824V-0.217598C181.87 -0.217598 179.063 0.676331 176.911 2.55618C174.719 4.47041 173.326 7.30742 173.326 10.9024H177.326ZM148.606 72.5824C165.263 72.5824 177.166 60.135 177.166 43.8624H173.166C173.166 57.9898 162.99 68.5824 148.606 68.5824V72.5824ZM177.166 43.8624C177.166 27.7418 165.255 15.3024 148.606 15.3024V19.3024C162.998 19.3024 173.166 29.903 173.166 43.8624H177.166ZM148.606 15.3024C131.846 15.3024 119.726 27.214 119.726 43.8624H123.726C123.726 29.4708 134.007 19.3024 148.606 19.3024V15.3024ZM119.726 43.8624C119.726 52.1929 122.71 59.3979 127.878 64.5226C133.045 69.6457 140.286 72.5824 148.606 72.5824V68.5824C141.247 68.5824 135.048 65.9991 130.695 61.6822C126.343 57.3669 123.726 51.2119 123.726 43.8624H119.726ZM230.879 18.7424V16.7424H228.879V18.7424H230.879ZM214.799 77.1424V11.3824H210.799V77.1424H214.799ZM214.799 11.3824C214.799 8.86421 215.493 7.19711 216.533 6.15661C217.574 5.11611 219.241 4.42239 221.759 4.42239V0.422394C218.517 0.422394 215.704 1.32868 213.705 3.32818C211.705 5.32769 210.799 8.14059 210.799 11.3824H214.799ZM221.759 4.42239H262.239V0.422394H221.759V4.42239ZM262.239 4.42239C265.48 4.42239 268.399 7.23219 268.399 10.5824H272.399C272.399 4.97261 267.638 0.422394 262.239 0.422394V4.42239ZM268.399 10.5824C268.399 13.9578 265.614 16.7424 262.239 16.7424V20.7424C267.823 20.7424 272.399 16.167 272.399 10.5824H268.399ZM262.239 16.7424H230.879V20.7424H262.239V16.7424ZM228.879 18.7424V77.1424H232.879V18.7424H228.879ZM228.879 77.1424C228.879 81.0662 225.547 84.4224 221.919 84.4224V88.4224C227.891 88.4224 232.879 83.1386 232.879 77.1424H228.879ZM221.919 84.4224C218.108 84.4224 214.799 81.043 214.799 77.1424H210.799C210.799 83.1618 215.81 88.4224 221.919 88.4224V84.4224ZM345.951 68.5024H347.951L344.1 67.7462L345.951 68.5024ZM345.951 17.4624L344.223 18.4685L347.951 24.8739V17.4624H345.951ZM355.231 3.7824C357.04 3.7824 358.832 4.39934 360.147 5.56106C361.423 6.68889 362.351 8.41648 362.351 10.9024H366.351C366.351 7.30832 364.96 4.47592 362.796 2.56374C360.67 0.685464 357.903 -0.217598 355.231 -0.217598V3.7824ZM362.351 10.9024V77.3024H366.351V10.9024H362.351ZM362.351 77.3024C362.351 81.9364 358.957 84.4224 355.231 84.4224V88.4224C360.785 88.4224 366.351 84.5084 366.351 77.3024H362.351ZM355.231 84.4224C351.459 84.4224 347.951 81.8953 347.951 77.3024H343.951C343.951 84.5495 349.723 88.4224 355.231 88.4224V84.4224ZM347.951 77.3024V68.5024H343.951V77.3024H347.951ZM344.1 67.7462C339.828 78.2049 328.993 85.0624 314.591 85.0624V89.0624C330.27 89.0624 342.795 81.5199 347.803 69.2587L344.1 67.7462ZM314.591 85.0624C302.58 85.0624 292.926 80.4495 286.258 73.0441C279.569 65.6167 275.791 55.2728 275.791 43.7024H271.791C271.791 56.132 275.854 67.4681 283.285 75.7208C290.736 83.9953 301.483 89.0624 314.591 89.0624V85.0624ZM275.791 43.7024C275.791 31.8253 279.72 21.5783 286.585 14.3163C293.438 7.06702 303.337 2.6624 315.551 2.6624V-1.3376C302.326 -1.3376 291.345 3.45777 283.678 11.5685C276.023 19.6665 271.791 30.9395 271.791 43.7024H275.791ZM315.551 2.6624C327.239 2.6624 338.38 8.42991 344.223 18.4685L347.68 16.4563C341.043 5.05489 328.504 -1.3376 315.551 -1.3376V2.6624ZM347.951 17.4624V10.9024H343.951V17.4624H347.951ZM347.951 10.9024C347.951 8.41738 348.878 6.69439 350.167 5.56863C351.495 4.40847 353.328 3.7824 355.231 3.7824V-0.217598C352.495 -0.217598 349.688 0.676331 347.536 2.55618C345.344 4.47041 343.951 7.30742 343.951 10.9024H347.951ZM319.231 72.5824C335.888 72.5824 347.791 60.135 347.791 43.8624H343.791C343.791 57.9898 333.615 68.5824 319.231 68.5824V72.5824ZM347.791 43.8624C347.791 27.7418 335.88 15.3024 319.231 15.3024V19.3024C333.623 19.3024 343.791 29.903 343.791 43.8624H347.791ZM319.231 15.3024C302.471 15.3024 290.351 27.214 290.351 43.8624H294.351C294.351 29.4708 304.632 19.3024 319.231 19.3024V15.3024ZM290.351 43.8624C290.351 52.1929 293.335 59.3979 298.503 64.5226C303.67 69.6457 310.911 72.5824 319.231 72.5824V68.5824C311.872 68.5824 305.673 65.9991 301.32 61.6822C296.968 57.3669 294.351 51.2119 294.351 43.8624H290.351ZM439.584 41.3024L438.674 39.5212L434.573 41.6153L438.903 43.1829L439.584 41.3024ZM381.504 71.3824L383.168 70.273L383.168 70.273L381.504 71.3824ZM395.104 61.6224L396.925 60.7948L396.922 60.7891L395.104 61.6224ZM396.384 25.3024L398.187 26.1679L398.193 26.1556L398.199 26.1433L396.384 25.3024ZM383.584 15.8624L385.169 17.0818L385.174 17.0753L383.584 15.8624ZM438.903 43.1829C443.26 44.7604 446.468 47.0385 448.588 49.8472C450.698 52.6435 451.824 56.0889 451.824 60.1824H455.824C455.824 55.3159 454.47 51.0013 451.78 47.4376C449.1 43.8863 445.188 41.2044 440.265 39.4219L438.903 43.1829ZM451.824 60.1824C451.824 67.0747 448.878 73.2493 442.989 77.7538C437.056 82.2915 428.008 85.2224 415.744 85.2224V89.2224C428.6 89.2224 438.591 86.1533 445.419 80.931C452.29 75.6755 455.824 68.3301 455.824 60.1824H451.824ZM415.744 85.2224C399.184 85.2224 389.14 79.2317 383.168 70.273L379.84 72.4918C386.667 82.7331 398.064 89.2224 415.744 89.2224V85.2224ZM383.168 70.273C381.76 68.161 381.264 66.3015 381.264 64.6624H377.264C377.264 67.1833 378.048 69.8038 379.84 72.4918L383.168 70.273ZM381.264 64.6624C381.264 60.6715 384.344 58.0224 387.584 58.0224V54.0224C382.184 54.0224 377.264 58.4133 377.264 64.6624H381.264ZM387.584 58.0224C389.543 58.0224 391.79 59.1914 393.286 62.4557L396.922 60.7891C394.898 56.3734 391.384 54.0224 387.584 54.0224V58.0224ZM393.283 62.45C396.877 70.357 404.743 75.1424 416.224 75.1424V71.1424C405.945 71.1424 399.731 66.9678 396.925 60.7948L393.283 62.45ZM416.224 75.1424C422.587 75.1424 427.855 73.68 431.596 71.1111C435.371 68.5184 437.584 64.7813 437.584 60.5024H433.584C433.584 63.2635 432.196 65.8464 429.332 67.8137C426.432 69.8048 422.021 71.1424 416.224 71.1424V75.1424ZM437.584 60.5024C437.584 55.5751 434.578 52.3113 430.518 50.3939C426.537 48.5139 421.32 47.7824 416.064 47.7824V51.7824C421.048 51.7824 425.591 52.4909 428.81 54.0109C431.949 55.4935 433.584 57.5897 433.584 60.5024H437.584ZM416.064 47.7824H412.864V51.7824H416.064V47.7824ZM412.864 47.7824C411.004 47.7824 409.881 47.1879 409.215 46.4862C408.525 45.7587 408.144 44.7209 408.144 43.5424H404.144C404.144 45.5639 404.803 47.6461 406.313 49.2386C407.847 50.8569 410.084 51.7824 412.864 51.7824V47.7824ZM408.144 43.5424C408.144 40.8763 410.043 38.5024 412.864 38.5024V34.5024C407.364 34.5024 404.144 39.1685 404.144 43.5424H408.144ZM412.864 38.5024H416.064V34.5024H412.864V38.5024ZM416.064 38.5024C419.831 38.5024 424.158 37.8828 427.62 36.05C431.192 34.1589 433.904 30.9118 433.904 25.9424H429.904C429.904 29.133 428.296 31.1659 425.748 32.5148C423.09 33.922 419.497 34.5024 416.064 34.5024V38.5024ZM433.904 25.9424C433.904 21.7068 431.693 18.3145 428.13 16.0701C424.63 13.8658 419.822 12.7424 414.304 12.7424V16.7424C419.346 16.7424 423.338 17.779 425.998 19.4547C428.595 21.0903 429.904 23.298 429.904 25.9424H433.904ZM414.304 12.7424C409.448 12.7424 405.349 13.8094 402.016 15.8587C398.678 17.9116 396.232 20.8744 394.569 24.4615L398.199 26.1433C399.576 23.1704 401.53 20.8532 404.111 19.2661C406.699 17.6754 410.04 16.7424 414.304 16.7424V12.7424ZM394.581 24.4369C392.875 27.9909 390.894 28.9024 389.344 28.9024V32.9024C392.914 32.9024 396.053 30.6139 398.187 26.1679L394.581 24.4369ZM389.344 28.9024C386.455 28.9024 383.344 25.9718 383.344 21.9424H379.344C379.344 27.833 383.913 32.9024 389.344 32.9024V28.9024ZM383.344 21.9424C383.344 20.4952 383.818 18.8382 385.169 17.0818L381.999 14.643C380.15 17.0466 379.344 19.5496 379.344 21.9424H383.344ZM385.174 17.0753C388.638 12.5333 392.54 8.95738 397.352 6.50427C402.163 4.05188 408.002 2.6624 415.424 2.6624V-1.3376C407.486 -1.3376 401.004 0.152914 395.536 2.94053C390.068 5.72742 385.729 9.75155 381.994 14.6495L385.174 17.0753ZM415.424 2.6624C425.856 2.6624 434.005 5.11744 439.489 9.10058C444.922 13.0471 447.824 18.5406 447.824 24.9824H451.824C451.824 17.1842 448.246 10.5177 441.839 5.86422C435.483 1.24735 426.432 -1.3376 415.424 -1.3376V2.6624ZM447.824 24.9824C447.824 30.7101 445.457 36.0575 438.674 39.5212L440.493 43.0836C448.75 38.8673 451.824 32.0547 451.824 24.9824H447.824ZM529.094 28.9824H531.094V23.2708L527.531 27.7347L529.094 28.9824ZM486.694 82.1024L488.224 83.3907L488.241 83.3706L488.257 83.3501L486.694 82.1024ZM485.254 59.7024H483.254V65.4777L486.826 60.9393L485.254 59.7024ZM527.814 5.6224L526.244 4.38311L526.242 4.38553L527.814 5.6224ZM538.214 84.4224C534.336 84.4224 531.094 81.135 531.094 77.4624H527.094C527.094 83.3898 532.172 88.4224 538.214 88.4224V84.4224ZM531.094 77.4624V28.9824H527.094V77.4624H531.094ZM527.531 27.7347L485.131 80.8547L488.257 83.3501L530.657 30.2301L527.531 27.7347ZM485.164 80.8141C482.939 83.4562 480.118 84.7424 477.414 84.7424V88.7424C481.43 88.7424 485.329 86.8286 488.224 83.3907L485.164 80.8141ZM477.414 84.7424C473.198 84.7424 469.174 81.5979 469.174 75.8624H465.174C465.174 83.8869 471.07 88.7424 477.414 88.7424V84.7424ZM469.174 75.8624V10.4224H465.174V75.8624H469.174ZM469.174 10.4224C469.174 6.72697 472.278 3.4624 476.294 3.4624V-0.537603C470.069 -0.537603 465.174 4.51783 465.174 10.4224H469.174ZM476.294 3.4624C480.126 3.4624 483.254 6.70376 483.254 10.4224H487.254C487.254 4.54104 482.382 -0.537603 476.294 -0.537603V3.4624ZM483.254 10.4224V59.7024H487.254V10.4224H483.254ZM486.826 60.9393L529.386 6.85928L526.242 4.38553L483.682 58.4655L486.826 60.9393ZM529.384 6.86169C531.398 4.30979 534.176 3.1424 536.774 3.1424V-0.857599C532.972 -0.857599 529.029 0.855015 526.244 4.38311L529.384 6.86169ZM536.774 3.1424C541.009 3.1424 545.174 6.30573 545.174 12.1824H549.174C549.174 3.97906 543.099 -0.857599 536.774 -0.857599V3.1424ZM545.174 12.1824V77.4624H549.174V12.1824H545.174ZM545.174 77.4624C545.174 81.181 542.046 84.4224 538.214 84.4224V88.4224C544.302 88.4224 549.174 83.3438 549.174 77.4624H545.174ZM584.316 36.5024H582.316V38.5024H584.316V36.5024ZM626.076 36.5024V38.5024H628.076V36.5024H626.076ZM626.076 52.3424H628.076V50.3424H626.076V52.3424ZM584.316 52.3424V50.3424H582.316V52.3424H584.316ZM575.356 84.4224C571.341 84.4224 568.236 81.1578 568.236 77.4624H564.236C564.236 83.367 569.132 88.4224 575.356 88.4224V84.4224ZM568.236 77.4624V10.4224H564.236V77.4624H568.236ZM568.236 10.4224C568.236 6.72697 571.341 3.4624 575.356 3.4624V-0.537603C569.132 -0.537603 564.236 4.51783 564.236 10.4224H568.236ZM575.356 3.4624C579.189 3.4624 582.316 6.70376 582.316 10.4224H586.316C586.316 4.54104 581.444 -0.537603 575.356 -0.537603V3.4624ZM582.316 10.4224V36.5024H586.316V10.4224H582.316ZM584.316 38.5024H626.076V34.5024H584.316V38.5024ZM628.076 36.5024V10.4224H624.076V36.5024H628.076ZM628.076 10.4224C628.076 6.74975 631.318 3.4624 635.196 3.4624V-0.537603C629.155 -0.537603 624.076 4.49505 624.076 10.4224H628.076ZM635.196 3.4624C639.029 3.4624 642.156 6.70376 642.156 10.4224H646.156C646.156 4.54104 641.284 -0.537603 635.196 -0.537603V3.4624ZM642.156 10.4224V77.4624H646.156V10.4224H642.156ZM642.156 77.4624C642.156 81.181 639.029 84.4224 635.196 84.4224V88.4224C641.284 88.4224 646.156 83.3438 646.156 77.4624H642.156ZM635.196 84.4224C631.318 84.4224 628.076 81.135 628.076 77.4624H624.076C624.076 83.3898 629.155 88.4224 635.196 88.4224V84.4224ZM628.076 77.4624V52.3424H624.076V77.4624H628.076ZM626.076 50.3424H584.316V54.3424H626.076V50.3424ZM582.316 52.3424V77.4624H586.316V52.3424H582.316ZM582.316 77.4624C582.316 81.181 579.189 84.4224 575.356 84.4224V88.4224C581.444 88.4224 586.316 83.3438 586.316 77.4624H582.316Z" fill="white"/>
</svg>
