<svg width="645" height="88" viewBox="0 0 645 88" fill="none" xmlns="http://www.w3.org/2000/svg">
<path d="M9.88764 86.4224C4.76764 86.4224 0.767637 82.2624 0.767637 77.4624V12.6624C0.767637 6.5824 5.88764 1.4624 11.9676 1.4624C14.8476 1.4624 18.0476 2.5824 20.1276 5.30239L44.6076 38.1024L69.2476 5.30239C71.0076 2.9024 74.2076 1.4624 77.2476 1.4624C83.4876 1.4624 88.4476 6.5824 88.4476 12.6624V77.4624C88.4476 82.2624 84.4476 86.4224 79.4876 86.4224C74.5276 86.4224 70.3676 82.2624 70.3676 77.3024C70.3676 50.7424 70.8476 38.4224 72.4476 23.8624C66.8476 33.1424 59.6476 43.7024 51.8076 53.6224C49.7276 56.3424 47.1676 57.6224 44.6076 57.6224C42.0476 57.6224 39.4876 56.1824 37.4076 53.6224C28.9276 43.0624 21.5676 31.7024 16.7676 23.7024C18.3676 38.2624 18.8476 50.9024 18.8476 77.3024C18.8476 82.2624 14.6876 86.4224 9.88764 86.4224ZM184.606 1.7824C189.086 1.7824 193.726 4.8224 193.726 10.9024V77.3024C193.726 83.2224 189.246 86.4224 184.606 86.4224C179.966 86.4224 175.326 83.2224 175.326 77.3024V68.5024C170.686 79.8624 159.006 87.0624 143.966 87.0624C118.846 87.0624 103.166 67.7024 103.166 43.7024C103.166 19.0624 119.486 0.662397 144.926 0.662397C157.246 0.662397 169.086 6.7424 175.326 17.4624V10.9024C175.326 4.8224 179.966 1.7824 184.606 1.7824ZM148.606 70.5824C164.126 70.5824 175.166 59.0624 175.166 43.8624C175.166 28.8224 164.126 17.3024 148.606 17.3024C132.926 17.3024 121.726 28.3424 121.726 43.8624C121.726 59.5424 132.926 70.5824 148.606 70.5824ZM212.799 77.1424V11.3824C212.799 5.6224 215.999 2.42239 221.759 2.42239H262.239C266.559 2.42239 270.399 6.1024 270.399 10.5824C270.399 15.0624 266.719 18.7424 262.239 18.7424H230.879V77.1424C230.879 82.1024 226.719 86.4224 221.919 86.4224C216.959 86.4224 212.799 82.1024 212.799 77.1424ZM355.231 1.7824C359.711 1.7824 364.351 4.8224 364.351 10.9024V77.3024C364.351 83.2224 359.871 86.4224 355.231 86.4224C350.591 86.4224 345.951 83.2224 345.951 77.3024V68.5024C341.311 79.8624 329.631 87.0624 314.591 87.0624C289.471 87.0624 273.791 67.7024 273.791 43.7024C273.791 19.0624 290.111 0.662397 315.551 0.662397C327.871 0.662397 339.711 6.7424 345.951 17.4624V10.9024C345.951 4.8224 350.591 1.7824 355.231 1.7824ZM319.231 70.5824C334.751 70.5824 345.791 59.0624 345.791 43.8624C345.791 28.8224 334.751 17.3024 319.231 17.3024C303.551 17.3024 292.351 28.3424 292.351 43.8624C292.351 59.5424 303.551 70.5824 319.231 70.5824ZM439.584 41.3024C448.864 44.6624 453.824 51.2224 453.824 60.1824C453.824 75.2224 440.864 87.2224 415.744 87.2224C398.624 87.2224 387.904 80.9824 381.504 71.3824C379.904 68.9824 379.264 66.7424 379.264 64.6624C379.264 59.5424 383.264 56.0224 387.584 56.0224C390.464 56.0224 393.344 57.7824 395.104 61.6224C398.304 68.6624 405.344 73.1424 416.224 73.1424C428.384 73.1424 435.584 67.5424 435.584 60.5024C435.584 52.6624 426.304 49.7824 416.064 49.7824H412.864C408.224 49.7824 406.144 46.7424 406.144 43.5424C406.144 40.0224 408.704 36.5024 412.864 36.5024H416.064C423.264 36.5024 431.904 34.1024 431.904 25.9424C431.904 19.0624 424.864 14.7424 414.304 14.7424C405.184 14.7424 399.424 18.7424 396.384 25.3024C394.464 29.3024 391.904 30.9024 389.344 30.9024C385.184 30.9024 381.344 26.9024 381.344 21.9424C381.344 20.0224 381.984 17.9424 383.584 15.8624C390.784 6.4224 400.064 0.662397 415.424 0.662397C436.864 0.662397 449.824 10.7424 449.824 24.9824C449.824 31.3824 447.104 37.4624 439.584 41.3024ZM538.214 86.4224C533.254 86.4224 529.094 82.2624 529.094 77.4624V28.9824L486.694 82.1024C484.134 85.1424 480.774 86.7424 477.414 86.7424C472.134 86.7424 467.174 82.7424 467.174 75.8624V10.4224C467.174 5.6224 471.174 1.4624 476.294 1.4624C481.254 1.4624 485.254 5.6224 485.254 10.4224V59.7024L527.814 5.6224C530.214 2.5824 533.574 1.1424 536.774 1.1424C542.054 1.1424 547.174 5.1424 547.174 12.1824V77.4624C547.174 82.2624 543.174 86.4224 538.214 86.4224ZM575.356 86.4224C570.236 86.4224 566.236 82.2624 566.236 77.4624V10.4224C566.236 5.6224 570.236 1.4624 575.356 1.4624C580.316 1.4624 584.316 5.6224 584.316 10.4224V36.5024H626.076V10.4224C626.076 5.6224 630.236 1.4624 635.196 1.4624C640.156 1.4624 644.156 5.6224 644.156 10.4224V77.4624C644.156 82.2624 640.156 86.4224 635.196 86.4224C630.236 86.4224 626.076 82.2624 626.076 77.4624V52.3424H584.316V77.4624C584.316 82.2624 580.316 86.4224 575.356 86.4224Z" fill="white"/>
</svg>
