<svg width="644" height="88" viewBox="0 0 644 88" fill="none" xmlns="http://www.w3.org/2000/svg">
<g clip-path="url(#clip0_329_363)">
<path fill-rule="evenodd" clip-rule="evenodd" d="M19.5172 5.45281C17.4372 2.73281 14.2372 1.61281 11.3572 1.61281C5.27723 1.61281 0.157227 6.73281 0.157227 12.8128V77.6128C0.157227 82.4128 4.15723 86.5728 9.27723 86.5728C14.0772 86.5728 18.2372 82.4128 18.2372 77.4528C18.2372 53.8734 17.8543 41.2708 16.6325 28.473C16.4863 26.9421 16.3282 25.4084 16.1572 23.8528C16.9041 25.0976 17.713 26.4238 18.5785 27.8157C23.2748 35.3688 29.6367 44.856 36.7972 53.7728C38.8772 56.3328 41.4372 57.7728 43.9972 57.7728C46.5572 57.7728 49.1172 56.4928 51.1972 53.7728C57.9504 45.228 64.2287 36.2083 69.4186 27.9409C70.2539 26.6103 71.0609 25.2993 71.8372 24.0128C71.667 25.5616 71.5095 27.0851 71.3639 28.603C70.1405 41.355 69.7572 53.7181 69.7572 77.4528C69.7572 82.4128 73.9172 86.5728 78.8772 86.5728C83.8372 86.5728 87.8372 82.4128 87.8372 77.6128V12.8128C87.8372 6.73281 82.8772 1.61281 76.6372 1.61281C73.5972 1.61281 70.3972 3.05281 68.6372 5.45281L43.9972 38.2528L19.5172 5.45281ZM38.3528 52.5157C29.9503 42.0515 22.6435 30.776 17.8722 22.8238L14.1692 24.0713C15.7572 38.5223 16.2372 51.0765 16.2372 77.4528C16.2372 81.3312 12.9499 84.5728 9.27723 84.5728C5.2618 84.5728 2.15723 81.3083 2.15723 77.6128V12.8128C2.15723 7.83738 6.3818 3.61281 11.3572 3.61281C13.7584 3.61281 16.3013 4.54637 17.9218 6.659L43.992 41.5896L70.2432 6.64484L70.25 6.63554C71.5843 4.81604 74.1468 3.61281 76.6372 3.61281C81.7541 3.61281 85.8372 7.81876 85.8372 12.8128V77.6128C85.8372 81.3314 82.7096 84.5728 78.8772 84.5728C75.0218 84.5728 71.7572 81.3083 71.7572 77.4528C71.7572 50.9175 72.2372 38.6828 73.8253 24.2313L70.1249 22.9795C64.566 32.1913 57.4135 42.6818 49.6281 52.5327L49.6182 52.5452L49.6085 52.5579C47.8377 54.8736 45.8286 55.7728 43.9972 55.7728C42.2174 55.7728 40.1798 54.7625 38.3528 52.5157ZM172.864 67.8966L176.716 68.6528V77.4528C176.716 82.0457 180.224 84.5728 183.996 84.5728C187.722 84.5728 191.116 82.0868 191.116 77.4528V11.0528C191.116 8.56689 190.188 6.8393 188.912 5.71148C187.597 4.54975 185.804 3.93282 183.996 3.93282C182.093 3.93282 180.26 4.55889 178.932 5.71904C177.643 6.84481 176.716 8.56779 176.716 11.0528V25.0243L172.987 18.6189C167.144 8.58033 156.004 2.81281 144.316 2.81281C132.102 2.81281 122.202 7.21744 115.349 14.4667C108.485 21.7287 104.556 31.9757 104.556 43.8528C104.556 55.4232 108.334 65.7671 115.022 73.1945C121.691 80.5999 131.345 85.2128 143.356 85.2128C157.758 85.2128 168.593 78.3553 172.864 67.8966ZM174.716 77.4528C174.716 83.3728 179.356 86.5728 183.996 86.5728C188.636 86.5728 193.116 83.3728 193.116 77.4528V11.0528C193.116 4.97282 188.476 1.93282 183.996 1.93282C179.356 1.93282 174.716 4.97282 174.716 11.0528V17.6128C174.102 16.5579 173.434 15.5479 172.716 14.5842C166.141 5.75506 155.424 0.812813 144.316 0.812813C118.876 0.812813 102.556 19.2128 102.556 43.8528C102.556 67.8528 118.236 87.2128 143.356 87.2128C156.566 87.2128 167.184 81.6585 172.716 72.6096C173.482 71.3559 174.151 70.0352 174.716 68.6528V77.4528ZM176.556 44.0128C176.556 60.2854 164.652 72.7328 147.996 72.7328C139.675 72.7328 132.434 69.7961 127.268 64.673C122.1 59.5483 119.116 52.3434 119.116 44.0128C119.116 27.3644 131.235 15.4528 147.996 15.4528C164.644 15.4528 176.556 27.8922 176.556 44.0128ZM228.268 16.8928H261.628C265.004 16.8928 267.788 14.1082 267.788 10.7328C267.788 7.38261 264.869 4.57281 261.628 4.57281H221.148C218.63 4.57281 216.963 5.26653 215.923 6.30702C214.882 7.34752 214.188 9.01462 214.188 11.5328V77.2928C214.188 81.1934 217.498 84.5728 221.308 84.5728C224.937 84.5728 228.268 81.2166 228.268 77.2928V16.8928ZM230.268 77.2928C230.268 82.2528 226.108 86.5728 221.308 86.5728C216.348 86.5728 212.188 82.2528 212.188 77.2928V11.5328C212.188 5.77281 215.388 2.57281 221.148 2.57281H261.628C265.948 2.57281 269.788 6.25281 269.788 10.7328C269.788 15.2128 266.108 18.8928 261.628 18.8928H230.268V77.2928ZM343.489 67.8966L347.341 68.6528V77.4528C347.341 82.0457 350.849 84.5728 354.621 84.5728C358.347 84.5728 361.741 82.0868 361.741 77.4528V11.0528C361.741 8.56689 360.813 6.8393 359.537 5.71148C358.222 4.54975 356.429 3.93282 354.621 3.93282C352.718 3.93282 350.885 4.55889 349.557 5.71904C348.268 6.84481 347.341 8.56779 347.341 11.0528V25.0243L343.612 18.6189C337.769 8.58033 326.629 2.81281 314.941 2.81281C302.727 2.81281 292.827 7.21744 285.974 14.4667C279.109 21.7287 275.181 31.9757 275.181 43.8528C275.181 55.4232 278.959 65.7671 285.647 73.1945C292.316 80.5999 301.97 85.2128 313.981 85.2128C328.383 85.2128 339.218 78.3553 343.489 67.8966ZM345.341 77.4528C345.341 83.3728 349.981 86.5728 354.621 86.5728C359.261 86.5728 363.741 83.3728 363.741 77.4528V11.0528C363.741 4.97282 359.101 1.93282 354.621 1.93282C349.981 1.93282 345.341 4.97282 345.341 11.0528V17.6128C344.727 16.5579 344.059 15.5479 343.341 14.5842C336.766 5.75506 326.049 0.812813 314.941 0.812813C289.501 0.812813 273.181 19.2128 273.181 43.8528C273.181 67.8528 288.861 87.2128 313.981 87.2128C327.191 87.2128 337.809 81.6585 343.341 72.6096C344.107 71.356 344.776 70.0352 345.341 68.6528V77.4528ZM347.181 44.0128C347.181 60.2854 335.277 72.7328 318.621 72.7328C310.3 72.7328 303.059 69.7961 297.893 64.673C292.725 59.5483 289.741 52.3434 289.741 44.0128C289.741 27.3644 301.86 15.4528 318.621 15.4528C335.269 15.4528 347.181 27.8922 347.181 44.0128ZM433.963 41.7657L438.064 39.6716C444.847 36.2079 447.213 30.8605 447.213 25.1328C447.213 18.691 444.311 13.1975 438.878 9.25099C433.394 5.26786 425.245 2.81281 414.813 2.81281C407.391 2.81281 401.553 4.2023 396.742 6.65468C391.929 9.10779 388.028 12.6837 384.564 17.2257L384.559 17.2322C383.208 18.9886 382.733 20.6456 382.733 22.0928C382.733 26.1222 385.844 29.0528 388.733 29.0528C390.282 29.0528 392.26 28.1432 393.965 24.5983C395.627 21.0174 398.071 18.0594 401.406 16.0091C404.739 13.9599 408.838 12.8928 413.693 12.8928C419.211 12.8928 424.02 14.0162 427.519 16.2205C431.083 18.4649 433.293 21.8572 433.293 26.0928C433.293 31.0622 430.581 34.3093 427.009 36.2004C423.547 38.0332 419.221 38.6528 415.453 38.6528H412.253C409.433 38.6528 407.533 41.0268 407.533 43.6928C407.533 44.8713 407.915 45.9091 408.605 46.6366C409.27 47.3383 410.394 47.9328 412.253 47.9328H415.453C420.709 47.9328 425.926 48.6643 429.908 50.5443C433.968 52.4617 436.973 55.7255 436.973 60.6528C436.973 64.9317 434.761 68.6688 430.986 71.2615C427.245 73.8304 421.977 75.2928 415.613 75.2928C404.132 75.2928 396.267 70.5074 392.673 62.6004C391.177 59.3405 388.932 58.1728 386.973 58.1728C383.733 58.1728 380.653 60.822 380.653 64.8128C380.653 66.4519 381.15 68.3114 382.558 70.4234C388.53 79.3821 398.573 85.3728 415.133 85.3728C427.397 85.3728 436.446 82.4419 442.378 77.9042C448.268 73.3997 451.213 67.2251 451.213 60.3328C451.213 56.2393 450.087 52.7939 447.977 49.9976C445.857 47.1889 442.649 44.9108 438.293 43.3333L433.963 41.7657ZM394.493 61.7728C397.693 68.8128 404.733 73.2928 415.613 73.2928C427.773 73.2928 434.973 67.6928 434.973 60.6528C434.973 52.8128 425.693 49.9328 415.453 49.9328H412.253C407.613 49.9328 405.533 46.8928 405.533 43.6928C405.533 40.1728 408.093 36.6528 412.253 36.6528H415.453C422.653 36.6528 431.293 34.2528 431.293 26.0928C431.293 19.2128 424.253 14.8928 413.693 14.8928C404.573 14.8928 398.813 18.8928 395.773 25.4528C393.853 29.4528 391.293 31.0528 388.733 31.0528C384.573 31.0528 380.733 27.0528 380.733 22.0928C380.733 20.1728 381.373 18.0928 382.973 16.0128C390.173 6.57281 399.453 0.812813 414.813 0.812813C436.253 0.812813 449.213 10.8928 449.213 25.1328C449.213 30.8603 447.035 36.3314 441.188 40.1702C440.501 40.621 439.764 41.0493 438.973 41.4528C439.8 41.7521 440.592 42.0767 441.35 42.4262C449.098 46.0004 453.213 52.1708 453.213 60.3328C453.213 75.3728 440.253 87.3728 415.133 87.3728C398.013 87.3728 387.293 81.1328 380.893 71.5328C379.293 69.1328 378.653 66.8928 378.653 64.8128C378.653 59.6928 382.653 56.1728 386.973 56.1728C389.853 56.1728 392.733 57.9328 394.493 61.7728ZM530.483 23.4212V77.6128C530.483 81.2855 533.725 84.5728 537.603 84.5728C541.436 84.5728 544.563 81.3315 544.563 77.6128V12.3328C544.563 6.45614 540.399 3.29282 536.163 3.29282C533.566 3.29282 530.788 4.4602 528.773 7.0121L482.643 65.6281V10.5728C482.643 6.85418 479.516 3.61281 475.683 3.61281C471.668 3.61281 468.563 6.87738 468.563 10.5728V76.0128C468.563 81.7483 472.588 84.8928 476.803 84.8928C479.501 84.8928 482.315 83.6129 484.537 80.984C484.543 80.9775 484.548 80.971 484.554 80.9645L530.483 23.4212ZM486.083 82.2528C483.523 85.2928 480.163 86.8928 476.803 86.8928C471.523 86.8928 466.563 82.8928 466.563 76.0128V10.5728C466.563 5.77281 470.563 1.61281 475.683 1.61281C480.643 1.61281 484.643 5.77281 484.643 10.5728V59.8528L527.203 5.77281C529.603 2.73281 532.964 1.29282 536.163 1.29282C541.443 1.29282 546.563 5.29281 546.563 12.3328V77.6128C546.563 82.4128 542.563 86.5728 537.603 86.5728C532.643 86.5728 528.483 82.4128 528.483 77.6128V29.1328L486.083 82.2528ZM581.706 38.6528V10.5728C581.706 6.85418 578.578 3.61281 574.746 3.61281C570.731 3.61281 567.626 6.87738 567.626 10.5728V77.6128C567.626 81.3083 570.731 84.5728 574.746 84.5728C578.578 84.5728 581.706 81.3315 581.706 77.6128V50.4928H627.466V77.6128C627.466 81.2855 630.708 84.5728 634.586 84.5728C638.418 84.5728 641.546 81.3315 641.546 77.6128V10.5728C641.546 6.85418 638.418 3.61281 634.586 3.61281C630.708 3.61281 627.466 6.90017 627.466 10.5728V38.6528H581.706ZM583.706 77.6128C583.706 82.4128 579.706 86.5728 574.746 86.5728C569.626 86.5728 565.626 82.4128 565.626 77.6128V10.5728C565.626 5.77281 569.626 1.61281 574.746 1.61281C579.706 1.61281 583.706 5.77281 583.706 10.5728V36.6528H625.466V10.5728C625.466 5.77281 629.626 1.61281 634.586 1.61281C639.546 1.61281 643.546 5.77281 643.546 10.5728V77.6128C643.546 82.4128 639.546 86.5728 634.586 86.5728C629.626 86.5728 625.466 82.4128 625.466 77.6128V52.4928H583.706V77.6128ZM174.556 44.0128C174.556 59.2128 163.516 70.7328 147.996 70.7328C132.316 70.7328 121.116 59.6928 121.116 44.0128C121.116 28.4928 132.316 17.4528 147.996 17.4528C163.516 17.4528 174.556 28.9728 174.556 44.0128ZM345.181 44.0128C345.181 59.2128 334.141 70.7328 318.621 70.7328C302.941 70.7328 291.741 59.6928 291.741 44.0128C291.741 28.4928 302.941 17.4528 318.621 17.4528C334.141 17.4528 345.181 28.9728 345.181 44.0128Z" fill="white"/>
</g>
<defs>
<clipPath id="clip0_329_363">
<rect width="643.39" height="86.56" fill="white" transform="translate(0.155762 0.812813)"/>
</clipPath>
</defs>
</svg>
