<svg width="663" height="183" viewBox="0 0 663 183" fill="none" xmlns="http://www.w3.org/2000/svg">
<g clip-path="url(#clip0_144_151)">
<path d="M32.62 15.9437L34.2228 14.7474L34.2158 14.738L34.2087 14.7288L32.62 15.9437ZM56.947 48.5387L55.3442 49.7349L56.9418 51.8755L58.5461 49.7399L56.947 48.5387ZM81.433 15.9437L83.0321 17.1449L83.039 17.1357L83.0458 17.1264L81.433 15.9437ZM84.613 34.3877L86.601 34.6061L82.9006 33.3543L84.613 34.3877ZM64.102 63.9617L62.5329 62.7215L62.523 62.7341L62.5133 62.7468L64.102 63.9617ZM49.792 63.9617L48.2325 65.2139L48.2398 65.2228L49.792 63.9617ZM29.281 34.2287L30.996 33.1997L27.293 34.4471L29.281 34.2287ZM22.444 94.5567C18.4606 94.5567 15.381 91.3181 15.381 87.6527H11.381C11.381 93.5272 16.2514 98.5567 22.444 98.5567V94.5567ZM15.381 87.6527V23.2577H11.381V87.6527H15.381ZM15.381 23.2577C15.381 18.3202 19.5736 14.1277 24.511 14.1277V10.1277C17.3644 10.1277 11.381 16.1111 11.381 23.2577H15.381ZM24.511 14.1277C26.8974 14.1277 29.424 15.0568 31.0313 17.1586L34.2087 14.7288C31.682 11.4245 27.8486 10.1277 24.511 10.1277V14.1277ZM31.0172 17.1399L55.3442 49.7349L58.5498 47.3424L34.2228 14.7474L31.0172 17.1399ZM58.5461 49.7399L83.0321 17.1449L79.8339 14.7424L55.3479 47.3374L58.5461 49.7399ZM83.0458 17.1264C84.3691 15.3219 86.9115 14.1277 89.383 14.1277V10.1277C85.8125 10.1277 81.9949 11.7954 79.8202 14.7609L83.0458 17.1264ZM89.383 14.1277C94.4609 14.1277 98.513 18.3016 98.513 23.2577H102.513C102.513 16.1297 96.7071 10.1277 89.383 10.1277V14.1277ZM98.513 23.2577V87.6527H102.513V23.2577H98.513ZM98.513 87.6527C98.513 91.3413 95.4104 94.5567 91.609 94.5567V98.5567C97.6656 98.5567 102.513 93.504 102.513 87.6527H98.513ZM91.609 94.5567C87.7846 94.5567 84.546 91.3181 84.546 87.4937H80.546C80.546 93.5272 85.5754 98.5567 91.609 98.5567V94.5567ZM84.546 87.4937C84.546 61.1243 85.023 48.9667 86.601 34.6061L82.625 34.1692C81.023 48.7467 80.546 61.075 80.546 87.4937H84.546ZM82.9006 33.3543C77.3768 42.5081 70.2693 52.9327 62.5329 62.7215L65.6711 65.2018C73.5167 55.2747 80.7192 44.7112 86.3254 35.421L82.9006 33.3543ZM62.5133 62.7468C60.7555 65.0454 58.7624 65.9367 56.947 65.9367V69.9367C60.2196 69.9367 63.3145 68.2839 65.6907 65.1766L62.5133 62.7468ZM56.947 65.9367C55.1821 65.9367 53.1591 64.9342 51.3442 62.7005L48.2398 65.2228C50.5589 68.0772 53.6239 69.9367 56.947 69.9367V65.9367ZM51.3514 62.7094C43.0003 52.3098 35.738 41.1031 30.996 33.1997L27.566 35.2577C32.364 43.2543 39.7297 54.6255 48.2326 65.2139L51.3514 62.7094ZM27.293 34.4471C28.871 48.8071 29.348 61.2823 29.348 87.4937H33.348C33.348 61.235 32.871 48.5882 31.269 34.0102L27.293 34.4471ZM29.348 87.4937C29.348 91.341 26.0866 94.5567 22.444 94.5567V98.5567C28.3414 98.5567 33.348 93.5043 33.348 87.4937H29.348ZM186.849 78.7487H188.849L184.997 77.9924L186.849 78.7487ZM186.849 28.0277L185.12 29.0338L188.849 35.4392V28.0277H186.849ZM196.071 14.4457C197.865 14.4457 199.644 15.0578 200.947 16.2101C202.213 17.3284 203.134 19.0417 203.134 21.5087H207.134C207.134 17.9336 205.749 15.1154 203.596 13.2128C201.481 11.344 198.729 10.4457 196.071 10.4457V14.4457ZM203.134 21.5087V87.4937H207.134V21.5087H203.134ZM203.134 87.4937C203.134 92.0907 199.768 94.5567 196.071 94.5567V98.5567C201.596 98.5567 207.134 94.6626 207.134 87.4937H203.134ZM196.071 94.5567C192.328 94.5567 188.849 92.0496 188.849 87.4937H184.849C184.849 94.7038 190.592 98.5567 196.071 98.5567V94.5567ZM188.849 87.4937V78.7487H184.849V87.4937H188.849ZM184.997 77.9924C180.754 88.3801 169.992 95.1927 155.685 95.1927V99.1927C171.269 99.1927 183.721 91.6952 188.7 79.5049L184.997 77.9924ZM155.685 95.1927C143.752 95.1927 134.162 90.61 127.537 83.2536C120.893 75.8752 117.14 65.599 117.14 54.1037H113.14C113.14 66.4583 117.177 77.7266 124.565 85.9303C131.972 94.1558 142.655 99.1927 155.685 99.1927V95.1927ZM117.14 54.1037C117.14 42.3036 121.043 32.1238 127.862 24.9098C134.67 17.7085 144.504 13.3327 156.639 13.3327V9.33266C143.493 9.33266 132.577 14.0993 124.955 22.162C117.346 30.212 113.14 41.4177 113.14 54.1037H117.14ZM156.639 13.3327C168.25 13.3327 179.316 19.0622 185.12 29.0338L188.577 27.0215C181.98 15.6871 169.514 9.33266 156.639 9.33266V13.3327ZM188.849 28.0277V21.5087H184.849V28.0277H188.849ZM188.849 21.5087C188.849 19.0426 189.769 17.3339 191.046 16.2176C192.364 15.067 194.182 14.4457 196.071 14.4457V10.4457C193.348 10.4457 190.556 11.3348 188.415 13.2052C186.234 15.1099 184.849 17.9327 184.849 21.5087H188.849ZM160.296 82.8157C176.855 82.8157 188.69 70.4403 188.69 54.2627H184.69C184.69 68.295 174.583 78.8157 160.296 78.8157V82.8157ZM188.69 54.2627C188.69 38.2361 176.847 25.8687 160.296 25.8687V29.8687C174.59 29.8687 184.69 40.3972 184.69 54.2627H188.69ZM160.296 25.8687C143.633 25.8687 131.584 37.7112 131.584 54.2627H135.584C135.584 39.9681 145.794 29.8687 160.296 29.8687V25.8687ZM131.584 54.2627C131.584 62.5442 134.55 69.7074 139.688 74.8026C144.825 79.8962 152.024 82.8157 160.296 82.8157V78.8157C152.985 78.8157 146.828 76.2496 142.505 71.9622C138.183 67.6764 135.584 61.5631 135.584 54.2627H131.584ZM242.054 29.2997V27.2997H240.054V29.2997H242.054ZM226.087 87.3347V21.9857H222.087V87.3347H226.087ZM226.087 21.9857C226.087 19.4855 226.776 17.8324 227.807 16.8014C228.838 15.7704 230.491 15.0817 232.991 15.0817V11.0817C229.767 11.0817 226.968 11.9829 224.978 13.9729C222.988 15.9629 222.087 18.7618 222.087 21.9857H226.087ZM232.991 15.0817H273.218V11.0817H232.991V15.0817ZM273.218 15.0817C276.432 15.0817 279.327 17.8685 279.327 21.1907H283.327C283.327 15.6089 278.59 11.0817 273.218 11.0817V15.0817ZM279.327 21.1907C279.327 24.5381 276.565 27.2997 273.218 27.2997V31.2997C278.775 31.2997 283.327 26.7472 283.327 21.1907H279.327ZM273.218 27.2997H242.054V31.2997H273.218V27.2997ZM240.054 29.2997V87.3347H244.054V29.2997H240.054ZM240.054 87.3347C240.054 91.2274 236.748 94.5567 233.15 94.5567V98.5567C239.092 98.5567 244.054 93.2999 244.054 87.3347H240.054ZM233.15 94.5567C229.37 94.5567 226.087 91.2043 226.087 87.3347H222.087C222.087 93.3231 227.072 98.5567 233.15 98.5567V94.5567ZM356.407 78.7487H358.407L354.556 77.9924L356.407 78.7487ZM356.407 28.0277L354.679 29.0338L358.407 35.4392V28.0277H356.407ZM365.629 14.4457C367.423 14.4457 369.202 15.0578 370.506 16.2101C371.771 17.3284 372.692 19.0417 372.692 21.5087H376.692C376.692 17.9336 375.308 15.1154 373.155 13.2128C371.04 11.344 368.287 10.4457 365.629 10.4457V14.4457ZM372.692 21.5087V87.4937H376.692V21.5087H372.692ZM372.692 87.4937C372.692 92.0907 369.326 94.5567 365.629 94.5567V98.5567C371.154 98.5567 376.692 94.6626 376.692 87.4937H372.692ZM365.629 94.5567C361.886 94.5567 358.407 92.0496 358.407 87.4937H354.407C354.407 94.7038 360.15 98.5567 365.629 98.5567V94.5567ZM358.407 87.4937V78.7487H354.407V87.4937H358.407ZM354.556 77.9924C350.313 88.3801 339.551 95.1927 325.243 95.1927V99.1927C340.828 99.1927 353.28 91.6952 358.259 79.5049L354.556 77.9924ZM325.243 95.1927C313.31 95.1927 303.721 90.61 297.096 83.2536C290.452 75.8752 286.698 65.599 286.698 54.1037H282.698C282.698 66.4583 286.736 77.7266 294.124 85.9303C301.531 94.1558 312.213 99.1927 325.243 99.1927V95.1927ZM286.698 54.1037C286.698 42.3036 290.601 32.1238 297.421 24.9098C304.228 17.7085 314.063 13.3327 326.197 13.3327V9.33266C313.051 9.33266 302.136 14.0993 294.514 22.162C286.904 30.212 282.698 41.4177 282.698 54.1037H286.698ZM326.197 13.3327C337.808 13.3327 348.874 19.0622 354.679 29.0338L358.136 27.0215C351.538 15.6871 339.072 9.33266 326.197 9.33266V13.3327ZM358.407 28.0277V21.5087H354.407V28.0277H358.407ZM358.407 21.5087C358.407 19.0426 359.327 17.3339 360.605 16.2176C361.922 15.067 363.741 14.4457 365.629 14.4457V10.4457C362.907 10.4457 360.114 11.3348 357.973 13.2052C355.793 15.1099 354.407 17.9327 354.407 21.5087H358.407ZM329.854 82.8157C346.414 82.8157 358.248 70.4403 358.248 54.2627H354.248C354.248 68.295 344.141 78.8157 329.854 78.8157V82.8157ZM358.248 54.2627C358.248 38.2361 346.406 25.8687 329.854 25.8687V29.8687C344.149 29.8687 354.248 40.3972 354.248 54.2627H358.248ZM329.854 25.8687C313.192 25.8687 301.142 37.7112 301.142 54.2627H305.142C305.142 39.9681 315.353 29.8687 329.854 29.8687V25.8687ZM301.142 54.2627C301.142 62.5442 304.109 69.7074 309.247 74.8026C314.384 79.8962 321.583 82.8157 329.854 82.8157V78.8157C322.544 78.8157 316.387 76.2496 312.063 71.9622C307.741 67.6764 305.142 61.5631 305.142 54.2627H301.142ZM449.455 51.7187L448.545 49.9374L444.444 52.0316L448.774 53.5992L449.455 51.7187ZM391.738 81.6107L393.402 80.5013L393.402 80.5013L391.738 81.6107ZM405.253 71.9117L407.073 71.0841L407.071 71.0784L405.253 71.9117ZM406.525 35.8187L408.328 36.6841L408.334 36.6719L408.339 36.6596L406.525 35.8187ZM393.805 26.4377L395.39 27.6571L395.395 27.6506L393.805 26.4377ZM448.774 53.5992C453.102 55.1661 456.287 57.4288 458.392 60.2176C460.487 62.994 461.606 66.4152 461.606 70.4807H465.606C465.606 65.6422 464.259 61.3518 461.585 57.808C458.92 54.2765 455.03 51.6102 450.136 49.8381L448.774 53.5992ZM461.606 70.4807C461.606 77.3259 458.68 83.4583 452.831 87.9323C446.938 92.4395 437.949 95.3517 425.764 95.3517V99.3517C438.541 99.3517 448.473 96.3013 455.261 91.1095C462.092 85.8845 465.606 78.5814 465.606 70.4807H461.606ZM425.764 95.3517C409.31 95.3517 399.334 89.3999 393.402 80.5013L390.074 82.7201C396.861 92.9014 408.191 99.3517 425.764 99.3517V95.3517ZM393.402 80.5013C392.004 78.4043 391.512 76.5588 391.512 74.9327H387.512C387.512 77.4405 388.292 80.047 390.074 82.7201L393.402 80.5013ZM391.512 74.9327C391.512 70.9738 394.566 68.3467 397.78 68.3467V64.3467C392.407 64.3467 387.512 68.7155 387.512 74.9327H391.512ZM397.78 68.3467C399.721 68.3467 401.949 69.5047 403.435 72.745L407.071 71.0784C405.058 66.6867 401.562 64.3467 397.78 64.3467V68.3467ZM403.432 72.7393C407.006 80.6022 414.828 85.3597 426.241 85.3597V81.3597C416.03 81.3597 409.859 77.2131 407.073 71.0841L403.432 72.7393ZM426.241 85.3597C432.566 85.3597 437.804 83.906 441.524 81.3513C445.278 78.7729 447.48 75.0555 447.48 70.7987H443.48C443.48 73.5378 442.103 76.1009 439.259 78.054C436.381 80.0308 431.999 81.3597 426.241 81.3597V85.3597ZM447.48 70.7987C447.48 65.8958 444.489 62.6488 440.451 60.742C436.492 58.8727 431.305 58.1457 426.082 58.1457V62.1457C431.034 62.1457 435.546 62.8496 438.743 64.359C441.86 65.831 443.48 67.9105 443.48 70.7987H447.48ZM426.082 58.1457H422.902V62.1457H426.082V58.1457ZM422.902 58.1457C421.056 58.1457 419.943 57.5559 419.285 56.8615C418.602 56.1412 418.224 55.1131 418.224 53.9447H414.224C414.224 55.9562 414.879 58.0287 416.382 59.6138C417.91 61.2249 420.136 62.1457 422.902 62.1457V58.1457ZM418.224 53.9447C418.224 51.3006 420.107 48.9487 422.902 48.9487V44.9487C417.428 44.9487 414.224 49.5927 414.224 53.9447H418.224ZM422.902 48.9487H426.082V44.9487H422.902V48.9487ZM426.082 48.9487C429.826 48.9487 434.128 48.3328 437.571 46.5101C441.124 44.6292 443.823 41.3986 443.823 36.4547H439.823C439.823 39.6197 438.228 41.6362 435.7 42.975C433.061 44.372 429.492 44.9487 426.082 44.9487V48.9487ZM443.823 36.4547C443.823 32.2405 441.623 28.8657 438.079 26.6335C434.598 24.4413 429.817 23.3247 424.333 23.3247V27.3247C429.342 27.3247 433.306 28.3545 435.947 30.0181C438.525 31.6416 439.823 33.8318 439.823 36.4547H443.823ZM424.333 23.3247C419.506 23.3247 415.43 24.3855 412.115 26.4233C408.795 28.4648 406.363 31.4112 404.71 34.9777L408.339 36.6596C409.707 33.7071 411.648 31.4065 414.21 29.8307C416.779 28.2514 420.097 27.3247 424.333 27.3247V23.3247ZM404.722 34.9532C403.028 38.4821 401.063 39.3837 399.529 39.3837V43.3837C403.083 43.3837 406.206 41.1052 408.328 36.6841L404.722 34.9532ZM399.529 39.3837C396.666 39.3837 393.579 36.4781 393.579 32.4797H389.579C389.579 38.3392 394.124 43.3837 399.529 43.3837V39.3837ZM393.579 32.4797C393.579 31.0444 394.049 29.4004 395.39 27.6571L392.219 25.2182C390.38 27.6089 389.579 30.0989 389.579 32.4797H393.579ZM395.395 27.6506C398.837 23.138 402.712 19.5859 407.493 17.1491C412.272 14.7131 418.071 13.3327 425.446 13.3327V9.33266C417.556 9.33266 411.113 10.8142 405.676 13.5854C400.241 16.3559 395.928 20.3563 392.214 25.2248L395.395 27.6506ZM425.446 13.3327C435.811 13.3327 443.906 15.772 449.353 19.7282C454.749 23.6479 457.631 29.1034 457.631 35.5007H461.631C461.631 27.747 458.073 21.1184 451.703 16.4919C445.384 11.9019 436.387 9.33266 425.446 9.33266V13.3327ZM457.631 35.5007C457.631 41.1884 455.281 46.4978 448.545 49.9374L450.364 53.4999C458.574 49.3076 461.631 42.5329 461.631 35.5007H457.631ZM538.405 39.4757H540.405V33.764L536.842 38.228L538.405 39.4757ZM496.27 92.2637L497.8 93.5519L497.817 93.5318L497.833 93.5113L496.27 92.2637ZM494.839 70.0037H492.839V75.779L496.411 71.2405L494.839 70.0037ZM537.133 16.2617L535.563 15.0224L535.562 15.0248L537.133 16.2617ZM547.468 94.5567C543.621 94.5567 540.405 91.2953 540.405 87.6527H536.405C536.405 93.55 541.458 98.5567 547.468 98.5567V94.5567ZM540.405 87.6527V39.4757H536.405V87.6527H540.405ZM536.842 38.228L494.707 91.016L497.833 93.5113L539.968 40.7233L536.842 38.228ZM494.74 90.9754C492.532 93.5984 489.731 94.8747 487.048 94.8747V98.8747C491.043 98.8747 494.921 96.9709 497.8 93.5519L494.74 90.9754ZM487.048 94.8747C482.865 94.8747 478.872 91.7552 478.872 86.0627H474.872C474.872 94.0441 480.737 98.8747 487.048 98.8747V94.8747ZM478.872 86.0627V21.0317H474.872V86.0627H478.872ZM478.872 21.0317C478.872 17.3662 481.952 14.1277 485.935 14.1277V10.1277C479.743 10.1277 474.872 15.1571 474.872 21.0317H478.872ZM485.935 14.1277C489.737 14.1277 492.839 17.343 492.839 21.0317H496.839C496.839 15.1803 491.992 10.1277 485.935 10.1277V14.1277ZM492.839 21.0317V70.0037H496.839V21.0317H492.839ZM496.411 71.2405L538.705 17.4985L535.562 15.0248L493.268 68.7668L496.411 71.2405ZM538.703 17.5009C540.703 14.968 543.459 13.8097 546.037 13.8097V9.80966C542.255 9.80966 538.334 11.5133 535.563 15.0224L538.703 17.5009ZM546.037 13.8097C550.239 13.8097 554.372 16.948 554.372 22.7807H558.372C558.372 14.6213 552.329 9.80966 546.037 9.80966V13.8097ZM554.372 22.7807V87.6527H558.372V22.7807H554.372ZM554.372 87.6527C554.372 91.3413 551.27 94.5567 547.468 94.5567V98.5567C553.525 98.5567 558.372 93.504 558.372 87.6527H554.372ZM593.283 46.9487H591.283V48.9487H593.283V46.9487ZM634.782 46.9487V48.9487H636.782V46.9487H634.782ZM634.782 62.6897H636.782V60.6897H634.782V62.6897ZM593.283 62.6897V60.6897H591.283V62.6897H593.283ZM584.379 94.5567C580.395 94.5567 577.316 91.3181 577.316 87.6527H573.316C573.316 93.5272 578.186 98.5567 584.379 98.5567V94.5567ZM577.316 87.6527V21.0317H573.316V87.6527H577.316ZM577.316 21.0317C577.316 17.3662 580.395 14.1277 584.379 14.1277V10.1277C578.186 10.1277 573.316 15.1571 573.316 21.0317H577.316ZM584.379 14.1277C588.18 14.1277 591.283 17.343 591.283 21.0317H595.283C595.283 15.1803 590.435 10.1277 584.379 10.1277V14.1277ZM591.283 21.0317V46.9487H595.283V21.0317H591.283ZM593.283 48.9487H634.782V44.9487H593.283V48.9487ZM636.782 46.9487V21.0317H632.782V46.9487H636.782ZM636.782 21.0317C636.782 17.389 639.997 14.1277 643.845 14.1277V10.1277C637.834 10.1277 632.782 15.1343 632.782 21.0317H636.782ZM643.845 14.1277C647.646 14.1277 650.749 17.343 650.749 21.0317H654.749C654.749 15.1803 649.901 10.1277 643.845 10.1277V14.1277ZM650.749 21.0317V87.6527H654.749V21.0317H650.749ZM650.749 87.6527C650.749 91.3413 647.646 94.5567 643.845 94.5567V98.5567C649.901 98.5567 654.749 93.504 654.749 87.6527H650.749ZM643.845 94.5567C639.997 94.5567 636.782 91.2953 636.782 87.6527H632.782C632.782 93.55 637.834 98.5567 643.845 98.5567V94.5567ZM636.782 87.6527V62.6897H632.782V87.6527H636.782ZM634.782 60.6897H593.283V64.6897H634.782V60.6897ZM591.283 62.6897V87.6527H595.283V62.6897H591.283ZM591.283 87.6527C591.283 91.3413 588.18 94.5567 584.379 94.5567V98.5567C590.435 98.5567 595.283 93.504 595.283 87.6527H591.283Z" fill="white"/>
</g>
<defs>
<clipPath id="clip0_144_151">
<rect width="663" height="182" fill="white" transform="translate(0 0.866943)"/>
</clipPath>
</defs>
</svg>
