<svg width="173" height="259" viewBox="0 0 173 259" fill="none" xmlns="http://www.w3.org/2000/svg">
<path d="M60.6444 165.258L57.3824 160.372L58.2644 159.868L61.8484 165.258H60.6444ZM55.2964 160.764V159.854H58.0964V160.764H55.2964ZM58.3064 160.47L57.3544 160.302L60.4764 155.458H61.5964L58.3064 160.47ZM49.5704 165.258H48.3664L51.9504 159.868L52.8324 160.372L49.5704 165.258ZM55.6184 165.258H54.6104V155.458H55.6184V165.258ZM54.9184 160.764H52.1184V159.854H54.9184V160.764ZM51.9084 160.47L48.6184 155.458H49.7384L52.8464 160.302L51.9084 160.47ZM66.321 165.328C65.5557 165.328 64.8837 165.17 64.305 164.852C63.7263 164.526 63.2737 164.082 62.947 163.522C62.6203 162.953 62.457 162.304 62.457 161.576C62.457 160.848 62.611 160.204 62.919 159.644C63.2363 159.084 63.6657 158.646 64.207 158.328C64.7577 158.002 65.3737 157.838 66.055 157.838C66.7457 157.838 67.357 157.997 67.889 158.314C68.4303 158.622 68.855 159.061 69.163 159.63C69.471 160.19 69.625 160.839 69.625 161.576C69.625 161.623 69.6203 161.674 69.611 161.73C69.611 161.777 69.611 161.828 69.611 161.884H63.213V161.142H69.079L68.687 161.436C68.687 160.904 68.5703 160.433 68.337 160.022C68.113 159.602 67.805 159.276 67.413 159.042C67.021 158.809 66.5683 158.692 66.055 158.692C65.551 158.692 65.0983 158.809 64.697 159.042C64.2957 159.276 63.983 159.602 63.759 160.022C63.535 160.442 63.423 160.923 63.423 161.464V161.618C63.423 162.178 63.5443 162.673 63.787 163.102C64.039 163.522 64.3843 163.854 64.823 164.096C65.271 164.33 65.7797 164.446 66.349 164.446C66.797 164.446 67.2123 164.367 67.595 164.208C67.987 164.05 68.323 163.807 68.603 163.48L69.163 164.124C68.8363 164.516 68.4257 164.815 67.931 165.02C67.4457 165.226 66.909 165.328 66.321 165.328ZM70.3309 165.244L70.4009 164.39C70.4662 164.4 70.5269 164.414 70.5829 164.432C70.6482 164.442 70.7042 164.446 70.7509 164.446C71.0496 164.446 71.2876 164.334 71.4649 164.11C71.6516 163.886 71.7916 163.588 71.8849 163.214C71.9782 162.841 72.0436 162.421 72.0809 161.954C72.1182 161.478 72.1509 161.002 72.1789 160.526L72.3049 157.908H77.6949V165.258H76.7009V158.482L76.9529 158.776H72.9489L73.1869 158.468L73.0749 160.596C73.0469 161.231 72.9956 161.838 72.9209 162.416C72.8556 162.995 72.7482 163.504 72.5989 163.942C72.4589 164.381 72.2629 164.726 72.0109 164.978C71.7589 165.221 71.4369 165.342 71.0449 165.342C70.9329 165.342 70.8162 165.333 70.6949 165.314C70.5829 165.296 70.4616 165.272 70.3309 165.244ZM85.0846 165.258V163.634L85.0426 163.368V160.652C85.0426 160.027 84.8653 159.546 84.5106 159.21C84.1653 158.874 83.6473 158.706 82.9566 158.706C82.4806 158.706 82.0279 158.786 81.5986 158.944C81.1693 159.103 80.8053 159.313 80.5066 159.574L80.0586 158.832C80.4319 158.515 80.8799 158.272 81.4026 158.104C81.9253 157.927 82.4759 157.838 83.0546 157.838C84.0066 157.838 84.7393 158.076 85.2526 158.552C85.7753 159.019 86.0366 159.733 86.0366 160.694V165.258H85.0846ZM82.5506 165.328C81.9999 165.328 81.5193 165.24 81.1086 165.062C80.7073 164.876 80.3993 164.624 80.1846 164.306C79.9699 163.98 79.8626 163.606 79.8626 163.186C79.8626 162.804 79.9513 162.458 80.1286 162.15C80.3153 161.833 80.6139 161.581 81.0246 161.394C81.4446 161.198 82.0046 161.1 82.7046 161.1H85.2386V161.842H82.7326C82.0233 161.842 81.5286 161.968 81.2486 162.22C80.9779 162.472 80.8426 162.785 80.8426 163.158C80.8426 163.578 81.0059 163.914 81.3326 164.166C81.6593 164.418 82.1166 164.544 82.7046 164.544C83.2646 164.544 83.7453 164.418 84.1466 164.166C84.5573 163.905 84.8559 163.532 85.0426 163.046L85.2666 163.732C85.0799 164.218 84.7533 164.605 84.2866 164.894C83.8293 165.184 83.2506 165.328 82.5506 165.328ZM88.6827 165.258V157.908H89.6767V161.072H91.9167V161.982H89.6767V165.258H88.6827ZM95.0107 165.328C94.3107 165.328 93.6807 165.17 93.1207 164.852C92.5701 164.526 92.1361 164.082 91.8187 163.522C91.5014 162.953 91.3427 162.304 91.3427 161.576C91.3427 160.839 91.5014 160.19 91.8187 159.63C92.1361 159.07 92.5701 158.632 93.1207 158.314C93.6807 157.997 94.3107 157.838 95.0107 157.838C95.7107 157.838 96.3361 157.997 96.8867 158.314C97.4374 158.632 97.8714 159.07 98.1887 159.63C98.5061 160.19 98.6647 160.839 98.6647 161.576C98.6647 162.304 98.5061 162.953 98.1887 163.522C97.8714 164.082 97.4374 164.526 96.8867 164.852C96.3361 165.17 95.7107 165.328 95.0107 165.328ZM95.0107 164.46C95.5241 164.46 95.9814 164.339 96.3827 164.096C96.7841 163.854 97.1014 163.518 97.3347 163.088C97.5681 162.65 97.6847 162.146 97.6847 161.576C97.6847 160.998 97.5681 160.494 97.3347 160.064C97.1014 159.635 96.7841 159.304 96.3827 159.07C95.9814 158.828 95.5241 158.706 95.0107 158.706C94.5067 158.706 94.0494 158.828 93.6387 159.07C93.2374 159.304 92.9201 159.635 92.6867 160.064C92.4534 160.494 92.3367 160.998 92.3367 161.576C92.3367 162.146 92.4534 162.65 92.6867 163.088C92.9201 163.518 93.2374 163.854 93.6387 164.096C94.0494 164.339 94.5067 164.46 95.0107 164.46ZM104.46 165.258V157.908H107.708C108.539 157.908 109.192 158.067 109.668 158.384C110.153 158.702 110.396 159.168 110.396 159.784C110.396 160.382 110.167 160.844 109.71 161.17C109.253 161.488 108.651 161.646 107.904 161.646L108.1 161.352C108.977 161.352 109.621 161.516 110.032 161.842C110.443 162.169 110.648 162.64 110.648 163.256C110.648 163.891 110.415 164.386 109.948 164.74C109.491 165.086 108.777 165.258 107.806 165.258H104.46ZM105.426 164.474H107.764C108.389 164.474 108.861 164.376 109.178 164.18C109.505 163.975 109.668 163.648 109.668 163.2C109.668 162.752 109.523 162.426 109.234 162.22C108.945 162.015 108.487 161.912 107.862 161.912H105.426V164.474ZM105.426 161.17H107.638C108.207 161.17 108.641 161.063 108.94 160.848C109.248 160.634 109.402 160.321 109.402 159.91C109.402 159.5 109.248 159.192 108.94 158.986C108.641 158.781 108.207 158.678 107.638 158.678H105.426V161.17ZM117.542 165.258V163.634L117.5 163.368V160.652C117.5 160.027 117.322 159.546 116.968 159.21C116.622 158.874 116.104 158.706 115.414 158.706C114.938 158.706 114.485 158.786 114.056 158.944C113.626 159.103 113.262 159.313 112.964 159.574L112.516 158.832C112.889 158.515 113.337 158.272 113.86 158.104C114.382 157.927 114.933 157.838 115.512 157.838C116.464 157.838 117.196 158.076 117.71 158.552C118.232 159.019 118.494 159.733 118.494 160.694V165.258H117.542ZM115.008 165.328C114.457 165.328 113.976 165.24 113.566 165.062C113.164 164.876 112.856 164.624 112.642 164.306C112.427 163.98 112.32 163.606 112.32 163.186C112.32 162.804 112.408 162.458 112.586 162.15C112.772 161.833 113.071 161.581 113.482 161.394C113.902 161.198 114.462 161.1 115.162 161.1H117.696V161.842H115.19C114.48 161.842 113.986 161.968 113.706 162.22C113.435 162.472 113.3 162.785 113.3 163.158C113.3 163.578 113.463 163.914 113.79 164.166C114.116 164.418 114.574 164.544 115.162 164.544C115.722 164.544 116.202 164.418 116.604 164.166C117.014 163.905 117.313 163.532 117.5 163.046L117.724 163.732C117.537 164.218 117.21 164.605 116.744 164.894C116.286 165.184 115.708 165.328 115.008 165.328ZM121.14 165.258V157.908H122.148L125.48 163.55H125.06L128.448 157.908H129.372V165.258H128.462V159.042L128.644 159.126L125.48 164.362H125.032L121.84 159.07L122.05 159.028V165.258H121.14ZM31.4249 182.258V174.908H34.6729C35.5036 174.908 36.1569 175.067 36.6329 175.384C37.1182 175.702 37.3609 176.168 37.3609 176.784C37.3609 177.382 37.1322 177.844 36.6749 178.17C36.2176 178.488 35.6156 178.646 34.8689 178.646L35.0649 178.352C35.9422 178.352 36.5862 178.516 36.9969 178.842C37.4076 179.169 37.6129 179.64 37.6129 180.256C37.6129 180.891 37.3796 181.386 36.9129 181.74C36.4556 182.086 35.7416 182.258 34.7709 182.258H31.4249ZM32.3909 181.474H34.7289C35.3542 181.474 35.8256 181.376 36.1429 181.18C36.4696 180.975 36.6329 180.648 36.6329 180.2C36.6329 179.752 36.4882 179.426 36.1989 179.22C35.9096 179.015 35.4522 178.912 34.8269 178.912H32.3909V181.474ZM32.3909 178.17H34.6029C35.1722 178.17 35.6062 178.063 35.9049 177.848C36.2129 177.634 36.3669 177.321 36.3669 176.91C36.3669 176.5 36.2129 176.192 35.9049 175.986C35.6062 175.781 35.1722 175.678 34.6029 175.678H32.3909V178.17ZM43.0225 182.328C42.2945 182.328 41.6412 182.17 41.0625 181.852C40.4932 181.526 40.0452 181.082 39.7185 180.522C39.3918 179.953 39.2285 179.304 39.2285 178.576C39.2285 177.839 39.3918 177.19 39.7185 176.63C40.0452 176.07 40.4932 175.632 41.0625 175.314C41.6412 174.997 42.2945 174.838 43.0225 174.838C43.6478 174.838 44.2125 174.96 44.7165 175.202C45.2205 175.445 45.6172 175.809 45.9065 176.294L45.1645 176.798C44.9125 176.425 44.5998 176.15 44.2265 175.972C43.8532 175.795 43.4472 175.706 43.0085 175.706C42.4858 175.706 42.0145 175.828 41.5945 176.07C41.1745 176.304 40.8432 176.635 40.6005 177.064C40.3578 177.494 40.2365 177.998 40.2365 178.576C40.2365 179.155 40.3578 179.659 40.6005 180.088C40.8432 180.518 41.1745 180.854 41.5945 181.096C42.0145 181.33 42.4858 181.446 43.0085 181.446C43.4472 181.446 43.8532 181.358 44.2265 181.18C44.5998 181.003 44.9125 180.732 45.1645 180.368L45.9065 180.872C45.6172 181.348 45.2205 181.712 44.7165 181.964C44.2125 182.207 43.6478 182.328 43.0225 182.328ZM50.8581 182.328C50.0928 182.328 49.4208 182.17 48.8421 181.852C48.2634 181.526 47.8108 181.082 47.4841 180.522C47.1574 179.953 46.9941 179.304 46.9941 178.576C46.9941 177.848 47.1481 177.204 47.4561 176.644C47.7734 176.084 48.2028 175.646 48.7441 175.328C49.2948 175.002 49.9108 174.838 50.5921 174.838C51.2828 174.838 51.8941 174.997 52.4261 175.314C52.9674 175.622 53.3921 176.061 53.7001 176.63C54.0081 177.19 54.1621 177.839 54.1621 178.576C54.1621 178.623 54.1574 178.674 54.1481 178.73C54.1481 178.777 54.1481 178.828 54.1481 178.884H47.7501V178.142H53.6161L53.2241 178.436C53.2241 177.904 53.1074 177.433 52.8741 177.022C52.6501 176.602 52.3421 176.276 51.9501 176.042C51.5581 175.809 51.1054 175.692 50.5921 175.692C50.0881 175.692 49.6354 175.809 49.2341 176.042C48.8328 176.276 48.5201 176.602 48.2961 177.022C48.0721 177.442 47.9601 177.923 47.9601 178.464V178.618C47.9601 179.178 48.0814 179.673 48.3241 180.102C48.5761 180.522 48.9214 180.854 49.3601 181.096C49.8081 181.33 50.3168 181.446 50.8861 181.446C51.3341 181.446 51.7494 181.367 52.1321 181.208C52.5241 181.05 52.8601 180.807 53.1401 180.48L53.7001 181.124C53.3734 181.516 52.9628 181.815 52.4681 182.02C51.9828 182.226 51.4461 182.328 50.8581 182.328ZM56.3624 182.258V174.908H61.5704V175.776H57.1044L57.3564 175.524V182.258H56.3624ZM65.6891 182.328C64.9798 182.328 64.3405 182.17 63.7711 181.852C63.2111 181.526 62.7678 181.082 62.4411 180.522C62.1145 179.953 61.9511 179.304 61.9511 178.576C61.9511 177.839 62.1145 177.19 62.4411 176.63C62.7678 176.07 63.2111 175.632 63.7711 175.314C64.3311 174.997 64.9705 174.838 65.6891 174.838C66.4171 174.838 67.0611 174.997 67.6211 175.314C68.1905 175.632 68.6338 176.07 68.9511 176.63C69.2778 177.19 69.4411 177.839 69.4411 178.576C69.4411 179.304 69.2778 179.953 68.9511 180.522C68.6338 181.082 68.1905 181.526 67.6211 181.852C67.0518 182.17 66.4078 182.328 65.6891 182.328ZM65.6891 181.446C66.2211 181.446 66.6925 181.33 67.1031 181.096C67.5138 180.854 67.8358 180.518 68.0691 180.088C68.3118 179.65 68.4331 179.146 68.4331 178.576C68.4331 177.998 68.3118 177.494 68.0691 177.064C67.8358 176.635 67.5138 176.304 67.1031 176.07C66.6925 175.828 66.2258 175.706 65.7031 175.706C65.1805 175.706 64.7138 175.828 64.3031 176.07C63.8925 176.304 63.5658 176.635 63.3231 177.064C63.0805 177.494 62.9591 177.998 62.9591 178.576C62.9591 179.146 63.0805 179.65 63.3231 180.088C63.5658 180.518 63.8925 180.854 64.3031 181.096C64.7138 181.33 65.1758 181.446 65.6891 181.446ZM74.0256 182.258L77.1336 178.226L77.1196 178.716L74.1656 174.908H75.2856L77.7076 178.058L77.2876 178.044L79.7096 174.908H80.8016L77.8196 178.758L77.8336 178.226L80.9696 182.258H79.8356L77.2736 178.898L77.6656 178.954L75.1456 182.258H74.0256ZM85.363 182.328C84.6536 182.328 84.0143 182.17 83.445 181.852C82.885 181.526 82.4416 181.082 82.115 180.522C81.7883 179.953 81.625 179.304 81.625 178.576C81.625 177.839 81.7883 177.19 82.115 176.63C82.4416 176.07 82.885 175.632 83.445 175.314C84.005 174.997 84.6443 174.838 85.363 174.838C86.091 174.838 86.735 174.997 87.295 175.314C87.8643 175.632 88.3076 176.07 88.625 176.63C88.9516 177.19 89.115 177.839 89.115 178.576C89.115 179.304 88.9516 179.953 88.625 180.522C88.3076 181.082 87.8643 181.526 87.295 181.852C86.7256 182.17 86.0816 182.328 85.363 182.328ZM85.363 181.446C85.895 181.446 86.3663 181.33 86.777 181.096C87.1876 180.854 87.5096 180.518 87.743 180.088C87.9856 179.65 88.107 179.146 88.107 178.576C88.107 177.998 87.9856 177.494 87.743 177.064C87.5096 176.635 87.1876 176.304 86.777 176.07C86.3663 175.828 85.8996 175.706 85.377 175.706C84.8543 175.706 84.3876 175.828 83.977 176.07C83.5663 176.304 83.2396 176.635 82.997 177.064C82.7543 177.494 82.633 177.998 82.633 178.576C82.633 179.146 82.7543 179.65 82.997 180.088C83.2396 180.518 83.5663 180.854 83.977 181.096C84.3876 181.33 84.8496 181.446 85.363 181.446ZM95.0334 182.328C94.3987 182.328 93.8247 182.184 93.3114 181.894C92.798 181.596 92.3874 181.171 92.0794 180.62C91.7807 180.06 91.6314 179.379 91.6314 178.576C91.6314 177.774 91.7807 177.097 92.0794 176.546C92.378 175.986 92.784 175.562 93.2974 175.272C93.8107 174.983 94.3894 174.838 95.0334 174.838C95.7334 174.838 96.3587 174.997 96.9094 175.314C97.4694 175.622 97.908 176.061 98.2254 176.63C98.5427 177.19 98.7014 177.839 98.7014 178.576C98.7014 179.323 98.5427 179.976 98.2254 180.536C97.908 181.096 97.4694 181.535 96.9094 181.852C96.3587 182.17 95.7334 182.328 95.0334 182.328ZM91.2394 184.974V174.908H92.1914V177.12L92.0934 178.59L92.2334 180.074V184.974H91.2394ZM94.9634 181.446C95.486 181.446 95.9527 181.33 96.3634 181.096C96.774 180.854 97.1007 180.518 97.3434 180.088C97.586 179.65 97.7074 179.146 97.7074 178.576C97.7074 178.007 97.586 177.508 97.3434 177.078C97.1007 176.649 96.774 176.313 96.3634 176.07C95.9527 175.828 95.486 175.706 94.9634 175.706C94.4407 175.706 93.9694 175.828 93.5494 176.07C93.1387 176.313 92.812 176.649 92.5694 177.078C92.336 177.508 92.2194 178.007 92.2194 178.576C92.2194 179.146 92.336 179.65 92.5694 180.088C92.812 180.518 93.1387 180.854 93.5494 181.096C93.9694 181.33 94.4407 181.446 94.9634 181.446ZM103.861 182.328C103.152 182.328 102.512 182.17 101.943 181.852C101.383 181.526 100.94 181.082 100.613 180.522C100.286 179.953 100.123 179.304 100.123 178.576C100.123 177.839 100.286 177.19 100.613 176.63C100.94 176.07 101.383 175.632 101.943 175.314C102.503 174.997 103.142 174.838 103.861 174.838C104.589 174.838 105.233 174.997 105.793 175.314C106.362 175.632 106.806 176.07 107.123 176.63C107.45 177.19 107.613 177.839 107.613 178.576C107.613 179.304 107.45 179.953 107.123 180.522C106.806 181.082 106.362 181.526 105.793 181.852C105.224 182.17 104.58 182.328 103.861 182.328ZM103.861 181.446C104.393 181.446 104.864 181.33 105.275 181.096C105.686 180.854 106.008 180.518 106.241 180.088C106.484 179.65 106.605 179.146 106.605 178.576C106.605 177.998 106.484 177.494 106.241 177.064C106.008 176.635 105.686 176.304 105.275 176.07C104.864 175.828 104.398 175.706 103.875 175.706C103.352 175.706 102.886 175.828 102.475 176.07C102.064 176.304 101.738 176.635 101.495 177.064C101.252 177.494 101.131 177.998 101.131 178.576C101.131 179.146 101.252 179.65 101.495 180.088C101.738 180.518 102.064 180.854 102.475 181.096C102.886 181.33 103.348 181.446 103.861 181.446ZM114.567 181.39L114.343 181.656V174.908H115.337V181.656L115.071 181.39H119.173L118.907 181.656V174.908H119.901V182.258H109.737V174.908H110.731V181.656L110.479 181.39H114.567ZM125.876 182.328C125.11 182.328 124.438 182.17 123.86 181.852C123.281 181.526 122.828 181.082 122.502 180.522C122.175 179.953 122.012 179.304 122.012 178.576C122.012 177.848 122.166 177.204 122.474 176.644C122.791 176.084 123.22 175.646 123.762 175.328C124.312 175.002 124.928 174.838 125.61 174.838C126.3 174.838 126.912 174.997 127.444 175.314C127.985 175.622 128.41 176.061 128.718 176.63C129.026 177.19 129.18 177.839 129.18 178.576C129.18 178.623 129.175 178.674 129.166 178.73C129.166 178.777 129.166 178.828 129.166 178.884H122.768V178.142H128.634L128.242 178.436C128.242 177.904 128.125 177.433 127.892 177.022C127.668 176.602 127.36 176.276 126.968 176.042C126.576 175.809 126.123 175.692 125.61 175.692C125.106 175.692 124.653 175.809 124.252 176.042C123.85 176.276 123.538 176.602 123.314 177.022C123.09 177.442 122.978 177.923 122.978 178.464V178.618C122.978 179.178 123.099 179.673 123.342 180.102C123.594 180.522 123.939 180.854 124.378 181.096C124.826 181.33 125.334 181.446 125.904 181.446C126.352 181.446 126.767 181.367 127.15 181.208C127.542 181.05 127.878 180.807 128.158 180.48L128.718 181.124C128.391 181.516 127.98 181.815 127.486 182.02C127 182.226 126.464 182.328 125.876 182.328ZM131.38 182.258V174.908H136.588V175.776H132.122L132.374 175.524V182.258H131.38ZM140.707 182.328C139.997 182.328 139.358 182.17 138.789 181.852C138.229 181.526 137.785 181.082 137.459 180.522C137.132 179.953 136.969 179.304 136.969 178.576C136.969 177.839 137.132 177.19 137.459 176.63C137.785 176.07 138.229 175.632 138.789 175.314C139.349 174.997 139.988 174.838 140.707 174.838C141.435 174.838 142.079 174.997 142.639 175.314C143.208 175.632 143.651 176.07 143.969 176.63C144.295 177.19 144.459 177.839 144.459 178.576C144.459 179.304 144.295 179.953 143.969 180.522C143.651 181.082 143.208 181.526 142.639 181.852C142.069 182.17 141.425 182.328 140.707 182.328ZM140.707 181.446C141.239 181.446 141.71 181.33 142.121 181.096C142.531 180.854 142.853 180.518 143.087 180.088C143.329 179.65 143.451 179.146 143.451 178.576C143.451 177.998 143.329 177.494 143.087 177.064C142.853 176.635 142.531 176.304 142.121 176.07C141.71 175.828 141.243 175.706 140.721 175.706C140.198 175.706 139.731 175.828 139.321 176.07C138.91 176.304 138.583 176.635 138.341 177.064C138.098 177.494 137.977 177.998 137.977 178.576C137.977 179.146 138.098 179.65 138.341 180.088C138.583 180.518 138.91 180.854 139.321 181.096C139.731 181.33 140.193 181.446 140.707 181.446ZM146.597 179.318L146.401 172.458H147.577L147.367 179.318H146.597ZM146.989 182.328C146.784 182.328 146.606 182.258 146.457 182.118C146.317 181.969 146.247 181.796 146.247 181.6C146.247 181.395 146.317 181.227 146.457 181.096C146.606 180.956 146.784 180.886 146.989 180.886C147.204 180.886 147.376 180.956 147.507 181.096C147.647 181.227 147.717 181.395 147.717 181.6C147.717 181.796 147.647 181.969 147.507 182.118C147.376 182.258 147.204 182.328 146.989 182.328Z" fill="white"/>
<path d="M58.1714 72.1668L54.7154 75.9268L58.1074 79.9908C58.3154 80.2468 58.4114 80.5188 58.4114 80.7748C58.4114 81.3668 57.9154 81.8628 57.2594 81.8628C56.9394 81.8628 56.5714 81.7188 56.2194 81.2708L52.3154 76.3748C52.3954 77.2388 52.4114 78.0228 52.4114 80.6948C52.4114 81.4628 51.8354 81.8468 51.2594 81.8468C50.6834 81.8468 50.0914 81.4628 50.0914 80.6948V71.4468C50.0914 70.6788 50.6834 70.2948 51.2594 70.2948C51.8354 70.2948 52.4114 70.6788 52.4114 71.4468C52.4114 74.0228 52.3954 74.7268 52.3154 75.4628L56.3954 70.8548C56.7154 70.4868 57.0834 70.2788 57.4354 70.2788C58.0114 70.2788 58.5554 70.7268 58.5554 71.3028C58.5554 71.5748 58.4434 71.8628 58.1714 72.1668ZM64.5756 81.9108C61.2316 81.9108 58.7676 79.4468 58.7676 76.0708C58.7676 72.6948 61.2316 70.2308 64.5756 70.2308C67.9356 70.2308 70.3836 72.7108 70.3836 76.0708C70.3836 79.4308 67.9356 81.9108 64.5756 81.9108ZM64.5756 79.7348C66.6236 79.7348 68.0636 78.0868 68.0636 76.0708C68.0636 74.0548 66.6236 72.4068 64.5756 72.4068C62.5276 72.4068 61.0876 74.0548 61.0876 76.0708C61.0876 78.0868 62.5276 79.7348 64.5756 79.7348ZM72.0445 80.6948V71.4468C72.0445 70.6788 72.6365 70.2948 73.2125 70.2948C73.7885 70.2948 74.3645 70.6788 74.3645 71.4468V75.0948H79.2605V71.4468C79.2605 70.6788 79.8525 70.2948 80.4125 70.2948C81.0045 70.2948 81.5805 70.6788 81.5805 71.4468V80.6948C81.5805 81.4468 81.0045 81.8308 80.4125 81.8308C79.8525 81.8308 79.2605 81.4468 79.2605 80.6948V77.1428H74.3645V80.6948C74.3645 81.4468 73.7885 81.8308 73.2125 81.8308C72.6365 81.8308 72.0445 81.4468 72.0445 80.6948ZM93.1076 79.6548H93.6196C94.2596 79.6548 94.6436 80.0228 94.6436 80.6788V83.6548C94.6436 84.2148 94.1796 84.6948 93.6196 84.6948C93.0596 84.6948 92.5956 84.2148 92.5956 83.6548V81.7508H85.1236C84.2436 81.7508 83.7476 81.2708 83.7476 80.3748V71.4308C83.7476 70.7908 84.2756 70.2468 84.9156 70.2468C85.5396 70.2468 86.0676 70.7748 86.0676 71.4148V79.6548H90.7876V71.4308C90.7876 70.8068 91.2996 70.2468 91.9396 70.2468C92.5796 70.2468 93.1076 70.7908 93.1076 71.4308V79.6548ZM102.694 81.7508H97.5261C96.7421 81.7508 96.3101 81.3188 96.3101 80.5348V71.6068C96.3101 70.8228 96.7421 70.3908 97.5261 70.3908H102.694C103.254 70.3908 103.734 70.8548 103.734 71.4468C103.734 72.0228 103.254 72.4868 102.694 72.4868H98.6301V74.9988H101.83C102.39 74.9988 102.854 75.4628 102.854 76.0228C102.854 76.5828 102.39 77.0468 101.83 77.0468H98.6301V79.6548H102.694C103.254 79.6548 103.734 80.1188 103.734 80.6948C103.734 81.2868 103.254 81.7508 102.694 81.7508ZM105.263 80.6948V71.5428C105.263 70.8068 105.679 70.3908 106.415 70.3908H109.855C112.255 70.3908 114.063 71.7508 114.063 74.2148C114.063 76.6308 112.255 78.1668 109.711 78.1668H107.583V80.6948C107.583 81.3348 107.071 81.8628 106.431 81.8628C105.791 81.8628 105.263 81.3348 105.263 80.6948ZM107.583 72.5028V76.0388H109.855C110.927 76.0388 111.743 75.4148 111.743 74.2788C111.743 73.1428 110.927 72.5028 109.855 72.5028H107.583ZM119 81.8628C118.36 81.8628 117.848 81.3348 117.848 80.6948V72.4868H115.816C115.24 72.4868 114.76 72.0228 114.76 71.4468C114.76 70.8548 115.24 70.3908 115.816 70.3908H122.2C122.76 70.3908 123.24 70.8548 123.24 71.4468C123.24 72.0228 122.76 72.4868 122.2 72.4868H120.168V80.6948C120.168 81.3348 119.64 81.8628 119 81.8628ZM31.0073 90.1668L27.5513 93.9268L30.9433 97.9908C31.1513 98.2468 31.2473 98.5188 31.2473 98.7748C31.2473 99.3668 30.7513 99.8628 30.0953 99.8628C29.7753 99.8628 29.4073 99.7188 29.0553 99.2708L25.1513 94.3748C25.2313 95.2388 25.2473 96.0228 25.2473 98.6948C25.2473 99.4628 24.6713 99.8468 24.0953 99.8468C23.5193 99.8468 22.9273 99.4628 22.9273 98.6948V89.4468C22.9273 88.6788 23.5193 88.2948 24.0953 88.2948C24.6713 88.2948 25.2473 88.6788 25.2473 89.4468C25.2473 92.0228 25.2313 92.7268 25.1513 93.4628L29.2313 88.8548C29.5513 88.4868 29.9193 88.2788 30.2713 88.2788C30.8473 88.2788 31.3913 88.7268 31.3913 89.3028C31.3913 89.5748 31.2793 89.8628 31.0073 90.1668ZM35.8158 88.3908H41.0638C41.9438 88.3908 42.4398 88.8708 42.4398 89.7668V98.7108C42.4398 99.3508 41.9118 99.8948 41.2718 99.8948C40.6478 99.8948 40.1198 99.3668 40.1198 98.7268V90.4868H36.6638L36.2318 95.9108C36.0718 97.9428 35.2558 99.3508 33.7198 99.7828C33.6078 99.8148 33.4958 99.8308 33.3838 99.8308C32.7438 99.8308 32.2638 99.3028 32.2638 98.6948C32.2638 98.2628 32.5518 97.8308 32.9358 97.6868C33.5758 97.4468 33.8638 96.9028 33.9438 95.8788L34.4238 89.7668C34.4878 88.8708 34.9358 88.3908 35.8158 88.3908ZM50.6956 89.4788L53.8956 98.2788C53.9436 98.4228 53.9756 98.5668 53.9756 98.7108C53.9756 99.3988 53.3196 99.8628 52.7116 99.8628C52.2156 99.8628 51.8156 99.5748 51.6396 99.0308C51.4316 98.3908 51.2396 97.7988 51.0476 97.2548H46.8236C46.6476 97.8148 46.4396 98.4068 46.2316 99.0628C46.0396 99.6228 45.6396 99.8628 45.1756 99.8628C44.6156 99.8628 44.0076 99.4628 44.0076 98.7908C44.0076 98.6468 44.0236 98.5028 44.0876 98.3428L47.2716 89.4788C47.5116 88.8228 48.0396 88.2948 48.6316 88.2948H49.2556C49.9276 88.2948 50.4396 88.7908 50.6956 89.4788ZM47.4476 95.3508H50.4236C49.2716 91.7988 48.9836 90.7748 48.9036 89.9748C48.8396 90.7108 48.5836 91.8148 47.4476 95.3508ZM63.4753 99.3188C62.7073 99.6868 61.7633 99.8948 60.8033 99.8948C58.0033 99.8948 54.9473 98.1988 54.9473 94.0708C54.9473 89.8788 58.0673 88.2788 60.8513 88.2788C61.8113 88.2788 62.7393 88.4708 63.4753 88.8068C63.9073 89.0148 64.1153 89.3828 64.1153 89.7668C64.1153 90.2628 63.7633 90.7428 63.1713 90.7428C63.0593 90.7428 62.9313 90.7268 62.7873 90.6788C62.1953 90.4868 61.5553 90.3908 60.9313 90.3908C59.0273 90.3908 57.2673 91.3828 57.2673 94.0708C57.2673 96.7108 59.0273 97.7668 60.9633 97.7668C61.5713 97.7668 62.1793 97.6708 62.7713 97.4788C62.9153 97.4308 63.0433 97.4148 63.1713 97.4148C63.7473 97.4148 64.0833 97.8788 64.0833 98.3748C64.0833 98.7428 63.9073 99.1108 63.4753 99.3188ZM73.8816 99.3188C73.1136 99.6868 72.1696 99.8948 71.2096 99.8948C68.4096 99.8948 65.3536 98.1988 65.3536 94.0708C65.3536 89.8788 68.4736 88.2788 71.2576 88.2788C72.2176 88.2788 73.1456 88.4708 73.8816 88.8068C74.3136 89.0148 74.5216 89.3828 74.5216 89.7668C74.5216 90.2628 74.1696 90.7428 73.5776 90.7428C73.4656 90.7428 73.3376 90.7268 73.1936 90.6788C72.6016 90.4868 71.9616 90.3908 71.3376 90.3908C69.4336 90.3908 67.6736 91.3828 67.6736 94.0708C67.6736 96.7108 69.4336 97.7668 71.3696 97.7668C71.9776 97.7668 72.5856 97.6708 73.1776 97.4788C73.3216 97.4308 73.4496 97.4148 73.5776 97.4148C74.1536 97.4148 74.4896 97.8788 74.4896 98.3748C74.4896 98.7428 74.3136 99.1108 73.8816 99.3188ZM77.6318 99.8948C76.8798 99.8948 76.2398 99.2388 76.2398 98.4708V89.4148C76.2398 88.7748 76.7678 88.2468 77.4078 88.2468C78.0318 88.2468 78.5598 88.7908 78.5598 89.4308C78.5598 94.1988 78.5118 95.6388 78.3838 96.7588C79.2798 95.1268 80.6878 93.0308 83.4558 88.8708C83.6958 88.5188 84.1118 88.2468 84.6078 88.2468C85.3758 88.2468 85.9998 88.9028 85.9998 89.6708V98.7268C85.9998 99.3668 85.4878 99.8948 84.8478 99.8948C84.2078 99.8948 83.6798 99.3508 83.6798 98.7108C83.6798 94.3748 83.7118 92.6308 83.8558 91.4788C83.0878 92.8868 81.3118 95.4788 78.7998 99.2548C78.5438 99.6388 78.1278 99.8948 77.6318 99.8948ZM92.2097 95.5428C89.1057 95.5428 87.5857 94.0548 87.5857 91.3188V89.4148C87.5857 88.7748 88.1137 88.2468 88.7537 88.2468C89.3777 88.2468 89.9057 88.7748 89.9057 89.4148V91.1908C89.9057 92.6468 90.4817 93.4788 92.3217 93.4788C92.7697 93.4788 93.4097 93.4308 94.0817 93.2068V89.4148C94.0817 88.7908 94.5937 88.2468 95.2337 88.2468C95.8737 88.2468 96.4017 88.7748 96.4017 89.4148V98.7108C96.4017 99.3508 95.8737 99.8948 95.2337 99.8948C94.5937 99.8948 94.0817 99.3508 94.0817 98.7108V95.2388C93.4897 95.4788 92.8337 95.5428 92.2097 95.5428ZM104.936 99.7508H99.7683C98.9843 99.7508 98.5523 99.3188 98.5523 98.5348V89.6068C98.5523 88.8228 98.9843 88.3908 99.7683 88.3908H104.936C105.496 88.3908 105.976 88.8548 105.976 89.4468C105.976 90.0228 105.496 90.4868 104.936 90.4868H100.872V92.9988H104.072C104.632 92.9988 105.096 93.4628 105.096 94.0228C105.096 94.5828 104.632 95.0468 104.072 95.0468H100.872V97.6548H104.936C105.496 97.6548 105.976 98.1188 105.976 98.6948C105.976 99.2868 105.496 99.7508 104.936 99.7508ZM115.553 99.3188C114.785 99.6868 113.841 99.8948 112.881 99.8948C110.081 99.8948 107.025 98.1988 107.025 94.0708C107.025 89.8788 110.145 88.2788 112.929 88.2788C113.889 88.2788 114.817 88.4708 115.553 88.8068C115.985 89.0148 116.193 89.3828 116.193 89.7668C116.193 90.2628 115.841 90.7428 115.249 90.7428C115.137 90.7428 115.009 90.7268 114.865 90.6788C114.273 90.4868 113.633 90.3908 113.009 90.3908C111.105 90.3908 109.345 91.3828 109.345 94.0708C109.345 96.7108 111.105 97.7668 113.041 97.7668C113.649 97.7668 114.257 97.6708 114.849 97.4788C114.993 97.4308 115.121 97.4148 115.249 97.4148C115.825 97.4148 116.161 97.8788 116.161 98.3748C116.161 98.7428 115.985 99.1108 115.553 99.3188ZM125.992 90.1668L122.536 93.9268L125.928 97.9908C126.136 98.2468 126.232 98.5188 126.232 98.7748C126.232 99.3668 125.736 99.8628 125.08 99.8628C124.76 99.8628 124.392 99.7188 124.04 99.2708L120.136 94.3748C120.216 95.2388 120.232 96.0228 120.232 98.6948C120.232 99.4628 119.656 99.8468 119.08 99.8468C118.504 99.8468 117.912 99.4628 117.912 98.6948V89.4468C117.912 88.6788 118.504 88.2948 119.08 88.2948C119.656 88.2948 120.232 88.6788 120.232 89.4468C120.232 92.0228 120.216 92.7268 120.136 93.4628L124.216 88.8548C124.536 88.4868 124.904 88.2788 125.256 88.2788C125.832 88.2788 126.376 88.7268 126.376 89.3028C126.376 89.5748 126.264 89.8628 125.992 90.1668ZM132.396 99.9108C129.052 99.9108 126.588 97.4468 126.588 94.0708C126.588 90.6948 129.052 88.2308 132.396 88.2308C135.756 88.2308 138.204 90.7108 138.204 94.0708C138.204 97.4308 135.756 99.9108 132.396 99.9108ZM132.396 97.7348C134.444 97.7348 135.884 96.0868 135.884 94.0708C135.884 92.0548 134.444 90.4068 132.396 90.4068C130.348 90.4068 128.908 92.0548 128.908 94.0708C128.908 96.0868 130.348 97.7348 132.396 97.7348ZM144.761 87.6548C143.689 87.6548 142.649 87.2068 142.153 86.2148C142.089 86.0708 142.057 85.9428 142.057 85.8148C142.057 85.3188 142.537 84.9348 143.001 84.9348C143.305 84.9348 143.593 85.0948 143.721 85.4788C143.849 85.8468 144.137 86.1828 144.761 86.1828C145.289 86.1828 145.641 85.9428 145.817 85.4308C145.929 85.0948 146.233 84.9508 146.537 84.9508C146.985 84.9508 147.465 85.2708 147.465 85.7828C147.465 85.9108 147.433 86.0548 147.353 86.2148C146.905 87.1588 145.897 87.6548 144.761 87.6548ZM141.257 99.8948C140.505 99.8948 139.865 99.2388 139.865 98.4708V89.4148C139.865 88.7748 140.393 88.2468 141.033 88.2468C141.657 88.2468 142.185 88.7908 142.185 89.4308C142.185 94.1988 142.137 95.6388 142.009 96.7588C142.905 95.1268 144.313 93.0308 147.081 88.8708C147.321 88.5188 147.737 88.2468 148.233 88.2468C149.001 88.2468 149.625 88.9028 149.625 89.6708V98.7268C149.625 99.3668 149.113 99.8948 148.473 99.8948C147.833 99.8948 147.305 99.3508 147.305 98.7108C147.305 94.3748 147.337 92.6308 147.481 91.4788C146.713 92.8868 144.937 95.4788 142.425 99.2548C142.169 99.6388 141.753 99.8948 141.257 99.8948ZM62.3611 106.279C63.1451 106.279 63.7691 106.919 63.7691 107.687V116.695C63.7691 117.335 63.2411 117.863 62.6011 117.863C61.9611 117.863 61.4491 117.335 61.4491 116.695C61.4491 112.503 61.4651 110.887 61.5611 110.039L58.7611 113.927C58.5211 114.263 58.2331 114.423 57.9611 114.423C57.6731 114.423 57.4011 114.263 57.1611 113.927L54.3931 110.039C54.4891 110.871 54.5051 112.455 54.5051 116.695C54.5051 117.335 53.9931 117.863 53.3531 117.863C52.7131 117.863 52.1851 117.335 52.1851 116.695V107.687C52.1851 106.919 52.8091 106.279 53.5931 106.279C54.0251 106.279 54.4411 106.471 54.7131 106.839L57.9771 111.383L61.2411 106.839C61.5131 106.471 61.9291 106.279 62.3611 106.279ZM74.3831 107.831L70.1271 117.239C69.9191 117.687 69.5671 117.879 69.1991 117.879C68.6391 117.879 68.0471 117.431 68.0471 116.839C68.0471 116.695 68.0791 116.551 68.1591 116.391L68.9271 114.743L65.6791 107.911C65.5991 107.751 65.5671 107.591 65.5671 107.431C65.5671 106.775 66.2071 106.263 66.8311 106.263C67.2311 106.263 67.6151 106.471 67.8391 106.983C69.3431 110.519 69.8711 111.783 70.1111 112.615C70.3991 111.607 70.8631 110.487 72.2871 106.999C72.4951 106.471 72.9111 106.263 73.3271 106.263C73.9191 106.263 74.4951 106.695 74.4951 107.335C74.4951 107.479 74.4631 107.655 74.3831 107.831ZM82.295 111.719C83.223 112.103 84.071 113.015 84.071 114.343C84.071 116.263 82.391 117.911 79.639 117.911C77.447 117.911 75.623 116.855 75.207 115.527C75.159 115.367 75.143 115.223 75.143 115.079C75.143 114.359 75.751 113.911 76.311 113.911C76.711 113.911 77.095 114.119 77.255 114.599C77.559 115.495 78.535 115.799 79.495 115.799C80.919 115.799 81.735 115.191 81.735 114.295C81.735 113.319 80.743 112.919 79.415 112.919H79.111C78.503 112.919 78.167 112.439 78.167 111.959C78.167 111.447 78.503 110.919 79.175 110.919H79.479C80.775 110.919 81.287 110.119 81.287 109.607C81.287 108.871 80.535 108.343 79.399 108.343C78.407 108.343 77.671 108.775 77.399 109.447C77.207 109.911 76.839 110.119 76.471 110.119C75.895 110.119 75.303 109.639 75.303 108.935C75.303 108.791 75.335 108.631 75.399 108.455C75.799 107.351 77.287 106.231 79.495 106.231C81.927 106.231 83.607 107.591 83.607 109.431C83.607 110.391 83.095 111.175 82.295 111.719ZM90.1677 117.751H86.9517C86.0717 117.751 85.5757 117.271 85.5757 116.375V107.415C85.5757 106.775 86.1037 106.247 86.7437 106.247C87.3677 106.247 87.8957 106.775 87.8957 107.415V109.975H90.0237C92.5677 109.975 94.3757 111.511 94.3757 113.927C94.3757 116.391 92.5677 117.751 90.1677 117.751ZM95.8157 116.695V107.447C95.8157 106.679 96.4077 106.295 96.9837 106.295C97.5597 106.295 98.1357 106.679 98.1357 107.447V116.695C98.1357 117.463 97.5597 117.847 96.9837 117.847C96.4077 117.847 95.8157 117.463 95.8157 116.695ZM87.8957 112.103V115.639H90.1677C91.2397 115.639 92.0557 114.999 92.0557 113.863C92.0557 112.727 91.2397 112.103 90.1677 112.103H87.8957ZM108.374 108.167L104.918 111.927L108.31 115.991C108.518 116.247 108.614 116.519 108.614 116.775C108.614 117.367 108.118 117.863 107.462 117.863C107.142 117.863 106.774 117.719 106.422 117.271L102.518 112.375C102.598 113.239 102.614 114.023 102.614 116.695C102.614 117.463 102.038 117.847 101.462 117.847C100.886 117.847 100.294 117.463 100.294 116.695V107.447C100.294 106.679 100.886 106.295 101.462 106.295C102.038 106.295 102.614 106.679 102.614 107.447C102.614 110.023 102.598 110.727 102.518 111.463L106.598 106.855C106.918 106.487 107.286 106.279 107.638 106.279C108.214 106.279 108.758 106.727 108.758 107.303C108.758 107.575 108.646 107.863 108.374 108.167ZM111.999 117.895C111.247 117.895 110.607 117.239 110.607 116.471V107.415C110.607 106.775 111.135 106.247 111.775 106.247C112.399 106.247 112.927 106.791 112.927 107.431C112.927 112.199 112.879 113.639 112.751 114.759C113.647 113.127 115.055 111.031 117.823 106.871C118.063 106.519 118.479 106.247 118.975 106.247C119.743 106.247 120.367 106.903 120.367 107.671V116.727C120.367 117.367 119.855 117.895 119.215 117.895C118.575 117.895 118.047 117.351 118.047 116.711C118.047 112.375 118.079 110.631 118.223 109.479C117.455 110.887 115.679 113.479 113.167 117.255C112.911 117.639 112.495 117.895 111.999 117.895Z" fill="white"/>
</svg>
