<svg width="173" height="259" viewBox="0 0 173 259" fill="none" xmlns="http://www.w3.org/2000/svg">
<path d="M60.6444 165.258L57.3824 160.372L58.2644 159.868L61.8484 165.258H60.6444ZM55.2964 160.764V159.854H58.0964V160.764H55.2964ZM58.3064 160.47L57.3544 160.302L60.4764 155.458H61.5964L58.3064 160.47ZM49.5704 165.258H48.3664L51.9504 159.868L52.8324 160.372L49.5704 165.258ZM55.6184 165.258H54.6104V155.458H55.6184V165.258ZM54.9184 160.764H52.1184V159.854H54.9184V160.764ZM51.9084 160.47L48.6184 155.458H49.7384L52.8464 160.302L51.9084 160.47ZM66.321 165.328C65.5557 165.328 64.8837 165.17 64.305 164.852C63.7263 164.526 63.2737 164.082 62.947 163.522C62.6203 162.953 62.457 162.304 62.457 161.576C62.457 160.848 62.611 160.204 62.919 159.644C63.2363 159.084 63.6657 158.646 64.207 158.328C64.7577 158.002 65.3737 157.838 66.055 157.838C66.7457 157.838 67.357 157.997 67.889 158.314C68.4303 158.622 68.855 159.061 69.163 159.63C69.471 160.19 69.625 160.839 69.625 161.576C69.625 161.623 69.6203 161.674 69.611 161.73C69.611 161.777 69.611 161.828 69.611 161.884H63.213V161.142H69.079L68.687 161.436C68.687 160.904 68.5703 160.433 68.337 160.022C68.113 159.602 67.805 159.276 67.413 159.042C67.021 158.809 66.5683 158.692 66.055 158.692C65.551 158.692 65.0983 158.809 64.697 159.042C64.2957 159.276 63.983 159.602 63.759 160.022C63.535 160.442 63.423 160.923 63.423 161.464V161.618C63.423 162.178 63.5443 162.673 63.787 163.102C64.039 163.522 64.3843 163.854 64.823 164.096C65.271 164.33 65.7797 164.446 66.349 164.446C66.797 164.446 67.2123 164.367 67.595 164.208C67.987 164.05 68.323 163.807 68.603 163.48L69.163 164.124C68.8363 164.516 68.4257 164.815 67.931 165.02C67.4457 165.226 66.909 165.328 66.321 165.328ZM70.3309 165.244L70.4009 164.39C70.4662 164.4 70.5269 164.414 70.5829 164.432C70.6482 164.442 70.7042 164.446 70.7509 164.446C71.0496 164.446 71.2876 164.334 71.4649 164.11C71.6516 163.886 71.7916 163.588 71.8849 163.214C71.9782 162.841 72.0436 162.421 72.0809 161.954C72.1182 161.478 72.1509 161.002 72.1789 160.526L72.3049 157.908H77.6949V165.258H76.7009V158.482L76.9529 158.776H72.9489L73.1869 158.468L73.0749 160.596C73.0469 161.231 72.9956 161.838 72.9209 162.416C72.8556 162.995 72.7482 163.504 72.5989 163.942C72.4589 164.381 72.2629 164.726 72.0109 164.978C71.7589 165.221 71.4369 165.342 71.0449 165.342C70.9329 165.342 70.8162 165.333 70.6949 165.314C70.5829 165.296 70.4616 165.272 70.3309 165.244ZM85.0846 165.258V163.634L85.0426 163.368V160.652C85.0426 160.027 84.8653 159.546 84.5106 159.21C84.1653 158.874 83.6473 158.706 82.9566 158.706C82.4806 158.706 82.0279 158.786 81.5986 158.944C81.1693 159.103 80.8053 159.313 80.5066 159.574L80.0586 158.832C80.4319 158.515 80.8799 158.272 81.4026 158.104C81.9253 157.927 82.4759 157.838 83.0546 157.838C84.0066 157.838 84.7393 158.076 85.2526 158.552C85.7753 159.019 86.0366 159.733 86.0366 160.694V165.258H85.0846ZM82.5506 165.328C81.9999 165.328 81.5193 165.24 81.1086 165.062C80.7073 164.876 80.3993 164.624 80.1846 164.306C79.9699 163.98 79.8626 163.606 79.8626 163.186C79.8626 162.804 79.9513 162.458 80.1286 162.15C80.3153 161.833 80.6139 161.581 81.0246 161.394C81.4446 161.198 82.0046 161.1 82.7046 161.1H85.2386V161.842H82.7326C82.0233 161.842 81.5286 161.968 81.2486 162.22C80.9779 162.472 80.8426 162.785 80.8426 163.158C80.8426 163.578 81.0059 163.914 81.3326 164.166C81.6593 164.418 82.1166 164.544 82.7046 164.544C83.2646 164.544 83.7453 164.418 84.1466 164.166C84.5573 163.905 84.8559 163.532 85.0426 163.046L85.2666 163.732C85.0799 164.218 84.7533 164.605 84.2866 164.894C83.8293 165.184 83.2506 165.328 82.5506 165.328ZM88.6827 165.258V157.908H89.6767V161.072H91.9167V161.982H89.6767V165.258H88.6827ZM95.0107 165.328C94.3107 165.328 93.6807 165.17 93.1207 164.852C92.5701 164.526 92.1361 164.082 91.8187 163.522C91.5014 162.953 91.3427 162.304 91.3427 161.576C91.3427 160.839 91.5014 160.19 91.8187 159.63C92.1361 159.07 92.5701 158.632 93.1207 158.314C93.6807 157.997 94.3107 157.838 95.0107 157.838C95.7107 157.838 96.3361 157.997 96.8867 158.314C97.4374 158.632 97.8714 159.07 98.1887 159.63C98.5061 160.19 98.6647 160.839 98.6647 161.576C98.6647 162.304 98.5061 162.953 98.1887 163.522C97.8714 164.082 97.4374 164.526 96.8867 164.852C96.3361 165.17 95.7107 165.328 95.0107 165.328ZM95.0107 164.46C95.5241 164.46 95.9814 164.339 96.3827 164.096C96.7841 163.854 97.1014 163.518 97.3347 163.088C97.5681 162.65 97.6847 162.146 97.6847 161.576C97.6847 160.998 97.5681 160.494 97.3347 160.064C97.1014 159.635 96.7841 159.304 96.3827 159.07C95.9814 158.828 95.5241 158.706 95.0107 158.706C94.5067 158.706 94.0494 158.828 93.6387 159.07C93.2374 159.304 92.9201 159.635 92.6867 160.064C92.4534 160.494 92.3367 160.998 92.3367 161.576C92.3367 162.146 92.4534 162.65 92.6867 163.088C92.9201 163.518 93.2374 163.854 93.6387 164.096C94.0494 164.339 94.5067 164.46 95.0107 164.46ZM104.46 165.258V157.908H107.708C108.539 157.908 109.192 158.067 109.668 158.384C110.153 158.702 110.396 159.168 110.396 159.784C110.396 160.382 110.167 160.844 109.71 161.17C109.253 161.488 108.651 161.646 107.904 161.646L108.1 161.352C108.977 161.352 109.621 161.516 110.032 161.842C110.443 162.169 110.648 162.64 110.648 163.256C110.648 163.891 110.415 164.386 109.948 164.74C109.491 165.086 108.777 165.258 107.806 165.258H104.46ZM105.426 164.474H107.764C108.389 164.474 108.861 164.376 109.178 164.18C109.505 163.975 109.668 163.648 109.668 163.2C109.668 162.752 109.523 162.426 109.234 162.22C108.945 162.015 108.487 161.912 107.862 161.912H105.426V164.474ZM105.426 161.17H107.638C108.207 161.17 108.641 161.063 108.94 160.848C109.248 160.634 109.402 160.321 109.402 159.91C109.402 159.5 109.248 159.192 108.94 158.986C108.641 158.781 108.207 158.678 107.638 158.678H105.426V161.17ZM117.542 165.258V163.634L117.5 163.368V160.652C117.5 160.027 117.322 159.546 116.968 159.21C116.622 158.874 116.104 158.706 115.414 158.706C114.938 158.706 114.485 158.786 114.056 158.944C113.626 159.103 113.262 159.313 112.964 159.574L112.516 158.832C112.889 158.515 113.337 158.272 113.86 158.104C114.382 157.927 114.933 157.838 115.512 157.838C116.464 157.838 117.196 158.076 117.71 158.552C118.232 159.019 118.494 159.733 118.494 160.694V165.258H117.542ZM115.008 165.328C114.457 165.328 113.976 165.24 113.566 165.062C113.164 164.876 112.856 164.624 112.642 164.306C112.427 163.98 112.32 163.606 112.32 163.186C112.32 162.804 112.408 162.458 112.586 162.15C112.772 161.833 113.071 161.581 113.482 161.394C113.902 161.198 114.462 161.1 115.162 161.1H117.696V161.842H115.19C114.48 161.842 113.986 161.968 113.706 162.22C113.435 162.472 113.3 162.785 113.3 163.158C113.3 163.578 113.463 163.914 113.79 164.166C114.116 164.418 114.574 164.544 115.162 164.544C115.722 164.544 116.202 164.418 116.604 164.166C117.014 163.905 117.313 163.532 117.5 163.046L117.724 163.732C117.537 164.218 117.21 164.605 116.744 164.894C116.286 165.184 115.708 165.328 115.008 165.328ZM121.14 165.258V157.908H122.148L125.48 163.55H125.06L128.448 157.908H129.372V165.258H128.462V159.042L128.644 159.126L125.48 164.362H125.032L121.84 159.07L122.05 159.028V165.258H121.14ZM31.4249 182.258V174.908H34.6729C35.5036 174.908 36.1569 175.067 36.6329 175.384C37.1182 175.702 37.3609 176.168 37.3609 176.784C37.3609 177.382 37.1322 177.844 36.6749 178.17C36.2176 178.488 35.6156 178.646 34.8689 178.646L35.0649 178.352C35.9422 178.352 36.5862 178.516 36.9969 178.842C37.4076 179.169 37.6129 179.64 37.6129 180.256C37.6129 180.891 37.3796 181.386 36.9129 181.74C36.4556 182.086 35.7416 182.258 34.7709 182.258H31.4249ZM32.3909 181.474H34.7289C35.3542 181.474 35.8256 181.376 36.1429 181.18C36.4696 180.975 36.6329 180.648 36.6329 180.2C36.6329 179.752 36.4882 179.426 36.1989 179.22C35.9096 179.015 35.4522 178.912 34.8269 178.912H32.3909V181.474ZM32.3909 178.17H34.6029C35.1722 178.17 35.6062 178.063 35.9049 177.848C36.2129 177.634 36.3669 177.321 36.3669 176.91C36.3669 176.5 36.2129 176.192 35.9049 175.986C35.6062 175.781 35.1722 175.678 34.6029 175.678H32.3909V178.17ZM43.0225 182.328C42.2945 182.328 41.6412 182.17 41.0625 181.852C40.4932 181.526 40.0452 181.082 39.7185 180.522C39.3918 179.953 39.2285 179.304 39.2285 178.576C39.2285 177.839 39.3918 177.19 39.7185 176.63C40.0452 176.07 40.4932 175.632 41.0625 175.314C41.6412 174.997 42.2945 174.838 43.0225 174.838C43.6478 174.838 44.2125 174.96 44.7165 175.202C45.2205 175.445 45.6172 175.809 45.9065 176.294L45.1645 176.798C44.9125 176.425 44.5998 176.15 44.2265 175.972C43.8532 175.795 43.4472 175.706 43.0085 175.706C42.4858 175.706 42.0145 175.828 41.5945 176.07C41.1745 176.304 40.8432 176.635 40.6005 177.064C40.3578 177.494 40.2365 177.998 40.2365 178.576C40.2365 179.155 40.3578 179.659 40.6005 180.088C40.8432 180.518 41.1745 180.854 41.5945 181.096C42.0145 181.33 42.4858 181.446 43.0085 181.446C43.4472 181.446 43.8532 181.358 44.2265 181.18C44.5998 181.003 44.9125 180.732 45.1645 180.368L45.9065 180.872C45.6172 181.348 45.2205 181.712 44.7165 181.964C44.2125 182.207 43.6478 182.328 43.0225 182.328ZM50.8581 182.328C50.0928 182.328 49.4208 182.17 48.8421 181.852C48.2634 181.526 47.8108 181.082 47.4841 180.522C47.1574 179.953 46.9941 179.304 46.9941 178.576C46.9941 177.848 47.1481 177.204 47.4561 176.644C47.7734 176.084 48.2028 175.646 48.7441 175.328C49.2948 175.002 49.9108 174.838 50.5921 174.838C51.2828 174.838 51.8941 174.997 52.4261 175.314C52.9674 175.622 53.3921 176.061 53.7001 176.63C54.0081 177.19 54.1621 177.839 54.1621 178.576C54.1621 178.623 54.1574 178.674 54.1481 178.73C54.1481 178.777 54.1481 178.828 54.1481 178.884H47.7501V178.142H53.6161L53.2241 178.436C53.2241 177.904 53.1074 177.433 52.8741 177.022C52.6501 176.602 52.3421 176.276 51.9501 176.042C51.5581 175.809 51.1054 175.692 50.5921 175.692C50.0881 175.692 49.6354 175.809 49.2341 176.042C48.8328 176.276 48.5201 176.602 48.2961 177.022C48.0721 177.442 47.9601 177.923 47.9601 178.464V178.618C47.9601 179.178 48.0814 179.673 48.3241 180.102C48.5761 180.522 48.9214 180.854 49.3601 181.096C49.8081 181.33 50.3168 181.446 50.8861 181.446C51.3341 181.446 51.7494 181.367 52.1321 181.208C52.5241 181.05 52.8601 180.807 53.1401 180.48L53.7001 181.124C53.3734 181.516 52.9628 181.815 52.4681 182.02C51.9828 182.226 51.4461 182.328 50.8581 182.328ZM56.3624 182.258V174.908H61.5704V175.776H57.1044L57.3564 175.524V182.258H56.3624ZM65.6891 182.328C64.9798 182.328 64.3405 182.17 63.7711 181.852C63.2111 181.526 62.7678 181.082 62.4411 180.522C62.1145 179.953 61.9511 179.304 61.9511 178.576C61.9511 177.839 62.1145 177.19 62.4411 176.63C62.7678 176.07 63.2111 175.632 63.7711 175.314C64.3311 174.997 64.9705 174.838 65.6891 174.838C66.4171 174.838 67.0611 174.997 67.6211 175.314C68.1905 175.632 68.6338 176.07 68.9511 176.63C69.2778 177.19 69.4411 177.839 69.4411 178.576C69.4411 179.304 69.2778 179.953 68.9511 180.522C68.6338 181.082 68.1905 181.526 67.6211 181.852C67.0518 182.17 66.4078 182.328 65.6891 182.328ZM65.6891 181.446C66.2211 181.446 66.6925 181.33 67.1031 181.096C67.5138 180.854 67.8358 180.518 68.0691 180.088C68.3118 179.65 68.4331 179.146 68.4331 178.576C68.4331 177.998 68.3118 177.494 68.0691 177.064C67.8358 176.635 67.5138 176.304 67.1031 176.07C66.6925 175.828 66.2258 175.706 65.7031 175.706C65.1805 175.706 64.7138 175.828 64.3031 176.07C63.8925 176.304 63.5658 176.635 63.3231 177.064C63.0805 177.494 62.9591 177.998 62.9591 178.576C62.9591 179.146 63.0805 179.65 63.3231 180.088C63.5658 180.518 63.8925 180.854 64.3031 181.096C64.7138 181.33 65.1758 181.446 65.6891 181.446ZM74.0256 182.258L77.1336 178.226L77.1196 178.716L74.1656 174.908H75.2856L77.7076 178.058L77.2876 178.044L79.7096 174.908H80.8016L77.8196 178.758L77.8336 178.226L80.9696 182.258H79.8356L77.2736 178.898L77.6656 178.954L75.1456 182.258H74.0256ZM85.363 182.328C84.6536 182.328 84.0143 182.17 83.445 181.852C82.885 181.526 82.4416 181.082 82.115 180.522C81.7883 179.953 81.625 179.304 81.625 178.576C81.625 177.839 81.7883 177.19 82.115 176.63C82.4416 176.07 82.885 175.632 83.445 175.314C84.005 174.997 84.6443 174.838 85.363 174.838C86.091 174.838 86.735 174.997 87.295 175.314C87.8643 175.632 88.3076 176.07 88.625 176.63C88.9516 177.19 89.115 177.839 89.115 178.576C89.115 179.304 88.9516 179.953 88.625 180.522C88.3076 181.082 87.8643 181.526 87.295 181.852C86.7256 182.17 86.0816 182.328 85.363 182.328ZM85.363 181.446C85.895 181.446 86.3663 181.33 86.777 181.096C87.1876 180.854 87.5096 180.518 87.743 180.088C87.9856 179.65 88.107 179.146 88.107 178.576C88.107 177.998 87.9856 177.494 87.743 177.064C87.5096 176.635 87.1876 176.304 86.777 176.07C86.3663 175.828 85.8996 175.706 85.377 175.706C84.8543 175.706 84.3876 175.828 83.977 176.07C83.5663 176.304 83.2396 176.635 82.997 177.064C82.7543 177.494 82.633 177.998 82.633 178.576C82.633 179.146 82.7543 179.65 82.997 180.088C83.2396 180.518 83.5663 180.854 83.977 181.096C84.3876 181.33 84.8496 181.446 85.363 181.446ZM95.0334 182.328C94.3987 182.328 93.8247 182.184 93.3114 181.894C92.798 181.596 92.3874 181.171 92.0794 180.62C91.7807 180.06 91.6314 179.379 91.6314 178.576C91.6314 177.774 91.7807 177.097 92.0794 176.546C92.378 175.986 92.784 175.562 93.2974 175.272C93.8107 174.983 94.3894 174.838 95.0334 174.838C95.7334 174.838 96.3587 174.997 96.9094 175.314C97.4694 175.622 97.908 176.061 98.2254 176.63C98.5427 177.19 98.7014 177.839 98.7014 178.576C98.7014 179.323 98.5427 179.976 98.2254 180.536C97.908 181.096 97.4694 181.535 96.9094 181.852C96.3587 182.17 95.7334 182.328 95.0334 182.328ZM91.2394 184.974V174.908H92.1914V177.12L92.0934 178.59L92.2334 180.074V184.974H91.2394ZM94.9634 181.446C95.486 181.446 95.9527 181.33 96.3634 181.096C96.774 180.854 97.1007 180.518 97.3434 180.088C97.586 179.65 97.7074 179.146 97.7074 178.576C97.7074 178.007 97.586 177.508 97.3434 177.078C97.1007 176.649 96.774 176.313 96.3634 176.07C95.9527 175.828 95.486 175.706 94.9634 175.706C94.4407 175.706 93.9694 175.828 93.5494 176.07C93.1387 176.313 92.812 176.649 92.5694 177.078C92.336 177.508 92.2194 178.007 92.2194 178.576C92.2194 179.146 92.336 179.65 92.5694 180.088C92.812 180.518 93.1387 180.854 93.5494 181.096C93.9694 181.33 94.4407 181.446 94.9634 181.446ZM103.861 182.328C103.152 182.328 102.512 182.17 101.943 181.852C101.383 181.526 100.94 181.082 100.613 180.522C100.286 179.953 100.123 179.304 100.123 178.576C100.123 177.839 100.286 177.19 100.613 176.63C100.94 176.07 101.383 175.632 101.943 175.314C102.503 174.997 103.142 174.838 103.861 174.838C104.589 174.838 105.233 174.997 105.793 175.314C106.362 175.632 106.806 176.07 107.123 176.63C107.45 177.19 107.613 177.839 107.613 178.576C107.613 179.304 107.45 179.953 107.123 180.522C106.806 181.082 106.362 181.526 105.793 181.852C105.224 182.17 104.58 182.328 103.861 182.328ZM103.861 181.446C104.393 181.446 104.864 181.33 105.275 181.096C105.686 180.854 106.008 180.518 106.241 180.088C106.484 179.65 106.605 179.146 106.605 178.576C106.605 177.998 106.484 177.494 106.241 177.064C106.008 176.635 105.686 176.304 105.275 176.07C104.864 175.828 104.398 175.706 103.875 175.706C103.352 175.706 102.886 175.828 102.475 176.07C102.064 176.304 101.738 176.635 101.495 177.064C101.252 177.494 101.131 177.998 101.131 178.576C101.131 179.146 101.252 179.65 101.495 180.088C101.738 180.518 102.064 180.854 102.475 181.096C102.886 181.33 103.348 181.446 103.861 181.446ZM114.567 181.39L114.343 181.656V174.908H115.337V181.656L115.071 181.39H119.173L118.907 181.656V174.908H119.901V182.258H109.737V174.908H110.731V181.656L110.479 181.39H114.567ZM125.876 182.328C125.11 182.328 124.438 182.17 123.86 181.852C123.281 181.526 122.828 181.082 122.502 180.522C122.175 179.953 122.012 179.304 122.012 178.576C122.012 177.848 122.166 177.204 122.474 176.644C122.791 176.084 123.22 175.646 123.762 175.328C124.312 175.002 124.928 174.838 125.61 174.838C126.3 174.838 126.912 174.997 127.444 175.314C127.985 175.622 128.41 176.061 128.718 176.63C129.026 177.19 129.18 177.839 129.18 178.576C129.18 178.623 129.175 178.674 129.166 178.73C129.166 178.777 129.166 178.828 129.166 178.884H122.768V178.142H128.634L128.242 178.436C128.242 177.904 128.125 177.433 127.892 177.022C127.668 176.602 127.36 176.276 126.968 176.042C126.576 175.809 126.123 175.692 125.61 175.692C125.106 175.692 124.653 175.809 124.252 176.042C123.85 176.276 123.538 176.602 123.314 177.022C123.09 177.442 122.978 177.923 122.978 178.464V178.618C122.978 179.178 123.099 179.673 123.342 180.102C123.594 180.522 123.939 180.854 124.378 181.096C124.826 181.33 125.334 181.446 125.904 181.446C126.352 181.446 126.767 181.367 127.15 181.208C127.542 181.05 127.878 180.807 128.158 180.48L128.718 181.124C128.391 181.516 127.98 181.815 127.486 182.02C127 182.226 126.464 182.328 125.876 182.328ZM131.38 182.258V174.908H136.588V175.776H132.122L132.374 175.524V182.258H131.38ZM140.707 182.328C139.997 182.328 139.358 182.17 138.789 181.852C138.229 181.526 137.785 181.082 137.459 180.522C137.132 179.953 136.969 179.304 136.969 178.576C136.969 177.839 137.132 177.19 137.459 176.63C137.785 176.07 138.229 175.632 138.789 175.314C139.349 174.997 139.988 174.838 140.707 174.838C141.435 174.838 142.079 174.997 142.639 175.314C143.208 175.632 143.651 176.07 143.969 176.63C144.295 177.19 144.459 177.839 144.459 178.576C144.459 179.304 144.295 179.953 143.969 180.522C143.651 181.082 143.208 181.526 142.639 181.852C142.069 182.17 141.425 182.328 140.707 182.328ZM140.707 181.446C141.239 181.446 141.71 181.33 142.121 181.096C142.531 180.854 142.853 180.518 143.087 180.088C143.329 179.65 143.451 179.146 143.451 178.576C143.451 177.998 143.329 177.494 143.087 177.064C142.853 176.635 142.531 176.304 142.121 176.07C141.71 175.828 141.243 175.706 140.721 175.706C140.198 175.706 139.731 175.828 139.321 176.07C138.91 176.304 138.583 176.635 138.341 177.064C138.098 177.494 137.977 177.998 137.977 178.576C137.977 179.146 138.098 179.65 138.341 180.088C138.583 180.518 138.91 180.854 139.321 181.096C139.731 181.33 140.193 181.446 140.707 181.446ZM146.597 179.318L146.401 172.458H147.577L147.367 179.318H146.597ZM146.989 182.328C146.784 182.328 146.606 182.258 146.457 182.118C146.317 181.969 146.247 181.796 146.247 181.6C146.247 181.395 146.317 181.227 146.457 181.096C146.606 180.956 146.784 180.886 146.989 180.886C147.204 180.886 147.376 180.956 147.507 181.096C147.647 181.227 147.717 181.395 147.717 181.6C147.717 181.796 147.647 181.969 147.507 182.118C147.376 182.258 147.204 182.328 146.989 182.328Z" fill="white"/>
<path d="M23.4519 81.3188C22.6839 81.6868 21.7399 81.8948 20.7799 81.8948C17.9799 81.8948 14.9239 80.1988 14.9239 76.0708C14.9239 71.8788 18.0439 70.2788 20.8279 70.2788C21.7879 70.2788 22.7159 70.4708 23.4519 70.8068C23.8839 71.0148 24.0919 71.3828 24.0919 71.7668C24.0919 72.2628 23.7399 72.7428 23.1479 72.7428C23.0359 72.7428 22.9079 72.7268 22.7639 72.6788C22.1719 72.4868 21.5319 72.3908 20.9079 72.3908C19.0039 72.3908 17.2439 73.3828 17.2439 76.0708C17.2439 78.7108 19.0039 79.7668 20.9399 79.7668C21.5479 79.7668 22.1559 79.6708 22.7479 79.4788C22.8919 79.4308 23.0199 79.4148 23.1479 79.4148C23.7239 79.4148 24.0599 79.8788 24.0599 80.3748C24.0599 80.7428 23.8839 81.1108 23.4519 81.3188ZM29.1382 80.6948V71.4468C29.1382 70.6788 29.7302 70.2948 30.3062 70.2948C30.8822 70.2948 31.4582 70.6788 31.4582 71.4468V75.0948H36.3542V71.4468C36.3542 70.6788 36.9462 70.2948 37.5062 70.2948C38.0982 70.2948 38.6742 70.6788 38.6742 71.4468V80.6948C38.6742 81.4468 38.0982 81.8308 37.5062 81.8308C36.9462 81.8308 36.3542 81.4468 36.3542 80.6948V77.1428H31.4582V80.6948C31.4582 81.4468 30.8822 81.8308 30.3062 81.8308C29.7302 81.8308 29.1382 81.4468 29.1382 80.6948ZM46.1694 81.9108C42.8254 81.9108 40.3614 79.4468 40.3614 76.0708C40.3614 72.6948 42.8254 70.2308 46.1694 70.2308C49.5294 70.2308 51.9774 72.7108 51.9774 76.0708C51.9774 79.4308 49.5294 81.9108 46.1694 81.9108ZM46.1694 79.7348C48.2174 79.7348 49.6574 78.0868 49.6574 76.0708C49.6574 74.0548 48.2174 72.4068 46.1694 72.4068C44.1214 72.4068 42.6814 74.0548 42.6814 76.0708C42.6814 78.0868 44.1214 79.7348 46.1694 79.7348ZM58.3102 81.7508H54.8542C54.0702 81.7508 53.6382 81.3188 53.6382 80.5348V71.6068C53.6382 70.8228 54.0702 70.3908 54.8542 70.3908H58.0062C60.4382 70.3908 61.8142 71.3988 61.8142 73.2228C61.8142 74.6148 61.1262 75.3348 60.3422 75.5908C61.5902 75.8148 62.4542 76.9348 62.4542 78.3428C62.4542 80.2948 61.0462 81.7508 58.3102 81.7508ZM55.9582 72.3748V74.9988H58.0062C58.9022 74.9988 59.4782 74.5668 59.4782 73.6868C59.4782 72.8228 58.8862 72.3748 58.0062 72.3748H55.9582ZM55.9582 76.7588V79.7668H58.3102C59.4142 79.7668 60.1182 79.1908 60.1182 78.2948C60.1182 77.3508 59.4302 76.7588 58.3262 76.7588H55.9582ZM68.6834 81.7508H65.4674C64.5874 81.7508 64.0914 81.2708 64.0914 80.3748V71.4148C64.0914 70.7748 64.6194 70.2468 65.2594 70.2468C65.8834 70.2468 66.4114 70.7748 66.4114 71.4148V73.9748H68.5394C71.0834 73.9748 72.8914 75.5108 72.8914 77.9268C72.8914 80.3908 71.0834 81.7508 68.6834 81.7508ZM74.3314 80.6948V71.4468C74.3314 70.6788 74.9234 70.2948 75.4994 70.2948C76.0754 70.2948 76.6514 70.6788 76.6514 71.4468V80.6948C76.6514 81.4628 76.0754 81.8468 75.4994 81.8468C74.9234 81.8468 74.3314 81.4628 74.3314 80.6948ZM66.4114 76.1028V79.6388H68.6834C69.7554 79.6388 70.5714 78.9988 70.5714 77.8628C70.5714 76.7268 69.7554 76.1028 68.6834 76.1028H66.4114ZM88.9861 70.2788C89.7701 70.2788 90.3941 70.9188 90.3941 71.6868V80.6948C90.3941 81.3348 89.8661 81.8628 89.2261 81.8628C88.5861 81.8628 88.0741 81.3348 88.0741 80.6948C88.0741 76.5028 88.0901 74.8868 88.1861 74.0388L85.3861 77.9268C85.1461 78.2628 84.8581 78.4228 84.5861 78.4228C84.2981 78.4228 84.0261 78.2628 83.7861 77.9268L81.0181 74.0388C81.1141 74.8708 81.1301 76.4548 81.1301 80.6948C81.1301 81.3348 80.6181 81.8628 79.9781 81.8628C79.3381 81.8628 78.8101 81.3348 78.8101 80.6948V71.6868C78.8101 70.9188 79.4341 70.2788 80.2181 70.2788C80.6501 70.2788 81.0661 70.4708 81.3381 70.8388L84.6021 75.3828L87.8661 70.8388C88.1381 70.4708 88.5541 70.2788 88.9861 70.2788ZM95.8882 80.6948V71.5748C95.8882 70.8068 96.3202 70.3908 97.0722 70.3908H101.888C102.448 70.3908 102.928 70.8548 102.928 71.4468C102.928 72.0228 102.448 72.4868 101.888 72.4868H98.2082V80.6948C98.2082 81.3348 97.6962 81.8628 97.0562 81.8628C96.4162 81.8628 95.8882 81.3348 95.8882 80.6948ZM108.701 81.9108C105.357 81.9108 102.893 79.4468 102.893 76.0708C102.893 72.6948 105.357 70.2308 108.701 70.2308C112.061 70.2308 114.509 72.7108 114.509 76.0708C114.509 79.4308 112.061 81.9108 108.701 81.9108ZM108.701 79.7348C110.749 79.7348 112.189 78.0868 112.189 76.0708C112.189 74.0548 110.749 72.4068 108.701 72.4068C106.653 72.4068 105.213 74.0548 105.213 76.0708C105.213 78.0868 106.653 79.7348 108.701 79.7348ZM116.153 84.7108C115.593 84.7108 115.129 84.2308 115.129 83.6708V80.4388C115.129 79.8628 115.545 79.5428 116.009 79.5428H116.121C116.569 79.5428 116.809 79.1908 116.953 77.5588L117.513 71.5588C117.577 70.8228 117.945 70.3908 118.729 70.3908H124.185C124.953 70.3908 125.369 70.8228 125.369 71.5748V79.6548H125.657C126.345 79.6548 126.745 80.0708 126.745 80.8388V83.6708C126.745 84.2308 126.265 84.7108 125.705 84.7108C125.145 84.7108 124.681 84.2308 124.681 83.6708V81.7508H117.177V83.6708C117.177 84.2308 116.713 84.7108 116.153 84.7108ZM118.713 79.6548H123.049V72.4868H119.737L119.273 77.4148C119.145 78.7588 118.841 79.6068 118.713 79.6548ZM133.732 81.9108C130.388 81.9108 127.924 79.4468 127.924 76.0708C127.924 72.6948 130.388 70.2308 133.732 70.2308C137.092 70.2308 139.54 72.7108 139.54 76.0708C139.54 79.4308 137.092 81.9108 133.732 81.9108ZM133.732 79.7348C135.78 79.7348 137.22 78.0868 137.22 76.0708C137.22 74.0548 135.78 72.4068 133.732 72.4068C131.684 72.4068 130.244 74.0548 130.244 76.0708C130.244 78.0868 131.684 79.7348 133.732 79.7348ZM151.377 70.2788C152.161 70.2788 152.785 70.9188 152.785 71.6868V80.6948C152.785 81.3348 152.257 81.8628 151.617 81.8628C150.977 81.8628 150.465 81.3348 150.465 80.6948C150.465 76.5028 150.481 74.8868 150.577 74.0388L147.777 77.9268C147.537 78.2628 147.249 78.4228 146.977 78.4228C146.689 78.4228 146.417 78.2628 146.177 77.9268L143.409 74.0388C143.505 74.8708 143.521 76.4548 143.521 80.6948C143.521 81.3348 143.009 81.8628 142.369 81.8628C141.729 81.8628 141.201 81.3348 141.201 80.6948V71.6868C141.201 70.9188 141.825 70.2788 142.609 70.2788C143.041 70.2788 143.457 70.4708 143.729 70.8388L146.993 75.3828L150.257 70.8388C150.529 70.4708 150.945 70.2788 151.377 70.2788ZM156.039 78.6628C155.479 78.6628 155.015 78.2308 154.999 77.6388L154.903 71.4308C154.887 70.8388 155.399 70.2468 156.039 70.2468C156.695 70.2468 157.191 70.8388 157.175 71.4308L157.079 77.6388C157.063 78.2468 156.583 78.6628 156.039 78.6628ZM156.055 81.9108C155.367 81.9108 154.823 81.3668 154.823 80.6788C154.823 80.0068 155.383 79.4628 156.055 79.4628C156.727 79.4628 157.271 80.0068 157.271 80.6788C157.271 81.3668 156.727 81.9108 156.055 81.9108Z" fill="white"/>
</svg>
